<?xml version="1.0" encoding="UTF-8" standalone="no"?>
<!-- Created with Inkscape (http://www.inkscape.org/) -->

<svg
   xmlns:dc="http://purl.org/dc/elements/1.1/"
   xmlns:cc="http://creativecommons.org/ns#"
   xmlns:rdf="http://www.w3.org/1999/02/22-rdf-syntax-ns#"
   xmlns:svg="http://www.w3.org/2000/svg"
   xmlns="http://www.w3.org/2000/svg"
   xmlns:sodipodi="http://sodipodi.sourceforge.net/DTD/sodipodi-0.dtd"
   xmlns:inkscape="http://www.inkscape.org/namespaces/inkscape"
   width="52.812965mm"
   height="11.04904mm"
   viewBox="0 0 52.812965 11.04904"
   version="1.1"
   id="svg5541"
   inkscape:version="0.92.3 (2405546, 2018-03-11)"
   sodipodi:docname="AFM_telethon.svg">
  <defs
     id="defs5535" />
  <sodipodi:namedview
     id="base"
     pagecolor="#ffffff"
     bordercolor="#666666"
     borderopacity="1.0"
     inkscape:pageopacity="0.0"
     inkscape:pageshadow="2"
     inkscape:zoom="0.35"
     inkscape:cx="-418.7674"
     inkscape:cy="-293.40562"
     inkscape:document-units="mm"
     inkscape:current-layer="layer1"
     showgrid="false"
     inkscape:window-width="1600"
     inkscape:window-height="870"
     inkscape:window-x="1600"
     inkscape:window-y="0"
     inkscape:window-maximized="1" />
  <metadata
     id="metadata5538">
    <rdf:RDF>
      <cc:Work
         rdf:about="">
        <dc:format>image/svg+xml</dc:format>
        <dc:type
           rdf:resource="http://purl.org/dc/dcmitype/StillImage" />
        <dc:title></dc:title>
      </cc:Work>
    </rdf:RDF>
  </metadata>
  <g
     inkscape:label="Calque 1"
     inkscape:groupmode="layer"
     id="layer1"
     transform="translate(-39.361374,-60.154055)">
    <g
       id="g71411"
       transform="matrix(0.35277777,0,0,-0.35277777,11.557455,941.82647)"
       inkscape:export-filename="/home/sandrine/Documents/TAF FIGLI/APF_site/EXE/ACCUEIL/AFM_telethon.png"
       inkscape:export-xdpi="300"
       inkscape:export-ydpi="300">
      <path
         inkscape:connector-curvature="0"
         d="m 213.7403,2490.5142 c -0.19816,-0.093 -0.51374,-0.1924 -0.85457,-0.2937 0.0947,-0.01 0.18937,-0.015 0.28274,-0.025 0.12371,-0.01 0.24113,-0.019 0.35096,-0.028 0.43799,0.091 0.8899,0.1574 1.38982,0.2086 0,0 0.0858,0.01 0.0858,0.01 -0.008,0 -0.0896,-0.027 -0.0896,-0.025 -0.47337,-0.091 -0.85083,-0.1475 -1.20553,-0.2062 0.0997,-0.01 0.19442,-0.014 0.28149,-0.02 0.28779,0.034 0.58446,0.056 0.90004,0.069 0,0 0.10479,0 0.10479,0 -0.0101,0 -0.10734,-0.017 -0.10734,-0.016 -0.23349,-0.028 -0.44682,-0.05 -0.64753,-0.073 1.41123,-0.095 1.07295,-0.04 3.02701,-0.4311 -0.86341,0.1012 -1.52106,0.2287 -2.4186,0.2512 -0.19567,0 -0.38375,0 -0.56679,-0.01 1.22824,-0.091 2.42369,-0.4899 3.42088,-1.2858 0.21967,-0.1712 0.41913,-0.3624 0.60212,-0.5699 l 0.0152,0.014 c -0.18808,0.1987 -0.39133,0.3849 -0.61729,0.5561 0.19567,-0.1575 0.39638,-0.3524 0.59329,-0.5786 l -0.0113,-0.011 0.0303,-0.031 c 0.0467,-0.048 0.0921,-0.096 0.13758,-0.1437 0.96945,-1.2021 1.84553,-3.1489 1.95157,-5.192 -0.178,1.1146 -0.486,2.0355 -1.08562,3.029 -0.42666,0.7097 -0.97199,1.5595 -1.69277,2.0106 l 0.029,0.029 -0.0303,0.031 c -0.7372,0.7635 -1.5539,1.1709 -2.57639,1.4396 -0.5087,0.1337 -0.98083,0.2037 -1.45295,0.2211 0.37871,-0.01 0.76245,-0.046 1.17145,-0.1137 l 0.0429,-0.01 0.0152,0.086 -0.0429,0.01 c -0.22221,0.04 -0.43554,0.071 -0.64633,0.094 l 0.004,0.087 h -0.0202 l 0.001,0.062 h -0.0442 c -0.56425,0.01 -1.08432,-0.025 -1.61828,-0.1162 -0.17545,-0.023 -0.34966,-0.05 -0.52766,-0.085 -1.03636,-0.2049 -1.87706,-0.5136 -2.76193,-1.0609 -0.0404,-0.024 -0.0808,-0.047 -0.12121,-0.072 -0.87603,-0.5423 -1.53749,-1.1209 -2.04115,-2.0356 -0.0795,-0.1449 -0.14896,-0.2936 -0.20955,-0.4461 0.0391,0.2624 0.0959,0.5211 0.18304,0.7748 0.39006,0.9134 0.92654,1.6282 1.69276,2.2642 0.0341,0.028 0.18053,0.1537 0.0745,-0.1062 0,0 -0.0669,-0.094 -0.0707,-0.09 -0.53648,-0.6722 -0.948,-1.0921 -1.33426,-1.7981 0.50492,0.7785 1.3027,1.467 2.26078,1.9918 0.29163,0.195 0.59838,0.3774 0.77004,0.4174 -0.0315,-0.021 -0.0846,-0.057 -0.082,-0.08 0.11992,0.053 0.24237,0.1025 0.36478,0.1487 0.22721,0.12 0.46075,0.2299 0.70567,0.3362 -0.0177,0.015 -0.0455,0.03 -0.0858,0.042 -0.0177,0.1463 0.25115,0.2812 0.35091,0.3274 0.35849,0.1387 0.74094,0.17 1.12095,0.155 0.32441,0.1025 0.65261,0.1949 1.00223,0.2849 z m 4.82333,-2.7678 c 0.33579,-0.4387 0.61474,-0.9235 0.86974,-1.4046 0.59832,-1.2508 0.86719,-2.2743 0.98082,-3.4739 0.009,-0.1449 0.0152,-0.2849 0.0177,-0.4236 0.024,-0.1712 0.0417,-0.3424 0.0517,-0.5148 0.008,-0.1275 0.0114,-0.2512 0.0139,-0.3724 0.0353,0.4136 0.034,0.846 0.004,1.3171 -0.0378,0.3911 -0.0909,0.7548 -0.16283,1.1059 l -0.0795,0.2924 c -0.0366,0.1387 -0.0985,0.3336 -0.11742,0.4811 -0.16159,0.5335 -0.37616,1.0559 -0.65517,1.6132 -0.0681,0.1262 -0.13628,0.2512 -0.20699,0.3736 -0.22092,0.3187 -0.44053,0.6373 -0.51,0.7735 -0.0669,0.079 -0.13633,0.1562 -0.20574,0.2325 z m 1.76598,-6.7503 c -0.11108,-0.6173 -0.31683,-1.2147 -0.64504,-1.8695 -0.0631,-0.1124 -0.12749,-0.2224 -0.19312,-0.3273 -0.0517,-0.1525 -0.10858,-0.2975 -0.17171,-0.4374 0.15779,0.2224 0.30805,0.4599 0.45321,0.7198 0.18174,0.3636 0.32566,0.7098 0.43799,1.0521 0.0631,0.2862 0.101,0.5711 0.11867,0.8623 z m -1.22824,-2.7617 c -0.49862,-0.6522 -1.0679,-1.1508 -1.75715,-1.5944 -0.12241,-0.1025 -0.24866,-0.2012 -0.37866,-0.2949 -0.10983,-0.086 -0.22346,-0.1687 -0.33958,-0.2487 0.81545,0.4386 1.48194,0.9009 2.05631,1.4945 0.15146,0.1999 0.29158,0.4136 0.41908,0.6435 z m -1.70914,-1.5544 c 0.74349,0.5023 1.32539,1.0671 1.77227,1.6719 0.10225,0.1949 0.19691,0.4024 0.28274,0.6223 l 0.0278,0.071 c 0.11737,0.3887 0.23728,0.7773 0.31807,1.1759 0.0581,0.3637 0.0783,0.731 0.077,1.0996 v 0.043 h 0.0833 l 0.005,-0.041 c 0.0429,-0.3699 -0.004,-0.7585 -0.0783,-1.1221 -0.0467,-0.2975 -0.11991,-0.5873 -0.21208,-0.8747 -0.0341,-0.105 -0.0694,-0.21 -0.10854,-0.3137 l -0.0228,-0.074 c -0.006,-0.019 -0.0113,-0.039 -0.0177,-0.058 0.44942,0.761 0.70816,1.5707 0.82054,2.3904 0.005,0.3687 -0.0215,0.7498 -0.0733,1.1597 -0.1527,1.1958 -0.47337,2.1643 -1.07928,3.2114 -0.24612,0.4274 -0.51119,0.886 -0.86595,1.2359 -0.10599,0.1049 -0.21712,0.2049 -0.32566,0.3086 -0.16537,0.1575 -0.32187,0.3212 -0.47462,0.4899 l -0.2007,0.2199 0.11612,-0.07 c -0.0366,0.035 -0.0745,0.069 -0.11233,0.1012 l -0.0429,-0.052 -0.0669,0.055 c -0.68042,0.5524 -1.36961,0.8485 -2.22169,1.0484 -0.42921,0.1 -0.82932,0.155 -1.22569,0.1725 v 0 c 0.32062,-0.017 0.64378,-0.06 0.97952,-0.1274 l 0.0429,-0.01 -0.0177,-0.086 -0.0429,0.01 c -0.92653,0.1862 -1.7584,0.1674 -2.68493,0.011 -0.96191,-0.1624 -1.74328,-0.4336 -2.56881,-0.9072 -0.0568,-0.034 -0.11362,-0.069 -0.17041,-0.1037 -0.81169,-0.5086 -1.4075,-1.0247 -1.86825,-1.8719 -0.66776,-1.2309 -0.49735,-3.1902 -0.67281,-4.576 -0.0757,-0.6011 -0.17672,-1.1234 -0.4052,-1.6382 -0.077,-0.18 -0.16915,-0.3574 -0.2815,-0.5386 -0.20702,-0.3349 -0.42414,-0.5698 -0.73972,-0.8072 -0.37238,-0.28 -0.72583,-0.4324 -1.16764,-0.5724 -0.0732,-0.024 -0.12623,-0.051 -0.18304,-0.1036 -0.0581,-0.051 -0.0934,-0.1025 -0.12118,-0.1725 -0.029,-0.071 -0.0379,-0.1287 -0.0341,-0.2049 0.005,-0.076 0.0215,-0.135 0.0593,-0.2013 0.0202,-0.035 0.0404,-0.07 0.0618,-0.1024 0.2512,-0.2299 0.58319,-0.4548 0.97829,-0.6673 0.1376,-0.076 0.28024,-0.1474 0.42919,-0.2199 1.08812,-0.5036 2.09797,-0.7872 3.27445,-1.0147 2.12071,-0.3586 4.06085,-0.4199 6.0238,0.105 0.56424,0.1987 1.11965,0.4573 1.66622,0.7872 1.28633,0.7773 2.1914,1.617 2.69381,3.054 l 0.0151,0.043 c 0.10225,0.4311 0.22092,0.8748 0.27646,1.3133 0.0429,0.5124 0.001,0.9847 -0.0694,1.4921 l -0.006,0.043 0.0858,0.014 0.008,-0.043 c 0.0972,-0.5148 0.13758,-0.9934 0.0707,-1.5145 -0.006,-0.079 -0.0164,-0.1575 -0.0252,-0.2362 -0.0429,-0.3786 -0.13005,-0.7335 -0.255,-1.0934 l -0.0101,-0.044 c -0.0215,-0.09 -0.0455,-0.1787 -0.0732,-0.2637 l 0.0416,-0.02 -0.0177,-0.039 c -0.0934,-0.2125 -0.19566,-0.4136 -0.31054,-0.6048 -0.22845,-0.4098 -0.52891,-0.7597 -0.87857,-1.1009 -0.15145,-0.1649 -0.31049,-0.3161 -0.47711,-0.4598 z m -3.8463,12.5834 c 0.44812,-0.01 0.89749,-0.061 1.38099,-0.1737 -0.4835,0.1074 -0.93287,0.1587 -1.38099,0.1624 z"
         style="fill:#feca00;fill-opacity:1;fill-rule:evenodd;stroke:none;stroke-width:0.496499"
         id="path18240" />
      <path
         inkscape:connector-curvature="0"
         d="m 228.00881,2489.502 c -0.19317,0.3736 -0.534,0.641 -0.99724,0.6085 -1.72308,-0.1212 -4.50775,-1.8269 -5.31563,-3.5401 -0.42035,-0.8922 0.003,-1.4833 0.91518,-1.4182 0.87353,0.064 2.39461,0.6897 3.35271,0.9296 2.0879,0.5224 3.30601,0.9785 2.04498,3.4202 z"
         style="fill:#94c118;fill-opacity:1;fill-rule:evenodd;stroke:none;stroke-width:0.496499"
         id="path18248" />
      <path
         inkscape:connector-curvature="0"
         d="m 202.0211,2492.4283 c 1.28125,-1.2546 3.08258,-3.0378 4.99245,-3.114 0.48854,-0.019 -0.0896,0.9909 -0.76874,2.7354 -0.57688,1.482 -0.68165,2.2417 -1.74326,3.4863 -1.24717,1.4608 -2.29363,0.5049 -2.89702,-0.9322 -0.2411,-0.576 -0.0353,-1.7332 0.41657,-2.1755 z"
         style="fill:#00505a;fill-opacity:1;fill-rule:evenodd;stroke:none;stroke-width:0.496499"
         id="path18256" />
      <path
         inkscape:connector-curvature="0"
         d="m 206.91775,2471.4142 c 0.18938,1.2959 0.36862,3.1378 -1.79879,3.7376 -0.51124,0.1424 -1.09064,-0.8897 -1.28252,-1.1684 -0.50366,-0.736 -1.08054,-1.4883 -1.58799,-2.2155 -0.34966,-0.4999 -1.3267,-2.2343 -0.71573,-2.8128 0.67408,-0.6386 3.50166,0.7172 4.05203,1.0821 0.40016,0.2662 1.26738,0.9372 1.333,1.377 z"
         style="fill:#a30054;fill-opacity:1;fill-rule:evenodd;stroke:none;stroke-width:0.496499"
         id="path18264" />
      <path
         inkscape:connector-curvature="0"
         d="m 220.81336,2470.5302 c -0.0896,0.7285 -1.04017,3.6738 -1.49082,3.98 -0.96062,0.6535 -3.80715,-0.2512 -3.64052,-0.8048 0.66271,-2.1855 5.94045,-9.7331 5.13134,-3.1752 z"
         style="fill:#ec6200;fill-opacity:1;fill-rule:evenodd;stroke:none;stroke-width:0.496499"
         id="path18272" />
      <path
         inkscape:connector-curvature="0"
         d="m 215.51198,2491.2435 c 0.87731,-0.1275 2.72661,4.3685 2.84905,5.2695 0.21081,1.562 -1.25096,2.6279 -3.06238,2.7153 -1.71801,0.082 -2.03864,-7.6562 0.21333,-7.9848 z"
         style="fill:#00b2b9;fill-opacity:1;fill-rule:evenodd;stroke:none;stroke-width:0.496499"
         id="path18280" />
      <path
         inkscape:connector-curvature="0"
         d="m 133.10696,2475.4566 h 0.7738 0.16157 c 0.0202,0 0.0366,-0.01 0.048,-0.019 0.0114,-0.013 0.0164,-0.029 0.0164,-0.046 v -0.766 c 0,-0.017 -0.005,-0.032 -0.0164,-0.045 -0.0114,-0.012 -0.0278,-0.019 -0.048,-0.019 h -0.0959 v -2.0031 h 0.0959 c 0.0202,0 0.0366,-0.01 0.048,-0.019 0.0114,-0.012 0.0164,-0.029 0.0164,-0.046 v -0.766 c 0,-0.017 -0.005,-0.034 -0.0164,-0.046 -0.0114,-0.012 -0.0278,-0.019 -0.048,-0.019 h -0.16157 -0.7738 -0.16032 c -0.0177,0 -0.0341,0.01 -0.0467,0.019 -0.0126,0.014 -0.0189,0.029 -0.0189,0.046 v 0.766 c 0,0.017 0.006,0.034 0.0189,0.046 0.0126,0.012 0.0278,0.019 0.0467,0.019 h 0.0959 v 2.0031 h -0.0959 c -0.0177,0 -0.0341,0.01 -0.0467,0.019 -0.0126,0.013 -0.0189,0.028 -0.0189,0.045 v 0.766 c 0,0.019 0.006,0.034 0.0189,0.046 0.0126,0.012 0.0278,0.019 0.0467,0.019 z m 1.46049,-3.7288 v 0.3836 2.8978 0.3824 c 0,0.019 0.006,0.034 0.0189,0.046 0.0126,0.012 0.0278,0.019 0.0454,0.019 h 0.38754 0.36354 0.19187 c 0.0252,0 0.0442,-0.01 0.0543,-0.026 l 0.11487,-0.1524 1.75084,-2.3093 v 2.0406 0.3824 c 0,0.019 0.006,0.034 0.0189,0.046 0.0126,0.012 0.029,0.019 0.0467,0.019 h 0.77378 c 0.0177,0 0.0328,-0.01 0.0455,-0.019 0.0126,-0.013 0.0202,-0.029 0.0202,-0.046 v -0.3824 -2.8978 -0.3836 c 0,-0.017 -0.008,-0.034 -0.0202,-0.046 -0.0126,-0.012 -0.0278,-0.019 -0.0455,-0.019 h -0.38754 -0.36352 -0.19187 -0.004 c -0.0227,0 -0.0391,0.01 -0.0492,0.026 l -0.11487,0.1524 -1.7521,2.3105 v -2.0406 -0.3836 c 0,-0.017 -0.006,-0.033 -0.0189,-0.046 -0.0126,-0.012 -0.029,-0.019 -0.0467,-0.019 h -0.7738 c -0.0177,0 -0.0328,0.01 -0.0454,0.019 -0.0126,0.014 -0.0189,0.029 -0.0189,0.046 z m 4.29186,0 v 0.3836 2.8978 0.3824 c 0,0.019 0.006,0.034 0.019,0.046 0.0126,0.012 0.0278,0.019 0.0455,0.019 h 0.38749 0.36484 0.19062 c 0.0252,0 0.0442,-0.01 0.0542,-0.026 l 0.11488,-0.1524 1.75086,-2.3093 v 2.0406 0.3824 c 0,0.019 0.006,0.034 0.0189,0.046 0.0139,0.012 0.0291,0.019 0.0467,0.019 h 0.77378 c 0.0177,0 0.0328,-0.01 0.0455,-0.019 0.0126,-0.013 0.0202,-0.029 0.0202,-0.046 v -0.3824 -2.8978 -0.3836 c 0,-0.017 -0.008,-0.034 -0.0202,-0.046 -0.0126,-0.012 -0.0277,-0.019 -0.0455,-0.019 h -0.38749 -0.36358 -0.19188 -0.004 c -0.0227,0 -0.0391,0.01 -0.0492,0.026 l -0.11488,0.1524 -1.75211,2.3105 v -2.0406 -0.3836 c 0,-0.017 -0.006,-0.033 -0.0189,-0.046 -0.0126,-0.012 -0.029,-0.019 -0.0455,-0.019 h -0.77503 c -0.0177,0 -0.0328,0.01 -0.0455,0.019 -0.0126,0.014 -0.019,0.029 -0.019,0.046 z m 6.30402,2.9328 c -0.14641,0 -0.28654,-0.029 -0.42162,-0.084 -0.0669,-0.029 -0.13,-0.061 -0.18933,-0.1012 -0.0606,-0.039 -0.11612,-0.084 -0.16787,-0.1338 -0.0985,-0.099 -0.178,-0.2149 -0.23479,-0.3461 -0.0581,-0.1312 -0.0871,-0.2724 -0.0871,-0.4249 0,-0.1412 0.029,-0.2786 0.0846,-0.4136 0.0278,-0.065 0.0619,-0.1274 0.10101,-0.1874 0.0404,-0.059 0.0858,-0.1137 0.13633,-0.165 0.0997,-0.099 0.21712,-0.1761 0.34966,-0.2336 0.13254,-0.056 0.27516,-0.085 0.42916,-0.085 v -0.8985 c -0.13883,0 -0.27137,0.013 -0.39887,0.038 -0.1275,0.025 -0.2512,0.062 -0.37112,0.11 -0.24871,0.099 -0.46578,0.2424 -0.65262,0.4324 -0.18304,0.1799 -0.3282,0.3898 -0.433,0.6297 -0.10349,0.24 -0.15649,0.4986 -0.15649,0.7735 0,0.2687 0.0505,0.5224 0.1527,0.7623 0.0998,0.2462 0.24492,0.4611 0.43679,0.646 0.18429,0.1812 0.39762,0.3249 0.64,0.4287 0.24237,0.1024 0.50366,0.1549 0.78261,0.1549 z m 0.70437,-1.9194 c 0.0316,0.028 0.0593,0.055 0.0871,0.082 0.0265,0.028 0.0517,0.057 0.0782,0.088 0.0227,0.034 0.0442,0.066 0.0644,0.099 0.0202,0.032 0.0404,0.068 0.0581,0.1024 0.0353,0.076 0.0618,0.15 0.077,0.2237 0.0177,0.071 0.0265,0.1487 0.0265,0.2349 0,0.145 -0.0277,0.2837 -0.0846,0.4174 -0.0277,0.066 -0.0618,0.1287 -0.10095,0.1875 -0.0404,0.06 -0.0859,0.1149 -0.13633,0.1661 -0.0998,0.098 -0.21588,0.1762 -0.34717,0.2325 -0.13129,0.057 -0.27391,0.086 -0.42666,0.086 v 0.9022 c 0.26762,0 0.52387,-0.05 0.76624,-0.1512 0.24487,-0.099 0.46324,-0.2437 0.65512,-0.4324 0.18179,-0.1824 0.32441,-0.3936 0.42921,-0.6335 0.10479,-0.2399 0.15779,-0.4986 0.15779,-0.7748 0,-0.1462 -0.0164,-0.2886 -0.0467,-0.4286 -0.0177,-0.07 -0.0379,-0.1399 -0.0606,-0.2086 -0.024,-0.068 -0.0505,-0.135 -0.0808,-0.2012 -0.0619,-0.1287 -0.13758,-0.2524 -0.2272,-0.3712 -0.001,0 -0.003,0 -0.003,0 -0.0467,-0.054 -0.0947,-0.1062 -0.14262,-0.16 -0.048,-0.052 -0.10101,-0.1024 -0.15655,-0.1474 -0.0467,-0.037 -0.0934,-0.074 -0.14012,-0.1062 -0.048,-0.032 -0.0959,-0.065 -0.14771,-0.095 -0.10729,-0.058 -0.21333,-0.1062 -0.31808,-0.1437 -0.0555,-0.02 -0.11233,-0.037 -0.16787,-0.051 -0.0568,-0.014 -0.11487,-0.026 -0.17296,-0.036 -0.0581,-0.01 -0.11612,-0.017 -0.17296,-0.023 -0.0555,-0.01 -0.11357,-0.01 -0.17166,-0.01 v 0.8985 c 0.0328,0 0.0657,0 0.0972,0.01 0.0315,0 0.0631,0.01 0.0934,0.013 0.0315,0.01 0.0618,0.011 0.0921,0.02 0.0303,0.01 0.0619,0.016 0.0922,0.026 0.0568,0.023 0.11363,0.049 0.17296,0.079 0.0277,0.019 0.0542,0.036 0.0808,0.054 0.0252,0.017 0.0505,0.036 0.0757,0.057 z m 2.4186,2.6667 0.73974,-2.5767 0.74349,2.5804 0.0618,-0.02 -0.0618,0.02 c 0.008,0.03 0.0278,0.045 0.0618,0.045 h 0.80412 c 0.0202,0 0.0366,-0.01 0.048,-0.019 0.0114,-0.013 0.0177,-0.028 0.0177,-0.046 0,-0.01 -0.001,-0.016 -0.004,-0.019 l -0.97703,-3.4064 -0.077,-0.2574 -0.0618,0.019 0.0618,-0.019 c -0.008,-0.031 -0.0277,-0.046 -0.0618,-0.046 h -1.11082 c -0.0303,0 -0.0518,0.016 -0.0619,0.05 l -0.072,0.2537 -0.98083,3.4101 v 0 c -0.006,0.018 -0.004,0.035 0.003,0.05 0.009,0.015 0.0215,0.025 0.0391,0.03 0.005,0 0.0114,0 0.0189,0 h 0.80537 c 0.0328,0 0.0543,-0.016 0.0644,-0.049 z m 5.88998,-0.846 h -2.11061 v -0.5548 h 1.37974 c 0.0177,0 0.0328,-0.01 0.0454,-0.019 0.0126,-0.012 0.019,-0.028 0.019,-0.045 v -0.766 c 0,-0.019 -0.006,-0.034 -0.019,-0.046 -0.0126,-0.013 -0.0277,-0.019 -0.0454,-0.019 h -1.37974 v -0.5535 h 2.11061 c 0.0189,0 0.0328,-0.01 0.0442,-0.019 0.0114,-0.014 0.0177,-0.029 0.0177,-0.046 v -0.766 c 0,-0.017 -0.006,-0.033 -0.0177,-0.046 -0.0113,-0.012 -0.0252,-0.019 -0.0442,-0.019 h -2.56377 -0.38629 c -0.0177,0 -0.0341,0.01 -0.0467,0.019 -0.0126,0.014 -0.019,0.029 -0.019,0.046 v 0.3836 2.8978 0.3824 c 0,0.019 0.006,0.034 0.019,0.046 0.0126,0.012 0.029,0.019 0.0467,0.019 h 0.38629 2.56377 c 0.0189,0 0.0328,-0.01 0.0442,-0.019 0.0114,-0.013 0.0177,-0.028 0.0177,-0.046 v -0.766 c 0,-0.017 -0.006,-0.032 -0.0177,-0.045 -0.0113,-0.012 -0.0252,-0.019 -0.0442,-0.019 z m 2.44889,0 h -1.0187 v -0.9222 h 1.0187 c 0.0644,0 0.12246,0.011 0.17675,0.034 0.053,0.02 0.10475,0.054 0.1527,0.099 0.0467,0.049 0.0795,0.099 0.0998,0.1524 0.0239,0.053 0.0353,0.1112 0.0353,0.1737 0,0.066 -0.0114,0.125 -0.0353,0.1787 -0.0228,0.056 -0.0555,0.105 -0.0998,0.1475 -0.0227,0.02 -0.0467,0.04 -0.072,0.057 -0.0265,0.017 -0.053,0.032 -0.0807,0.045 -0.0543,0.023 -0.11238,0.035 -0.17675,0.035 z m 0.79778,-1.5707 0.5857,-1.2334 c 0.008,-0.015 0.009,-0.031 0.003,-0.047 -0.006,-0.016 -0.0177,-0.029 -0.0328,-0.036 -0.0151,-0.01 -0.024,-0.01 -0.0265,-0.01 h -0.004 -0.85457 c -0.0316,0 -0.0517,0.014 -0.0619,0.043 l -0.48599,1.0309 h -0.93916 v -1.0084 c 0,-0.017 -0.006,-0.033 -0.0177,-0.046 -0.0114,-0.012 -0.0277,-0.019 -0.048,-0.019 h -0.77757 c -0.0177,0 -0.0328,0.01 -0.0467,0.019 -0.0126,0.014 -0.019,0.029 -0.019,0.046 v 3.2777 0.3861 c 0,0.019 0.006,0.034 0.019,0.046 0.0139,0.012 0.029,0.019 0.0467,0.019 h 0.39003 1.47186 c 0.0922,0 0.18304,-0.01 0.27012,-0.026 0.0884,-0.017 0.17296,-0.044 0.255,-0.076 0.0846,-0.035 0.16413,-0.077 0.23733,-0.1262 0.0745,-0.05 0.14392,-0.1062 0.207,-0.1699 0.13129,-0.1287 0.22974,-0.2762 0.29916,-0.4436 0.072,-0.1637 0.10734,-0.3374 0.10734,-0.5199 0,-0.1812 -0.0354,-0.3549 -0.10734,-0.5198 -0.0353,-0.082 -0.0782,-0.1612 -0.12875,-0.2349 -0.0492,-0.073 -0.10604,-0.1412 -0.17041,-0.205 -0.0252,-0.03 -0.0593,-0.061 -0.1035,-0.095 -0.0126,-0.01 -0.024,-0.019 -0.0341,-0.026 -0.0101,-0.01 -0.0215,-0.016 -0.0341,-0.026 z"
         style="fill:#a30054;fill-opacity:1;fill-rule:nonzero;stroke:none;stroke-width:0.496499"
         id="path18288" />
      <path
         inkscape:connector-curvature="0"
         d="m 159.8716,2471.7161 v 3.6725 c 0,0.035 0.0177,0.052 0.053,0.052 h 1.86696 c 0.0922,0 0.17673,-0.01 0.25626,-0.026 0.0871,-0.015 0.16914,-0.039 0.24615,-0.073 0.0404,-0.017 0.0795,-0.035 0.11865,-0.055 0.0379,-0.019 0.0745,-0.041 0.11109,-0.066 0.0682,-0.045 0.1338,-0.099 0.19566,-0.1587 0.003,0 0.004,0 0.004,0 0.0303,-0.029 0.0593,-0.059 0.0858,-0.094 0.0265,-0.034 0.053,-0.069 0.0783,-0.1037 0.0227,-0.036 0.0454,-0.071 0.0656,-0.1087 0.0202,-0.036 0.0379,-0.075 0.053,-0.115 0.0353,-0.084 0.0618,-0.1649 0.077,-0.2437 0.0152,-0.082 0.0227,-0.1674 0.0227,-0.2536 0,-0.086 -0.008,-0.1712 -0.0227,-0.2537 -0.0152,-0.081 -0.0417,-0.1637 -0.077,-0.2474 -0.0152,-0.037 -0.0328,-0.075 -0.053,-0.1137 -0.0202,-0.038 -0.0429,-0.075 -0.0656,-0.11 -0.0505,-0.074 -0.10603,-0.1387 -0.1641,-0.1974 -0.0619,-0.06 -0.12875,-0.115 -0.19944,-0.1625 -0.0366,-0.023 -0.0732,-0.045 -0.11109,-0.065 -0.0391,-0.02 -0.0783,-0.039 -0.11865,-0.056 -0.0417,-0.016 -0.0821,-0.03 -0.12119,-0.043 -0.0391,-0.013 -0.0808,-0.023 -0.12496,-0.03 -0.0795,-0.017 -0.16411,-0.026 -0.25626,-0.026 h -1.30271 v -1.1196 c 0,-0.035 -0.0189,-0.053 -0.0543,-0.053 h -0.50997 c -0.0353,0 -0.053,0.017 -0.053,0.053 z m 2.05757,3.099 c -0.0404,0.01 -0.0871,0.016 -0.13759,0.016 h -1.30271 v -1.3858 h 1.30271 c 0.0227,0 0.0454,0 0.0694,0 0.0227,0 0.0454,0.01 0.0682,0.012 0.0202,0.01 0.0429,0.01 0.0657,0.016 0.0227,0.01 0.0442,0.014 0.0644,0.021 0.0215,0.01 0.0404,0.02 0.0593,0.03 0.0189,0.01 0.0391,0.021 0.0593,0.035 0.0215,0.013 0.0391,0.025 0.0555,0.039 0.0177,0.015 0.0341,0.03 0.0518,0.047 0.0164,0.015 0.0316,0.032 0.0467,0.05 0.0152,0.017 0.029,0.035 0.0417,0.052 0.0139,0.02 0.024,0.041 0.0353,0.061 0.0101,0.02 0.0189,0.04 0.0265,0.06 0.0101,0.021 0.0177,0.041 0.0252,0.064 0.006,0.021 0.0114,0.044 0.0164,0.066 0.008,0.045 0.0114,0.091 0.0114,0.1362 0,0.046 -0.004,0.09 -0.0114,0.1324 -0.005,0.024 -0.0101,0.045 -0.0164,0.066 -0.006,0.023 -0.0151,0.043 -0.0252,0.062 -0.008,0.021 -0.0164,0.041 -0.0265,0.061 -0.0114,0.02 -0.0215,0.04 -0.0353,0.061 -0.0227,0.032 -0.0517,0.066 -0.0884,0.1012 l 0.0391,0.039 -0.0391,-0.039 c -0.0177,0.019 -0.0341,0.034 -0.0518,0.049 -0.0164,0.014 -0.0341,0.026 -0.0555,0.039 -0.0202,0.014 -0.0404,0.025 -0.0593,0.035 -0.0189,0.01 -0.0379,0.02 -0.0593,0.03 -0.0202,0.01 -0.0417,0.017 -0.0644,0.023 -0.0227,0.01 -0.0455,0.01 -0.0657,0.015 z m 5.05307,-2.5105 h -0.004 -0.004 c -0.0455,-0.059 -0.0922,-0.1099 -0.13758,-0.1562 -0.0252,-0.027 -0.0505,-0.054 -0.0757,-0.077 -0.024,-0.024 -0.0492,-0.048 -0.0783,-0.07 l -0.13763,-0.1025 c -0.0429,-0.034 -0.0921,-0.064 -0.14516,-0.091 -0.0593,-0.032 -0.10979,-0.06 -0.154,-0.08 -0.0277,-0.012 -0.0542,-0.024 -0.0808,-0.034 -0.0252,-0.01 -0.0517,-0.019 -0.0795,-0.026 -0.0291,-0.014 -0.0556,-0.024 -0.0833,-0.031 -0.0265,-0.01 -0.0542,-0.015 -0.082,-0.023 -0.0278,-0.01 -0.0555,-0.015 -0.0846,-0.021 -0.0277,-0.01 -0.0555,-0.011 -0.0833,-0.016 -0.0593,-0.013 -0.11617,-0.02 -0.17296,-0.024 -0.0277,0 -0.0568,0 -0.0858,0 -0.0303,0 -0.0581,0 -0.0871,0 -0.13259,0 -0.26134,0.014 -0.38629,0.039 -0.13379,0.027 -0.25625,0.062 -0.3686,0.1062 -0.12244,0.048 -0.23731,0.1087 -0.34461,0.1825 -0.053,0.035 -0.10603,0.074 -0.15653,0.1149 -0.0517,0.043 -0.0985,0.085 -0.14264,0.1312 -0.18556,0.1825 -0.33072,0.3949 -0.43297,0.6373 -0.048,0.1187 -0.0858,0.2412 -0.11109,0.3662 -0.0252,0.1249 -0.0379,0.2536 -0.0379,0.3848 0,0.064 0.003,0.1262 0.009,0.19 0.006,0.062 0.0164,0.1262 0.029,0.1887 0.024,0.1249 0.0606,0.2474 0.11109,0.3686 0.0492,0.1212 0.10982,0.2349 0.18429,0.3411 0.0353,0.054 0.0745,0.105 0.1174,0.1537 0.0417,0.05 0.0858,0.097 0.13128,0.1425 0.0922,0.094 0.19187,0.1762 0.29917,0.2462 0.1073,0.071 0.2209,0.1324 0.34082,0.1824 0.11992,0.049 0.24364,0.085 0.37239,0.11 0.1275,0.025 0.25624,0.039 0.38629,0.039 0.0669,0 0.13254,0 0.19562,-0.01 0.0644,-0.01 0.12749,-0.016 0.19187,-0.029 0.0644,-0.012 0.1275,-0.028 0.18938,-0.045 0.0631,-0.019 0.1237,-0.04 0.18174,-0.065 0.11867,-0.05 0.23354,-0.1112 0.34587,-0.1824 0.10225,-0.068 0.202,-0.15 0.29792,-0.2462 0.18937,-0.185 0.33324,-0.3974 0.4292,-0.6373 0.10225,-0.2399 0.154,-0.4898 0.154,-0.7473 0,-0.035 -0.003,-0.071 -0.006,-0.1062 -0.004,-0.035 -0.005,-0.071 -0.005,-0.1062 v 0 c -0.005,-0.035 -0.0113,-0.07 -0.0177,-0.105 -0.006,-0.034 -0.0126,-0.069 -0.0215,-0.1037 -0.0151,-0.069 -0.0341,-0.1375 -0.0568,-0.2087 -0.0202,-0.062 -0.0479,-0.1287 -0.0808,-0.1974 -0.0152,-0.032 -0.0303,-0.064 -0.0455,-0.095 -0.0164,-0.03 -0.0341,-0.06 -0.0542,-0.091 -0.0202,-0.033 -0.0404,-0.064 -0.0606,-0.093 -0.0215,-0.029 -0.0416,-0.057 -0.0618,-0.085 z m -0.78516,0.079 c 0.0151,0.014 0.0303,0.026 0.0454,0.039 0.0152,0.013 0.0303,0.025 0.0467,0.038 0.0379,0.03 0.0745,0.064 0.11108,0.099 0.0303,0.03 0.0619,0.069 0.0947,0.1137 0.029,0.035 0.0568,0.075 0.0845,0.1175 v 0 c 0.024,0.036 0.0467,0.079 0.0695,0.13 l 0.0492,-0.024 -0.0492,0.024 c 0.0227,0.047 0.0417,0.094 0.0568,0.1399 0.009,0.023 0.0164,0.046 0.024,0.07 0.008,0.024 0.0139,0.048 0.0189,0.07 0.005,0.025 0.009,0.05 0.0114,0.072 0.002,0.023 0.006,0.046 0.0113,0.071 0.003,0.026 0.005,0.051 0.006,0.075 0.001,0.024 0.001,0.05 0.001,0.077 0,0.043 -0.001,0.087 -0.005,0.1325 -0.004,0.046 -0.0114,0.09 -0.0215,0.1325 -0.0152,0.086 -0.0404,0.1699 -0.077,0.2511 -0.0353,0.086 -0.0782,0.1637 -0.12625,0.2349 -0.0252,0.035 -0.0517,0.071 -0.0782,0.1063 -0.0277,0.035 -0.0568,0.069 -0.0896,0.099 h -0.005 c -0.0657,0.064 -0.13634,0.1199 -0.21084,0.1687 -0.0732,0.05 -0.15145,0.091 -0.23349,0.1274 -0.16538,0.069 -0.34083,0.1025 -0.52512,0.1025 -0.0429,0 -0.0871,0 -0.13384,-0.01 -0.0454,0 -0.0909,-0.01 -0.13378,-0.021 -0.082,-0.013 -0.16793,-0.038 -0.25755,-0.075 -0.0404,-0.017 -0.0808,-0.037 -0.11989,-0.057 -0.0404,-0.02 -0.077,-0.042 -0.11362,-0.069 -0.0353,-0.025 -0.0707,-0.05 -0.10729,-0.078 -0.0353,-0.026 -0.0682,-0.056 -0.0997,-0.089 h -0.004 c -0.0606,-0.066 -0.11613,-0.135 -0.16663,-0.2087 -0.0492,-0.074 -0.0922,-0.15 -0.12749,-0.2312 -0.0694,-0.1599 -0.10351,-0.3311 -0.10351,-0.5161 0,-0.045 0.001,-0.091 0.005,-0.1362 0.004,-0.046 0.0114,-0.09 0.0215,-0.1337 0.0152,-0.085 0.0404,-0.1687 0.077,-0.2499 0.0353,-0.086 0.077,-0.1649 0.12623,-0.2349 0.0252,-0.035 0.0518,-0.071 0.0783,-0.1062 0.0265,-0.035 0.0568,-0.069 0.0896,-0.099 0.0694,-0.064 0.14012,-0.12 0.21333,-0.1687 0.0732,-0.05 0.15021,-0.092 0.23098,-0.1275 0.16413,-0.069 0.33958,-0.1025 0.52517,-0.1025 h 0.0618 c 0.0202,0 0.0404,0 0.0606,0 0.0215,0 0.0404,0.01 0.0606,0.01 0.019,0 0.0379,0.01 0.0593,0.01 0.0202,0 0.0392,0.01 0.0568,0.014 0.0177,0 0.0379,0.01 0.058,0.014 l 0.11487,0.034 c 0.0202,0.01 0.0391,0.015 0.0555,0.023 0.0164,0.01 0.0354,0.015 0.0555,0.023 0.0328,0.015 0.0669,0.035 0.10355,0.058 0.0177,0.01 0.0353,0.019 0.0517,0.029 0.0164,0.01 0.0341,0.019 0.0517,0.031 z m 4.51403,3.0777 h 0.51374 c 0.0354,0 0.053,-0.019 0.053,-0.054 v -2.1781 c 0,-0.1037 -0.0101,-0.2137 -0.0303,-0.3299 -0.0126,-0.052 -0.0278,-0.1062 -0.0442,-0.1587 -0.0164,-0.054 -0.0353,-0.1062 -0.0555,-0.1599 -0.0404,-0.1012 -0.0934,-0.1987 -0.1565,-0.2924 -0.0316,-0.048 -0.0644,-0.092 -0.0998,-0.1337 -0.0366,-0.043 -0.0745,-0.084 -0.11488,-0.1237 -0.0795,-0.079 -0.16662,-0.1487 -0.26128,-0.2125 -0.0947,-0.064 -0.19312,-0.1149 -0.29537,-0.1549 -0.0505,-0.021 -0.1035,-0.039 -0.15655,-0.054 -0.053,-0.015 -0.10853,-0.028 -0.16537,-0.037 -0.10729,-0.023 -0.21837,-0.035 -0.33325,-0.035 -0.11233,0 -0.22341,0.012 -0.33324,0.035 -0.0568,0.01 -0.11108,0.023 -0.16408,0.037 -0.0543,0.015 -0.10604,0.032 -0.15779,0.054 -0.10225,0.04 -0.20071,0.091 -0.29542,0.1549 -0.0454,0.033 -0.0896,0.066 -0.13379,0.1013 -0.0429,0.034 -0.0846,0.07 -0.12246,0.1074 -0.002,0 -0.004,0 -0.004,0 -0.0417,0.04 -0.0783,0.082 -0.11363,0.1249 -0.0341,0.044 -0.0682,0.087 -0.101,0.1325 -0.0644,0.094 -0.11612,0.1912 -0.15779,0.2924 -0.0202,0.054 -0.0379,0.1062 -0.0555,0.1599 -0.0164,0.053 -0.029,0.1063 -0.0391,0.1587 -0.024,0.1087 -0.0353,0.2187 -0.0353,0.3299 v 2.1781 c 0,0.035 0.0177,0.054 0.0542,0.054 h 0.51379 c 0.0353,0 0.053,-0.019 0.053,-0.054 v -2.1781 c 0,-0.07 0.008,-0.1412 0.0228,-0.2124 0.005,-0.035 0.0139,-0.069 0.0252,-0.1025 0.0113,-0.033 0.024,-0.065 0.0366,-0.099 0.0126,-0.033 0.0278,-0.064 0.0442,-0.094 0.0164,-0.031 0.0353,-0.061 0.0555,-0.091 0.0202,-0.027 0.0416,-0.056 0.0631,-0.084 0.0215,-0.027 0.0467,-0.054 0.0745,-0.08 0.0505,-0.055 0.10604,-0.1012 0.16537,-0.1362 0.058,-0.037 0.12116,-0.071 0.18678,-0.099 0.0341,-0.012 0.0669,-0.025 0.0998,-0.036 0.0341,-0.011 0.0682,-0.02 0.1035,-0.025 0.072,-0.015 0.14391,-0.023 0.21457,-0.023 0.0745,0 0.14647,0.01 0.21463,0.023 0.0366,0.01 0.0707,0.014 0.1035,0.025 0.0328,0.011 0.0669,0.024 0.0997,0.036 0.0669,0.027 0.12875,0.061 0.18808,0.099 0.0303,0.02 0.0593,0.041 0.0858,0.062 0.0278,0.021 0.0543,0.046 0.0833,0.074 0.048,0.049 0.0922,0.1024 0.13379,0.1637 0.0202,0.03 0.0392,0.06 0.0555,0.091 0.0164,0.03 0.0316,0.061 0.0442,0.094 0.0151,0.034 0.0277,0.066 0.0379,0.099 0.0101,0.034 0.0189,0.068 0.0265,0.1025 0.005,0.036 0.0101,0.071 0.0139,0.1062 0.004,0.036 0.006,0.071 0.006,0.1062 v 2.1781 c 0,0.035 0.0177,0.054 0.053,0.054 z m 1.02753,-3.745 v 3.6725 c 0,0.035 0.0177,0.052 0.053,0.052 h 1.86574 c 0.0921,0 0.17795,-0.01 0.25749,-0.026 0.0871,-0.015 0.16917,-0.039 0.24487,-0.073 0.0417,-0.017 0.0808,-0.035 0.11867,-0.055 0.0391,-0.019 0.0757,-0.041 0.11108,-0.066 0.0366,-0.023 0.0707,-0.048 0.10355,-0.075 0.0341,-0.029 0.0656,-0.058 0.0959,-0.088 0.0315,-0.029 0.0593,-0.059 0.0871,-0.094 0.0265,-0.034 0.0518,-0.069 0.0783,-0.1037 0.0227,-0.036 0.0442,-0.071 0.0644,-0.1087 0.0214,-0.036 0.0391,-0.075 0.0543,-0.115 0.0353,-0.084 0.0606,-0.1649 0.077,-0.2437 0.0151,-0.082 0.0227,-0.1674 0.0227,-0.2536 0,-0.086 -0.008,-0.1712 -0.0227,-0.2537 -0.0164,-0.081 -0.0417,-0.1637 -0.077,-0.2474 -0.0152,-0.037 -0.0328,-0.075 -0.0543,-0.1137 -0.0202,-0.038 -0.0417,-0.075 -0.0644,-0.11 -0.0265,-0.035 -0.0517,-0.069 -0.0783,-0.1025 -0.0277,-0.032 -0.0555,-0.062 -0.0833,-0.091 h -0.004 c -0.008,-0.01 -0.0152,-0.015 -0.0227,-0.023 -0.008,-0.01 -0.0164,-0.015 -0.0265,-0.023 -0.008,-0.01 -0.0164,-0.015 -0.0252,-0.023 -0.009,-0.01 -0.0177,-0.016 -0.0252,-0.024 l -0.0341,-0.023 c -0.005,-0.01 -0.0152,-0.013 -0.0303,-0.023 v 0 l -0.13129,-0.091 0.59074,-1.2446 c 0.005,-0.01 0.008,-0.014 0.008,-0.026 0,-0.035 -0.0177,-0.053 -0.053,-0.053 h -0.5605 c -0.0202,0 -0.0366,0.01 -0.0492,0.03 l 0.0492,0.023 -0.0454,-0.023 -0.54409,1.1421 h -1.33427 v -1.1196 c 0,-0.035 -0.0177,-0.053 -0.053,-0.053 h -0.51 c -0.0353,0 -0.053,0.017 -0.053,0.053 z m 2.05756,3.099 c -0.0417,0.01 -0.0871,0.016 -0.13882,0.016 h -1.30274 v -1.3858 h 1.30274 c 0.024,0 0.0467,0 0.0694,0 0.0227,0 0.0455,0.01 0.0694,0.012 0.0202,0.01 0.0417,0.01 0.0644,0.016 0.0228,0.01 0.0455,0.014 0.0657,0.021 0.0202,0.01 0.0404,0.02 0.0593,0.03 0.0189,0.01 0.0391,0.021 0.0593,0.035 0.0202,0.013 0.0392,0.025 0.0556,0.039 0.0164,0.015 0.034,0.03 0.0517,0.047 l 0.0391,-0.037 -0.0391,0.037 c 0.0151,0.015 0.0303,0.032 0.0454,0.05 0.0164,0.017 0.0303,0.035 0.0429,0.052 0.0126,0.02 0.024,0.041 0.0341,0.061 0.0101,0.02 0.019,0.04 0.0278,0.06 0.0101,0.021 0.0177,0.041 0.0239,0.064 0.006,0.021 0.0126,0.044 0.0177,0.066 0.008,0.045 0.0113,0.091 0.0113,0.1362 0,0.046 -0.004,0.09 -0.0113,0.1324 -0.005,0.024 -0.0114,0.045 -0.0177,0.066 -0.006,0.023 -0.0139,0.043 -0.0239,0.062 -0.009,0.021 -0.0177,0.041 -0.0278,0.061 -0.0101,0.02 -0.0214,0.04 -0.0341,0.061 -0.0126,0.017 -0.0265,0.035 -0.0404,0.052 -0.0139,0.017 -0.029,0.034 -0.0442,0.049 h -0.004 l 0.0391,0.039 -0.0391,-0.039 c -0.0177,0.019 -0.0354,0.034 -0.0517,0.049 -0.0164,0.014 -0.0354,0.026 -0.0556,0.039 -0.0202,0.014 -0.0404,0.025 -0.0593,0.035 -0.019,0.01 -0.0392,0.02 -0.0593,0.03 -0.0202,0.01 -0.0429,0.017 -0.0657,0.023 -0.0227,0.01 -0.0442,0.01 -0.0644,0.015 z"
         style="fill:#a30054;fill-opacity:1;fill-rule:nonzero;stroke:none;stroke-width:0.496499"
         id="path18296" />
      <path
         inkscape:connector-curvature="0"
         d="m 179.52877,2474.402 c -0.0252,0.02 -0.0505,0.04 -0.0745,0.059 -0.024,0.019 -0.0505,0.036 -0.0783,0.051 -0.0619,0.032 -0.12119,0.06 -0.17673,0.08 -0.0278,0.012 -0.0581,0.023 -0.0896,0.03 -0.0328,0.01 -0.0631,0.014 -0.0947,0.019 -0.0581,0.01 -0.1237,0.015 -0.19566,0.015 -0.14769,0 -0.28906,-0.027 -0.4254,-0.082 -0.13507,-0.054 -0.25372,-0.1337 -0.35597,-0.2399 -0.10225,-0.099 -0.18177,-0.2137 -0.23984,-0.3461 -0.0568,-0.1337 -0.0858,-0.2762 -0.0858,-0.4274 0,-0.1462 0.0278,-0.2874 0.0846,-0.4211 0.053,-0.1337 0.1338,-0.2512 0.2411,-0.3524 0.0997,-0.1012 0.21712,-0.1799 0.35092,-0.2374 0.13381,-0.057 0.27771,-0.085 0.43045,-0.085 0.072,0 0.1376,0 0.19566,0.015 0.0316,0.01 0.0619,0.011 0.0947,0.019 0.0316,0.01 0.0618,0.017 0.0896,0.03 0.0177,0.01 0.0353,0.011 0.0518,0.019 0.0164,0.01 0.0341,0.016 0.0517,0.024 0.0101,0.01 0.0202,0.01 0.0303,0.016 0.0101,0.01 0.0215,0.012 0.0353,0.017 v 0.736 c 0,0.02 0.006,0.036 0.0189,0.048 0.0126,0.011 0.0278,0.017 0.0454,0.017 h 0.78895 c 0.0215,0 0.0379,-0.01 0.0505,-0.017 0.0126,-0.011 0.0189,-0.028 0.0189,-0.048 v -0.971 -0.1824 c 0,-0.02 -0.009,-0.036 -0.0265,-0.049 l -0.14138,-0.1175 c -0.0442,-0.039 -0.0896,-0.074 -0.13885,-0.1062 -0.048,-0.034 -0.0985,-0.065 -0.14896,-0.095 -0.10477,-0.059 -0.21207,-0.1087 -0.32189,-0.1487 -0.0568,-0.017 -0.11235,-0.034 -0.16915,-0.048 -0.0555,-0.014 -0.11361,-0.026 -0.17168,-0.04 -0.0593,-0.01 -0.11739,-0.017 -0.17672,-0.023 -0.0581,-0.01 -0.1174,-0.01 -0.17673,-0.01 -0.13759,0 -0.27139,0.013 -0.40015,0.037 -0.12876,0.026 -0.25499,0.062 -0.37743,0.11 -0.24994,0.1012 -0.46958,0.2474 -0.65893,0.4374 -0.1843,0.1812 -0.32946,0.3948 -0.4355,0.6385 -0.10604,0.2437 -0.15779,0.5048 -0.15779,0.7835 0,0.2687 0.0505,0.5248 0.15274,0.7698 0.10225,0.2461 0.24868,0.4636 0.44055,0.6522 0.1843,0.1825 0.39889,0.3262 0.64504,0.4312 0.24742,0.1049 0.51124,0.1574 0.79147,0.1574 0.0593,0 0.11866,0 0.17673,-0.01 0.0593,-0.01 0.1174,-0.012 0.17672,-0.023 0.1174,-0.023 0.23101,-0.054 0.34083,-0.091 0.10982,-0.043 0.21712,-0.093 0.32189,-0.1475 0.0505,-0.031 0.10098,-0.062 0.14896,-0.095 0.0492,-0.034 0.0947,-0.069 0.13885,-0.1062 l -0.0429,-0.05 0.0429,0.05 c 0.0152,-0.014 0.024,-0.029 0.0265,-0.046 0.003,-0.017 -0.003,-0.032 -0.0152,-0.045 h -0.004 l -0.50619,-0.5961 c -0.0126,-0.015 -0.0278,-0.024 -0.0467,-0.025 -0.0177,0 -0.0328,0.01 -0.0455,0.017 z m 4.6794,-1.1608 c 0,-0.2275 -0.0442,-0.4449 -0.13129,-0.6523 -0.0858,-0.21 -0.21079,-0.3961 -0.37491,-0.5573 -0.0795,-0.079 -0.16533,-0.1487 -0.25875,-0.2112 -0.0934,-0.061 -0.19317,-0.1137 -0.30046,-0.1575 -0.21203,-0.086 -0.43295,-0.1287 -0.6627,-0.1287 -0.23099,0 -0.45066,0.043 -0.6589,0.1287 -0.10858,0.044 -0.20831,0.096 -0.30172,0.1575 -0.0934,0.062 -0.18051,0.1324 -0.26256,0.2112 -0.0795,0.08 -0.15022,0.1674 -0.2146,0.2599 -0.0631,0.091 -0.11739,0.1912 -0.16031,0.2974 -0.0871,0.2074 -0.13002,0.4248 -0.13002,0.6523 v 2.1318 c 0,0.017 0.005,0.034 0.0189,0.046 0.0126,0.013 0.0278,0.019 0.0454,0.019 h 0.77758 c 0.0215,0 0.0366,-0.01 0.048,-0.019 0.0114,-0.012 0.0177,-0.029 0.0177,-0.046 v -2.1318 c 0,-0.1063 0.0202,-0.21 0.0618,-0.3112 0.0404,-0.096 0.0998,-0.1837 0.17924,-0.2612 0.0795,-0.079 0.16787,-0.1387 0.26508,-0.1786 0.10225,-0.041 0.20705,-0.061 0.31433,-0.061 0.10729,0 0.21209,0.02 0.31434,0.061 0.10349,0.042 0.19187,0.1024 0.26378,0.1786 0.0795,0.077 0.13888,0.165 0.18054,0.2612 0.0404,0.1012 0.0606,0.2049 0.0606,0.3112 v 2.1318 c 0,0.017 0.006,0.034 0.0189,0.046 0.0139,0.013 0.029,0.019 0.0467,0.019 h 0.77762 c 0.0202,0 0.0366,-0.01 0.048,-0.019 0.0114,-0.012 0.0177,-0.029 0.0177,-0.046 z m 3.47897,1.317 h -2.1144 v -0.5585 h 1.38224 c 0.0189,0 0.0341,0 0.0467,-0.017 0.0126,-0.01 0.0189,-0.025 0.0189,-0.043 v -0.771 c 0,-0.018 -0.006,-0.033 -0.0189,-0.045 -0.0126,-0.013 -0.0278,-0.019 -0.0467,-0.019 h -1.38224 v -0.5536 h 2.1144 c 0.0177,0 0.0341,-0.01 0.0467,-0.02 0.0126,-0.012 0.0189,-0.027 0.0189,-0.045 v -0.7697 c 0,-0.019 -0.006,-0.032 -0.0189,-0.043 -0.0126,-0.01 -0.029,-0.015 -0.0467,-0.015 h -2.56756 -0.38629 c -0.0177,0 -0.0341,0.01 -0.0467,0.015 -0.0126,0.01 -0.0189,0.024 -0.0189,0.043 v 0.3861 2.9028 0.3824 c 0,0.02 0.006,0.036 0.0189,0.047 0.0126,0.011 0.029,0.018 0.0467,0.018 h 0.38629 0.51753 l 1.05024,0.3799 c 0.0152,0 0.0303,0 0.0442,0 0.0139,-0.01 0.0239,-0.016 0.029,-0.029 l 0.11487,-0.3187 c 0.003,-0.01 0.004,-0.017 0.004,-0.03 h 0.80791 c 0.0177,0 0.0341,-0.01 0.0467,-0.018 0.0126,-0.011 0.0189,-0.027 0.0189,-0.047 v -0.766 c 0,-0.02 -0.006,-0.036 -0.0189,-0.047 -0.0126,-0.011 -0.029,-0.016 -0.0467,-0.016 z m 2.45268,0 h -1.0187 v -0.9222 h 1.0187 c 0.0644,0 0.12241,0.011 0.17671,0.034 0.0543,0.02 0.10479,0.054 0.15275,0.099 0.0467,0.047 0.0795,0.099 0.0997,0.1524 0.0227,0.052 0.0353,0.1113 0.0353,0.1737 0,0.066 -0.0126,0.125 -0.0353,0.1787 -0.0227,0.055 -0.0555,0.105 -0.0997,0.1475 -0.0228,0.02 -0.0467,0.04 -0.072,0.058 -0.0265,0.017 -0.0531,0.032 -0.0808,0.045 -0.0543,0.023 -0.11233,0.035 -0.17671,0.035 z m 0.79779,-1.5707 0.5857,-1.2334 c 0.008,-0.015 0.009,-0.031 0.002,-0.047 -0.006,-0.016 -0.0177,-0.029 -0.0328,-0.036 -0.0152,-0.01 -0.024,-0.01 -0.0265,-0.01 h -0.005 -0.85333 c -0.0315,0 -0.0517,0.014 -0.0618,0.043 l -0.48724,1.0309 h -0.93791 v -1.0084 c 0,-0.017 -0.006,-0.034 -0.0177,-0.046 -0.0114,-0.013 -0.0278,-0.019 -0.048,-0.019 h -0.77757 c -0.0177,0 -0.0341,0.01 -0.0467,0.019 -0.0126,0.012 -0.0189,0.029 -0.0189,0.046 v 3.2777 0.3861 c 0,0.019 0.006,0.034 0.0189,0.046 0.0126,0.013 0.029,0.019 0.0467,0.019 h 0.39133 1.47061 c 0.0921,0 0.18175,-0.01 0.27012,-0.026 0.0884,-0.019 0.17291,-0.044 0.255,-0.076 0.0845,-0.035 0.16408,-0.078 0.23728,-0.1274 0.0745,-0.049 0.14392,-0.105 0.20705,-0.1687 0.12999,-0.1287 0.23099,-0.2774 0.29916,-0.4436 0.072,-0.165 0.10729,-0.3374 0.10729,-0.5199 0,-0.1824 -0.0353,-0.3549 -0.10729,-0.5198 -0.0353,-0.084 -0.0782,-0.1612 -0.12875,-0.2349 -0.0493,-0.074 -0.10604,-0.1412 -0.17041,-0.205 -0.0252,-0.03 -0.0593,-0.062 -0.1035,-0.095 -0.0126,-0.01 -0.024,-0.019 -0.0341,-0.026 -0.0101,-0.01 -0.0215,-0.016 -0.0341,-0.026 z m 1.27998,2.4692 h 0.77378 0.16158 c 0.0202,0 0.0353,-0.01 0.0467,-0.019 0.0114,-0.012 0.0177,-0.027 0.0177,-0.046 v -0.766 c 0,-0.017 -0.006,-0.033 -0.0177,-0.045 -0.0114,-0.012 -0.0265,-0.019 -0.0467,-0.019 h -0.096 v -2.0031 h 0.096 c 0.0202,0 0.0353,-0.01 0.0467,-0.02 0.0114,-0.012 0.0177,-0.028 0.0177,-0.045 v -0.766 c 0,-0.017 -0.006,-0.034 -0.0177,-0.046 -0.0114,-0.013 -0.0265,-0.019 -0.0467,-0.019 h -0.16158 -0.77378 -0.16158 c -0.0177,0 -0.0328,0.01 -0.0455,0.019 -0.0126,0.012 -0.0189,0.029 -0.0189,0.046 v 0.766 c 0,0.017 0.006,0.033 0.0189,0.045 0.0126,0.012 0.0278,0.02 0.0455,0.02 h 0.0959 v 2.0031 h -0.0959 c -0.0177,0 -0.0328,0.01 -0.0455,0.019 -0.0126,0.012 -0.0189,0.028 -0.0189,0.045 v 0.766 c 0,0.019 0.006,0.034 0.0189,0.046 0.0126,0.013 0.0278,0.019 0.0455,0.019 z m 3.3868,-0.8985 h -1.0187 v -0.9222 h 1.0187 c 0.0644,0 0.12371,0.011 0.1767,0.034 0.0543,0.02 0.1048,0.054 0.154,0.099 0.0455,0.047 0.0782,0.099 0.0985,0.1524 0.024,0.052 0.0353,0.1113 0.0353,0.1737 0,0.066 -0.0113,0.125 -0.0353,0.1787 -0.0227,0.055 -0.0555,0.105 -0.0985,0.1475 -0.024,0.02 -0.048,0.04 -0.0732,0.058 -0.0252,0.017 -0.053,0.032 -0.0808,0.045 -0.053,0.023 -0.11233,0.035 -0.1767,0.035 z m 0.79778,-1.5707 0.5857,-1.2334 c 0.008,-0.015 0.009,-0.031 0.003,-0.047 -0.006,-0.016 -0.0177,-0.029 -0.0328,-0.036 -0.0152,-0.01 -0.024,-0.01 -0.0265,-0.01 h -0.004 -0.85462 c -0.0303,0 -0.0517,0.014 -0.0618,0.043 l -0.48599,1.0309 H 194.586 v -1.0084 c 0,-0.017 -0.006,-0.034 -0.0177,-0.046 -0.0114,-0.013 -0.0278,-0.019 -0.048,-0.019 h -0.77757 c -0.0177,0 -0.0328,0.01 -0.0455,0.019 -0.0139,0.012 -0.0202,0.029 -0.0202,0.046 v 3.2777 0.3861 c 0,0.019 0.006,0.034 0.0202,0.046 0.0126,0.013 0.0278,0.019 0.0455,0.019 h 0.39133 1.47061 c 0.0921,0 0.18299,-0.01 0.27137,-0.026 0.0871,-0.019 0.17296,-0.044 0.25375,-0.076 0.0845,-0.035 0.16408,-0.078 0.23858,-0.1274 0.0732,-0.049 0.14262,-0.105 0.20699,-0.1687 0.13005,-0.1287 0.22975,-0.2774 0.29792,-0.4436 0.072,-0.165 0.10729,-0.3374 0.10729,-0.5199 0,-0.1824 -0.0353,-0.3549 -0.10729,-0.5198 -0.0353,-0.084 -0.0782,-0.1612 -0.1275,-0.2349 -0.0505,-0.074 -0.10729,-0.1412 -0.17042,-0.205 -0.0265,-0.03 -0.0606,-0.062 -0.10474,-0.095 -0.0126,-0.01 -0.024,-0.019 -0.0341,-0.026 -0.0101,-0.01 -0.0215,-0.016 -0.0341,-0.026 z"
         style="fill:#a30054;fill-opacity:1;fill-rule:nonzero;stroke:none;stroke-width:0.496499"
         id="path18304" />
      <path
         inkscape:connector-curvature="0"
         d="m 186.1278,2478.1708 v 1.0871 8.2198 1.0872 c 0,0.1 0.0823,0.1811 0.18314,0.1811 h 1.09834 1.03896 0.53895 c 0.0569,0 0.11377,-0.024 0.1502,-0.072 v 0 l 0.33085,-0.4374 4.96325,-6.5504 v 5.7919 1.0872 c 0,0.1 0.0823,0.1811 0.18314,0.1811 h 2.19619 c 0.1013,0 0.18314,-0.081 0.18314,-0.1811 v -1.0872 -8.2198 -1.0871 c 0,-0.1 -0.0818,-0.1812 -0.18314,-0.1812 h -1.09784 -1.03796 -0.54394 v 0 c -0.0554,0 -0.10978,0.025 -0.14621,0.072 h 0.001 l -0.33185,0.4374 -4.96225,6.5504 v -5.7919 -1.0871 c 0,-0.1 -0.0833,-0.1812 -0.18314,-0.1812 h -2.19769 c -0.1008,0 -0.18314,0.081 -0.18314,0.1812 z m -6.88947,8.346 h -0.0254 c -0.53395,0 -1.07638,-0.1525 -1.60285,-0.4699 -0.59982,-0.3611 -1.04794,-0.8959 -1.31292,-1.5919 -0.13524,-0.3587 -0.18813,-0.7036 -0.18813,-1.0097 v -0.026 l -0.006,-0.05 0.006,-0.052 v -0.025 c 0,-0.5286 0.15419,-1.0659 0.47456,-1.587 0.36479,-0.5936 0.90523,-1.0372 1.61084,-1.2983 0.36229,-0.135 0.70711,-0.1862 1.0185,-0.1862 h 0.0254 l 0.0529,-0.01 0.0504,0.01 h 0.014 c 0.77498,0 1.50455,0.2711 2.13581,0.861 0.28793,0.2686 0.42816,0.5023 0.49852,0.6235 0.0898,0.1537 0.21757,0.3611 0.31189,0.636 0.11876,0.3424 0.16816,0.6623 0.16816,0.946 v 0.03 l 0.007,0.052 -0.007,0.05 v 0.026 c 0,0.531 -0.1517,1.0659 -0.47357,1.5882 -0.36328,0.5923 -0.90522,1.0347 -1.60834,1.2971 -0.36229,0.1337 -0.7131,0.1862 -1.01949,0.1862 h -0.0269 l -0.0504,0.01 z m -0.0579,2.6341 h 0.22056 c 0.84734,0 1.71064,-0.2112 2.57794,-0.6435 0.32287,-0.16 0.67418,-0.3799 1.02349,-0.6661 0.37377,-0.3061 0.65671,-0.6073 0.85732,-0.8622 0.22056,-0.2799 0.39522,-0.551 0.53145,-0.7897 0.15021,-0.2624 0.3079,-0.5836 0.43664,-0.9647 0.2056,-0.6086 0.30291,-1.1996 0.30291,-1.7457 v -0.1924 c 0,-0.9272 -0.24602,-1.8569 -0.75103,-2.7641 -0.14521,-0.2625 -0.33334,-0.5286 -0.54642,-0.7897 -0.29692,-0.3624 -0.60332,-0.6649 -0.90772,-0.8948 -0.37227,-0.2811 -0.68815,-0.4661 -0.9152,-0.5835 -0.29941,-0.155 -0.72059,-0.3487 -1.28648,-0.4961 -0.48604,-0.1262 -0.94514,-0.1725 -1.34186,-0.1725 h -0.2016 c -0.84485,0 -1.71214,0.2137 -2.57645,0.6423 -0.32087,0.1587 -0.67168,0.3799 -1.02648,0.6686 -0.37377,0.3049 -0.65621,0.6035 -0.85682,0.8597 -0.22006,0.2799 -0.39422,0.5511 -0.53145,0.7922 -0.14921,0.2612 -0.3069,0.5811 -0.43565,0.9622 -0.2046,0.6098 -0.3054,1.1959 -0.3054,1.7482 v 0.2199 c 0,0.8372 0.21708,1.692 0.64973,2.5504 0.15918,0.3149 0.38274,0.6636 0.67567,1.0159 0.30789,0.3699 0.6108,0.6473 0.86829,0.846 0.28295,0.2187 0.55691,0.3911 0.80043,0.5274 0.26498,0.1474 0.58685,0.3036 0.97209,0.4311 0.61579,0.2049 1.20813,0.3011 1.76604,0.3011 z m -27.74467,-2.9353 h -5.98844 v -1.5732 h 3.91701 c 0.10095,0 0.18299,-0.081 0.18299,-0.1825 v -2.1755 c 0,-0.1012 -0.082,-0.1812 -0.18299,-0.1812 h -3.91701 v -1.5745 h 5.98844 c 0.10225,0 0.18429,-0.081 0.18429,-0.1812 v -2.1767 c 0,-0.1 -0.082,-0.1812 -0.18429,-0.1812 h -7.27092 -1.09949 c -0.101,0 -0.18304,0.081 -0.18304,0.1812 v 1.0883 8.2261 1.0884 c 0,0.1 0.082,0.1812 0.18304,0.1812 h 1.09949 1.46048 l 2.98284,1.0746 c 0.0808,0.03 0.17042,-0.013 0.19946,-0.091 l 0.332,-0.9034 c 0.0101,-0.026 0.0126,-0.054 0.008,-0.08 h 2.28855 c 0.10225,0 0.18429,-0.081 0.18429,-0.1812 v -2.1768 c 0,-0.1 -0.082,-0.1812 -0.18429,-0.1812 z m -20.03296,0 h -5.98844 v -1.5732 h 3.91696 c 0.101,0 0.18304,-0.081 0.18304,-0.1825 v -2.1755 c 0,-0.1012 -0.082,-0.1812 -0.18304,-0.1812 h -3.91696 v -1.5745 h 5.98844 c 0.101,0 0.18304,-0.081 0.18304,-0.1812 v -2.1767 c 0,-0.1 -0.082,-0.1812 -0.18304,-0.1812 h -7.27092 -1.09949 c -0.101,0 -0.18304,0.081 -0.18304,0.1812 v 1.0883 8.2261 1.0884 c 0,0.1 0.082,0.1812 0.18304,0.1812 h 1.09949 1.45924 l 2.98409,1.0746 c 0.0808,0.03 0.17041,-0.013 0.19945,-0.091 l 0.332,-0.9034 c 0.0101,-0.026 0.0113,-0.054 0.008,-0.08 h 2.28855 c 0.101,0 0.18304,-0.081 0.18304,-0.1812 v -2.1768 c 0,-0.1 -0.082,-0.1812 -0.18304,-0.1812 z m 24.60129,2.5304 h 2.19768 3.05231 c 0.10095,0 0.18304,-0.081 0.18304,-0.1811 v -2.1743 c 0,-0.1 -0.0821,-0.1812 -0.18304,-0.1812 h -2.86927 v -6.9515 -1.0871 c 0,-0.1 -0.082,-0.1812 -0.18304,-0.1812 h -2.19768 c -0.101,0 -0.18304,0.081 -0.18304,0.1812 v 1.0871 6.9515 h -2.86922 c -0.101,0 -0.18304,0.081 -0.18304,0.1812 v 2.1743 c 0,0.1 0.082,0.1811 0.18304,0.1811 z m -39.88289,0 h 2.1977 3.05225 c 0.10101,0 0.18304,-0.081 0.18304,-0.1811 v -2.1743 c 0,-0.1 -0.082,-0.1812 -0.18304,-0.1812 h -2.87046 v -6.9515 -1.0871 c 0,-0.1 -0.0808,-0.1812 -0.18179,-0.1812 h -2.1977 c -0.10099,0 -0.18304,0.081 -0.18304,0.1812 v 1.0871 6.9515 h -2.8705 c -0.10099,0 -0.18304,0.081 -0.18304,0.1812 v 2.1743 c 0,0.1 0.082,0.1811 0.18304,0.1811 z m 19.33869,-0.1736 v -8.0299 h 6.02252 c 0.10225,0 0.18429,-0.081 0.18429,-0.1812 v -2.1893 c 0,-0.1012 -0.082,-0.1824 -0.18429,-0.1824 h -7.31134 -1.10578 c -0.10225,0 -0.18429,0.081 -0.18429,0.1824 v 1.0946 9.3058 c 0,0.1 0.082,0.1824 0.18429,0.1824 h 2.21031 c 0.10225,0 0.18429,-0.082 0.18429,-0.1824 z m 29.72752,-0.01 v -1.0872 -2.8415 h 4.70226 v 2.8415 1.0872 c 0,0.1 0.0818,0.1811 0.18314,0.1811 h 2.19769 c 0.1008,0 0.18164,-0.081 0.18164,-0.1811 v -1.0872 -8.2198 -1.0871 c 0,-0.1 -0.0808,-0.1812 -0.18164,-0.1812 h -2.19769 c -0.1013,0 -0.18314,0.081 -0.18314,0.1812 v 1.0871 2.8416 h -4.70226 v -2.8416 -1.0871 c 0,-0.1 -0.0818,-0.1812 -0.18315,-0.1812 h -2.19618 c -0.1011,0 -0.18314,0.081 -0.18314,0.1812 v 1.0871 8.2198 1.0872 c 0,0.1 0.082,0.1811 0.18314,0.1811 h 2.19618 c 0.10131,0 0.18315,-0.081 0.18315,-0.1811 z"
         style="fill:#31211c;fill-opacity:1;fill-rule:nonzero;stroke:none;stroke-width:0.496499"
         id="path18312" />
      <path
         inkscape:connector-curvature="0"
         d="m 99.714616,2488.5849 v -1.4382 c 0,-0.082 -0.06817,-0.15 -0.151453,-0.15 h -6.647365 v -2.7928 h 4.365097 c 0.08329,0 0.151453,-0.068 0.151453,-0.15 v -1.4383 c 0,-0.082 -0.06817,-0.1499 -0.151453,-0.1499 h -4.365097 v -4.3148 c 0,-0.082 -0.06817,-0.15 -0.151478,-0.15 h -1.452926 c -0.08331,0 -0.151478,0.068 -0.151478,0.15 v 10.434 c 0,0.082 0.06817,0.15 0.151478,0.15 h 8.251769 c 0.08329,0 0.151453,-0.068 0.151453,-0.15 z"
         style="fill:#31211c;fill-opacity:1;fill-rule:evenodd;stroke:none;stroke-width:0.496499"
         id="path18320" />
      <path
         inkscape:connector-curvature="0"
         d="m 82.714641,2483.0924 h 3.746543 l -1.6044,3.9112 h -0.536496 z m -2.191381,-5.0921 h -1.556434 -0.0013 c -0.01894,0 -0.03913,0 -0.05681,0.011 -0.077,0.031 -0.11487,0.1187 -0.08331,0.1949 l 4.098741,9.9868 0.181773,0.4411 c 0.0202,0.059 0.07574,0.1012 0.141382,0.1012 h 2.679892 0.0012 c 0.05933,0 0.116172,-0.036 0.140125,-0.094 l -0.140125,-0.056 0.140125,0.056 4.279246,-10.4291 c 0.0088,-0.019 0.01392,-0.04 0.01392,-0.062 0,-0.082 -0.06692,-0.1499 -0.150255,-0.1499 h -1.557691 -0.0012 c -0.05933,0 -0.116122,0.036 -0.140125,0.094 l 0.140125,0.056 -0.140125,-0.056 -1.340567,3.2677 h -5.167931 l -1.338057,-3.2602 c -0.0202,-0.059 -0.07574,-0.1012 -0.14264,-0.1012 z"
         style="fill:#31211c;fill-opacity:1;fill-rule:evenodd;stroke:none;stroke-width:0.496499"
         id="path18328" />
      <path
         inkscape:connector-curvature="0"
         d="m 102.32612,2477.9834 h -1.44661 c -0.0833,0 -0.15022,0.066 -0.15022,0.1487 v 10.4541 c 0,0.082 0.0669,0.1487 0.15022,0.1487 h 2.21283 0.005 c 0.0455,0 0.0909,-0.02 0.11992,-0.06 l -0.11992,-0.089 0.11992,0.089 2.94247,-3.8837 2.93488,3.8737 c 0.0265,0.042 0.0745,0.07 0.1275,0.07 h 2.2179 c 0.0833,0 0.1502,-0.066 0.1502,-0.1487 v -10.4541 c 0,-0.082 -0.0669,-0.1487 -0.1502,-0.1487 h -1.44661 c -0.0833,0 -0.15026,0.066 -0.15026,0.1487 v 8.6572 l -2.83638,-3.7438 c -0.0266,-0.043 -0.0745,-0.071 -0.1288,-0.071 h -1.43271 -0.004 c -0.0454,0 -0.0909,0.021 -0.12119,0.06 l 0.12119,0.09 -0.11992,-0.09 -2.84527,3.755 v -8.6572 c 0,-0.082 -0.0669,-0.1487 -0.15021,-0.1487 z"
         style="fill:#31211c;fill-opacity:1;fill-rule:evenodd;stroke:none;stroke-width:0.496499"
         id="path18336" />
      <path
         inkscape:connector-curvature="0"
         d="m 213.7403,2490.5142 c -0.19816,-0.093 -0.51374,-0.1924 -0.85457,-0.2937 0.0947,-0.01 0.18937,-0.015 0.28274,-0.025 0.12371,-0.01 0.24113,-0.019 0.35096,-0.028 0.43799,0.091 0.8899,0.1574 1.38982,0.2086 0,0 0.0858,0.01 0.0858,0.01 -0.008,0 -0.0896,-0.027 -0.0896,-0.025 -0.47337,-0.091 -0.85083,-0.1475 -1.20553,-0.2062 0.0997,-0.01 0.19442,-0.014 0.28149,-0.02 0.28779,0.034 0.58446,0.056 0.90004,0.069 0,0 0.10479,0 0.10479,0 -0.0101,0 -0.10734,-0.017 -0.10734,-0.016 -0.23349,-0.028 -0.44682,-0.05 -0.64753,-0.073 1.41123,-0.095 1.07295,-0.04 3.02701,-0.4311 -0.86341,0.1012 -1.52106,0.2287 -2.4186,0.2512 -0.19567,0 -0.38375,0 -0.56679,-0.01 1.22824,-0.091 2.42369,-0.4899 3.42088,-1.2858 0.21967,-0.1712 0.41913,-0.3624 0.60212,-0.5699 l 0.0152,0.014 c -0.18808,0.1987 -0.39133,0.3849 -0.61729,0.5561 0.19567,-0.1575 0.39638,-0.3524 0.59329,-0.5786 l -0.0113,-0.011 0.0303,-0.031 c 0.0467,-0.048 0.0921,-0.096 0.13758,-0.1437 0.96945,-1.2021 1.84553,-3.1489 1.95157,-5.192 -0.178,1.1146 -0.486,2.0355 -1.08562,3.029 -0.42666,0.7097 -0.97199,1.5595 -1.69277,2.0106 l 0.029,0.029 -0.0303,0.031 c -0.7372,0.7635 -1.5539,1.1709 -2.57639,1.4396 -0.5087,0.1337 -0.98083,0.2037 -1.45295,0.2211 0.37871,-0.01 0.76245,-0.046 1.17145,-0.1137 l 0.0429,-0.01 0.0152,0.086 -0.0429,0.01 c -0.22221,0.04 -0.43554,0.071 -0.64633,0.094 l 0.004,0.087 h -0.0202 l 0.001,0.062 h -0.0442 c -0.56425,0.01 -1.08432,-0.025 -1.61828,-0.1162 -0.17545,-0.023 -0.34966,-0.05 -0.52766,-0.085 -1.03636,-0.2049 -1.87706,-0.5136 -2.76193,-1.0609 -0.0404,-0.024 -0.0808,-0.047 -0.12121,-0.072 -0.87603,-0.5423 -1.53749,-1.1209 -2.04115,-2.0356 -0.0795,-0.1449 -0.14896,-0.2936 -0.20955,-0.4461 0.0391,0.2624 0.0959,0.5211 0.18304,0.7748 0.39006,0.9134 0.92654,1.6282 1.69276,2.2642 0.0341,0.028 0.18053,0.1537 0.0745,-0.1062 0,0 -0.0669,-0.094 -0.0707,-0.09 -0.53648,-0.6722 -0.948,-1.0921 -1.33426,-1.7981 0.50492,0.7785 1.3027,1.467 2.26078,1.9918 0.29163,0.195 0.59838,0.3774 0.77004,0.4174 -0.0315,-0.021 -0.0846,-0.057 -0.082,-0.08 0.11992,0.053 0.24237,0.1025 0.36478,0.1487 0.22721,0.12 0.46075,0.2299 0.70567,0.3362 -0.0177,0.015 -0.0455,0.03 -0.0858,0.042 -0.0177,0.1463 0.25115,0.2812 0.35091,0.3274 0.35849,0.1387 0.74094,0.17 1.12095,0.155 0.32441,0.1025 0.65261,0.1949 1.00223,0.2849 z m 4.82333,-2.7678 c 0.33579,-0.4387 0.61474,-0.9235 0.86974,-1.4046 0.59832,-1.2508 0.86719,-2.2743 0.98082,-3.4739 0.009,-0.1449 0.0152,-0.2849 0.0177,-0.4236 0.024,-0.1712 0.0417,-0.3424 0.0517,-0.5148 0.008,-0.1275 0.0114,-0.2512 0.0139,-0.3724 0.0353,0.4136 0.034,0.846 0.004,1.3171 -0.0378,0.3911 -0.0909,0.7548 -0.16283,1.1059 l -0.0795,0.2924 c -0.0366,0.1387 -0.0985,0.3336 -0.11742,0.4811 -0.16159,0.5335 -0.37616,1.0559 -0.65517,1.6132 -0.0681,0.1262 -0.13628,0.2512 -0.20699,0.3736 -0.22092,0.3187 -0.44053,0.6373 -0.51,0.7735 -0.0669,0.079 -0.13633,0.1562 -0.20574,0.2325 z m 1.76598,-6.7503 c -0.11108,-0.6173 -0.31683,-1.2147 -0.64504,-1.8695 -0.0631,-0.1124 -0.12749,-0.2224 -0.19312,-0.3273 -0.0517,-0.1525 -0.10858,-0.2975 -0.17171,-0.4374 0.15779,0.2224 0.30805,0.4599 0.45321,0.7198 0.18174,0.3636 0.32566,0.7098 0.43799,1.0521 0.0631,0.2862 0.101,0.5711 0.11867,0.8623 z m -1.22824,-2.7617 c -0.49862,-0.6522 -1.0679,-1.1508 -1.75715,-1.5944 -0.12241,-0.1025 -0.24866,-0.2012 -0.37866,-0.2949 -0.10983,-0.086 -0.22346,-0.1687 -0.33958,-0.2487 0.81545,0.4386 1.48194,0.9009 2.05631,1.4945 0.15146,0.1999 0.29158,0.4136 0.41908,0.6435 z m -1.70914,-1.5544 c 0.74349,0.5023 1.32539,1.0671 1.77227,1.6719 0.10225,0.1949 0.19691,0.4024 0.28274,0.6223 l 0.0278,0.071 c 0.11737,0.3887 0.23728,0.7773 0.31807,1.1759 0.0581,0.3637 0.0783,0.731 0.077,1.0996 v 0.043 h 0.0833 l 0.005,-0.041 c 0.0429,-0.3699 -0.004,-0.7585 -0.0783,-1.1221 -0.0467,-0.2975 -0.11991,-0.5873 -0.21208,-0.8747 -0.0341,-0.105 -0.0694,-0.21 -0.10854,-0.3137 l -0.0228,-0.074 c -0.006,-0.019 -0.0113,-0.039 -0.0177,-0.058 0.44942,0.761 0.70816,1.5707 0.82054,2.3904 0.005,0.3687 -0.0215,0.7498 -0.0733,1.1597 -0.1527,1.1958 -0.47337,2.1643 -1.07928,3.2114 -0.24612,0.4274 -0.51119,0.886 -0.86595,1.2359 -0.10599,0.1049 -0.21712,0.2049 -0.32566,0.3086 -0.16537,0.1575 -0.32187,0.3212 -0.47462,0.4899 l -0.2007,0.2199 0.11612,-0.07 c -0.0366,0.035 -0.0745,0.069 -0.11233,0.1012 l -0.0429,-0.052 -0.0669,0.055 c -0.68042,0.5524 -1.36961,0.8485 -2.22169,1.0484 -0.42921,0.1 -0.82932,0.155 -1.22569,0.1725 v 0 c 0.32062,-0.017 0.64378,-0.06 0.97952,-0.1274 l 0.0429,-0.01 -0.0177,-0.086 -0.0429,0.01 c -0.92653,0.1862 -1.7584,0.1674 -2.68493,0.011 -0.96191,-0.1624 -1.74328,-0.4336 -2.56881,-0.9072 -0.0568,-0.034 -0.11362,-0.069 -0.17041,-0.1037 -0.81169,-0.5086 -1.4075,-1.0247 -1.86825,-1.8719 -0.66776,-1.2309 -0.49735,-3.1902 -0.67281,-4.576 -0.0757,-0.6011 -0.17672,-1.1234 -0.4052,-1.6382 -0.077,-0.18 -0.16915,-0.3574 -0.2815,-0.5386 -0.20702,-0.3349 -0.42414,-0.5698 -0.73972,-0.8072 -0.37238,-0.28 -0.72583,-0.4324 -1.16764,-0.5724 -0.0732,-0.024 -0.12623,-0.051 -0.18304,-0.1036 -0.0581,-0.051 -0.0934,-0.1025 -0.12118,-0.1725 -0.029,-0.071 -0.0379,-0.1287 -0.0341,-0.2049 0.005,-0.076 0.0215,-0.135 0.0593,-0.2013 0.0202,-0.035 0.0404,-0.07 0.0618,-0.1024 0.2512,-0.2299 0.58319,-0.4548 0.97829,-0.6673 0.1376,-0.076 0.28024,-0.1474 0.42919,-0.2199 1.08812,-0.5036 2.09797,-0.7872 3.27445,-1.0147 2.12071,-0.3586 4.06085,-0.4199 6.0238,0.105 0.56424,0.1987 1.11965,0.4573 1.66622,0.7872 1.28633,0.7773 2.1914,1.617 2.69381,3.054 l 0.0151,0.043 c 0.10225,0.4311 0.22092,0.8748 0.27646,1.3133 0.0429,0.5124 0.001,0.9847 -0.0694,1.4921 l -0.006,0.043 0.0858,0.014 0.008,-0.043 c 0.0972,-0.5148 0.13758,-0.9934 0.0707,-1.5145 -0.006,-0.079 -0.0164,-0.1575 -0.0252,-0.2362 -0.0429,-0.3786 -0.13005,-0.7335 -0.255,-1.0934 l -0.0101,-0.044 c -0.0215,-0.09 -0.0455,-0.1787 -0.0732,-0.2637 l 0.0416,-0.02 -0.0177,-0.039 c -0.0934,-0.2125 -0.19566,-0.4136 -0.31054,-0.6048 -0.22845,-0.4098 -0.52891,-0.7597 -0.87857,-1.1009 -0.15145,-0.1649 -0.31049,-0.3161 -0.47711,-0.4598 z m -3.8463,12.5834 c 0.44812,-0.01 0.89749,-0.061 1.38099,-0.1737 -0.4835,0.1074 -0.93287,0.1587 -1.38099,0.1624 z"
         style="fill:#feca00;fill-opacity:1;fill-rule:evenodd;stroke:none;stroke-width:0.496499"
         id="path18344" />
      <path
         inkscape:connector-curvature="0"
         d="m 228.00881,2489.502 c -0.19317,0.3736 -0.534,0.641 -0.99724,0.6085 -1.72308,-0.1212 -4.50775,-1.8269 -5.31563,-3.5401 -0.42035,-0.8922 0.003,-1.4833 0.91518,-1.4182 0.87353,0.064 2.39461,0.6897 3.35271,0.9296 2.0879,0.5224 3.30601,0.9785 2.04498,3.4202 z"
         style="fill:#94c118;fill-opacity:1;fill-rule:evenodd;stroke:none;stroke-width:0.496499"
         id="path18352" />
      <path
         inkscape:connector-curvature="0"
         d="m 202.0211,2492.4283 c 1.28125,-1.2546 3.08258,-3.0378 4.99245,-3.114 0.48854,-0.019 -0.0896,0.9909 -0.76874,2.7354 -0.57688,1.482 -0.68165,2.2417 -1.74326,3.4863 -1.24717,1.4608 -2.29363,0.5049 -2.89702,-0.9322 -0.2411,-0.576 -0.0353,-1.7332 0.41657,-2.1755 z"
         style="fill:#00505a;fill-opacity:1;fill-rule:evenodd;stroke:none;stroke-width:0.496499"
         id="path18360" />
      <path
         inkscape:connector-curvature="0"
         d="m 206.91775,2471.4142 c 0.18938,1.2959 0.36862,3.1378 -1.79879,3.7376 -0.51124,0.1424 -1.09064,-0.8897 -1.28252,-1.1684 -0.50366,-0.736 -1.08054,-1.4883 -1.58799,-2.2155 -0.34966,-0.4999 -1.3267,-2.2343 -0.71573,-2.8128 0.67408,-0.6386 3.50166,0.7172 4.05203,1.0821 0.40016,0.2662 1.26738,0.9372 1.333,1.377 z"
         style="fill:#a30054;fill-opacity:1;fill-rule:evenodd;stroke:none;stroke-width:0.496499"
         id="path18368" />
      <path
         inkscape:connector-curvature="0"
         d="m 220.81336,2470.5302 c -0.0896,0.7285 -1.04017,3.6738 -1.49082,3.98 -0.96062,0.6535 -3.80715,-0.2512 -3.64052,-0.8048 0.66271,-2.1855 5.94045,-9.7331 5.13134,-3.1752 z"
         style="fill:#ec6200;fill-opacity:1;fill-rule:evenodd;stroke:none;stroke-width:0.496499"
         id="path18376" />
      <path
         inkscape:connector-curvature="0"
         d="m 215.51198,2491.2435 c 0.87731,-0.1275 2.72661,4.3685 2.84905,5.2695 0.21081,1.562 -1.25096,2.6279 -3.06238,2.7153 -1.71801,0.082 -2.03864,-7.6562 0.21333,-7.9848 z"
         style="fill:#00b2b9;fill-opacity:1;fill-rule:evenodd;stroke:none;stroke-width:0.496499"
         id="path18384" />
    </g>
  </g>
</svg>
