<?xml version="1.0" encoding="UTF-8" standalone="no"?>
<!-- Created with Inkscape (http://www.inkscape.org/) -->

<svg
   xmlns:dc="http://purl.org/dc/elements/1.1/"
   xmlns:cc="http://creativecommons.org/ns#"
   xmlns:rdf="http://www.w3.org/1999/02/22-rdf-syntax-ns#"
   xmlns:svg="http://www.w3.org/2000/svg"
   xmlns="http://www.w3.org/2000/svg"
   xmlns:sodipodi="http://sodipodi.sourceforge.net/DTD/sodipodi-0.dtd"
   xmlns:inkscape="http://www.inkscape.org/namespaces/inkscape"
   width="34.8615mm"
   height="21.485331mm"
   viewBox="0 0 34.8615 21.485331"
   version="1.1"
   id="svg6186"
   inkscape:version="0.92.3 (2405546, 2018-03-11)"
   sodipodi:docname="APF.svg">
  <defs
     id="defs6180" />
  <sodipodi:namedview
     id="base"
     pagecolor="#ffffff"
     bordercolor="#666666"
     borderopacity="1.0"
     inkscape:pageopacity="0.0"
     inkscape:pageshadow="2"
     inkscape:zoom="0.35"
     inkscape:cx="-586.97714"
     inkscape:cy="-13.683464"
     inkscape:document-units="mm"
     inkscape:current-layer="layer1"
     showgrid="false"
     inkscape:window-width="1600"
     inkscape:window-height="870"
     inkscape:window-x="1600"
     inkscape:window-y="0"
     inkscape:window-maximized="1" />
  <metadata
     id="metadata6183">
    <rdf:RDF>
      <cc:Work
         rdf:about="">
        <dc:format>image/svg+xml</dc:format>
        <dc:type
           rdf:resource="http://purl.org/dc/dcmitype/StillImage" />
        <dc:title></dc:title>
      </cc:Work>
    </rdf:RDF>
  </metadata>
  <g
     inkscape:label="Calque 1"
     inkscape:groupmode="layer"
     id="layer1"
     transform="translate(-83.866869,-123.72759)">
    <g
       id="g71435"
       transform="matrix(0.35277777,0,0,-0.35277777,-8.1684904,1012.6181)"
       inkscape:export-filename="/home/sandrine/Documents/TAF FIGLI/APF_site/EXE/ACCUEIL/APF.png"
       inkscape:export-xdpi="300"
       inkscape:export-ydpi="300">
      <path
         inkscape:connector-curvature="0"
         d="m 302.95421,2495.1475 v 0 c 0.57069,-1.304 1.03697,-2.6012 1.52066,-3.8914 h -3.04061 c 0.41478,1.2902 0.94998,2.5874 1.51995,3.8914 z m 4.95866,-7.7276 v 0 c -0.98477,3.3739 -2.24583,6.734 -3.76649,10.0597 h -2.34953 c -1.50325,-3.3739 -2.76432,-6.6858 -3.76649,-10.0597 h 2.21174 c 0.20739,0.6692 0.41478,1.4075 0.62217,2.1251 h 4.12908 c 0.20739,-0.7176 0.46628,-1.4559 0.62148,-2.1251 z"
         style="fill:#20526b;fill-opacity:1;fill-rule:nonzero;stroke:none;stroke-width:0.16398799"
         id="path18414" />
      <path
         inkscape:connector-curvature="0"
         d="m 312.68222,2495.7133 v 0 c 1.76076,0 2.14354,-0.207 2.14354,-1.3524 0,-1.3868 -0.59157,-1.5593 -2.26881,-1.5593 h -1.29447 v 2.9117 z m -3.55979,-8.2934 v 0 h 2.14005 v 3.6844 h 1.99043 c 1.98345,0 3.71637,0.3588 3.71637,3.2014 0,2.9669 -1.83731,3.1739 -3.97388,3.1739 h -3.87297 z"
         style="fill:#20526b;fill-opacity:1;fill-rule:nonzero;stroke:none;stroke-width:0.16398799"
         id="path18422" />
      <path
         inkscape:connector-curvature="0"
         d="m 318.67436,2487.4199 v 0 h 2.0948 v 4.2502 h 4.4541 v 1.7111 h -4.4541 v 2.3321 h 5.0735 v 1.7663 h -7.1683 z"
         style="fill:#20526b;fill-opacity:1;fill-rule:nonzero;stroke:none;stroke-width:0.16398799"
         id="path18430" />
      <path
         inkscape:connector-curvature="0"
         d="m 299.9658,2473.655 v 0 h -1.93544 v -10.0045 h 1.93544 v 4.0432 c 0,1.3868 0.3278,1.9181 1.62366,1.9181 1.26106,0 1.26106,-0.5313 1.26106,-2.1803 v -3.781 h 1.98694 v 4.1467 c 0,2.3252 -0.46628,3.3532 -2.72952,3.3532 -0.72589,0 -1.65845,-0.1035 -2.14214,-0.821 z"
         style="fill:#20526b;fill-opacity:1;fill-rule:nonzero;stroke:none;stroke-width:0.16398799"
         id="path18456" />
      <path
         inkscape:connector-curvature="0"
         d="m 319.67653,2463.5953 v 0 h 1.99041 v 4.5054 c 0,2.2769 -0.52195,3.0497 -2.45669,3.0497 -1.36408,0 -1.98347,-0.414 -2.51935,-1.1315 v 0.9797 h -1.86515 v -7.4033 h 1.98345 v 3.5326 c 0,1.7456 0.16009,2.4839 1.55893,2.4839 1.25968,0 1.3084,-0.6348 1.3084,-1.7664 z"
         style="fill:#20526b;fill-opacity:1;fill-rule:nonzero;stroke:none;stroke-width:0.16398799"
         id="path18464" />
      <path
         inkscape:connector-curvature="0"
         d="m 328.45247,2467.328 v 0 c 0,-1.9181 -0.57068,-2.2769 -1.67028,-2.2769 -1.14136,0 -1.66333,0.3588 -1.66333,2.3321 0,1.5386 0.31318,2.2286 1.71204,2.2286 1.10656,0 1.62157,-0.483 1.62157,-2.2838 z m 1.93475,-3.6775 v 0 10.0045 h -1.98346 v -3.2773 c -0.3619,0.4139 -0.93258,0.7727 -2.19226,0.7727 -1.93474,0 -3.13177,-0.9245 -3.13177,-3.8224 0,-2.3804 0.82818,-3.8845 3.13177,-3.8845 1.00218,0 1.77469,0.1035 2.24097,0.8762 v -0.6692 z"
         style="fill:#20526b;fill-opacity:1;fill-rule:nonzero;stroke:none;stroke-width:0.16398799"
         id="path18472" />
      <path
         inkscape:connector-curvature="0"
         d="m 332.22453,2463.6504 v 0 h 1.98347 v 7.3482 h -1.98347 z"
         style="fill:#20526b;fill-opacity:1;fill-rule:nonzero;stroke:none;stroke-width:0.16398799"
         id="path18480" />
      <path
         inkscape:connector-curvature="0"
         d="m 332.32196,2472.8615 v 0 c -0.20182,-0.5657 -0.0487,-1.1798 0.46629,-1.3316 0.46629,-0.1035 1.10656,0.2001 1.37102,0.7659 0.25751,0.5657 0.0487,1.1867 -0.41757,1.3592 -0.53587,0.1518 -1.15527,-0.2277 -1.41974,-0.7935 z"
         style="fill:#20526b;fill-opacity:1;fill-rule:nonzero;stroke:none;stroke-width:0.16398799"
         id="path18488" />
      <path
         inkscape:connector-curvature="0"
         d="m 342.67076,2468.5147 v 0 c -0.20183,1.8146 -1.15529,2.6357 -3.29881,2.6357 -2.97172,0 -3.64679,-1.5386 -3.64679,-3.919 0,-2.1251 0.57068,-3.7879 3.54238,-3.7879 2.47064,0 3.25011,1.1315 3.40322,2.7943 h -1.98347 c -0.0557,-0.7244 -0.41756,-1.1867 -1.52413,-1.1867 -0.98129,0 -1.39887,0.3588 -1.39887,2.2769 0,1.856 0.41758,2.2838 1.50325,2.2838 1.00219,0 1.26665,-0.3588 1.41975,-1.0971 z"
         style="fill:#20526b;fill-opacity:1;fill-rule:nonzero;stroke:none;stroke-width:0.16398799"
         id="path18496" />
      <path
         inkscape:connector-curvature="0"
         d="m 354.3349,2467.3832 v 0 c 0,1.6421 0.41758,2.2286 1.65637,2.2286 1.31534,0 1.67724,-0.6348 1.67724,-2.3321 0,-1.5594 -0.31318,-2.2286 -1.62157,-2.2286 -1.29446,0 -1.71204,0.621 -1.71204,2.3321 z m -1.88603,3.6154 v 0 -10.1908 h 1.99042 v 3.4567 c 0.2575,-0.3588 0.77947,-0.821 2.19225,-0.821 2.35231,0 3.0761,1.2833 3.0761,3.8362 0,2.9944 -1.03696,3.8707 -3.0761,3.8707 -1.05088,0 -1.77467,-0.207 -2.29664,-0.9246 v 0.7728 z"
         style="fill:#20526b;fill-opacity:1;fill-rule:nonzero;stroke:none;stroke-width:0.16398799"
         id="path18504" />
      <path
         inkscape:connector-curvature="0"
         d="m 311.26249,2470.9986 v 0 -0.7245 c -0.51641,0.7728 -1.25899,0.9798 -2.29596,0.9798 -2.03843,0 -3.1443,-0.8763 -3.1443,-3.8707 0,-2.5529 0.79478,-3.8362 3.1443,-3.8362 1.39956,0 1.93406,0.407 2.19155,0.7727 v -0.7244 h 1.99043 v 7.4033 z m -1.77746,-5.844 v 0 c -1.31327,0 -1.62367,0.6209 -1.62367,2.2286 0,1.6421 0.36259,2.2769 1.67517,2.2769 1.25966,0 1.67724,-0.5313 1.67724,-2.2286 0,-1.656 -0.41758,-2.2769 -1.72874,-2.2769 z"
         style="fill:#20526b;fill-opacity:1;fill-rule:nonzero;stroke:none;stroke-width:0.16398799"
         id="path18512" />
      <path
         inkscape:connector-curvature="0"
         d="m 348.84386,2470.9986 v 0 -0.7245 c -0.52197,0.7728 -1.26665,0.9798 -2.30361,0.9798 -2.03218,0 -3.13874,-0.8763 -3.13874,-3.8707 0,-2.5529 0.79338,-3.8362 3.13874,-3.8362 1.41974,0 1.93474,0.407 2.1992,0.7727 v -0.7244 h 1.98347 v 7.4033 z m -1.73293,-5.844 v 0 c -1.36406,0 -1.67029,0.6209 -1.67029,2.2286 0,1.6421 0.4315,2.2769 1.72596,2.2769 1.21096,0 1.67726,-0.5313 1.67726,-2.2286 0,-1.656 -0.4663,-2.2769 -1.73293,-2.2769 z"
         style="fill:#20526b;fill-opacity:1;fill-rule:nonzero;stroke:none;stroke-width:0.16398799"
         id="path18520" />
      <path
         inkscape:connector-curvature="0"
         d="m 324.32548,2475.5041 v 0 h 1.99042 v 4.5192 c 0,2.2286 -0.52197,3.0497 -2.45671,3.0497 -1.36407,0 -1.93474,-0.414 -2.50542,-1.1454 v 0.9936 h -1.88603 v -7.4171 h 1.99042 v 3.5257 c 0,1.7111 0.15312,2.4287 1.57285,2.4287 1.24576,0 1.29447,-0.5589 1.29447,-1.7111 z"
         style="fill:#20526b;fill-opacity:1;fill-rule:nonzero;stroke:none;stroke-width:0.16398799"
         id="path18546" />
      <path
         inkscape:connector-curvature="0"
         d="m 308.01656,2475.5041 v 0 2.7529 c 0,1.6491 0.1037,2.9462 1.67586,2.9462 0.41478,0 0.62217,-0.048 0.62217,-0.048 v 1.8629 c 0,0 -0.15589,0.055 -0.46698,0.055 -0.98477,0 -1.51996,-0.3105 -1.93474,-1.0971 v 0.9453 h -1.88325 v -7.4171 z"
         style="fill:#20526b;fill-opacity:1;fill-rule:nonzero;stroke:none;stroke-width:0.16398799"
         id="path18554" />
      <path
         inkscape:connector-curvature="0"
         d="m 298.03036,2475.5041 v 0 h 2.09064 v 4.2433 h 4.45757 v 1.7111 H 300.121 v 2.3873 h 5.07974 v 1.7111 h -7.17038 z"
         style="fill:#20526b;fill-opacity:1;fill-rule:nonzero;stroke:none;stroke-width:0.16398799"
         id="path18562" />
      <path
         inkscape:connector-curvature="0"
         d="m 334.72299,2480.4373 v 0 c -0.20182,1.7594 -1.1344,2.6357 -3.27793,2.6357 -2.99259,0 -3.6607,-1.6145 -3.6607,-3.9397 0,-2.1251 0.56372,-3.7879 3.5563,-3.7879 2.44975,0 3.22922,1.1522 3.38233,2.8081 h -1.98347 c -0.0487,-0.7865 -0.41756,-1.1936 -1.51716,-1.1936 -0.98825,0 -1.40582,0.3588 -1.40582,2.2217 0,1.9181 0.41757,2.2769 1.52412,2.2769 0.9813,0 1.24576,-0.3588 1.39886,-1.0212 z"
         style="fill:#20526b;fill-opacity:1;fill-rule:nonzero;stroke:none;stroke-width:0.16398799"
         id="path18570" />
      <path
         inkscape:connector-curvature="0"
         d="m 338.18187,2479.9061 v 0 c 0.0487,1.1936 0.3619,1.5524 1.51719,1.5524 0.88386,0 1.45453,-0.2001 1.50325,-1.5524 z m 2.91605,-2.2838 v 0 c -0.20184,-0.5589 -0.66812,-0.6624 -1.39886,-0.6624 -1.09961,0 -1.46847,0.3036 -1.56589,1.7111 h 5.05955 c 0,3.2015 -0.77946,4.402 -3.38928,4.402 -3.1457,0 -3.70942,-1.6628 -3.70942,-3.7879 0,-3.1532 1.29447,-3.9397 3.60504,-3.9397 2.03913,0 3.18048,0.5864 3.43799,2.2769 z"
         style="fill:#20526b;fill-opacity:1;fill-rule:nonzero;stroke:none;stroke-width:0.16398799"
         id="path18578" />
      <path
         inkscape:connector-curvature="0"
         d="m 316.12021,2482.9212 v 0 -0.7245 c -0.52195,0.7728 -1.24574,0.9798 -2.29664,0.9798 -2.03913,0 -3.12899,-0.8763 -3.12899,-3.8914 0,-2.5322 0.77668,-3.8845 3.12899,-3.8845 1.41278,0 1.93474,0.476 2.19225,0.8348 v -0.7313 h 1.98347 v 7.4171 z m -1.72596,-5.913 v 0 c -1.35014,0 -1.66332,0.6693 -1.66332,2.2769 0,1.6628 0.3619,2.2769 1.71204,2.2769 1.21096,0 1.67724,-0.5658 1.67724,-2.2217 0,-1.6628 -0.46628,-2.3321 -1.72596,-2.3321 z"
         style="fill:#20526b;fill-opacity:1;fill-rule:nonzero;stroke:none;stroke-width:0.16398799"
         id="path18586" />
      <path
         inkscape:connector-curvature="0"
         d="m 278.74973,2491.1044 v 0 c -4.49168,-0.1518 -8.77664,-2.0699 -11.97245,-5.0851 19.60918,9.3353 25.98406,-5.3817 26.19142,-6.1683 -0.98474,6.6996 -6.73821,11.4604 -14.21897,11.2534 z"
         style="fill:#f79e1c;fill-opacity:1;fill-rule:nonzero;stroke:none;stroke-width:0.16398799"
         id="path18628" />
      <path
         inkscape:connector-curvature="0"
         d="m 297.97886,2506.4837 v 0 c -2.14214,0.9246 -5.06235,-0.2553 -6.5823,-2.6356 -1.45106,-2.4494 -0.88108,-5.1403 1.26106,-6.0649 2.14214,-0.9383 5.06235,0.2622 6.53081,2.6426 1.46845,2.4287 0.93257,5.1196 -1.20957,6.0579 z"
         style="fill:#f79e1c;fill-opacity:1;fill-rule:nonzero;stroke:none;stroke-width:0.16398799"
         id="path18636" />
      <path
         inkscape:connector-curvature="0"
         d="m 292.65763,2489.6001 v 0 c -3.45541,3.3189 -14.06309,16.5248 -13.16462,20.4646 0.98477,4.2984 7.35968,7.8104 13.31976,9.625 -0.94994,-0.1518 -1.7273,-0.3036 -2.45319,-0.5106 -6.5301,-1.7111 -13.3372,-5.3955 -14.42567,-9.9493 -0.89847,-3.8914 2.60843,-8.2935 6.4786,-12.0607 2.40174,-2.3458 -2.60842,-0.7865 -6.84119,-3.2705 v 0 c 6.7375,2.6911 19.69466,-6.8375 17.08631,-4.2985 z"
         style="fill:#20526b;fill-opacity:1;fill-rule:nonzero;stroke:none;stroke-width:0.16398799"
         id="path18644" />
      <path
         inkscape:connector-curvature="0"
         d="m 287.63014,2474.2692 v 0 c -0.77738,-5.7061 -6.16752,-10.315 -11.95582,-10.315 -5.80493,0 -9.88182,4.6089 -9.05293,10.315 0.79478,5.6853 6.16821,10.3081 11.97315,10.3081 5.80485,0 9.88183,-4.6228 9.0356,-10.3081 z m 5.02747,3.781 v 0 c -0.31112,1.442 -6.9449,15.3863 -25.60403,6.9894 -3.14432,-2.7875 -5.39015,-6.5754 -6.01233,-10.7704 -1.20956,-8.5487 4.85495,-15.4828 13.57941,-15.4828 8.72514,0 16.77584,6.9341 17.98474,15.4828 0.20736,1.2833 0.20736,2.5874 0.0522,3.781 z"
         style="fill:#20526b;fill-opacity:1;fill-rule:nonzero;stroke:none;stroke-width:0.16398799"
         id="path18652" />
    </g>
  </g>
</svg>
