<?xml version="1.0" encoding="UTF-8" standalone="no"?>
<!-- Created with Inkscape (http://www.inkscape.org/) -->

<svg
   xmlns:dc="http://purl.org/dc/elements/1.1/"
   xmlns:cc="http://creativecommons.org/ns#"
   xmlns:rdf="http://www.w3.org/1999/02/22-rdf-syntax-ns#"
   xmlns:svg="http://www.w3.org/2000/svg"
   xmlns="http://www.w3.org/2000/svg"
   xmlns:sodipodi="http://sodipodi.sourceforge.net/DTD/sodipodi-0.dtd"
   xmlns:inkscape="http://www.inkscape.org/namespaces/inkscape"
   width="121.422mm"
   height="48.35899mm"
   viewBox="0 0 121.422 48.35899"
   version="1.1"
   id="svg13583"
   inkscape:version="0.92.3 (2405546, 2018-03-11)"
   sodipodi:docname="eve-text_violetblue.svg">
  <defs
     id="defs13577" />
  <sodipodi:namedview
     id="base"
     pagecolor="#ffffff"
     bordercolor="#666666"
     borderopacity="1.0"
     inkscape:pageopacity="0.0"
     inkscape:pageshadow="2"
     inkscape:zoom="0.35"
     inkscape:cx="-374.82683"
     inkscape:cy="108.52991"
     inkscape:document-units="mm"
     inkscape:current-layer="layer1"
     showgrid="false"
     inkscape:window-width="1600"
     inkscape:window-height="870"
     inkscape:window-x="1600"
     inkscape:window-y="0"
     inkscape:window-maximized="1" />
  <metadata
     id="metadata13580">
    <rdf:RDF>
      <cc:Work
         rdf:about="">
        <dc:format>image/svg+xml</dc:format>
        <dc:type
           rdf:resource="http://purl.org/dc/dcmitype/StillImage" />
        <dc:title></dc:title>
      </cc:Work>
    </rdf:RDF>
  </metadata>
  <g
     inkscape:label="Calque 1"
     inkscape:groupmode="layer"
     id="layer1"
     transform="translate(-27.735432,-129.18955)">
    <g
       id="g64559"
       transform="matrix(0.35277777,0,0,-0.35277777,-8.229066,786.10342)"
       inkscape:export-filename="/home/sandrine/Documents/TAF FIGLI/APF_site/EXE/ACCUEIL/EVE.png"
       inkscape:export-xdpi="300"
       inkscape:export-ydpi="300">
      <path
         inkscape:connector-curvature="0"
         d="m 167.28754,1854.6181 c 0,0 -21.125,7.5 -21.125,7.5 0,0 -16.875,-22.375 -16.875,-22.375 0,0 17.75,-1.25 17.75,-1.25 0,0 20.25,16.125 20.25,16.125 0,0 0,0 0,0 z m -26,-20.75 c -22.5,0 -38.625,-16.5 -38.625,-39.375 0,-18.75 14.5,-30.75 37.375,-30.75 11.375,0 21.25,3.875 29.25,11.375 0,0 -14.5,14.25 -14.5,14.25 -4.375,-3.375 -9.125,-5.125 -13.75,-5.125 -6.25,0 -9.875,2.875 -10.75,8.25 0,0 45.25,0 45.25,0 5.375,24.125 -8.875,41.375 -34.25,41.375 0,0 0,0 0,0 z m 8.125,-28.375 c 0,0 -17.125,0 -17.125,0 2.375,5.5 6.5,9.375 11,9.375 5,0 8,-4.5 6.125,-9.375 z"
         style="fill:#1a1135;fill-opacity:1;fill-rule:evenodd;stroke:none;stroke-width:125"
         id="path386" />
      <path
         inkscape:connector-curvature="0"
         d="m 261.31254,1832.9931 c 0,0 -28.625,0 -28.625,0 0,0 -19.75,-42.875 -19.75,-42.875 0,0 -2.125,42.875 -2.125,42.875 0,0 -28.5,0 -28.5,0 0,0 11.375,-68.375 11.375,-68.375 0,0 28.75,0 28.75,0 0,0 38.875,68.375 38.875,68.375 z"
         style="fill:#1a1135;fill-opacity:1;fill-rule:evenodd;stroke:none;stroke-width:125"
         id="path398" />
      <path
         inkscape:connector-curvature="0"
         d="m 291.78754,1833.8681 c -22.5,0 -38.625,-16.5 -38.625,-39.375 0,-18.75 14.5,-30.75 37.375,-30.75 11.375,0 21.25,3.875 29.25,11.375 0,0 -14.5,14.25 -14.5,14.25 -4.375,-3.375 -9.125,-5.125 -13.75,-5.125 -6.25,0 -9.875,2.875 -10.75,8.25 0,0 45.25,0 45.25,0 5.375,24.125 -8.875,41.375 -34.25,41.375 0,0 0,0 0,0 z m 8.125,-28.375 c 0,0 -17.125,0 -17.125,0 2.375,5.5 6.5,9.375 11,9.375 5,0 8,-4.5 6.125,-9.375 z"
         style="fill:#1a1135;fill-opacity:1;fill-rule:evenodd;stroke:none;stroke-width:125"
         id="path410" />
      <path
         inkscape:connector-curvature="0"
         d="m 105.40061,1727.8535 c 0,0 2.574,12.738 2.574,12.738 0,0 -2.948,0 -2.948,0 0,0 -3.08,-15.4 -3.08,-15.4 0,0 9.57,0 9.57,0 0,0 0.506,2.662 0.506,2.662 0,0 -6.622,0 -6.622,0 z"
         style="fill:#1a1135;fill-opacity:1;fill-rule:evenodd;stroke:none;stroke-width:22"
         id="path10090" />
      <path
         inkscape:connector-curvature="0"
         d="m 118.53261,1740.5915 c 0,0 -2.178,0 -2.178,0 0,0 -1.1,-5.61 -1.1,-5.61 0,0 2.178,0 2.178,0 0,0 1.1,5.61 1.1,5.61 z"
         style="fill:#1a1135;fill-opacity:1;fill-rule:evenodd;stroke:none;stroke-width:22"
         id="path10102" />
      <path
         inkscape:connector-curvature="0"
         d="m 129.09661,1740.8555 c 0,0 -2.75,1.122 -2.75,1.122 0,0 -2.288,-3.168 -2.288,-3.168 0,0 2.222,-0.22 2.222,-0.22 0,0 2.816,2.266 2.816,2.266 0,0 0,0 0,0 z m -3.762,-3.806 c -3.828,0 -6.688,-2.838 -6.688,-6.622 0,-3.256 2.332,-5.368 5.94,-5.368 1.782,0 3.3,0.55 4.51,1.606 0,0 -1.342,1.738 -1.342,1.738 -0.88,-0.66 -1.958,-1.056 -3.08,-1.056 -1.87,0 -3.058,1.034 -3.19,2.728 0,0 8.932,0 8.932,0 0.924,4.136 -1.144,6.974 -5.082,6.974 0,0 0,0 0,0 z m 2.684,-5.06 c 0,0 -6.314,0 -6.314,0 0.55,1.65 1.98,2.794 3.696,2.794 1.738,0 2.662,-1.034 2.618,-2.794 z"
         style="fill:#1a1135;fill-opacity:1;fill-rule:evenodd;stroke:none;stroke-width:22"
         id="path10114" />
      <path
         inkscape:connector-curvature="0"
         d="m 143.83261,1736.9615 c 0,0 -2.926,0 -2.926,0 0,0 -4.862,-8.976 -4.862,-8.976 0,0 -1.232,8.976 -1.232,8.976 0,0 -2.926,0 -2.926,0 0,0 2.156,-11.77 2.156,-11.77 0,0 2.97,0 2.97,0 0,0 6.82,11.77 6.82,11.77 z"
         style="fill:#1a1135;fill-opacity:1;fill-rule:evenodd;stroke:none;stroke-width:22"
         id="path10126" />
      <path
         inkscape:connector-curvature="0"
         d="m 147.52061,1725.0595 c 1.584,0 2.992,0.66 4.026,1.738 0,0 -0.33,-1.606 -0.33,-1.606 0,0 2.838,0 2.838,0 0,0 2.354,11.77 2.354,11.77 0,0 -2.86,0 -2.86,0 0,0 -0.484,-2.332 -0.484,-2.332 -0.616,1.584 -2.002,2.442 -3.982,2.442 -3.608,0 -6.358,-2.926 -6.358,-6.754 0,-3.124 1.936,-5.258 4.796,-5.258 0,0 0,0 0,0 z m 1.034,2.354 c -1.76,0 -2.926,1.21 -2.926,3.058 0,2.244 1.716,4.092 3.85,4.092 1.76,0 2.904,-1.232 2.904,-3.08 0,-2.244 -1.694,-4.07 -3.828,-4.07 z"
         style="fill:#1a1135;fill-opacity:1;fill-rule:evenodd;stroke:none;stroke-width:22"
         id="path10138" />
      <path
         inkscape:connector-curvature="0"
         d="m 163.76261,1741.5155 c 0,0 -2.86,0 -2.86,0 0,0 -3.256,-16.324 -3.256,-16.324 0,0 2.86,0 2.86,0 0,0 3.256,16.324 3.256,16.324 z"
         style="fill:#1a1135;fill-opacity:1;fill-rule:evenodd;stroke:none;stroke-width:22"
         id="path10150" />
      <path
         inkscape:connector-curvature="0"
         d="m 168.86661,1725.0375 c 1.628,0 2.904,0.616 3.828,1.826 0,0 -0.33,-1.672 -0.33,-1.672 0,0 2.904,0 2.904,0 0,0 2.31,11.77 2.31,11.77 0,0 -2.86,0 -2.86,0 0,0 -1.276,-6.226 -1.276,-6.226 -0.374,-1.87 -1.782,-3.124 -3.454,-3.124 -1.716,0 -2.618,1.122 -2.266,2.838 0,0 1.298,6.512 1.298,6.512 0,0 -2.882,0 -2.882,0 0,0 -1.386,-6.93 -1.386,-6.93 -0.616,-2.992 1.012,-4.994 4.114,-4.994 z"
         style="fill:#1a1135;fill-opacity:1;fill-rule:evenodd;stroke:none;stroke-width:22"
         id="path10162" />
      <path
         inkscape:connector-curvature="0"
         d="m 183.62061,1725.0595 c 1.584,0 2.992,0.66 4.026,1.738 0,0 -0.33,-1.606 -0.33,-1.606 0,0 2.838,0 2.838,0 0,0 2.354,11.77 2.354,11.77 0,0 -2.86,0 -2.86,0 0,0 -0.484,-2.332 -0.484,-2.332 -0.616,1.584 -2.002,2.442 -3.982,2.442 -3.608,0 -6.358,-2.926 -6.358,-6.754 0,-3.124 1.936,-5.258 4.796,-5.258 0,0 0,0 0,0 z m 1.034,2.354 c -1.76,0 -2.926,1.21 -2.926,3.058 0,2.244 1.716,4.092 3.85,4.092 1.76,0 2.904,-1.232 2.904,-3.08 0,-2.244 -1.694,-4.07 -3.828,-4.07 z"
         style="fill:#1a1135;fill-opacity:1;fill-rule:evenodd;stroke:none;stroke-width:22"
         id="path10174" />
      <path
         inkscape:connector-curvature="0"
         d="m 198.78461,1734.3875 c 0,0 3.41,0 3.41,0 0,0 0.374,2.09 0.374,2.09 0,0 -3.366,0 -3.366,0 0,0 0.66,3.234 0.66,3.234 0,0 -2.86,0 -2.86,0 0,0 -0.638,-3.234 -0.638,-3.234 0,0 -1.65,0 -1.65,0 0,0 -0.396,-2.09 -0.396,-2.09 0,0 1.628,0 1.628,0 0,0 -1.144,-5.676 -1.144,-5.676 -0.484,-2.42 0.924,-3.652 2.904,-3.652 0.946,0 2.002,0.242 3.014,0.792 0,0 -0.396,2.266 -0.396,2.266 -0.682,-0.308 -1.276,-0.528 -1.848,-0.528 -0.682,0 -1.012,0.242 -0.792,1.364 0,0 1.1,5.434 1.1,5.434 z"
         style="fill:#1a1135;fill-opacity:1;fill-rule:evenodd;stroke:none;stroke-width:22"
         id="path10186" />
      <path
         inkscape:connector-curvature="0"
         d="m 209.33461,1737.0495 c -3.828,0 -6.688,-2.838 -6.688,-6.622 0,-3.256 2.332,-5.368 5.94,-5.368 1.782,0 3.3,0.55 4.51,1.606 0,0 -1.342,1.738 -1.342,1.738 -0.88,-0.66 -1.958,-1.056 -3.08,-1.056 -1.87,0 -3.058,1.034 -3.19,2.728 0,0 8.932,0 8.932,0 0.924,4.136 -1.144,6.974 -5.082,6.974 0,0 0,0 0,0 z m 2.684,-5.06 c 0,0 -6.314,0 -6.314,0 0.55,1.65 1.98,2.794 3.696,2.794 1.738,0 2.662,-1.034 2.618,-2.794 z"
         style="fill:#1a1135;fill-opacity:1;fill-rule:evenodd;stroke:none;stroke-width:22"
         id="path10198" />
      <path
         inkscape:connector-curvature="0"
         d="m 220.56661,1725.0375 c 1.628,0 2.904,0.616 3.828,1.826 0,0 -0.33,-1.672 -0.33,-1.672 0,0 2.904,0 2.904,0 0,0 2.31,11.77 2.31,11.77 0,0 -2.86,0 -2.86,0 0,0 -1.276,-6.226 -1.276,-6.226 -0.374,-1.87 -1.782,-3.124 -3.454,-3.124 -1.716,0 -2.618,1.122 -2.266,2.838 0,0 1.298,6.512 1.298,6.512 0,0 -2.882,0 -2.882,0 0,0 -1.386,-6.93 -1.386,-6.93 -0.616,-2.992 1.012,-4.994 4.114,-4.994 z"
         style="fill:#1a1135;fill-opacity:1;fill-rule:evenodd;stroke:none;stroke-width:22"
         id="path10210" />
      <path
         inkscape:connector-curvature="0"
         d="m 235.23261,1734.8495 c 0,0 0.418,2.112 0.418,2.112 0,0 -2.882,0 -2.882,0 0,0 -2.332,-11.77 -2.332,-11.77 0,0 2.86,0 2.86,0 0,0 1.166,5.786 1.166,5.786 0.528,2.024 2.398,3.498 4.752,3.322 0,0 0.352,2.772 0.352,2.772 -1.782,-0.022 -3.278,-0.77 -4.334,-2.222 z"
         style="fill:#1a1135;fill-opacity:1;fill-rule:evenodd;stroke:none;stroke-width:22"
         id="path10222" />
      <path
         inkscape:connector-curvature="0"
         d="m 249.52061,1725.0595 c 1.584,0 2.992,0.66 4.026,1.738 0,0 -0.33,-1.606 -0.33,-1.606 0,0 2.838,0 2.838,0 0,0 3.256,16.324 3.256,16.324 0,0 -2.838,0 -2.838,0 0,0 -1.408,-6.886 -1.408,-6.886 -0.616,1.584 -2.002,2.442 -3.982,2.442 -3.608,0 -6.358,-2.926 -6.358,-6.754 0,-3.124 1.936,-5.258 4.796,-5.258 0,0 0,0 0,0 z m 1.034,2.354 c -1.76,0 -2.926,1.21 -2.926,3.058 0,2.244 1.716,4.092 3.85,4.092 1.76,0 2.904,-1.232 2.904,-3.08 0,-2.244 -1.694,-4.07 -3.828,-4.07 z"
         style="fill:#1a1135;fill-opacity:1;fill-rule:evenodd;stroke:none;stroke-width:22"
         id="path10244" />
      <path
         inkscape:connector-curvature="0"
         d="m 264.36661,1725.0375 c 1.628,0 2.904,0.616 3.828,1.826 0,0 -0.33,-1.672 -0.33,-1.672 0,0 2.904,0 2.904,0 0,0 2.31,11.77 2.31,11.77 0,0 -2.86,0 -2.86,0 0,0 -1.276,-6.226 -1.276,-6.226 -0.374,-1.87 -1.782,-3.124 -3.454,-3.124 -1.716,0 -2.618,1.122 -2.266,2.838 0,0 1.298,6.512 1.298,6.512 0,0 -2.882,0 -2.882,0 0,0 -1.386,-6.93 -1.386,-6.93 -0.616,-2.992 1.012,-4.994 4.114,-4.994 z"
         style="fill:#1a1135;fill-opacity:1;fill-rule:evenodd;stroke:none;stroke-width:22"
         id="path10256" />
      <path
         inkscape:connector-curvature="0"
         d="m 292.03261,1736.9615 c 0,0 -2.926,0 -2.926,0 0,0 -4.862,-8.976 -4.862,-8.976 0,0 -1.232,8.976 -1.232,8.976 0,0 -2.926,0 -2.926,0 0,0 2.156,-11.77 2.156,-11.77 0,0 2.97,0 2.97,0 0,0 6.82,11.77 6.82,11.77 z"
         style="fill:#1a1135;fill-opacity:1;fill-rule:evenodd;stroke:none;stroke-width:22"
         id="path10278" />
      <path
         inkscape:connector-curvature="0"
         d="m 296.06661,1742.0215 c -1.056,0 -1.98,-0.88 -1.98,-2.002 0,-0.814 0.528,-1.408 1.342,-1.408 1.056,0 1.98,0.88 1.98,2.002 0,0.814 -0.528,1.408 -1.342,1.408 0,0 0,0 0,0 z m 0.462,-5.06 c 0,0 -2.86,0 -2.86,0 0,0 -2.332,-11.77 -2.332,-11.77 0,0 2.838,0 2.838,0 0,0 2.354,11.77 2.354,11.77 z"
         style="fill:#1a1135;fill-opacity:1;fill-rule:evenodd;stroke:none;stroke-width:22"
         id="path10290" />
      <path
         inkscape:connector-curvature="0"
         d="m 310.23261,1736.9615 c 0,0 -2.926,0 -2.926,0 0,0 -4.862,-8.976 -4.862,-8.976 0,0 -1.232,8.976 -1.232,8.976 0,0 -2.926,0 -2.926,0 0,0 2.156,-11.77 2.156,-11.77 0,0 2.97,0 2.97,0 0,0 6.82,11.77 6.82,11.77 z"
         style="fill:#1a1135;fill-opacity:1;fill-rule:evenodd;stroke:none;stroke-width:22"
         id="path10302" />
      <path
         inkscape:connector-curvature="0"
         d="m 314.43261,1734.8495 c 0,0 0.418,2.112 0.418,2.112 0,0 -2.882,0 -2.882,0 0,0 -2.332,-11.77 -2.332,-11.77 0,0 2.86,0 2.86,0 0,0 1.166,5.786 1.166,5.786 0.528,2.024 2.398,3.498 4.752,3.322 0,0 0.352,2.772 0.352,2.772 -1.782,-0.022 -3.278,-0.77 -4.334,-2.222 z"
         style="fill:#1a1135;fill-opacity:1;fill-rule:evenodd;stroke:none;stroke-width:22"
         id="path10314" />
      <path
         inkscape:connector-curvature="0"
         d="m 325.33461,1737.0495 c -3.828,0 -6.688,-2.838 -6.688,-6.622 0,-3.256 2.332,-5.368 5.94,-5.368 1.782,0 3.3,0.55 4.51,1.606 0,0 -1.342,1.738 -1.342,1.738 -0.88,-0.66 -1.958,-1.056 -3.08,-1.056 -1.87,0 -3.058,1.034 -3.19,2.728 0,0 8.932,0 8.932,0 0.924,4.136 -1.144,6.974 -5.082,6.974 0,0 0,0 0,0 z m 2.684,-5.06 c 0,0 -6.314,0 -6.314,0 0.55,1.65 1.98,2.794 3.696,2.794 1.738,0 2.662,-1.034 2.618,-2.794 z"
         style="fill:#1a1135;fill-opacity:1;fill-rule:evenodd;stroke:none;stroke-width:22"
         id="path10326" />
      <path
         inkscape:connector-curvature="0"
         d="m 343.93461,1737.0495 c -3.828,0 -6.688,-2.838 -6.688,-6.622 0,-3.256 2.332,-5.368 5.94,-5.368 1.782,0 3.3,0.55 4.51,1.606 0,0 -1.342,1.738 -1.342,1.738 -0.88,-0.66 -1.958,-1.056 -3.08,-1.056 -1.87,0 -3.058,1.034 -3.19,2.728 0,0 8.932,0 8.932,0 0.924,4.136 -1.144,6.974 -5.082,6.974 0,0 0,0 0,0 z m 2.684,-5.06 c 0,0 -6.314,0 -6.314,0 0.55,1.65 1.98,2.794 3.696,2.794 1.738,0 2.662,-1.034 2.618,-2.794 z"
         style="fill:#1a1135;fill-opacity:1;fill-rule:evenodd;stroke:none;stroke-width:22"
         id="path10348" />
      <path
         inkscape:connector-curvature="0"
         d="m 359.17061,1737.1155 c -1.628,0 -2.904,-0.616 -3.828,-1.826 0,0 0.33,1.672 0.33,1.672 0,0 -2.904,0 -2.904,0 0,0 -2.31,-11.77 -2.31,-11.77 0,0 2.86,0 2.86,0 0,0 1.276,6.226 1.276,6.226 0.374,1.87 1.782,3.124 3.454,3.124 1.716,0 2.618,-1.122 2.266,-2.838 0,0 -1.298,-6.512 -1.298,-6.512 0,0 2.882,0 2.882,0 0,0 1.386,6.93 1.386,6.93 0.616,2.992 -1.012,4.994 -4.114,4.994 z"
         style="fill:#1a1135;fill-opacity:1;fill-rule:evenodd;stroke:none;stroke-width:22"
         id="path10360" />
      <path
         inkscape:connector-curvature="0"
         d="m 369.50261,1725.0595 c 2.662,0 4.532,1.518 4.532,3.696 0,3.542 -5.302,3.212 -5.302,4.95 0,0.66 0.682,1.144 1.584,1.144 1.012,0 2.42,-0.572 3.542,-1.408 0,0 1.364,1.892 1.364,1.892 -1.21,1.056 -3.124,1.738 -4.884,1.738 -2.618,0 -4.378,-1.474 -4.378,-3.63 0,-3.52 5.214,-3.058 5.214,-4.906 0,-0.748 -0.704,-1.254 -1.782,-1.254 -1.342,0 -3.058,0.792 -4.048,1.87 0,0 -1.232,-1.87 -1.232,-1.87 1.122,-1.32 3.322,-2.222 5.39,-2.222 z"
         style="fill:#1a1135;fill-opacity:1;fill-rule:evenodd;stroke:none;stroke-width:22"
         id="path10372" />
      <path
         inkscape:connector-curvature="0"
         d="m 382.63461,1737.0495 c -3.828,0 -6.688,-2.838 -6.688,-6.622 0,-3.256 2.332,-5.368 5.94,-5.368 1.782,0 3.3,0.55 4.51,1.606 0,0 -1.342,1.738 -1.342,1.738 -0.88,-0.66 -1.958,-1.056 -3.08,-1.056 -1.87,0 -3.058,1.034 -3.19,2.728 0,0 8.932,0 8.932,0 0.924,4.136 -1.144,6.974 -5.082,6.974 0,0 0,0 0,0 z m 2.684,-5.06 c 0,0 -6.314,0 -6.314,0 0.55,1.65 1.98,2.794 3.696,2.794 1.738,0 2.662,-1.034 2.618,-2.794 z"
         style="fill:#1a1135;fill-opacity:1;fill-rule:evenodd;stroke:none;stroke-width:22"
         id="path10384" />
      <path
         inkscape:connector-curvature="0"
         d="m 406.42861,1737.1155 c -1.87,0 -3.366,-0.88 -4.466,-2.618 -0.462,1.628 -1.914,2.618 -4.092,2.618 -1.628,0 -2.904,-0.616 -3.828,-1.826 0,0 0.33,1.672 0.33,1.672 0,0 -2.904,0 -2.904,0 0,0 -2.31,-11.77 -2.31,-11.77 0,0 2.86,0 2.86,0 0,0 1.276,6.226 1.276,6.226 0.374,1.87 1.782,3.124 3.454,3.124 1.716,0 2.618,-1.122 2.266,-2.838 0,0 -1.298,-6.512 -1.298,-6.512 0,0 2.882,0 2.882,0 0,0 1.254,6.226 1.254,6.226 0.396,1.87 1.782,3.124 3.476,3.124 1.716,0 2.618,-1.122 2.266,-2.838 0,0 -1.298,-6.512 -1.298,-6.512 0,0 2.882,0 2.882,0 0,0 1.386,6.93 1.386,6.93 0.616,2.992 -1.034,4.994 -4.136,4.994 z"
         style="fill:#1a1135;fill-opacity:1;fill-rule:evenodd;stroke:none;stroke-width:22"
         id="path10396" />
      <path
         inkscape:connector-curvature="0"
         d="m 421.31261,1737.0495 c -1.584,0 -2.97,-0.66 -4.004,-1.738 0,0 1.232,6.204 1.232,6.204 0,0 -2.838,0 -2.838,0 0,0 -3.256,-16.324 -3.256,-16.324 0,0 2.86,0 2.86,0 0,0 0.462,2.288 0.462,2.288 0.638,-1.584 2.002,-2.442 4.004,-2.442 3.608,0 6.358,2.926 6.358,6.754 0,3.124 -1.958,5.258 -4.818,5.258 0,0 0,0 0,0 z m -1.012,-2.354 c 1.738,0 2.926,-1.21 2.926,-3.058 0,-2.244 -1.738,-4.092 -3.85,-4.092 -1.76,0 -2.904,1.232 -2.904,3.08 0,2.244 1.694,4.07 3.828,4.07 z"
         style="fill:#1a1135;fill-opacity:1;fill-rule:evenodd;stroke:none;stroke-width:22"
         id="path10408" />
      <path
         inkscape:connector-curvature="0"
         d="m 433.66261,1741.5155 c 0,0 -2.86,0 -2.86,0 0,0 -3.256,-16.324 -3.256,-16.324 0,0 2.86,0 2.86,0 0,0 3.256,16.324 3.256,16.324 z"
         style="fill:#1a1135;fill-opacity:1;fill-rule:evenodd;stroke:none;stroke-width:22"
         id="path10420" />
      <path
         inkscape:connector-curvature="0"
         d="m 440.83461,1737.0495 c -3.828,0 -6.688,-2.838 -6.688,-6.622 0,-3.256 2.332,-5.368 5.94,-5.368 1.782,0 3.3,0.55 4.51,1.606 0,0 -1.342,1.738 -1.342,1.738 -0.88,-0.66 -1.958,-1.056 -3.08,-1.056 -1.87,0 -3.058,1.034 -3.19,2.728 0,0 8.932,0 8.932,0 0.924,4.136 -1.144,6.974 -5.082,6.974 0,0 0,0 0,0 z m 2.684,-5.06 c 0,0 -6.314,0 -6.314,0 0.55,1.65 1.98,2.794 3.696,2.794 1.738,0 2.662,-1.034 2.618,-2.794 z"
         style="fill:#1a1135;fill-opacity:1;fill-rule:evenodd;stroke:none;stroke-width:22"
         id="path10432" />
    </g>
  </g>
</svg>
