<?xml version="1.0" encoding="UTF-8" standalone="no"?>
<!-- Created with Inkscape (http://www.inkscape.org/) -->

<svg
   xmlns:dc="http://purl.org/dc/elements/1.1/"
   xmlns:cc="http://creativecommons.org/ns#"
   xmlns:rdf="http://www.w3.org/1999/02/22-rdf-syntax-ns#"
   xmlns:svg="http://www.w3.org/2000/svg"
   xmlns="http://www.w3.org/2000/svg"
   xmlns:sodipodi="http://sodipodi.sourceforge.net/DTD/sodipodi-0.dtd"
   xmlns:inkscape="http://www.inkscape.org/namespaces/inkscape"
   width="23.612238mm"
   height="22.381319mm"
   viewBox="0 0 23.612238 22.381319"
   version="1.1"
   id="svg6834"
   inkscape:version="0.92.3 (2405546, 2018-03-11)"
   sodipodi:docname="familles-rurales.svg">
  <defs
     id="defs6828" />
  <sodipodi:namedview
     id="base"
     pagecolor="#ffffff"
     bordercolor="#666666"
     borderopacity="1.0"
     inkscape:pageopacity="0.0"
     inkscape:pageshadow="2"
     inkscape:zoom="0.35"
     inkscape:cx="-348.23561"
     inkscape:cy="-334.84745"
     inkscape:document-units="mm"
     inkscape:current-layer="layer1"
     showgrid="false"
     inkscape:window-width="1600"
     inkscape:window-height="870"
     inkscape:window-x="1600"
     inkscape:window-y="0"
     inkscape:window-maximized="1" />
  <metadata
     id="metadata6831">
    <rdf:RDF>
      <cc:Work
         rdf:about="">
        <dc:format>image/svg+xml</dc:format>
        <dc:type
           rdf:resource="http://purl.org/dc/dcmitype/StillImage" />
        <dc:title></dc:title>
      </cc:Work>
    </rdf:RDF>
  </metadata>
  <g
     inkscape:label="Calque 1"
     inkscape:groupmode="layer"
     id="layer1"
     transform="translate(-20.699838,-37.85696)">
    <g
       id="g71456"
       transform="matrix(0.35277777,0,0,-0.35277777,-117.61515,928.19503)"
       inkscape:export-filename="/home/sandrine/Documents/TAF FIGLI/APF_site/EXE/ACCUEIL/familles_rurales.png"
       inkscape:export-xdpi="300"
       inkscape:export-ydpi="300">
      <path
         inkscape:connector-curvature="0"
         d="m 459.00632,2470.4035 h -66.93233 v -10.0536 h 66.93233 z m -50.8185,-3.2219 c 0,-0.2089 -0.14918,-0.4475 -0.32824,-0.6564 -0.32825,-0.358 -1.28312,-1.2529 -1.90978,-1.8198 -0.92507,-0.8651 -1.1936,-1.4916 -1.25332,-1.6706 -0.0298,-0.179 -0.29837,-0.358 -0.41776,-0.358 -0.14918,0 -0.26853,0.179 -0.35808,0.3878 -0.26854,0.8055 -0.32825,2.2077 -0.17902,3.0728 0.0298,0.2089 -0.17907,0.2387 -0.11939,0.5072 0.0597,0.3281 0.32825,1.1336 0.65649,1.1336 0.17907,0 0.26858,-0.09 0.32825,-0.179 0.11939,-0.1491 0.2089,-0.3878 0.11939,-0.716 -0.14923,-0.4773 -0.23874,-1.5214 -0.23874,-1.7303 0,-0.179 0.0298,-0.358 0.0597,-0.4475 0.0298,-0.1193 0.0895,-0.1193 0.14918,-0.03 0.32825,0.4177 1.55173,1.3425 2.14855,1.8198 0.2387,0.2088 0.32821,0.358 0.35809,0.5967 0.0298,0.2685 0.0597,0.4475 0.11935,0.537 0.0298,0.06 0.11935,0.1491 0.29841,0.1491 0.29841,0.03 0.56694,-0.2386 0.56694,-0.5966 z m 1.93965,1.1336 c -0.0597,-0.358 -0.0597,-0.6265 -0.0597,-0.8651 0,-0.2089 -0.14922,-0.2089 -0.32825,-0.1492 -0.2089,0.09 -0.35808,0.2685 -0.4178,0.4773 -0.0298,0.1193 -0.0597,0.2685 -0.0597,0.537 0.0298,0.3282 0.14922,0.4475 0.35808,0.4475 0.26858,-0.06 0.53715,-0.2088 0.50731,-0.4475 z m 7.31089,-2.0883 c -0.0298,-0.179 -0.11934,-0.3878 -0.20886,-0.4773 -0.11938,-0.1492 -0.23873,-0.179 -0.29841,-0.1492 -0.0597,0.03 -0.14922,0.09 -0.23873,0.09 -0.11935,0 -0.26858,-0.1492 -0.53711,-0.5071 -0.47747,-0.6265 -0.98475,-1.6408 -1.10409,-1.969 -0.0895,-0.2685 -0.23874,-0.4176 -0.38793,-0.4176 -0.14922,0 -0.29841,0.089 -0.41779,0.2386 -0.11935,0.1194 -0.14919,0.2387 -0.0597,0.4475 0.2089,0.5668 0.26857,1.2231 0.32825,1.7601 -0.11935,-0.03 -0.26857,-0.06 -0.41776,-0.06 -0.26857,0 -0.38792,0.03 -0.47743,0.03 -0.0896,0.03 -0.11939,0 -0.14923,-0.06 -0.71617,-1.3723 -1.37267,-1.8794 -1.96945,-2.2076 -0.26857,-0.1491 -0.47747,-0.179 -0.62666,-0.179 -0.14922,0 -0.50731,0.179 -0.44759,0.8652 0,0.1193 0.0597,0.3281 0.11934,0.6265 -0.44759,-0.5669 -1.07425,-1.1635 -1.52185,-1.3724 -0.23873,-0.1193 -0.4178,-0.1491 -0.59682,-0.1491 -0.14919,0 -0.32825,0.09 -0.47743,0.4177 -0.0896,0.1789 -0.0896,0.3878 -0.0298,0.6264 0.0597,0.2387 0.2387,0.8354 0.29837,1.0143 0.0597,0.1492 0.0597,0.2089 0,0.2984 -0.0298,0.09 -0.0597,0.179 0,0.358 0.14923,0.4176 0.77588,1.1336 1.04442,1.1336 0.0597,0 0.11939,-0.03 0.17906,-0.06 0.11935,-0.1193 0.2387,-0.3281 0.11935,-0.5369 -0.29841,-0.5669 -0.53711,-1.1635 -0.77584,-1.969 -0.0895,-0.3282 -0.0895,-0.4773 0.11934,-0.4773 0.29842,0 1.28316,0.9546 1.82027,1.6109 0.0299,0.03 0.0299,0.03 0.0597,0.06 0,0 0,0 0,0.03 -0.0597,0.03 -0.0896,0.1194 -0.0597,0.2387 0.0597,0.3878 0.38796,1.074 0.77588,1.074 0.17902,0 0.35809,-0.2984 0.38792,-0.6265 0.0298,-0.2387 -0.0298,-0.4177 -0.2089,-0.7458 -0.17902,-0.3282 -0.23873,-0.6265 -0.32824,-0.9547 -0.0895,-0.358 -0.0298,-0.537 0.0597,-0.537 0.0597,0 0.14923,0.06 0.26857,0.1492 0.41776,0.3878 0.80569,0.9248 1.04442,1.5513 0.0298,0.06 0.0298,0.1491 -0.0298,0.179 -0.0895,0.09 -0.14919,0.2088 -0.14919,0.3878 0,0.2983 0.38792,0.6265 0.68629,0.6265 0.23874,0 0.35809,-0.2983 0.38797,-0.4773 0,-0.09 0,-0.1492 0.0895,-0.2089 0.11935,-0.089 0.38792,-0.1491 0.68633,-0.1491 0.0597,0 0.11935,0 0.17902,0 0.0597,0.2983 0.14923,0.4176 0.26858,0.537 0.11935,0.1193 0.29841,0.2386 0.44759,0.2386 0.17907,0 0.32825,-0.2088 0.32825,-0.4176 0,-0.09 -0.0895,-0.2089 -0.14918,-0.358 -0.11939,-0.2089 -0.23874,-0.6862 -0.29842,-1.0143 -0.0298,-0.09 0.0298,-0.09 0.11935,0 0.11939,0.179 0.44764,0.7458 0.77585,1.1336 0.29841,0.358 0.62666,0.6862 1.01458,0.6862 0.2089,0.06 0.41776,-0.1194 0.35808,-0.3282 z m 3.84943,-1.6408 c -0.6565,-0.9248 -1.87994,-1.7899 -3.01387,-1.7899 -0.44763,0 -0.89523,0.3878 -0.89523,1.0441 0,0.4773 0.23874,1.253 0.68633,1.9093 0.2089,0.2983 0.71617,0.9248 1.1041,0.9248 0.17906,0 0.29841,-0.09 0.32824,-0.2088 0.0298,-0.03 0.0895,-0.09 0.14923,-0.09 0.32821,-0.03 0.56694,-0.2387 0.56694,-0.6563 0,-0.3879 -0.17902,-0.6862 -0.35808,-0.9249 -0.20886,-0.2088 -0.53711,-0.5071 -1.07426,-0.5071 -0.11934,0 -0.2089,0.03 -0.29841,0.09 -0.0597,0.03 -0.0895,0.03 -0.11935,-0.06 -0.0597,-0.1193 -0.0895,-0.2088 -0.0895,-0.358 0,-0.2386 0.14919,-0.3878 0.4476,-0.3878 0.59682,0 1.49201,0.358 2.47676,1.432 0.0895,0.1193 0.20886,0.1193 0.23874,0.03 0.0298,-0.09 -0.0299,-0.2685 -0.14923,-0.4475 z m 10.23532,3.7291 c -0.0597,-0.358 -0.0597,-0.6265 -0.0597,-0.8651 0,-0.2089 -0.14899,-0.2089 -0.32825,-0.1492 -0.20874,0.09 -0.35804,0.2685 -0.41772,0.4773 -0.0298,0.1193 -0.0597,0.2685 -0.0597,0.537 0.0299,0.3282 0.14922,0.4475 0.35793,0.4475 0.29876,-0.06 0.56726,-0.2088 0.5075,-0.4475 z m 8.7432,-3.6992 c -0.74613,-1.0442 -1.313,-1.432 -1.67112,-1.611 -0.2685,-0.1492 -0.53699,-0.2088 -0.68637,-0.2088 -0.29837,0 -0.47724,0.358 -0.35813,0.9546 0.0299,0.179 0.0598,0.2983 0.0896,0.3878 0.0299,0.1194 -0.0299,0.1492 -0.0896,0.089 -0.14899,-0.179 -0.80548,-0.8353 -1.37235,-1.253 -0.20913,-0.1193 -0.35813,-0.1789 -0.50751,-0.1789 -0.20874,0 -0.41787,0.3281 -0.41787,0.6562 0,0.1194 0.0299,0.3282 0.14938,0.7459 -0.68637,-0.7757 -1.73087,-1.432 -2.74549,-1.432 -0.44736,0 -0.89512,0.3879 -0.89512,1.0441 0,0.09 0.0299,0.2089 0.0299,0.3282 -0.44775,-0.537 -1.01454,-1.074 -1.4323,-1.253 -0.23874,-0.1193 -0.4178,-0.1491 -0.59682,-0.1491 -0.14919,0 -0.32825,0.09 -0.47744,0.4177 -0.0896,0.1789 -0.0896,0.3878 -0.0298,0.6264 0.0298,0.1492 0.0895,0.358 0.14918,0.5967 -0.65649,-1.1337 -1.4025,-1.611 -1.8501,-1.611 -0.50731,0 -0.80572,0.4177 -0.71617,1.3425 0.0298,0.179 0.0597,0.4475 0.0895,0.5668 0.0298,0.1492 0,0.1492 -0.11935,0.03 -0.23873,-0.2983 -1.07425,-1.3424 -1.28315,-1.5512 -0.2089,-0.2089 -0.32825,-0.2984 -0.47744,-0.2984 -0.23873,0 -0.32824,0.4475 -0.17906,1.0143 0.0597,0.2983 0.14923,0.5967 0.23874,0.9248 0.0298,0.1194 0.0597,0.2089 0,0.2387 -0.0298,0.03 -0.14923,-0.03 -0.23874,-0.179 -0.14918,-0.179 -1.10409,-1.5215 -1.28311,-1.7303 -0.17907,-0.2088 -0.29841,-0.2685 -0.38796,-0.2685 -0.14919,0 -0.41776,0.2685 -0.35809,0.9845 0.0299,0.3281 0.17906,0.8055 0.35809,1.5215 0.0299,0.1193 0.0299,0.1491 -0.0298,0.1491 -0.0298,0 -0.11935,0.06 -0.0597,0.2089 0.0895,0.2386 0.32825,1.0143 0.59683,1.0143 0.0895,0 0.17902,-0.03 0.26857,-0.1194 0.20886,-0.179 0.35808,-0.3878 0.2387,-0.6563 -0.11935,-0.2685 -0.29838,-0.7756 -0.41776,-1.2231 -0.0895,-0.2984 -0.0298,-0.358 0.11938,-0.179 0.41776,0.5071 0.6863,0.8353 1.04438,1.2231 0.29841,0.3282 0.4178,0.4475 0.59683,0.5967 0.17906,0.1491 0.32824,0.2386 0.41776,0.2386 0.14922,0 0.47747,-0.2088 0.29841,-0.8054 -0.0597,-0.2089 -0.29841,-0.7757 -0.41776,-1.1039 -0.0597,-0.1491 -0.0895,-0.2386 -0.0298,-0.2685 0.0597,-0.03 0.0895,0.03 0.14919,0.09 0.29841,0.3282 1.31299,1.5215 1.49201,1.7005 0.14923,0.179 0.32825,0.2685 0.4178,0.2685 0.20886,0 0.4476,-0.2685 0.4476,-0.5071 0,-0.1194 -0.0597,-0.179 -0.14919,-0.2685 -0.0597,-0.06 -0.17906,-0.1492 -0.23874,-0.3282 -0.0895,-0.2088 -0.26857,-0.5967 -0.32824,-1.1933 -0.0597,-0.4177 0,-0.6862 0.23873,-0.6862 0.26854,0 0.74601,0.3879 1.6412,1.5812 0.0298,0.03 0.0298,0.03 0.0597,0.06 -0.0298,0.09 -0.0597,0.179 0,0.3282 0.14922,0.4176 0.77588,1.1336 1.04442,1.1336 0.0597,0 0.11938,-0.03 0.17906,-0.06 0.11942,-0.1194 0.23854,-0.3282 0.11942,-0.537 -0.29848,-0.5668 -0.53718,-1.1635 -0.77592,-1.969 -0.0895,-0.3281 -0.0895,-0.4773 0.11935,-0.4773 0.29841,0 1.28319,0.9546 1.82019,1.611 0.0299,0.03 0.0598,0.06 0.0896,0.06 0.0896,0.1492 0.17887,0.3282 0.2685,0.4774 0.20913,0.2983 0.71625,0.9248 1.10425,0.9248 0.17887,0 0.29837,-0.09 0.32825,-0.2089 0.0299,-0.03 0.0892,-0.089 0.14899,-0.089 0.32825,-0.03 0.56725,-0.2387 0.56725,-0.6564 0,-0.3878 -0.17925,-0.6861 -0.35812,-0.9248 -0.20913,-0.2088 -0.53738,-0.5071 -1.07437,-0.5071 -0.11951,0 -0.20875,0.03 -0.29837,0.09 -0.0598,0.03 -0.0896,0.03 -0.11951,-0.06 -0.0598,-0.1194 -0.0892,-0.2089 -0.0892,-0.358 0,-0.2387 0.14899,-0.3878 0.44737,-0.3878 0.59674,0 1.49224,0.358 2.47699,1.4319 0.0295,0.03 0.0594,0.06 0.0892,0.06 0.20913,0.5668 0.41787,1.0143 0.5075,1.1933 0.0892,0.1492 0.23862,0.2387 0.32825,0.2387 0.23862,0 0.53699,-0.2685 0.53699,-0.4475 0,-0.1492 -0.17887,-0.4774 -0.26849,-0.6265 -0.0896,-0.1492 -0.20914,-0.2088 -0.2685,-0.3282 -0.0896,-0.1491 -0.14938,-0.358 -0.2685,-0.7756 -0.0896,-0.3282 -0.0598,-0.4475 0.0594,-0.4475 0.1195,0 0.388,0.2386 0.83575,0.8055 0.47724,0.5668 0.86524,1.3425 1.0445,1.6109 0.14899,0.2387 0.26849,0.3282 0.38761,0.3282 0.23901,0 0.5075,-0.3282 0.388,-0.5966 -0.0299,-0.09 -0.0896,-0.2089 -0.20875,-0.4177 -0.20913,-0.4475 -0.388,-1.1337 -0.44775,-1.5811 -0.0299,-0.2387 0,-0.358 0.14938,-0.358 0.32825,0 1.16361,0.8054 1.73048,1.4916 0.0896,0.09 0.14938,0.09 0.17926,0 0.14899,-0.089 0.0896,-0.3282 -0.0598,-0.5071 z m 3.10361,-0.895 c 0,0.089 -0.0299,0.2088 -0.0299,0.2685 -0.0299,0.1491 0.0299,0.2088 0.17887,0.1193 0.0896,-0.06 0.23862,-0.3878 0.23862,-0.6564 0,-0.4773 -0.47724,-0.6861 -0.68637,-0.6861 -0.32825,0 -0.56687,0.1193 -0.89512,0.3879 -0.23862,0.1789 -0.47724,0.4773 -0.65649,0.7458 -0.0598,0.1193 -0.0896,0.1193 -0.149,0.03 -0.0896,-0.09 -0.17925,-0.179 -0.29837,-0.2983 -0.0598,-0.09 -0.0896,-0.1194 -0.0598,-0.3879 0,-0.1491 -0.0299,-0.2088 -0.1195,-0.2685 -0.0896,-0.06 -0.149,-0.09 -0.35813,-0.1193 -0.11911,0 -0.11911,-0.03 -0.20874,-0.06 -0.11951,-0.09 -0.29837,-0.2089 -0.47763,-0.3282 -0.14899,-0.09 -0.29837,-0.09 -0.35812,-0.03 -0.0594,0.06 -0.0892,0.09 -0.11912,0.1491 -0.0299,0.09 0,0.2089 0.11912,0.358 0.0597,0.1193 0.68637,0.7458 1.552,1.5513 0.0892,0.06 0.0892,0.1492 0.0299,0.2387 -0.0896,0.179 -0.35812,0.7458 -0.5075,1.1634 -0.0896,0.2089 -0.0896,0.358 -0.0299,0.5072 0.0598,0.179 0.35813,0.358 0.62662,0.358 0.2685,0 0.32825,-0.09 0.29837,-0.3282 -0.0299,-0.2983 0.0896,-0.6563 0.26889,-1.1336 0.0295,-0.06 0.0594,-0.06 0.11911,-0.03 0.0896,0.1193 0.71625,0.716 0.98475,0.8949 0.20913,0.1492 0.35812,0.1791 0.44775,0.1791 0.17887,0 0.29837,-0.2387 0.32825,-0.3879 0.0299,-0.1193 0.0299,-0.358 -0.11951,-0.3878 -0.47724,-0.1492 -1.04449,-0.6265 -1.31299,-0.9248 -0.11911,-0.1194 -0.0896,-0.1492 -0.0299,-0.2685 0.388,-0.6862 0.95486,-0.9547 1.07437,-0.9547 0.0896,0 0.14938,0.1194 0.14938,0.2984 z m 3.37172,0.2386 c 0.32825,0 0.5075,-0.4475 0.5075,-0.716 0,-0.2983 -0.29837,-0.5668 -0.59713,-0.5668 -0.32825,0 -0.47724,0.358 -0.47724,0.6265 -0.0299,0.2983 0.29837,0.6563 0.56687,0.6563 z m 1.49225,2.5656 c -0.14938,-0.1789 -0.20914,-0.2386 -0.32825,-0.5071 -0.0896,-0.179 -0.23901,-0.4774 -0.50751,-1.1635 -0.11911,-0.3282 -0.32824,-0.4177 -0.44736,-0.4177 -0.1195,0 -0.26888,0.1194 -0.0896,0.895 0.0598,0.2088 0.2685,1.1038 0.47724,1.8795 0.0896,0.2685 0.23901,0.4177 0.388,0.4177 0.35813,0 0.50751,-0.3879 0.59675,-0.6265 0.0598,-0.179 0.0299,-0.3282 -0.0892,-0.4774 z m -15.24879,-1.4618 c -0.0299,-0.1193 -0.0299,-0.1491 0.1195,-0.1491 0.29837,0 0.74613,0.4773 0.74613,0.7756 0,0.1492 -0.0896,0.2387 -0.20914,0.2387 -0.20874,-0.03 -0.53699,-0.5668 -0.65649,-0.8652 z m -14.38293,0 c -0.0299,-0.1193 -0.0299,-0.1491 0.11935,-0.1491 0.29841,0 0.74601,0.4773 0.74601,0.7756 0,0.1492 -0.0895,0.2387 -0.23874,0.2387 -0.20886,-0.03 -0.50727,-0.5668 -0.62662,-0.8652 z"
         style="fill:#3d84c2;fill-opacity:1;fill-rule:nonzero;stroke:none;stroke-width:0.038795"
         id="path18694" />
      <path
         inkscape:connector-curvature="0"
         d="m 428.09142,2505.994 c 0.0298,-0.03 -0.11937,0.3878 0.65648,0.716 0.38793,0.1193 1.07426,0.1491 1.82027,-0.358 0.62664,-0.4773 1.64122,-1.6707 0.86537,-3.4905 -0.41776,-0.8353 -1.22345,-1.2828 -1.76058,-1.4618 -0.53713,-0.2685 -1.85011,-0.2386 -2.41708,0.5967 -0.83553,1.4618 -0.20888,2.1778 0.0298,2.7446 0.71617,1.1038 1.49203,1.074 1.46218,1.074 -0.0597,0.03 -0.68633,0.179 -0.65648,0.179 z"
         style="fill:#e59244;fill-opacity:1;fill-rule:nonzero;stroke:none;stroke-width:0.038795"
         id="path18702" />
      <path
         inkscape:connector-curvature="0"
         d="m 428.95679,2500.1467 c -0.20889,0.06 1.79042,2.2673 1.43234,-5.2804 -0.41777,-5.0715 -2.47676,-7.4582 -2.44692,-7.4582 -0.0298,0 -1.10409,0.8652 -0.50729,5.5788 0.56697,4.7135 1.52187,7.1001 1.52187,7.1598 z"
         style="fill:#e59244;fill-opacity:1;fill-rule:nonzero;stroke:none;stroke-width:0.038795"
         id="path18710" />
      <path
         inkscape:connector-curvature="0"
         d="m 438.80414,2518.2851 c 0.0298,-0.03 1.13394,-0.716 0.65649,-12.6193 -0.50729,-11.9331 -1.4025,-18.2576 -1.43234,-18.2576 0,0 -2.2082,1.2828 -1.58155,13.186 0.50729,11.9033 2.23804,17.7207 2.3574,17.6909 z"
         style="fill:#9ec357;fill-opacity:1;fill-rule:nonzero;stroke:none;stroke-width:0.038795"
         id="path18718" />
      <path
         inkscape:connector-curvature="0"
         d="m 432.77637,2516.6144 c 0.0298,0 -0.11936,0.358 0.44761,0.7757 0.26857,0.179 0.98474,0.3878 1.79044,-0.2685 0.74601,-0.5967 1.22344,-2.0883 0.20886,-3.3711 -1.0444,-1.1635 -2.53643,-1.3126 -3.64052,-0.4773 -1.04442,0.9845 -0.68633,2.0584 -0.41777,2.5358 0.77585,1.0441 1.49202,0.7159 1.46218,0.7756 0.0298,0.03 0.0895,0 0.1492,0.03 z"
         style="fill:#3d84c2;fill-opacity:1;fill-rule:nonzero;stroke:none;stroke-width:0.038795"
         id="path18726" />
      <path
         inkscape:connector-curvature="0"
         d="m 448.62164,2517.1514 c -0.0895,0.06 -0.35809,-1.7004 -2.35738,-4.0274 -1.13396,-1.3425 -2.92439,-2.5656 -5.40115,-3.6993 0.0895,-0.8054 0.14922,-1.7004 0.17906,-2.7147 2.68566,1.2231 4.59544,2.7744 5.7592,4.2362 1.31299,1.6408 1.76059,3.0728 1.93965,4.0274 0.29838,1.969 -0.14922,2.1778 -0.11938,2.1778 z m -23.15619,-14.2004 c 0,0.06 0.0299,0.1492 0.0299,0.2089 -0.89522,-0.6862 -1.52187,-1.3425 -1.93964,-1.969 -1.13393,-1.7303 -0.92505,-2.3568 -0.92505,-2.4165 0.0597,0.03 0.83553,1.3723 3.07357,2.6552 -0.26857,0.6265 -0.26857,1.1933 -0.23873,1.5214 z"
         style="fill:#3d84c2;fill-opacity:1;fill-rule:nonzero;stroke:none;stroke-width:0.038795"
         id="path18734" />
      <path
         inkscape:connector-curvature="0"
         d="m 408.66528,2489.5859 c 0,-0.537 0.11935,-0.7458 0.53715,-0.7458 0.14919,0 0.29837,0 0.53711,0.03 v -1.5214 c -0.32825,-0.1194 -1.01458,-0.2387 -1.40251,-0.2387 -0.89519,0 -1.52185,0.2983 -1.70091,1.2232 -0.86536,-0.8652 -2.2977,-1.2232 -3.46148,-1.2232 -1.79043,0 -3.43165,0.9547 -3.43165,2.9236 0,2.506 1.99931,2.8938 3.84942,3.1324 1.58153,0.2984 3.01387,0.1194 3.01387,1.4022 0,1.1336 -1.1936,1.3425 -2.08883,1.3425 -1.25329,0 -2.11866,-0.5072 -2.20818,-1.5812 h -2.20819 c 0.1492,2.5656 2.35739,3.3413 4.56559,3.3413 1.96945,0 3.99861,-0.8055 3.99861,-2.9236 z m -2.20818,2.8043 c -0.68634,-0.4475 -1.73075,-0.4177 -2.7155,-0.5967 -0.95488,-0.1491 -1.79042,-0.5071 -1.79042,-1.6706 0,-0.9845 1.2533,-1.2828 2.02916,-1.2828 0.9549,0 2.47676,0.5072 2.47676,1.9093 z"
         style="fill:#3d84c2;fill-opacity:1;fill-rule:nonzero;stroke:none;stroke-width:0.038795"
         id="path18742" />
      <path
         inkscape:connector-curvature="0"
         d="m 410.72427,2497.4021 h 2.08883 V 2496 h 0.0597 c 0.65649,0.9844 1.49203,1.6706 3.07358,1.6706 1.22344,0 2.35737,-0.537 2.80501,-1.6706 0.746,1.0441 1.70087,1.6706 3.13321,1.6706 2.11868,0 3.34216,-0.9248 3.34216,-3.3711 v -6.9212 h -2.20819 v 5.8472 c 0,1.5812 -0.0896,2.685 -1.82026,2.685 -1.49206,0 -2.14855,-0.9845 -2.14855,-2.685 v -5.8472 h -2.20819 v 6.4439 c 0,1.3723 -0.41776,2.1181 -1.76059,2.1181 -1.13392,0 -2.17834,-0.9248 -2.17834,-2.5954 v -5.9666 h -2.20819 v 10.0238 z"
         style="fill:#3d84c2;fill-opacity:1;fill-rule:nonzero;stroke:none;stroke-width:0.038795"
         id="path18750" />
      <path
         inkscape:connector-curvature="0"
         d="m 442.14627,2491.7935 c 0,-1.5811 0.86538,-2.9534 2.68565,-2.9534 1.28312,0 2.059,0.5668 2.44693,1.6706 h 2.08883 c -0.47747,-2.1777 -2.35741,-3.4009 -4.53576,-3.4009 -3.13326,0 -4.89384,2.1778 -4.89384,5.2804 0,2.8639 1.85011,5.2804 4.83417,5.2804 3.16305,0 5.1027,-2.8639 4.74462,-5.8472 h -7.3706 z m 5.13258,1.4619 c -0.0895,1.4021 -1.01459,2.6551 -2.5066,2.6551 -1.52188,0 -2.56629,-1.1635 -2.62598,-2.6551 z"
         style="fill:#3d84c2;fill-opacity:1;fill-rule:nonzero;stroke:none;stroke-width:0.038795"
         id="path18758" />
      <path
         inkscape:connector-curvature="0"
         d="m 452.29202,2490.6002 c 0.11936,-1.2828 1.07426,-1.7303 2.26789,-1.7303 0.83552,0 2.2977,0.179 2.23802,1.3127 -0.0597,1.1634 -1.67107,1.3126 -3.28245,1.6706 -1.64122,0.358 -3.22277,0.9248 -3.22277,2.9535 0,2.1777 2.3574,2.8639 4.17765,2.8639 2.059,0 3.9091,-0.8651 4.17767,-3.0728 h -2.29769 c -0.2089,1.0442 -1.07426,1.3425 -2.02916,1.3425 -0.62666,0 -1.82027,-0.1492 -1.82027,-1.0441 0,-1.074 1.6412,-1.253 3.25261,-1.611 1.6114,-0.358 3.22276,-0.9547 3.22276,-2.9236 0,-2.3866 -2.41708,-3.2518 -4.47608,-3.2518 -2.53642,0 -4.41637,1.1337 -4.44621,3.4904 z"
         style="fill:#3d84c2;fill-opacity:1;fill-rule:nonzero;stroke:none;stroke-width:0.038795"
         id="path18766" />
      <path
         inkscape:connector-curvature="0"
         d="m 433.37317,2511.6622 c 0,0 0.38793,-0.06 0.92506,-2.0883 0.50729,-1.9988 1.04441,-5.9964 0.80569,-13.3949 -0.56697,-14.7374 -2.89452,-22.4641 -2.83484,-22.4641 -0.0597,0 -1.04442,2.0585 -0.17905,16.4379 0.83554,14.3794 1.34283,21.4199 1.28314,21.5094 z"
         style="fill:#3d84c2;fill-opacity:1;fill-rule:nonzero;stroke:none;stroke-width:0.038795"
         id="path18774" />
      <path
         inkscape:connector-curvature="0"
         d="m 396.04277,2484.037 h 2.08883 v -1.9391 h 0.0298 c 0.23872,1.074 1.58155,2.2076 2.92436,2.2076 0.50731,0 0.62666,-0.03 0.83556,-0.06 v -2.1479 c -0.29841,0.03 -0.62666,0.089 -0.95491,0.089 -1.52187,0 -2.71549,-1.2232 -2.71549,-3.4308 v -4.7732 h -2.20819 z"
         style="fill:#3d84c2;fill-opacity:1;fill-rule:nonzero;stroke:none;stroke-width:0.038795"
         id="path18782" />
      <path
         inkscape:connector-curvature="0"
         d="m 411.64933,2474.0132 h -2.17834 v 1.4021 h -0.0298 c -0.53715,-1.0143 -1.73075,-1.6706 -2.8647,-1.6706 -2.62596,0 -3.73006,1.3126 -3.73006,3.9379 v 6.3544 h 2.20819 v -6.1455 c 0,-1.7602 0.71617,-2.4165 1.90981,-2.4165 1.8501,0 2.47676,1.1933 2.47676,2.7446 v 5.8174 h 2.20818 z"
         style="fill:#3d84c2;fill-opacity:1;fill-rule:nonzero;stroke:none;stroke-width:0.038795"
         id="path18790" />
      <path
         inkscape:connector-curvature="0"
         d="m 413.43976,2484.037 h 2.08883 v -1.9391 h 0.0298 c 0.23872,1.074 1.58155,2.2076 2.92436,2.2076 0.50731,0 0.62666,-0.03 0.83556,-0.06 v -2.1479 c -0.29841,0.03 -0.62666,0.089 -0.95491,0.089 -1.52187,0 -2.71549,-1.2232 -2.71549,-3.4308 v -4.7732 h -2.20819 z"
         style="fill:#3d84c2;fill-opacity:1;fill-rule:nonzero;stroke:none;stroke-width:0.038795"
         id="path18798" />
      <path
         inkscape:connector-curvature="0"
         d="m 428.65838,2476.2507 c 0,-0.537 0.11935,-0.7458 0.53715,-0.7458 0.14919,0 0.29837,0 0.53711,0.03 v -1.5214 c -0.32825,-0.1194 -1.01458,-0.2387 -1.40251,-0.2387 -0.89519,0 -1.52185,0.2983 -1.70091,1.2232 -0.86536,-0.8652 -2.2977,-1.2232 -3.46148,-1.2232 -1.79043,0 -3.43165,0.9547 -3.43165,2.9236 0,2.506 1.99931,2.8938 3.84942,3.1324 1.58153,0.2984 3.01387,0.1194 3.01387,1.4022 0,1.1336 -1.1936,1.3425 -2.08883,1.3425 -1.25329,0 -2.11866,-0.5072 -2.20818,-1.5812 h -2.20819 c 0.1492,2.5656 2.35739,3.3413 4.56559,3.3413 1.96945,0 4.02845,-0.8055 4.02845,-2.8938 v -5.1909 z m -2.20818,2.7745 c -0.68634,-0.4475 -1.73075,-0.4177 -2.7155,-0.5967 -0.95488,-0.1491 -1.79042,-0.5071 -1.79042,-1.6706 0,-0.9845 1.2533,-1.2828 2.02916,-1.2828 0.9549,0 2.47676,0.5071 2.47676,1.9092 z"
         style="fill:#3d84c2;fill-opacity:1;fill-rule:nonzero;stroke:none;stroke-width:0.038795"
         id="path18806" />
      <path
         inkscape:connector-curvature="0"
         d="m 437.87909,2478.4583 c 0,-1.5811 0.86538,-2.9534 2.68565,-2.9534 1.28312,0 2.059,0.5668 2.44693,1.6706 h 2.08883 c -0.47747,-2.1777 -2.35741,-3.4009 -4.53576,-3.4009 -3.13326,0 -4.89384,2.1778 -4.89384,5.2804 0,2.8639 1.85011,5.2804 4.83417,5.2804 3.16305,0 5.1027,-2.8639 4.74462,-5.8472 h -7.3706 z m 5.16241,1.432 c -0.0895,1.4022 -1.01458,2.6551 -2.50659,2.6551 -1.52188,0 -2.56629,-1.1634 -2.62598,-2.6551 z"
         style="fill:#3d84c2;fill-opacity:1;fill-rule:nonzero;stroke:none;stroke-width:0.038795"
         id="path18814" />
      <path
         inkscape:connector-curvature="0"
         d="m 448.05468,2477.2351 c 0.11936,-1.2828 1.07426,-1.7303 2.26789,-1.7303 0.83552,0 2.2977,0.179 2.23803,1.3127 -0.0597,1.1634 -1.67108,1.3126 -3.28246,1.6706 -1.61138,0.358 -3.22277,0.9248 -3.22277,2.9535 0,2.1777 2.3574,2.8639 4.17765,2.8639 2.059,0 3.9091,-0.8651 4.17768,-3.0728 h -2.2977 c -0.17906,1.0442 -1.07426,1.3425 -2.02916,1.3425 -0.62665,0 -1.82027,-0.1492 -1.82027,-1.0143 0,-1.074 1.64121,-1.253 3.25261,-1.611 1.61136,-0.358 3.2526,-0.9546 3.2526,-2.9236 0,-2.3866 -2.41708,-3.2518 -4.47608,-3.2518 -2.50658,0 -4.41637,1.1337 -4.44621,3.4905 h 2.20819 z"
         style="fill:#3d84c2;fill-opacity:1;fill-rule:nonzero;stroke:none;stroke-width:0.038795"
         id="path18822" />
      <path
         inkscape:connector-curvature="0"
         d="m 399.23569,2494.389 c 0.0597,0.7458 0.23874,1.3722 0.53715,1.9391 h -5.28177 v 3.9379 h 7.13187 v 2.0883 h -9.54895 v -14.976 h 2.41708 v 6.951 h 4.74462 z"
         style="fill:#3d84c2;fill-opacity:1;fill-rule:nonzero;stroke:none;stroke-width:0.038795"
         id="path18832" />
      <path
         inkscape:connector-curvature="0"
         d="m 438.26701,2522.8494 c 0.0298,-0.03 -0.1492,0.3878 0.47745,0.7757 0.29841,0.179 0.92506,0.3281 1.70091,-0.179 0.35809,-0.2685 0.74601,-0.6862 0.86536,-1.3723 0.14922,-0.6564 -0.14919,-1.611 -0.77584,-2.1182 -0.59681,-0.5071 -1.19362,-0.6563 -1.76059,-0.6861 -0.56697,-0.03 -1.28314,0.1193 -1.79043,0.5966 -0.98473,1.0144 -0.62664,2.0287 -0.32824,2.4762 0.68633,0.9844 1.37266,0.8054 1.31298,0.8353 0.0298,-0.03 0.26856,-0.3282 0.2984,-0.3282 z"
         style="fill:#9ec357;fill-opacity:1;fill-rule:nonzero;stroke:none;stroke-width:0.038795"
         id="path18840" />
    </g>
  </g>
</svg>
