<?xml version="1.0" encoding="UTF-8" standalone="no"?>
<!-- Created with Inkscape (http://www.inkscape.org/) -->

<svg
   xmlns:osb="http://www.openswatchbook.org/uri/2009/osb"
   xmlns:dc="http://purl.org/dc/elements/1.1/"
   xmlns:cc="http://creativecommons.org/ns#"
   xmlns:rdf="http://www.w3.org/1999/02/22-rdf-syntax-ns#"
   xmlns:svg="http://www.w3.org/2000/svg"
   xmlns="http://www.w3.org/2000/svg"
   xmlns:sodipodi="http://sodipodi.sourceforge.net/DTD/sodipodi-0.dtd"
   xmlns:inkscape="http://www.inkscape.org/namespaces/inkscape"
   width="93.712029mm"
   height="74.22406mm"
   viewBox="0 0 93.712029 74.22406"
   version="1.1"
   id="svg899"
   sodipodi:docname="favicon-eve.svg"
   inkscape:version="0.92.3 (2405546, 2018-03-11)">
  <defs
     id="defs893">
    <linearGradient
       id="linearGradient62151"
       osb:paint="solid"
       gradientTransform="matrix(0.35277776,0,0,-0.35277776,-21.845225,750.42871)">
      <stop
         style="stop-color:#c3ca00;stop-opacity:1;"
         offset="0"
         id="stop62149" />
    </linearGradient>
    <linearGradient
       id="linearGradient62145"
       osb:paint="solid"
       gradientTransform="matrix(0.26458333,0,0,-0.26458333,-881.69967,699.58688)">
      <stop
         style="stop-color:#9ee2d1;stop-opacity:1;"
         offset="0"
         id="stop62143" />
    </linearGradient>
    <linearGradient
       id="linearGradient64563"
       osb:paint="solid"
       gradientTransform="matrix(0.35277776,0,0,-0.35277776,-21.845225,750.42871)">
      <stop
         style="stop-color:#59b6a4;stop-opacity:1;"
         offset="0"
         id="stop64561" />
    </linearGradient>
  </defs>
  <sodipodi:namedview
     id="base"
     pagecolor="#ffffff"
     bordercolor="#666666"
     borderopacity="1.0"
     inkscape:pageopacity="0.0"
     inkscape:pageshadow="2"
     inkscape:zoom="0.88457031"
     inkscape:cx="-115.32287"
     inkscape:cy="247.0006"
     inkscape:document-units="mm"
     inkscape:current-layer="layer1"
     showgrid="false"
     inkscape:window-width="1600"
     inkscape:window-height="836"
     inkscape:window-x="0"
     inkscape:window-y="27"
     inkscape:window-maximized="1" />
  <metadata
     id="metadata896">
    <rdf:RDF>
      <cc:Work
         rdf:about="">
        <dc:format>image/svg+xml</dc:format>
        <dc:type
           rdf:resource="http://purl.org/dc/dcmitype/StillImage" />
        <dc:title></dc:title>
      </cc:Work>
    </rdf:RDF>
  </metadata>
  <g
     inkscape:label="Calque 1"
     inkscape:groupmode="layer"
     id="layer1"
     transform="translate(-25.827582,-162.07918)">
    <path
       inkscape:connector-curvature="0"
       d="m 42.759881,164.0226 -15.240238,5.36332 24.40267,65.51947 65.587307,-24.64227 -5.22522,-15.3652 -46.591589,17.53952 -2.250332,-3.47892 -3.700619,1.42666 -16.981979,-46.65249 v 0 z"
       style="fill:url(#linearGradient62145);fill-opacity:1;fill-rule:evenodd;stroke:none;stroke-width:0.29009974"
       id="path12224" />
    <path
       inkscape:connector-curvature="0"
       d="m 51.086621,236.30324 c 22.109016,-8.23507 46.258807,-17.2303 68.452989,-25.49708 l -6.59208,-17.65156 -47.449429,17.67378 -1.236009,-3.30965 -3.316317,1.23525 -17.430957,-46.6748 -17.687236,6.58806 c 8.240128,22.06455 17.018951,45.57155 25.259039,67.636 z m 19.657276,-24.91542 1.236006,3.30965 c 0.538779,1.44269 2.749817,0.61912 2.211041,-0.82356 l -1.236009,-3.30966 4.506831,-1.67869 2.472031,6.61935 c 0.538766,1.44265 2.749481,0.61923 2.210713,-0.82346 l -2.472032,-6.61931 4.421976,-1.64708 1.236009,3.30966 c 0.538777,1.44268 2.74949,0.61923 2.210713,-0.82346 l -1.236009,-3.30965 4.421971,-1.64709 2.472028,6.61935 c 0.538766,1.44265 2.749482,0.61923 2.210716,-0.82342 l -2.472031,-6.61935 4.421973,-1.64708 1.236006,3.30966 c 0.538782,1.44268 2.7495,0.61923 2.21072,-0.82346 l -1.236011,-3.30962 4.421971,-1.64708 2.47203,6.61931 c 0.53876,1.44268 2.74975,0.61912 2.21098,-0.82353 l -2.47202,-6.61934 5.27193,-1.96367 4.94405,13.23866 -45.153317,16.81854 -4.944052,-13.23866 z m -7.868735,-0.83916 6.180069,16.54835 -16.581718,6.17629 -6.180069,-16.54835 z m -20.747265,-45.4395 1.774828,4.75244 -6.632739,2.47054 c -1.445559,0.53845 -0.621546,2.74489 0.824014,2.20645 l 6.63274,-2.47054 1.647924,4.41265 -3.316316,1.23525 c -1.445588,0.53845 -0.621573,2.7449 0.824011,2.20645 l 3.316316,-1.23525 1.648026,4.4129 -6.632741,2.47054 c -1.445559,0.53844 -0.621544,2.74489 0.824012,2.20644 l 6.63274,-2.47053 1.648026,4.41293 -3.316315,1.23525 c -1.445585,0.53845 -0.621573,2.74489 0.824014,2.20645 l 3.316316,-1.23525 1.648022,4.41289 -6.632736,2.47054 c -1.44556,0.53845 -0.621549,2.7449 0.824011,2.20645 l 6.632741,-2.47054 1.648026,4.41294 -3.316316,1.23525 c -1.445588,0.53844 -0.621583,2.74485 0.823999,2.20641 l 3.316317,-1.23525 1.648026,4.41289 -13.2654,4.94108 -16.606947,-44.46834 z"
       style="fill:url(#linearGradient64563);fill-opacity:1;fill-rule:nonzero;stroke:none;stroke-width:0.29009831"
       id="path12232" />
    <path
       inkscape:connector-curvature="0"
       d="m 72.262648,181.30511 -1.839019,2.96627 -0.337476,2.26934 -2.321718,1.38783 -0.562335,2.9857 0.537845,2.92361 -0.732764,3.58465 2.148978,3.45433 c 0,0 3.154698,0.74489 3.1389,0.70192 -0.0158,-0.043 15.179442,-5.85911 15.179442,-5.85911 0,0 1.907604,-3.57653 1.970789,-3.40469 0.0632,0.1719 -1.01014,-3.6769 -0.870844,-3.56366 0.139297,0.11328 -3.257024,-1.55441 -3.257024,-1.55441 l -1.433333,-3.76551 -4.497239,-0.54519 -3.196714,-1.65597 -2.461485,-0.36516 -1.364147,0.45148 v 0 z"
       style="fill:url(#linearGradient62151);fill-opacity:1;fill-rule:evenodd;stroke:none;stroke-width:0.29009798"
       id="path12244" />
    <path
       inkscape:connector-curvature="0"
       d="m 66.003728,198.78889 c 1.105233,3.00598 4.441235,4.54801 7.451166,3.44424 l 5.449965,-1.99859 2.001202,5.44283 c 0.221044,0.60116 0.888259,0.9096 1.490237,0.68883 0.601977,-0.22077 0.910793,-0.88709 0.68975,-1.48826 l -2.001203,-5.44284 5.44997,-1.99855 c 3.009934,-1.10381 4.553998,-4.43541 3.448762,-7.44139 -0.63957,-1.75757 -2.097842,-3.09273 -3.90651,-3.57674 -0.05649,-0.36365 -0.148508,-0.72091 -0.27468,-1.06666 -1.013928,-2.76077 -3.936695,-4.32636 -6.800514,-3.64268 -1.588349,-1.68896 -4.033374,-2.26688 -6.211292,-1.46823 -2.177915,0.79869 -3.667437,2.81947 -3.783946,5.13359 -2.626289,1.32962 -3.840081,4.41216 -2.824123,7.17218 0.127852,0.34516 0.289211,0.67699 0.481774,0.99074 -1.065262,1.53791 -1.311846,3.49826 -0.660558,5.25153 z m 2.961772,-4.4092 c 0.415814,-0.43077 0.435166,-1.10673 0.0447,-1.56054 -0.75007,-0.84699 -1.037347,-2.00703 -0.76911,-3.10554 0.268269,-1.09852 1.058077,-1.99623 2.114363,-2.40327 0.04088,-0.0152 0.158601,-0.0396 0.196754,-0.0536 0.520843,-0.16428 0.851985,-0.67419 0.789813,-1.21613 -0.167685,-1.57794 0.760452,-3.06768 2.251972,-3.61463 1.49152,-0.54698 3.164435,-0.0109 4.05909,1.30027 0.308673,0.44669 0.886227,0.6198 1.390173,0.4167 0.0654,-0.024 0.128077,-0.047 0.109445,-0.0556 1.071811,-0.40308 2.273967,-0.24945 3.209594,0.41018 0.935628,0.65958 1.483106,1.73944 1.461641,2.88304 -0.0036,0.59831 0.449183,1.10112 1.045297,1.16081 1.60837,0.16584 2.891044,1.41517 3.097289,3.01675 0.206256,1.60161 -0.718171,3.13439 -2.232186,3.70127 l -5.44997,1.99856 -0.974582,-2.65064 3.077724,-3.18547 c 0.424315,-0.46334 0.402299,-1.17976 -0.04964,-1.61622 -0.451921,-0.43649 -1.169628,-0.43444 -1.619088,0.005 l -2.298534,2.3778 -1.738045,-4.72708 c -0.221044,-0.60117 -0.888259,-0.90961 -1.490231,-0.68884 -0.601978,0.22073 -0.910799,0.8871 -0.689756,1.48827 l 2.14629,5.83741 -3.287959,-0.33842 c -0.63809,-0.0679 -1.210477,0.39366 -1.27848,1.03092 -0.06798,0.63726 0.394179,1.2089 1.032269,1.27681 l 4.425707,0.45547 0.564338,1.53487 -5.449965,1.99859 c -1.805958,0.66224 -3.807563,-0.26299 -4.470699,-2.06657 -0.462031,-1.25289 -0.157382,-2.65955 0.781786,-3.60976 z"
       style="fill:#59b6a4;fill-opacity:1;fill-rule:nonzero;stroke:none;stroke-width:0.29009798"
       id="path12254" />
  </g>
</svg>
