<?xml version="1.0" encoding="UTF-8" standalone="no"?>
<!-- Created with Inkscape (http://www.inkscape.org/) -->

<svg
   xmlns:dc="http://purl.org/dc/elements/1.1/"
   xmlns:cc="http://creativecommons.org/ns#"
   xmlns:rdf="http://www.w3.org/1999/02/22-rdf-syntax-ns#"
   xmlns:svg="http://www.w3.org/2000/svg"
   xmlns="http://www.w3.org/2000/svg"
   xmlns:sodipodi="http://sodipodi.sourceforge.net/DTD/sodipodi-0.dtd"
   xmlns:inkscape="http://www.inkscape.org/namespaces/inkscape"
   width="33.120155mm"
   height="14.637349mm"
   viewBox="0 0 33.120155 14.637349"
   version="1.1"
   id="svg7462"
   inkscape:version="0.92.3 (2405546, 2018-03-11)"
   sodipodi:docname="ligue-enseignement.svg">
  <defs
     id="defs7456" />
  <sodipodi:namedview
     id="base"
     pagecolor="#ffffff"
     bordercolor="#666666"
     borderopacity="1.0"
     inkscape:pageopacity="0.0"
     inkscape:pageshadow="2"
     inkscape:zoom="0.35"
     inkscape:cx="-621.69644"
     inkscape:cy="-38.053015"
     inkscape:document-units="mm"
     inkscape:current-layer="layer1"
     showgrid="false"
     inkscape:window-width="1600"
     inkscape:window-height="870"
     inkscape:window-x="1600"
     inkscape:window-y="0"
     inkscape:window-maximized="1" />
  <metadata
     id="metadata7459">
    <rdf:RDF>
      <cc:Work
         rdf:about="">
        <dc:format>image/svg+xml</dc:format>
        <dc:type
           rdf:resource="http://purl.org/dc/dcmitype/StillImage" />
        <dc:title></dc:title>
      </cc:Work>
    </rdf:RDF>
  </metadata>
  <g
     inkscape:label="Calque 1"
     inkscape:groupmode="layer"
     id="layer1"
     transform="translate(-93.053017,-124.12779)">
    <g
       id="g71463"
       transform="matrix(0.35277777,0,0,-0.35277777,-80.289526,1008.5944)"
       inkscape:export-filename="/home/sandrine/Documents/TAF FIGLI/APF_site/EXE/ligue_enseignement.png"
       inkscape:export-xdpi="300"
       inkscape:export-ydpi="300">
      <path
         inkscape:connector-curvature="0"
         d="m 581.15043,2480.5083 v -12.0842 H 491.3647 v 12.0842 z"
         style="fill:#3d5699;fill-opacity:1;fill-rule:nonzero;stroke:none;stroke-width:0.23627"
         id="path18882" />
      <path
         inkscape:connector-curvature="0"
         d="m 491.3647,2481.5314 v 24.1683 h 89.78573 v -24.1683 z"
         style="fill:#6275af;fill-opacity:1;fill-rule:nonzero;stroke:none;stroke-width:0.23627"
         id="path18890" />
      <path
         inkscape:connector-curvature="0"
         d="m 535.92994,2478.1896 17.8404,0.016 c 0,0 -11.42038,-11.3329 -14.35435,-12.5478 0.94645,3.3728 0.67829,12.0364 -3.48605,12.5318 z m 36.28898,12.6839 -4.50291,-8.1987 -4.69772,-8.0999 c 0.27555,4.084 -0.7621,9.5378 -8.12296,11.3984 0,0 4.30655,1.3238 8.63744,2.5489 4.33087,1.225 8.68615,2.3513 8.68615,2.3513 z m 2.24031,9.3676 9.33817,6.035 1.45121,0.8734 -0.45932,-3.8362 -1.03789,-7.9922 -0.57222,-3.6445 c -0.1136,-0.5754 -0.18942,-1.2001 -0.4544,-1.7263 -0.15702,0.2417 -0.16266,0.4815 -0.30348,0.7673 -0.17909,0.3644 -0.53561,0.8369 -0.79684,1.1508 -0.63161,0.7584 -1.82276,1.7513 -2.62218,2.3574 -1.32635,1.007 -3.4148,2.3427 -4.92164,3.0223 -0.55837,0.252 -1.17543,0.5205 -1.76666,0.6708 l -1.13576,0.2154 z"
         style="fill:#bd002b;fill-opacity:1;fill-rule:nonzero;stroke:none;stroke-width:0.23627"
         id="path18898" />
      <path
         inkscape:connector-curvature="0"
         d="m 519.19007,2492.081 v -1.0869 h 1.51435 v 1.0869 z m 0,-1.8541 v -4.5396 h 1.51435 v 4.5396 z m -24.98605,10.8054 v -6.6495 h 0.63096 v 6.6495 z m 7.63462,0 v -6.6495 h 1.64049 v 6.6495 z m 27.06819,-0.064 v -2.8133 c -0.2448,0.2846 -0.4037,0.5106 -0.75717,0.6698 -0.77924,0.3516 -1.74296,0.097 -2.17506,-0.6698 -0.53068,-0.9405 -0.56143,-3.7518 1.41788,-3.833 0.86068,-0.035 0.95856,0.2653 1.51435,0.764 v -0.6394 h 0.50486 v 6.5217 z m -1.37868,-2.4456 c 1.29794,0.01 1.52655,-1.7102 1.22424,-2.7333 -0.18424,-0.6247 -0.62221,-1.0646 -1.29677,-1.0167 -0.64733,0.045 -0.96794,0.4872 -1.12614,1.0806 -0.0904,0.3363 -0.0765,0.6151 -0.0725,0.959 0.009,0.7865 0.24715,1.492 1.07262,1.696 0.069,0.01 0.13496,0.014 0.19857,0.014 z m -18.37033,0.5275 c -0.46187,-0.01 -0.90638,-0.141 -1.25089,-0.4684 -1.03413,-0.9833 -0.95621,-4.1089 1.25089,-4.1352 0.79123,-0.01 1.07452,0.1426 1.6405,0.7034 -6.3e-4,-0.2494 0.003,-0.4623 -0.0789,-0.7034 -0.41959,-1.2359 -1.96103,-0.8184 -2.82354,-0.4475 -6.4e-4,-0.2551 -0.1098,-1.0249 0,-1.1828 0.14068,-0.2008 0.83287,-0.2734 1.07262,-0.2894 l 0.69406,-0.056 c 0.77042,0.044 1.679,0.1381 2.16736,0.8248 0.30853,0.4328 0.41328,1.1994 0.41959,1.7263 v 3.9641 h -1.38812 v -0.8312 c -0.57354,0.6688 -0.80447,0.9054 -1.70359,0.8952 z m 0.59783,-1.1589 c 0.0663,0 0.13312,-0.01 0.22241,-0.03 1.21587,-0.289 0.88462,-2.3999 -0.31548,-2.2394 -0.94266,0.1253 -1.18115,1.7861 -0.1262,2.2394 0.0871,0.016 0.15294,0.029 0.21927,0.03 z m 11.26422,1.1589 c -0.46449,-0.01 -0.9433,-0.1382 -1.32494,-0.4125 -0.9832,-0.7084 -1.17683,-2.2985 -0.51119,-3.2959 0.22156,-0.3312 0.53326,-0.5783 0.88978,-0.7465 0.44971,-0.2116 0.9602,-0.2816 1.45121,-0.2765 0.52552,0.01 1.00761,0.14 1.51412,0.2557 v 1.087 c -0.75272,-0.2053 -1.78169,-0.6464 -2.43535,0.077 -0.12487,0.1381 -0.1988,0.3305 -0.27767,0.4987 h 3.15474 c -4.7e-4,0.4559 -0.0535,1.1119 -0.21757,1.5345 -0.42342,1.0869 -1.1989,1.2909 -2.24313,1.2788 z m 0.23823,-0.9543 c 0.37929,0 0.76962,-0.2392 0.8344,-0.9639 h -1.76667 c 0.0392,0.2545 0.0998,0.4943 0.27767,0.6905 0.14059,0.1549 0.39501,0.2713 0.6546,0.2734 z m -23.62795,0.8759 c -0.15901,0 -0.3158,-0.02 -0.46059,-0.045 -0.5584,-0.095 -0.81206,-0.089 -0.82026,-0.7081 0.59311,0.1617 1.31871,0.5559 1.88974,0.1007 0.1773,-0.1413 0.29559,-0.3264 0.34859,-0.5483 0.0435,-0.1816 0.0331,-0.4482 0.0331,-0.6394 -0.54075,0 -1.24995,-0.016 -1.76671,-0.1774 -1.1414,-0.3568 -1.27201,-1.6493 -0.68774,-2.2458 0.43031,-0.4392 1.14582,-0.4712 1.6973,-0.2781 0.40065,0.14 0.56027,0.3369 0.82024,0.6553 v -0.6394 h 0.50477 l -0.0631,1.087 c 0,0 0,1.9181 0,1.9181 -6.4e-4,0.3562 -0.0126,0.7187 -0.2303,1.0198 -0.28726,0.3971 -0.78806,0.5102 -1.26509,0.5003 z m 0.56471,-2.2873 c 0.11137,0 0.23802,0 0.42591,0 0,-0.3466 0.0274,-0.759 -0.0773,-1.087 -0.23032,-0.7173 -1.31809,-1.1502 -1.90866,-0.5978 -0.34451,0.3222 -0.34104,1.1247 0.28235,1.4354 0.19812,0.099 0.41391,0.1528 0.63095,0.1854 0.31747,0.048 0.46111,0.061 0.64674,0.064 z m 6.6093,4.1559 v -1.0869 h 1.5143 v 1.0869 z m 0,-1.8542 v -4.5396 h 1.5143 v 4.5396 z m 8.45486,0 v -2.8772 c 0.0139,-1.1636 0.67261,-1.835 1.82978,-1.7877 0.24924,0.01 0.53002,0.079 0.75715,0.1829 0.46693,0.2148 0.48775,0.3983 0.82026,0.7097 v -0.7673 h 1.3881 v 4.5396 h -1.57739 v -1.6624 c 0,-0.3344 0.0322,-0.711 -0.0934,-1.023 -0.15709,-0.3893 -0.59436,-0.812 -1.04235,-0.6381 -0.38173,0.149 -0.50096,0.5179 -0.55903,0.8939 v 2.4296 z m 18.99665,-0.01 c -0.43656,-0.01 -0.87359,-0.1646 -1.18458,-0.4587 -0.91677,-0.89 -0.90598,-3.0534 0.10727,-3.8539 0.36145,-0.2851 0.87898,-0.3555 1.32493,-0.3452 0.38821,0.01 0.75859,0.1151 1.13577,0.1918 v 0.5754 c -0.3678,-0.1483 -0.86116,-0.3369 -1.26181,-0.3133 -0.91114,0.053 -1.37,0.8849 -1.38807,1.7199 h 3.02846 c -0.003,0.314 -0.066,0.9892 -0.15937,1.2788 -0.0889,0.2769 -0.21452,0.547 -0.41942,0.7465 -0.30958,0.3177 -0.74638,0.4646 -1.18318,0.4587 z m -0.006,-0.4443 c 0.24128,0.01 0.48209,-0.063 0.68465,-0.227 0.4044,-0.3267 0.43257,-0.8312 0.51589,-1.3012 -0.42717,-0.1227 -1.92251,-0.064 -2.4607,-0.064 0.0216,0.9977 0.64404,1.5669 1.26016,1.5921 z m -38.04532,-6.2595 v -6.6495 h 0.63096 v 6.6495 z m 2.14527,-0.4476 v -1.9821 h 0.63095 v 1.9821 z m 4.21483,-1.5089 c -0.76252,-6e-4 -1.54707,-0.3018 -1.97332,-0.8568 -0.42276,-0.5498 -0.41929,-1.0703 -0.41171,-1.7263 0.0177,-1.5102 1.38244,-2.2039 2.71313,-2.1739 0.28961,0.01 1.29126,0.1097 1.44964,0.3469 0.0782,0.117 0.0647,0.3449 0.0647,0.4843 v 0.5755 c -0.93886,-0.4035 -2.26199,-0.7628 -2.71313,0.5115 h 3.09172 c 0,0.8446 -0.0139,1.6342 -0.65937,2.2729 -0.3895,0.3855 -0.96855,0.5663 -1.56162,0.5659 z m 0.0126,-0.9878 c 0.19622,0 0.39119,-0.051 0.54577,-0.1791 0.23156,-0.1924 0.26564,-0.5019 0.33756,-0.7768 h -1.76669 c 0.0309,0.5569 0.2833,0.968 0.88336,0.9559 z m 7.82387,-1.3395 c 0,0.5121 0.0417,0.9916 -0.18423,1.4705 -0.43853,0.931 -1.89225,1.0914 -2.65508,0.5345 -0.24229,-0.1764 -0.35146,-0.3491 -0.50477,-0.5984 v 0.8312 h -1.38812 v -4.5396 h 1.5143 l 0.0479,2.4936 c 0.10222,0.3906 0.34641,0.7615 0.77232,0.8165 0.50791,0.066 0.74579,-0.307 0.84106,-0.7526 l 0.0423,-2.5575 h 1.5143 z m 3.53339,2.2736 c -0.99439,0.1592 -2.6797,0.029 -2.71249,-1.3146 -0.003,-0.1528 -0.003,-0.3657 0.0347,-0.5115 0.24987,-0.9642 1.56793,-0.7858 1.9667,-1.2288 0.21706,-0.2411 0.0959,-0.4604 -0.17352,-0.5685 -0.26057,-0.1048 -0.67385,-0.02 -0.94518,0.036 l -0.82024,0.227 -0.0631,-1.1509 c 0.92309,-0.1317 2.00077,-0.3733 2.9024,0.034 0.75969,0.3427 1.0903,1.3817 0.58997,2.0735 -0.31801,0.4393 -0.98557,0.5461 -1.4733,0.6829 -0.18298,0.051 -0.54326,0.1662 -0.5464,0.4066 -0.004,0.2385 0.30475,0.3056 0.48331,0.3172 0.68521,0.043 0.79058,-0.09 1.3881,-0.2532 l 0.0631,1.0869 z m 3.72272,0.028 c -0.53444,-0.01 -1.03857,-0.1813 -1.44493,-0.5419 -0.74262,-0.6585 -0.89438,-1.9619 -0.50002,-2.8468 0.15775,-0.3535 0.42811,-0.6739 0.74612,-0.8887 0.44609,-0.3005 0.81205,-0.3552 1.32501,-0.4268 0.69406,-0.096 1.29095,0.093 1.95595,0.2286 v 1.0869 c -0.68582,-0.163 -1.07199,-0.4424 -1.82975,-0.2525 -0.22401,0.056 -0.44736,0.1541 -0.60574,0.3292 -0.12491,0.1381 -0.19875,0.3306 -0.27762,0.4988 h 3.15484 c -10e-4,0.4303 -0.0639,1.1387 -0.21782,1.5345 -0.43841,1.1259 -1.23973,1.2915 -2.30604,1.2787 z m 0.30916,-0.9479 c 0.38053,-0.01 0.764,-0.2721 0.82655,-0.9702 h -1.76669 c 0.0379,0.2717 0.0742,0.4865 0.26659,0.6969 0.15481,0.1694 0.41318,0.2802 0.67355,0.2733 z m 7.58251,0.9703 c -0.50932,0 -1.01629,-0.2014 -1.36272,-0.6042 -0.89988,-1.046 -0.7898,-3.9712 1.35803,-4.0217 0.85247,-0.02 1.03296,0.1733 1.64062,0.7033 -7e-4,-0.2493 0.003,-0.4623 -0.0789,-0.7033 -0.0929,-0.2724 -0.24739,-0.4588 -0.48914,-0.609 -0.73065,-0.4527 -1.61339,-0.1307 -2.33442,0.1614 l -0.0521,-0.8312 c -0.008,-0.1125 -0.0138,-0.2551 0.0535,-0.3516 0.16547,-0.2372 1.04211,-0.2871 1.32353,-0.2877 0.9041,0 2.00066,-0.074 2.59964,0.7672 0.3117,0.4374 0.42272,1.1304 0.42905,1.6624 v 4.0281 h -1.38831 l -0.0629,-0.8312 c -0.32226,0.6081 -0.98085,0.9225 -1.63593,0.9175 z m 0.52857,-1.1845 c 0.0467,0 0.0948,-3e-4 0.16078,-0.013 1.37235,-0.1266 1.04493,-2.4188 -0.18918,-2.2539 -0.97686,0.1299 -1.14773,1.8357 -0.12627,2.2539 0.0629,0 0.10796,0.011 0.15467,0.013 z m 8.36319,-1.0118 c -4.7e-4,0.3568 -0.0505,0.954 -0.18613,1.2788 -0.33047,0.789 -0.95715,0.9041 -1.70681,0.8951 -0.30137,0 -0.55063,-0.047 -0.82008,-0.1944 -0.34385,-0.1879 -0.46496,-0.4021 -0.69403,-0.7007 v 0.8312 h -1.38808 v -4.5396 h 1.51412 c 0,0.6266 -0.0744,2.2493 0.16218,2.7493 0.21194,0.4482 0.7844,0.7788 1.21908,0.4201 0.27626,-0.2276 0.31804,-0.5313 0.3225,-0.8676 v -2.3018 h 1.57725 z m 2.90266,2.1739 c -0.46074,-0.01 -0.88533,-0.1272 -1.26204,-0.4028 -0.89026,-0.6522 -1.12731,-1.9968 -0.67362,-2.9859 0.17603,-0.3836 0.39103,-0.6416 0.73676,-0.8807 0.43022,-0.2973 0.88321,-0.383 1.38807,-0.4444 0.63654,-0.077 1.27823,0.098 1.89294,0.2382 v 1.0869 c -0.44548,-0.1055 -0.76915,-0.2839 -1.26204,-0.3133 -0.62902,-0.037 -1.25171,0.211 -1.38807,0.8888 h 3.09183 c -7e-4,0.4558 -0.0538,1.1118 -0.21781,1.5345 -0.43844,1.1259 -1.23974,1.2915 -2.30602,1.2787 z m 0.29808,-0.9527 c 0.39314,0 0.80294,-0.2521 0.83744,-0.9654 h -1.76666 c 0.043,0.2826 0.10515,0.5482 0.32343,0.7496 0.14012,0.1295 0.3699,0.2172 0.60579,0.2158 z m 5.12794,0.7583 c -0.34385,-0.1879 -0.46496,-0.4021 -0.69404,-0.7007 v 0.8312 h -1.38807 v -4.5396 h 1.51435 c 0,0.6803 -0.0744,2.1016 0.13237,2.6854 0.15092,0.4239 0.61964,0.8337 1.06019,0.5281 0.27438,-0.1905 0.31733,-0.4744 0.32179,-0.7839 v -2.4296 h 1.57725 v 1.6624 c 0,0.3427 -0.0247,0.6969 0.0986,1.023 0.13237,0.351 0.50204,0.7493 0.91091,0.601 0.43421,-0.1586 0.50298,-0.6483 0.50486,-1.0486 v -2.2378 h 1.51435 v 2.3018 c 0,0.5032 0.0371,1.06 -0.15656,1.5345 -0.29714,0.7288 -0.8757,0.7749 -1.54697,0.7672 -0.29409,0 -0.48914,-0.034 -0.75717,-0.1701 -0.35723,-0.1809 -0.49548,-0.3753 -0.75718,-0.6611 -0.30982,0.9201 -1.59321,1.0416 -2.33466,0.6368 z m 8.72323,0.196 c -0.0671,-4e-4 -0.13542,-8e-4 -0.20513,0 -1.347,-0.016 -2.26331,-1.0799 -2.1767,-2.4296 0.1028,-1.6023 1.24607,-2.3357 2.74446,-2.3018 0.28963,0.01 1.29137,0.1097 1.4498,0.3469 0.0782,0.117 0.0646,0.3449 0.0646,0.4843 v 0.5755 c -0.9433,-0.4054 -2.2612,-0.7641 -2.71301,0.5115 h 3.0916 c 0,0.9871 -0.046,1.8887 -0.94635,2.5031 -0.42788,0.2921 -0.83909,0.3147 -1.30922,0.3117 z m 0.0157,-0.9607 c 0.27907,0 0.5626,-0.1073 0.7114,-0.3324 0.13238,-0.1995 0.13543,-0.3971 0.14036,-0.6266 h -1.70352 c 0.0145,0.2915 0.0535,0.5281 0.27437,0.7417 0.1467,0.1418 0.36028,0.2144 0.57739,0.2173 z m 7.85527,-1.4066 c 0,0.477 0.0418,0.9533 -0.13378,1.4066 -0.30982,0.8037 -0.93063,0.9681 -1.69602,0.9591 -0.30395,0 -0.54499,-0.038 -0.82007,-0.1809 -0.33822,-0.1759 -0.51566,-0.4322 -0.75718,-0.7142 v 0.8312 h -1.32517 v -4.5396 h 1.51435 l 0.0481,2.4936 c 0.1021,0.4009 0.33423,0.7602 0.7722,0.8165 0.50791,0.066 0.74567,-0.307 0.84097,-0.7526 l 0.0425,-2.5575 h 1.51411 z m 1.51271,3.2354 1.4782,0.5384 v -1.4706 h 1.07263 v -1.0869 h -1.07263 v -1.6624 c 0.004,-0.3388 0.043,-0.6425 0.38,-0.8209 0.21757,-0.099 0.46308,-0.029 0.69216,0 0.0106,-0.227 0.12299,-0.7718 0,-0.9309 -0.0866,-0.1107 -0.42717,-0.1311 -0.5673,-0.1484 -0.51871,-0.062 -1.36108,0.022 -1.7169,0.4488 -0.46613,0.5595 -0.31076,2.2796 -0.30207,3.1138 h -0.88345 v 1.0869 h 0.88345 z"
         style="fill:#ffffff;fill-opacity:1;fill-rule:nonzero;stroke:none;stroke-width:0.23627"
         id="path18906" />
      <path
         inkscape:connector-curvature="0"
         d="m 569.58651,2477.8006 c -0.1596,-0.012 -0.28095,-0.3593 -0.29808,-0.4891 0,0 0,-0.5755 0,-0.5755 0,0 -0.0615,-0.5115 -0.0615,-0.5115 0,0 0,-1.2148 0,-1.2148 -0.20256,0.093 -0.56636,0.1944 -0.63255,-0.1343 -0.058,-0.289 0.3286,-0.3449 0.38798,-0.6985 0.13261,-0.7934 -0.85552,-1.718 -1.52374,-1.6624 -0.51425,0.043 -0.79238,0.7587 -0.7445,1.2165 l 0.16711,0.6393 c 0.0366,0.4949 -0.28517,0.4623 -0.62151,0.3197 -0.3584,0.6765 -0.92499,0.9923 -1.64039,0.6522 -0.41778,-0.1982 -0.58231,-0.392 -0.69403,-0.844 -0.48914,0.39 -1.14656,0.5345 -1.76667,0.5083 l -0.63113,-0.061 -0.0629,0.2557 c -0.46637,-0.1406 -0.50815,-0.3829 -0.69099,-0.3804 -0.17791,0 -0.28588,0.2685 -0.57105,0.4635 -0.45487,0.3108 -0.94917,0.227 -1.38643,-0.07 -0.78886,-0.5351 -0.64428,-1.7506 -0.58067,-2.5703 0.0246,-0.3165 -0.069,-0.4316 -0.0488,-0.569 0.0221,-0.1528 0.15843,-0.25 0.23025,-0.3964 0.14528,-0.2935 -0.0359,-1.3101 0.51425,-1.1029 0.15843,0.06 0.17697,0.1917 0.16875,0.342 l -0.0962,1.0869 c 0.28471,0.01 0.87899,0.1036 1.13576,0.2142 0.17792,0.077 0.47318,0.3044 0.63091,0.307 0.23048,0 0.35535,-0.2507 0.94658,-0.2654 0.87641,-0.021 1.33503,0.1528 2.08211,0.5754 0.006,-0.4891 0.0272,-0.367 -0.12627,-0.8312 0.1711,-0.1412 0.27813,-0.2218 0.34244,-0.4475 0.0681,-0.2379 0.0101,-0.665 0.16078,-0.876 0.12439,-0.1732 0.41097,-0.1953 0.47646,0.053 l -0.0962,1.2707 c 0.82782,0.019 1.29724,0.1772 1.89293,0.7673 0.0833,-0.1867 0.1535,-0.3385 0.29503,-0.4907 0.57669,-0.6228 1.74085,-0.01 2.19877,0.5019 l 0.40863,0.5642 0.17814,-0.8312 c 0.0221,-0.1508 0.0237,-0.4111 0.13097,-0.5274 0.16406,-0.1765 0.38352,-0.011 0.63724,-0.058 0.62667,-0.1151 0.59499,-0.2951 1.32494,-0.081 0.23353,0.068 0.30934,0.069 0.44172,0.2829 h 0.12627 c 0.21523,-0.3625 0.45182,-0.2321 0.75718,-0.064 0.25161,-0.3587 0.51472,0.037 0.69404,0.2557 -0.0575,-0.2321 -0.0254,-0.6029 0.31545,-0.4859 0.37037,0.1273 0.284,0.5115 0.23658,0.8056 -0.0453,0.282 -0.0533,0.368 -0.0584,0.6506 -0.008,0.4655 -0.16922,0.828 0.12792,1.2659 0.26311,0.3875 0.58325,0.4607 0.95433,0.1711 0.15585,-0.1221 0.20537,-0.1739 0.25396,-0.3613 l 0.25231,-0.064 c -0.14834,-0.3619 -0.1312,-0.5121 -0.12604,-0.8951 0.0162,-1.2155 1.23763,-1.5444 2.22552,-1.3763 l 0.55063,0.1615 0.49054,0.1422 c 0.35136,0.2123 0.12017,0.7535 -0.22884,0.6474 -0.17533,-0.054 -0.2441,-0.25 -0.64029,-0.3996 -0.80271,-0.3031 -1.63053,-0.1 -1.95607,0.7608 0.62292,0 1.78849,0.3069 2.1091,0.8984 0.24035,0.4431 0.0286,1.0709 -0.46848,1.218 -0.1995,0.059 -0.6248,-0.049 -0.82031,-0.1247 -0.25489,-0.099 -0.62269,-0.4182 -0.88345,-0.585 -0.28517,0.5134 -1.15735,0.9335 -1.70188,0.5818 -0.31357,-0.202 -0.41919,-0.5153 -0.56941,-0.8376 -0.0568,0.2155 -0.14904,0.7209 -0.29667,0.868 -0.14575,0.1458 -0.58607,0.066 -0.67503,-0.1199 -0.046,-0.095 -0.0378,-0.3184 -0.0378,-0.4284 v -1.7263 l 0.0629,-0.8951 c -0.11102,0.5594 -0.44572,1.7391 -0.67972,2.2378 -0.14505,0.3082 -0.33423,0.6425 -0.64522,0.8024 -0.35911,0.1835 -0.8297,0.032 -1.12309,-0.2142 -0.12557,-0.1048 -0.30629,-0.3264 -0.19715,-0.5003 0.17274,-0.2762 0.49946,0.2254 0.75248,0.3117 0.38609,0.1311 0.63653,-0.2903 0.75694,-0.5914 -0.90035,0 -1.26298,-0.2053 -1.64039,-1.087 -0.24739,0.5723 -0.27766,1.1765 -0.32179,1.7903 -0.0138,0.1988 -0.0514,0.3043 -0.0364,0.5115 2.4e-4,0 0.0427,0.959 0.0427,0.959 0.003,0.2616 0.1826,1.1532 0.0615,1.3028 -0.0495,0.061 -0.0972,0.085 -0.142,0.082 z m 3.20379,-0.9399 c -0.0732,-0.01 -0.1427,-0.033 -0.1941,-0.083 -0.13754,-0.1324 -0.14294,-0.312 -0.15303,-0.4891 0,0 0.69404,-0.064 0.69404,-0.064 0.12416,0.4628 -0.12722,0.6534 -0.34691,0.6362 z m -7.71515,-1.8702 c 0.7499,0.014 1.45661,-1.2951 0.90692,-1.9565 -0.15068,-0.1809 -0.33117,-0.2842 -0.54241,-0.3756 -0.28213,-0.1215 -0.51613,-0.1806 -0.82032,-0.2062 l -0.0631,0.9591 h -0.37859 c 10e-4,0.3248 -9.4e-4,0.4469 0.0899,0.7672 0.0448,0.1586 0.0944,0.3108 0.19411,0.4444 0.18988,0.2548 0.4037,0.3637 0.61353,0.3676 z m -5.55089,-0.01 c 0.35465,0.01 0.69991,-0.2661 0.90223,-0.6761 0.13002,-0.2634 0.0803,-0.4904 0.0728,-0.7673 -0.005,-0.193 0.0232,-0.3318 -0.0915,-0.5051 -0.12111,-0.1822 -0.38563,-0.3161 -0.58373,-0.3948 -0.25794,-0.1036 -0.54523,-0.1633 -0.82031,-0.187 v 0.9591 h -0.37858 c 0,0.305 -0.009,0.4648 0.0728,0.7672 0.046,0.1695 0.0962,0.3044 0.20654,0.4444 0.19176,0.2438 0.40699,0.3537 0.61987,0.3596 z m 17.85157,-0.048 c 0.12158,0 0.24082,-0.028 0.29973,-0.1359 0.10843,-0.1988 -0.11125,-0.4114 -0.24926,-0.5227 -0.36733,-0.296 -0.87805,-0.4785 -1.32353,-0.2893 0.16335,0.4859 0.54382,0.7423 1.00948,0.8983 0.073,0.024 0.169,0.047 0.26358,0.05 z m -4.23862,-0.2446 c 0.35159,-0.4501 0.32366,-0.9386 0.42905,-1.4705 0.0404,-0.3012 0.12815,-0.5339 0,-0.8312 l -0.30278,0.1918 c -0.21147,0.5147 -0.12627,1.523 -0.12627,2.1099 z m -10.83187,-0.1247 c 0.62245,0.015 1.3693,-0.1565 1.29818,-0.8983 -0.0676,-0.7026 -1.19702,-0.9095 -1.76056,-0.8935 -0.70601,0.02 -0.73018,0.251 -0.76187,0.8296 -0.012,0.2155 -0.0554,0.3715 0.0695,0.569 0.16218,0.2558 0.48678,0.291 0.75553,0.3581 0.119,0.019 0.2556,0.032 0.39924,0.035 z m 8.9786,-0.7304 c 0.18823,0.01 0.37459,-0.076 0.52833,-0.3021 0.0859,-0.1266 0.13871,-0.2948 0.17979,-0.4412 0.0688,-0.2475 0.1143,-0.4463 0.13566,-0.7033 -0.59124,0.3018 -0.41074,-0.2475 -1.13576,-0.1854 -1.20055,0.1019 -0.44689,1.5944 0.29198,1.632 z m -46.91994,1.6863 -0.12628,-0.1279 h -0.0631 l 0.10116,-0.6393 0.20818,-0.5755 c 0.11032,-0.3388 0.23143,-1.1208 0.19552,-1.4705 l -0.1183,0.5754 c -0.23095,0.8766 -0.74989,2.5815 -1.96381,1.8846 -0.19505,-0.1119 -0.34456,-0.2593 -0.50487,-0.414 -0.46425,0.9948 -1.71103,0.9258 -2.2051,0 -0.4612,-0.8651 -0.15467,-1.9067 -0.19246,-2.3018 -0.0146,-0.1553 -0.0777,-0.3005 -0.12627,-0.4476 0.1711,-0.1413 0.27789,-0.2218 0.34244,-0.4475 0.0681,-0.2379 0.0101,-0.665 0.16078,-0.876 0.12439,-0.1732 0.41074,-0.1953 0.47646,0.053 l -0.0962,1.2707 c 0.60437,0.013 1.06112,0.1318 1.57725,0.4476 0.27836,-0.9335 1.58875,-0.7928 2.20838,-0.3165 0.20326,-0.3312 0.98344,-0.4942 1.10572,0 0.11548,0.4706 -0.52129,2.1605 0.2887,2.6822 0.55274,0.3555 0.90175,-0.4034 1.19889,-0.4827 0.13942,-0.038 0.24176,0 0.37225,0.035 -0.0474,0.2027 -0.1028,0.3996 -0.23025,0.5691 -0.29409,0.3913 -1.09022,0.6601 -1.53641,0.4172 -0.35723,-0.1944 -0.45627,-0.5189 -0.6309,-0.8584 -0.0803,0.4457 -0.0847,0.704 -0.44172,1.023 z m -3.38828,-0.5307 c 0.75108,0.012 1.44253,-1.3061 0.90223,-1.9565 -0.15068,-0.1809 -0.33118,-0.2842 -0.54265,-0.3756 -0.28189,-0.1215 -0.51613,-0.1806 -0.82008,-0.2062 l -0.0631,0.9591 h -0.37859 c 0,0.2954 -0.0108,0.4763 0.0756,0.7672 0.0455,0.1541 0.11054,0.3159 0.20818,0.4444 0.19411,0.2557 0.40816,0.3643 0.61846,0.3676 z m 2.1767,-0.1199 c 0.0465,0 0.092,-0.011 0.13567,-0.027 0.24363,-0.093 0.34901,-0.3779 0.44501,-0.601 -0.79708,-7e-4 -0.59265,-0.039 -1.26204,-0.3197 -0.0415,0.1349 -0.10703,0.2986 -0.0678,0.4411 0.0584,0.2121 0.42436,0.5218 0.74919,0.5067 z m 0.21453,-1.0405 c 0.16336,4e-4 0.32812,-0.067 0.47482,-0.2334 0.12369,-0.14 0.16453,-0.2653 0.21311,-0.4412 0.0737,-0.2666 0.10727,-0.4264 0.11971,-0.7033 -0.63771,0.1106 -0.62386,-0.4296 -1.32494,-0.2046 -0.87453,0.2816 -0.18988,1.5807 0.5173,1.5825 z m -10.0177,2.9469 c -0.13754,-0.1324 -0.14322,-0.3114 -0.15332,-0.4885 l 0.69404,-0.064 c 0.16533,0.617 -0.33566,0.7513 -0.54072,0.5525 z m -3.99268,-1.3021 c -0.19939,-0.01 -0.42856,-0.068 -0.57734,-0.1199 -0.41454,-0.1458 -1.007,-0.6458 -1.19566,-1.0486 -0.28393,-0.6055 -0.16216,-1.5204 0.37856,-1.9437 0.68207,-0.5339 1.7074,-0.3945 2.45761,-0.1023 v -0.3836 c 0.15521,0 0.34608,0 0.46848,0.1119 0.14829,0.1419 0.15995,0.5223 0.16249,0.7193 v 1.2787 c 6.1e-4,0.1566 -0.008,0.7075 0.25553,0.6634 0.15711,-0.026 0.38992,-0.4025 0.47953,-0.5355 l 1.1026,-1.5985 c 0.10221,-0.1809 0.24513,-0.5773 0.44642,-0.6393 0.12618,-0.04 0.69624,0.061 0.79341,0.1486 0.2322,0.2085 0.27543,0.533 -0.11198,0.5547 -0.15585,0.4878 -0.20129,1.6182 -0.0631,2.1099 l 0.19403,-0.5754 c 0.0669,-0.2411 0.25175,-1.4412 0.23661,-1.6624 -0.0151,-0.2187 -0.0924,-0.7577 0.32653,-0.6138 0.37037,0.1272 0.28393,0.5115 0.23661,0.8056 -0.0454,0.282 -0.0533,0.368 -0.0584,0.6506 -0.008,0.4654 -0.16941,0.828 0.12778,1.2659 0.26311,0.3875 0.58332,0.4607 0.95433,0.1711 0.15584,-0.1221 0.20537,-0.1739 0.25395,-0.3613 0.19181,-0.034 0.57638,-0.1355 0.55366,0.195 -0.0416,0.6222 -1.11269,1.0486 -1.6263,0.8376 -0.3912,-0.1611 -0.52874,-0.5492 -0.69404,-0.9047 -0.0581,0.2206 -0.15207,0.712 -0.30287,0.868 -0.13125,0.1362 -0.5316,0.069 -0.642,-0.075 -0.0738,-0.097 -0.0641,-0.2915 -0.0647,-0.4092 -0.003,-0.5255 0.0581,-1.8062 -0.0631,-2.2378 -0.16909,0.4028 -0.56314,0.8395 -0.81867,1.2148 l -0.89755,1.33 c -0.38803,0.3983 -0.68963,0.2154 -0.87071,-0.243 l -0.31549,0.064 c -0.21263,-0.4654 -0.12304,-1.1477 -0.12618,-1.6624 -10e-4,-0.1815 0.008,-0.3491 -0.10095,-0.5051 -0.14261,-0.2046 -0.36723,-0.2618 -0.59312,-0.3181 -0.69279,-0.1713 -1.55028,0.01 -1.70359,0.8232 0.58112,0.01 1.69414,0.3293 2.01907,0.8376 0.27006,0.4214 0.10538,1.0885 -0.37857,1.2612 -0.0684,0.024 -0.1523,0.032 -0.24292,0.029 z m -0.12461,-0.5451 c 0.12095,0.01 0.23901,-0.022 0.2997,-0.1311 0.11358,-0.2052 -0.11043,-0.4309 -0.25869,-0.5403 -0.40697,-0.2998 -0.8313,-0.429 -1.31398,-0.2717 0.16026,0.477 0.55021,0.7398 1.00953,0.8887 0.0734,0.024 0.16935,0.05 0.26344,0.054 z m -10.31719,-1.3267 0.54389,-0.7672 c 0.1224,-0.1778 0.47006,-0.8351 0.57481,-0.9086 0.20002,-0.1413 0.51296,0.015 0.40886,0.3338 -0.0669,0.2052 -0.36218,0.5773 -0.49467,0.7666 l -1.23796,1.7902 c -0.25994,0.4041 -0.65052,0.9265 -1.05307,0.3184 -0.0631,-0.095 -0.0738,-0.1521 -0.10853,-0.2544 -0.17162,0.09 -0.56408,0.2576 -0.75462,0.2161 -0.30223,-0.065 -0.42085,-0.4354 0.12872,-0.5998 0.0139,-0.2429 0.0524,-0.3925 0,-0.6393 -0.11168,-0.6183 -0.76599,-1.2852 -1.39316,-1.3427 -0.73949,-0.067 -0.96348,0.9821 -0.7805,1.5345 0.0738,0.2218 0.24733,0.656 -0.10916,0.7359 -0.21326,0.048 -0.32116,-0.099 -0.35838,-0.2897 -0.0461,-0.2403 -0.0959,-0.975 -0.0568,-1.2135 0.029,-0.1733 0.11483,-0.4188 0.19307,-0.5754 0.6846,-1.3747 2.05504,-0.4277 2.75225,0.3836 0,-0.1886 -0.0227,-0.9424 0.0379,-1.0671 0.094,-0.1937 0.44168,-0.204 0.55713,0.1733 0.23852,0.7768 -0.28456,2.0012 0.35146,2.6201 0.2038,-0.4213 0.53314,-0.8235 0.79879,-1.2148 z m 8.72875,1.8062 c -0.0601,-0.01 -0.12266,-0.038 -0.17669,-0.1071 l -0.32808,-0.6761 c -0.22969,-0.415 -0.74201,-1.3043 -0.82027,-1.7263 -0.37037,0.2186 -0.66723,1.1163 -0.80921,1.5345 -0.15331,0.452 -0.14164,0.6816 -0.642,0.7672 l -0.12618,-0.3197 c -0.29846,0.5103 -0.84991,0.5582 -1.32503,0.2558 -0.15773,-0.101 -0.43884,-0.3491 -0.38962,-0.5659 0.0896,-0.3887 0.62118,0.2059 0.8313,0.2686 0.37605,0.1125 0.60067,-0.3018 0.69406,-0.5978 -0.34073,0 -0.64675,0.029 -0.94645,-0.1727 -0.55776,-0.3746 -1.0802,-1.3887 -0.53316,-1.9756 0.39623,-0.4265 1.60706,-0.4687 1.92129,0.038 h 0.12618 c 0.19434,-0.328 0.38804,-0.2576 0.69406,-0.1279 -0.12618,0.4169 -0.35207,0.8312 -0.31548,1.2788 0.0675,-0.2391 0.44576,-1.0905 0.60729,-1.2452 0.0947,-0.09 0.20917,-0.1266 0.33599,-0.093 0.36281,0.097 0.28677,0.4837 0.3423,0.7625 0.0448,0.2276 0.20349,0.5556 0.30759,0.7672 l 0.57734,1.087 c 0.0852,0.1464 0.24827,0.4024 0.23818,0.5738 -0.009,0.1631 -0.13125,0.2851 -0.26341,0.2733 z m -3.40248,-1.5808 c 0.18216,0 0.36453,-0.083 0.51897,-0.2957 0.0947,-0.1298 0.13723,-0.2877 0.17824,-0.4412 0.0738,-0.2801 0.10505,-0.4118 0.11832,-0.7033 -0.0814,0.036 -0.16026,0.084 -0.25239,0.086 -0.17035,0 -0.29592,-0.1362 -0.44168,-0.2046 -0.24165,-0.1132 -0.59184,-0.082 -0.81709,0.061 -0.6063,0.3822 0.0451,1.4927 0.69563,1.4978 z m 26.2287,2.906 v -0.7673 l -0.0617,-0.7672 c 0.0371,-0.6611 0.11782,-1.3459 0.29714,-1.9821 l 0.1136,-0.5115 c 0.0509,-0.2308 0.27508,-0.6464 0,-0.819 -0.15397,-0.1023 -0.34596,-0.042 -0.42483,0.1304 l -0.25043,1.1362 c -0.15397,0.654 -0.12815,2.2704 -0.11994,3.005 l 0.10984,1.3389 c 0.0519,0.1253 0.0688,0.1119 0.15585,0.1905 0.4713,0.1068 0.2272,-0.6732 0.18049,-0.9539 z m 15.78402,-0.5755 0.20889,0.8312 c 0.0378,0.2046 0.0373,0.7072 0.34526,0.6873 0.0852,-0.01 0.15397,-0.055 0.20255,-0.124 0.14623,-0.2084 -0.072,-0.7065 -0.14012,-0.9469 -0.1995,-0.7014 -0.36286,-1.5064 -0.37859,-2.2289 h 0.94635 c 0.16336,0.028 0.38563,0.086 0.51496,-0.056 0.12862,-0.1413 0.0852,-0.3785 -0.14318,-0.454 h -1.25499 c 0.0699,-0.8548 0.77032,-1.4747 1.63405,-1.483 0,0 -0.0451,0.1234 0.0387,0.215 0.10843,0.1184 0.28963,-0.01 0.28963,-0.01 l 0.0364,1.7758 c 0.0202,0.2736 -0.1528,0.8146 0.10233,0.9168 0.31099,0.126 0.32555,-0.4149 0.34949,-0.5971 0.0164,-0.3619 -0.14834,-0.9054 0,-1.4706 0.0108,0.6535 0,1.0096 0.42013,1.5319 0.21405,0.266 0.26311,0.3204 0.59945,0.3862 0.19504,-0.3459 0.31615,-0.1796 0.88345,-0.1924 0.41825,-0.01 0.95339,-0.1273 1.32493,-0.3191 0.13942,0.2398 0.16219,0.2794 0.44173,0.2558 0.10726,0.202 0.29385,0.5236 0.56776,0.4642 0.27062,-0.059 0.53185,-0.4975 0.67456,-0.72 l 1.20195,-1.7263 c 0.12627,-0.1771 0.4321,-0.5613 0.46824,-0.766 0.0453,-0.2608 -0.21828,-0.4213 -0.42717,-0.271 -0.10351,0.074 -0.45698,0.7359 -0.57175,0.9091 l -0.54312,0.7673 c -0.25372,0.3657 -0.60696,0.8299 -0.80271,1.2148 -0.63465,-0.6183 -0.10351,-1.8478 -0.35089,-2.6202 -0.11736,-0.3676 -0.44783,-0.3759 -0.54875,-0.1745 -0.0669,0.1336 -0.0467,0.6387 -0.0467,0.8126 -0.15843,-0.1067 -0.33071,-0.2301 -0.50486,-0.3062 -0.42976,-0.188 -1.44229,-0.351 -1.89294,-0.2187 -0.24339,0.071 -0.3753,0.1752 -0.56776,0.3331 0.2272,-0.6176 -0.33822,-1.0236 -0.6309,-0.4475 -0.84355,-0.5825 -1.80328,-0.1727 -2.32762,0.6393 -0.3516,0.5448 -0.10421,0.8069 -0.5748,0.9591 l 0.50462,-1.7902 c -0.29902,-0.1254 -0.4997,-0.1855 -0.69404,0.1278 -0.46683,-0.3561 -1.01512,-0.4456 -1.57725,-0.2973 l -0.568,0.2072 -0.82031,-0.1017 c -0.73675,-0.01 -1.55964,0.1567 -1.82956,0.9591 -0.55533,-0.3977 -1.62232,-1.3293 -2.3234,-0.6854 -0.23705,0.218 -0.38093,0.5869 -0.51612,0.8772 0.0115,-0.1694 0.10538,-0.5192 0.072,-0.6323 -0.0587,-0.1957 -0.34455,-0.3063 -0.51354,-0.3984 -0.44548,-0.211 -1.17121,-0.1419 -1.64063,0 -0.20443,0.049 -0.53936,0.204 -0.73065,0.2014 l -0.8466,-0.2372 c -0.75717,-0.1368 -1.74483,0.029 -2.10934,0.8107 -0.0948,0.2021 -0.089,0.3619 -0.10914,0.5755 -0.0803,0.8503 0.27696,1.2998 0.95645,1.7602 0.45815,0.3107 1.27072,0.5102 1.58241,-0.1036 0.59382,-1.1675 -1.26626,-1.718 -2.08727,-1.7206 0.18424,-0.6329 0.76093,-0.9283 1.38831,-0.8893 0.33047,0.02 0.6309,0.1636 0.94635,0.25 -0.0336,0.1892 -0.0815,0.3836 -0.0366,0.5754 0.12041,0.5205 1.13647,1.4143 1.55097,1.7781 0.51917,0.4565 0.69263,0.1912 0.69403,0.9712 v 0.9591 c 0.002,0.1458 -0.009,0.4028 0.15069,0.4718 0.16218,0.07 0.24996,-0.084 0.27649,-0.2193 l 0.0774,-1.0198 c 0.005,-1.0505 0.10867,-0.6847 0.17861,-1.4066 l 0.13707,-1.4066 0.11924,1.2052 c 0.11219,0.2525 0.42201,0.2404 0.5281,0 0.12744,-0.2884 -0.0657,-0.4463 -0.12698,-0.6963 -0.11219,-0.459 0.11313,-1.264 0.61517,-1.3925 0.6525,-0.1669 1.75728,0.8292 1.62537,1.6496 -0.058,0.3618 -0.43093,0.3932 -0.39877,0.6911 0.0197,0.1829 0.2563,0.2692 0.41144,0.2244 0.21265,-0.061 0.30794,-0.2787 0.38117,-0.4667 0.29409,0.2973 0.91983,0.9328 1.38808,0.842 0.60438,-0.1176 0.48514,-1.0511 0.20818,-1.3963 -0.12932,-0.1618 -0.2739,-0.2161 -0.4605,-0.2769 l -0.0631,0.064 0.25231,1.1509 c -0.22579,-0.082 -0.37295,-0.1355 -0.56729,-0.2896 -0.63583,-0.5045 -1.0271,-1.4591 -0.25161,-2.0351 0.11923,-0.09 0.29972,-0.1784 0.44031,-0.2264 0.20584,-0.07 0.41591,-0.078 0.6309,-0.068 0.86397,0.041 0.59194,0.5915 0.9534,1.1484 0.42482,0.6553 0.73464,0.7033 1.4444,0.7033 -0.10914,0.3759 -0.38563,0.7915 -0.82031,0.5396 -0.17228,-0.1004 -0.47059,-0.4424 -0.64475,-0.2916 -0.12064,0.1043 -0.0322,0.2878 0.0423,0.3888 0.17275,0.2366 0.50416,0.4086 0.79191,0.4373 0.79614,0.08 0.88204,-0.6912 1.21016,-0.881 0.12745,-0.074 0.28893,-0.063 0.43023,-0.065 0,0.626 0.0638,1.243 0.20373,1.8542 z m -14.32647,0.5115 c -0.0296,-0.3043 10e-4,-0.3229 -0.10609,-0.6393 -0.0415,-0.1209 -0.0934,-0.2954 -0.23095,-0.3364 -0.22462,-0.066 -0.20819,0.2014 -0.19434,0.3364 0.019,0.1892 0.10867,1.0792 0.17228,1.1873 0.0587,0.098 0.0606,0.061 0.11172,0.099 0.38305,0 0.2732,-0.383 0.24738,-0.6471 z m 16.54189,0.084 c 0.21265,0.1477 0.59758,-0.01 0.54641,-0.5313 h -0.75718 c 0.0138,0.1937 0.0352,0.4092 0.21077,0.5313 z m -15.41575,-1.1068 c 0.0878,0.1771 0.54523,0.7123 0.7553,0.6925 0.18049,-0.017 0.30982,-0.2379 0.2279,-0.4118 -0.0582,-0.1253 -0.4152,-0.3273 -0.54265,-0.4047 -0.20326,-0.1228 -0.27461,-0.1515 -0.50486,-0.1957 0.0101,0.1241 0.007,0.2027 0.0643,0.3197 z m 0.88087,-1.4367 c 0.14388,0.1158 0.38422,0.3504 0.23424,0.564 -0.13566,0.1669 -0.43914,0.075 -0.61142,0 -0.44501,-0.1458 -0.86585,-0.413 -0.94659,-0.9175 0.48468,-0.076 0.93321,0.038 1.32377,0.3535 z m 1.7162,-0.4814 c -0.11102,-0.1285 -0.33,-0.4009 -0.33822,-0.5754 -0.0277,-0.5588 1.17425,-0.8836 1.58758,-0.789 0.20819,0.047 0.33376,0.1937 0.36333,0.4053 l -0.10726,0.9591 v 0.5754 c -0.004,0.2296 0.0399,0.3888 -0.20115,0.4649 -0.46496,-0.1145 -0.99259,-0.681 -1.30428,-1.0403 z m 14.1002,0.4699 c -0.26381,-0.264 -0.41849,-1.0389 0.0875,-1.3644 0.23236,-0.1496 0.67573,-0.1528 0.944,-0.1151 0.58607,0.082 1.41835,0.3338 1.34583,1.0735 -0.0157,0.1663 -0.053,0.2916 -0.17345,0.4118 -0.28893,0.2896 -1.03789,0.3114 -1.42469,0.2724 -0.22603,-0.043 -0.61518,-0.1132 -0.77924,-0.2782 z m -4.59797,-0.6157 c -0.51918,0.5032 -1.13623,-0.1029 -1.31109,-0.6214 0.66705,-0.023 0.46754,-0.3901 0.12628,-0.7034 0.24104,-0.079 0.50157,-0.1681 0.75717,-0.1003 0.40887,0.1086 0.33047,0.3817 0.82008,0.1643 -0.008,0.3606 -0.12933,1.0057 -0.39244,1.2608 z m 4.17831,-1.0051 -0.25231,0.5115 c -0.14388,-0.2755 -0.0751,-0.4936 0.25231,-0.5115 z"
         style="fill:#ffffff;fill-opacity:1;fill-rule:nonzero;stroke:none;stroke-width:0.23627"
         id="path18914" />
    </g>
  </g>
</svg>
