<?xml version="1.0" encoding="UTF-8" standalone="no"?>
<!-- Created with Inkscape (http://www.inkscape.org/) -->

<svg
   xmlns:osb="http://www.openswatchbook.org/uri/2009/osb"
   xmlns:dc="http://purl.org/dc/elements/1.1/"
   xmlns:cc="http://creativecommons.org/ns#"
   xmlns:rdf="http://www.w3.org/1999/02/22-rdf-syntax-ns#"
   xmlns:svg="http://www.w3.org/2000/svg"
   xmlns="http://www.w3.org/2000/svg"
   xmlns:sodipodi="http://sodipodi.sourceforge.net/DTD/sodipodi-0.dtd"
   xmlns:inkscape="http://www.inkscape.org/namespaces/inkscape"
   width="72.87088mm"
   height="35.691219mm"
   viewBox="0 0 72.87088 35.691219"
   version="1.1"
   id="svg4130"
   inkscape:version="0.92.3 (2405546, 2018-03-11)"
   sodipodi:docname="logo_mage_bg-lightblue.svg">
  <defs
     id="defs4124">
    <linearGradient
       id="62193"
       osb:paint="solid"
       gradientTransform="matrix(0.26458333,0,0,0.26458333,-836.51491,926.25152)">
      <stop
         style="stop-color:#9ee2d1;stop-opacity:1;"
         offset="0"
         id="stop62143" />
    </linearGradient>
  </defs>
  <sodipodi:namedview
     id="base"
     pagecolor="#ffffff"
     bordercolor="#666666"
     borderopacity="1.0"
     inkscape:pageopacity="0.0"
     inkscape:pageshadow="2"
     inkscape:zoom="0.35"
     inkscape:cx="-580.29676"
     inkscape:cy="-465.10406"
     inkscape:document-units="mm"
     inkscape:current-layer="layer1"
     showgrid="false"
     inkscape:window-width="1600"
     inkscape:window-height="814"
     inkscape:window-x="0"
     inkscape:window-y="28"
     inkscape:window-maximized="1" />
  <metadata
     id="metadata4127">
    <rdf:RDF>
      <cc:Work
         rdf:about="">
        <dc:format>image/svg+xml</dc:format>
        <dc:type
           rdf:resource="http://purl.org/dc/dcmitype/StillImage" />
        <dc:title />
      </cc:Work>
    </rdf:RDF>
  </metadata>
  <g
     inkscape:label="Calque 1"
     inkscape:groupmode="layer"
     id="layer1"
     transform="translate(-68.641937,-127.20796)">
    <path
       style="fill:url(#62193);fill-rule:evenodd;stroke:none;stroke-width:0.26458332px;stroke-linecap:butt;stroke-linejoin:miter;stroke-opacity:1"
       d="m 68.641937,127.20796 h 72.870883 v 35.69122 H 68.641937 Z"
       id="rect64177"
       inkscape:connector-curvature="0" />
    <g
       id="g64075"
       transform="matrix(0.35277777,0,0,-0.35277777,154.38253,991.61714)"
       inkscape:export-filename="/home/sandrine/Documents/TAF FIGLI/APF_site/EXE/ACCUEIL/Mage.png"
       inkscape:export-xdpi="300"
       inkscape:export-ydpi="300">
      <g
         id="g19050"
         transform="translate(-229.932,2424.8729)">
        <g
           id="g19048">
          <path
             inkscape:connector-curvature="0"
             d="m 0,0 v -33.4341 h 9.65271 v 18.3144 l 6.70449,-15.0717 h 7.1803 l 6.7046,15.0717 v -18.3144 h 0.0075 c -0.0029,-0.1414 -0.427,-20.9921 20.1236,-20.9849 10.9335,0.0073 20.8791,9.987 20.8829,20.9547 l -0.0232,0.0302 h 0.0264 v 16.8838 c 0,6.1527 -4.4697,9.68239 -11.9824,9.68245 -3.8515,0 -8.4167,-0.90633 -12.8388,-2.52797 l 2.3779,-7.15448 c 2.9481,1.097 5.9434,1.6693 7.8929,1.6693 2.6152,0 3.9945,-1.0489 4.0421,-2.8614 h -5.9442 c -6.6093,-0.0953 -10.0794,-2.814 -10.0794,-7.9651 0,-4.9603 3.1853,-8.2039 8.701,-8.2039 3.3284,0 5.801,1.1921 7.3226,3.2907 v -2.6719 c 0,-1e-4 -0.0025,-0.0025 -0.0025,-0.0049 0,-5.7709 -4.7014,-11.0372 -10.4545,-11.0373 -7.419,0 -10.3899,5.1411 -10.4004,10.8996 V -9.8e-4 H 28.1966 L 19.9713,-17.4567 11.6971,-9.8e-4 Z m 57.0425,-22.7023 h 3.7085 v -2.3852 c -0.8559,-1.2878 -2.2352,-2.0026 -3.6141,-2.0026 -1.5216,0 -2.3767,0.8583 -2.3767,2.2892 0,1.3832 0.8083,2.0986 2.2823,2.0986 z"
             style="fill:#ffffff;fill-opacity:1;fill-rule:evenodd;stroke:none"
             id="path19046" />
        </g>
      </g>
      <g
         id="g64047">
        <g
           id="g19066"
           transform="translate(-153.23506,2384.5588)">
          <path
             inkscape:connector-curvature="0"
             d="m 0,0 v -4.86298 h 1.4039 v 2.66389 l 0.97515,-2.19216 h 1.0443 l 0.97513,2.19216 V -4.86298 H 5.8024 V 0 H 4.10109 L 2.90466,-2.53901 1.70129,0 Z"
             style="fill:#ffffff;fill-opacity:1;fill-rule:evenodd;stroke:none"
             id="path19064" />
        </g>
        <g
           id="g19074"
           transform="translate(-146.83138,2383.4419)">
          <path
             inkscape:connector-curvature="0"
             d="M 3.37534,-3.74608 3.36803,-1.31807 C 3.36072,-0.49254 2.81477,0 1.84655,0 1.16878,0 0.75384,-0.15956 0.22131,-0.45785 L 0.54637,-1.0822 c 0.38037,0.22893 0.75383,0.34686 1.09962,0.34686 0.55326,0 0.83681,-0.25668 0.83681,-0.68678 V -1.51925 H 1.40393 C 0.50486,-1.52609 0,-1.94936 0,-2.63614 c 0,-0.65904 0.49796,-1.15158 1.29329,-1.15158 0.52558,0 0.94055,0.1665 1.19642,0.49254 V -3.7461 Z m -1.86727,0.65209 c -0.40806,0 -0.65701,0.20117 -0.65701,0.51335 0,0.32605 0.22143,0.45786 0.69849,0.45786 H 2.48318 V -2.45576 C 2.43471,-2.8165 2.02676,-3.09399 1.50807,-3.09399 Z"
             style="fill:#ffffff;fill-opacity:1;fill-rule:evenodd;stroke:none"
             id="path19072" />
        </g>
        <g
           id="g19082"
           transform="translate(-142.86819,2383.4488)">
          <path
             inkscape:connector-curvature="0"
             d="m 2.6142,-1.04752 0.32503,0.6521 C 2.57268,-0.14568 2.06783,0 1.58373,0 0.83681,0 0.18672,-0.3538 0.18672,-1.11689 0.17941,-2.43495 2.10934,-2.06035 2.10934,-2.74713 c 0,-0.2428 -0.23507,-0.34686 -0.54637,-0.34686 -0.40111,0 -0.91288,0.1665 -1.25177,0.45786 L 0,-3.26742 c 0.38727,-0.33992 0.9682,-0.52029 1.52841,-0.52029 0.7884,0 1.45922,0.36767 1.45922,1.12383 0,1.33194 -1.95719,1.00589 -1.95719,1.63024 0,0.22893 0.20755,0.32604 0.49797,0.32604 0.31811,0 0.72616,-0.12486 1.08579,-0.33992 z"
             style="fill:#ffffff;fill-opacity:1;fill-rule:evenodd;stroke:none"
             id="path19080" />
        </g>
        <g
           id="g19090"
           transform="translate(-139.48635,2384.2744)">
          <path
             inkscape:connector-curvature="0"
             d="M 2.33065,-3.66978 C 2.13017,-3.7669 1.95719,-3.8224 1.80503,-3.8224 c -0.24213,0 -0.38729,0.11793 -0.38729,0.47173 v 1.67187 h 1.05814 v 0.65903 H 1.41774 V 0 H 0.52559 V -1.01977 H 0 L 0.00731,-1.6788 h 0.51867 v -1.83142 c 0,-0.76309 0.48412,-1.10995 1.08578,-1.10995 0.32506,0 0.6432,0.09713 0.92675,0.27055 z"
             style="fill:#ffffff;fill-opacity:1;fill-rule:evenodd;stroke:none"
             id="path19088" />
        </g>
        <g
           id="g19098"
           transform="translate(-136.61628,2383.435)">
          <path
             inkscape:connector-curvature="0"
             d="M 1.88111,0 C 0.77457,0 0,-0.76309 0,-1.89385 c 0,-1.11689 0.75381,-1.87998 1.90184,-1.87998 0.65012,0 1.18954,0.23586 1.55608,0.63822 L 2.97382,-2.6292 C 2.711,-2.89975 2.3583,-3.04543 1.97792,-3.04543 c -0.53942,0 -0.94056,0.31912 -1.05812,0.84634 H 3.65156 C 3.74144,-0.85327 3.18129,0 1.88111,0 Z M 0.89905,-1.59555 c 0.08306,0.54803 0.45645,0.89489 0.98898,0.89489 0.56018,0 0.92672,-0.34686 0.94747,-0.89489 z"
             style="fill:#ffffff;fill-opacity:1;fill-rule:evenodd;stroke:none"
             id="path19096" />
        </g>
        <g
           id="g19106"
           transform="translate(-132.18323,2383.4419)">
          <path
             inkscape:connector-curvature="0"
             d="m 0.89907,-0.74922 v 0.71453 H 0 v -3.71139 h 0.89907 v 1.78979 c 0,0.67291 0.47719,1.13076 1.2587,1.08221 V 0 C 1.58375,-0.00684 1.14805,-0.26361 0.89907,-0.74922 Z"
             style="fill:#ffffff;fill-opacity:1;fill-rule:evenodd;stroke:none"
             id="path19104" />
        </g>
        <g
           id="g19114"
           transform="translate(-129.735,2383.435)">
          <path
             inkscape:connector-curvature="0"
             d="m 2.88391,-1.20013 0.54636,0.52028 C 3.09829,-0.24974 2.55887,0 1.88111,0 0.76765,0 0,-0.76309 0,-1.89385 c 0,-1.11689 0.76073,-1.87998 1.86728,-1.87998 0.72616,0 1.27944,0.27749 1.60448,0.74922 l -0.56018,0.46478 c -0.22143,-0.29136 -0.5671,-0.43703 -0.9959,-0.43703 -0.59474,0 -1.00972,0.44397 -1.00972,1.10994 0,0.6521 0.41498,1.09608 1.00972,1.09608 0.40805,0 0.73308,-0.15262 0.96823,-0.40929 z"
             style="fill:#ffffff;fill-opacity:1;fill-rule:evenodd;stroke:none"
             id="path19112" />
        </g>
        <g
           id="g19122"
           transform="translate(-125.46101,2384.8432)">
          <path
             inkscape:connector-curvature="0"
             d="M 0,0 V -5.1474 H 0.89907 V 0 Z"
             style="fill:#ffffff;fill-opacity:1;fill-rule:evenodd;stroke:none"
             id="path19120" />
        </g>
        <g
           id="g19130"
           transform="translate(-123.7117,2383.4419)">
          <path
             inkscape:connector-curvature="0"
             d="M 3.37534,-3.74608 3.36803,-1.31807 C 3.36072,-0.49254 2.81477,0 1.84655,0 1.16878,0 0.75384,-0.15956 0.22131,-0.45785 L 0.54637,-1.0822 c 0.38037,0.22893 0.75381,0.34686 1.09962,0.34686 0.55326,0 0.83681,-0.25668 0.83681,-0.68678 V -1.51925 H 1.40393 C 0.50486,-1.52609 0,-1.94936 0,-2.63614 c 0,-0.65904 0.49794,-1.15158 1.29329,-1.15158 0.52558,0 0.94055,0.1665 1.19642,0.49254 V -3.7461 Z m -1.86727,0.65209 c -0.40806,0 -0.65701,0.20117 -0.65701,0.51335 0,0.32605 0.22118,0.45786 0.69849,0.45786 H 2.48318 V -2.45576 C 2.43471,-2.8165 2.02674,-3.09399 1.50807,-3.09399 Z"
             style="fill:#ffffff;fill-opacity:1;fill-rule:evenodd;stroke:none"
             id="path19128" />
        </g>
        <g
           id="g19138"
           transform="translate(-119.74854,2383.4488)">
          <path
             inkscape:connector-curvature="0"
             d="m 2.6142,-1.04752 0.32505,0.6521 C 2.57271,-0.14568 2.06786,0 1.58375,0 0.83683,0 0.18674,-0.3538 0.18674,-1.11689 c -0.00731,-1.31806 1.9226,-0.94346 1.9226,-1.63024 0,-0.2428 -0.23507,-0.34686 -0.54634,-0.34686 -0.40114,0 -0.91291,0.1665 -1.25178,0.45786 L 0,-3.26742 c 0.3873,-0.33992 0.96823,-0.52029 1.52841,-0.52029 0.78842,0 1.45925,0.36767 1.45925,1.12383 0,1.33194 -1.95719,1.00589 -1.95719,1.63024 0,0.22893 0.20754,0.32604 0.49794,0.32604 0.31814,0 0.72616,-0.12486 1.08579,-0.33992 z"
             style="fill:#ffffff;fill-opacity:1;fill-rule:evenodd;stroke:none"
             id="path19136" />
        </g>
        <g
           id="g19146"
           transform="translate(-116.4151,2383.4488)">
          <path
             inkscape:connector-curvature="0"
             d="m 2.6142,-1.04752 0.32505,0.6521 C 2.57271,-0.14568 2.06786,0 1.58373,0 0.83683,0 0.18674,-0.3538 0.18674,-1.11689 c -0.00731,-1.31806 1.9226,-0.94346 1.9226,-1.63024 0,-0.2428 -0.23507,-0.34686 -0.54634,-0.34686 -0.40114,0 -0.91291,0.1665 -1.25178,0.45786 L 0,-3.26742 c 0.3873,-0.33992 0.96823,-0.52029 1.52841,-0.52029 0.7884,0 1.45925,0.36767 1.45925,1.12383 0,1.33194 -1.95719,1.00589 -1.95719,1.63024 0,0.22893 0.20754,0.32604 0.49794,0.32604 0.31814,0 0.72616,-0.12486 1.08579,-0.33992 z"
             style="fill:#ffffff;fill-opacity:1;fill-rule:evenodd;stroke:none"
             id="path19144" />
        </g>
      </g>
    </g>
    <g
       id="g64175"
       transform="matrix(0.35277777,0,0,-0.35277777,154.38253,991.61714)"
       inkscape:export-filename="/home/sandrine/Documents/TAF FIGLI/APF_site/EXE/ACCUEIL/Mage.png"
       inkscape:export-xdpi="300"
       inkscape:export-ydpi="300">
      <g
         id="g19058"
         transform="translate(-154.39484,2425.5888)">
        <g
           id="g19056">
          <path
             inkscape:connector-curvature="0"
             d="M 18.7817,0 C 7.89298,0 0,-7.34523 0,-17.409 c 0,-10.1115 7.6072,-17.5049 18.0679,-17.5049 4.7549,0 10.8898,1.8613 14.5987,4.3892 v 13.9744 H 23.204 v -8.0132 c -1.6167,-0.7154 -3.2333,-1.144 -4.3745,-1.144 -4.327,0 -7.5126,3.4813 -7.5126,8.2985 0,4.7219 3.1375,8.20384 7.417,8.20384 2.7578,0 5.9916,-1.43124 8.2264,-3.62524 l 6.2286,7.58386 C 29.6228,-2.05095 23.9646,0 18.7817,0 Z M 38.5692,-0.71594 V -34.15 h 62.7998 v 8.3945 H 49.6003 v 4.1493 H 65.197 v 8.3945 H 49.6003 v 4.10125 h 17.1655 v 8.39451 z"
             style="fill:#30074d;fill-opacity:1;fill-rule:evenodd;stroke:none"
             id="path19054" />
        </g>
      </g>
      <g
         id="g64123">
        <g
           id="g19172"
           transform="matrix(0.64452,0,0,0.64651,-153.84159,2375.6835)">
          <path
             inkscape:connector-curvature="0"
             d="M 5.23638,-5.52608 C 4.87166,-5.68701 4.50671,-5.78361 4.24917,-5.78361 c -0.97644,0 -1.69538,0.78331 -1.69538,1.86706 0,1.0623 0.70821,1.84561 1.67395,1.84561 0.62234,0 1.35201,-0.32191 1.85632,-0.8155 l 1.40568,1.70611 C 6.68496,-0.4614 5.40805,0 4.23844,0 1.78122,0 0,-1.65246 0,-3.91655 c 0,-2.27482 1.71685,-3.93801 4.07751,-3.93801 1.073,0 2.45722,0.41848 3.29419,0.98719 V -3.7234 H 5.23638 Z"
             style="fill:#30074d;fill-opacity:1;fill-rule:evenodd;stroke:none"
             id="path19170" />
        </g>
        <g
           id="g19180"
           transform="matrix(0.64452,0,0,0.64651,-148.62011,2374.4557)">
          <path
             inkscape:connector-curvature="0"
             d="M 3.03666,0 C 1.22324,0 0,-1.1696 0,-2.9079 c 0,-1.74904 1.22324,-2.92936 3.03666,-2.92936 1.79195,0 3.0152,1.18032 3.0152,2.92936 C 6.05186,-1.1696 4.82861,0 3.03666,0 Z m 0,-1.19106 c 0.94428,0 1.60955,-0.7082 1.60955,-1.7383 0,-1.03011 -0.66527,-1.73831 -1.60955,-1.73831 -0.96571,0 -1.63102,0.7082 -1.63102,1.73831 0,1.0301 0.66531,1.7383 1.63102,1.7383 z"
             style="fill:#30074d;fill-opacity:1;fill-rule:evenodd;stroke:none"
             id="path19178" />
        </g>
        <g
           id="g19188"
           transform="matrix(0.64452,0,0,0.64651,-144.05564,2374.4279)">
          <path
             inkscape:connector-curvature="0"
             d="m 4.07751,0 v -2.83279 c 0,-0.92281 -0.53655,-1.631 -1.43789,-1.64173 -0.77257,0 -1.23398,0.48286 -1.23398,1.28763 L 1.40564,0 H 0 v -3.59464 c 0,-1.35201 0.79404,-2.1997 2.08165,-2.1997 0.91208,0 1.59882,0.3541 1.99586,1.11594 V -5.74069 H 5.48315 V 0 Z"
             style="fill:#30074d;fill-opacity:1;fill-rule:evenodd;stroke:none"
             id="path19186" />
        </g>
        <g
           id="g19196"
           transform="matrix(0.64452,0,0,0.64651,-139.96839,2374.4279)">
          <path
             inkscape:connector-curvature="0"
             d="M 0,-0.01073 2.21046,-5.74069 H 3.6483 L 5.83725,0 H 4.43161 L 2.96156,-4.36722 1.45931,0 Z"
             style="fill:#30074d;fill-opacity:1;fill-rule:evenodd;stroke:none"
             id="path19194" />
        </g>
        <g
           id="g19204"
           transform="matrix(0.64452,0,0,0.64651,-136.15775,2374.4557)">
          <path
             inkscape:connector-curvature="0"
             d="M 2.91863,0 C 1.20181,0 0,-1.18033 0,-2.92936 c 0,-1.72758 1.16961,-2.9079 2.95083,-2.9079 1.00864,0 1.84562,0.36483 2.41432,0.98718 L 4.61401,-4.06677 C 4.20627,-4.48525 3.65904,-4.71059 3.06886,-4.71059 c -0.83697,0 -1.45931,0.4936 -1.64171,1.30909 H 5.66559 C 5.80505,-1.31982 4.93591,0 2.91863,0 Z M 1.39495,-2.46796 c 0.12888,0.84769 0.70821,1.3842 1.53441,1.3842 0.86918,0 1.43785,-0.53651 1.47005,-1.3842 z"
             style="fill:#30074d;fill-opacity:1;fill-rule:evenodd;stroke:none"
             id="path19202" />
        </g>
        <g
           id="g19212"
           transform="matrix(0.64452,0,0,0.64651,-131.72469,2374.4626)">
          <path
             inkscape:connector-curvature="0"
             d="m 1.39495,-1.15887 v 1.10522 H 0 v -5.74069 h 1.39495 v 2.7684 c 0,1.04084 0.74037,1.74904 1.95288,1.67393 V 0 C 2.45722,-0.01058 1.78122,-0.40775 1.39495,-1.15887 Z"
             style="fill:#30074d;fill-opacity:1;fill-rule:evenodd;stroke:none"
             id="path19210" />
        </g>
        <g
           id="g19220"
           transform="matrix(0.64452,0,0,0.64651,-128.93758,2374.4626)">
          <path
             inkscape:connector-curvature="0"
             d="M 3.45513,0 C 2.52159,-0.01058 1.80268,-0.36484 1.39491,-1.12668 v 1.07303 H 0 v -5.74069 h 1.39491 v 2.82206 c 0,0.94426 0.55797,1.64173 1.50225,1.65246 0.79404,0 1.27691,-0.49359 1.27691,-1.29836 v -3.17616 h 1.40565 v 3.58391 C 5.57972,-0.84769 4.77494,0 3.45513,0 Z"
             style="fill:#30074d;fill-opacity:1;fill-rule:evenodd;stroke:none"
             id="path19218" />
        </g>
        <g
           id="g19228"
           transform="matrix(0.64452,0,0,0.64651,-124.63632,2374.4626)">
          <path
             inkscape:connector-curvature="0"
             d="M 5.23699,-5.79434 5.22565,-2.03875 C 5.21431,-0.76185 4.36721,0 2.865,0 1.81342,0 1.16961,-0.2468 0.34337,-0.7082 l 0.50434,-0.96572 c 0.59014,0.3541 1.16958,0.53651 1.70612,0.53651 0.8584,0 1.29834,-0.39702 1.29834,-1.06229 V -2.34994 H 2.17826 C 0.78331,-2.36052 0,-3.01522 0,-4.07751 c 0,-1.01938 0.77257,-1.78123 2.00655,-1.78123 0.81551,0 1.45931,0.25754 1.85635,0.76185 v -0.69747 z m -2.8972,1.00864 c -0.63307,0 -1.01937,0.31117 -1.01937,0.79404 0,0.50432 0.34355,0.7082 1.08378,0.7082 H 3.85277 V -3.79851 C 3.77756,-4.35649 3.14457,-4.7857 2.33979,-4.7857 Z"
             style="fill:#30074d;fill-opacity:1;fill-rule:evenodd;stroke:none"
             id="path19226" />
        </g>
        <g
           id="g19236"
           transform="matrix(0.64452,0,0,0.64651,-120.25128,2374.4626)">
          <path
             inkscape:connector-curvature="0"
             d="M 3.45517,0 C 2.52163,-0.01058 1.80268,-0.36484 1.39495,-1.12668 v 1.07303 H 0 v -5.74069 h 1.39495 v 2.82206 c 0,0.94426 0.55797,1.64173 1.50225,1.65246 0.79404,0 1.27687,-0.49359 1.27687,-1.29836 v -3.17616 h 1.40568 v 3.58391 C 5.57975,-0.84769 4.77498,0 3.45517,0 Z"
             style="fill:#30074d;fill-opacity:1;fill-rule:evenodd;stroke:none"
             id="path19234" />
        </g>
        <g
           id="g19244"
           transform="matrix(0.64452,0,0,0.64651,-115.9842,2374.4557)">
          <path
             inkscape:connector-curvature="0"
             d="m 4.47454,-1.85633 0.84768,0.80476 C 4.80718,-0.38629 3.9702,0 2.91866,0 1.19108,0 0,-1.18033 0,-2.92936 c 0,-1.72758 1.18035,-2.9079 2.8972,-2.9079 1.12667,0 1.98508,0.42921 2.48942,1.15886 l -0.86918,0.71893 c -0.34356,-0.45067 -0.87987,-0.676 -1.54514,-0.676 -0.92281,0 -1.56662,0.68673 -1.56662,1.71684 0,1.00864 0.64381,1.69538 1.56662,1.69538 0.63307,0 1.13741,-0.23607 1.50224,-0.63308 z"
             style="fill:#30074d;fill-opacity:1;fill-rule:evenodd;stroke:none"
             id="path19242" />
        </g>
        <g
           id="g19252"
           transform="matrix(0.64452,0,0,0.64651,-112.21506,2374.4557)">
          <path
             inkscape:connector-curvature="0"
             d="M 2.91863,0 C 1.20178,0 0,-1.18033 0,-2.92936 c 0,-1.72758 1.16961,-2.9079 2.95083,-2.9079 1.00864,0 1.84562,0.36483 2.41432,0.98718 L 4.61401,-4.06677 C 4.20627,-4.48525 3.65904,-4.71059 3.06886,-4.71059 c -0.83697,0 -1.45931,0.4936 -1.64175,1.30909 H 5.66559 C 5.80505,-1.31982 4.93591,0 2.91863,0 Z M 1.39495,-2.46796 c 0.12888,0.84769 0.70821,1.3842 1.53441,1.3842 0.86914,0 1.43785,-0.53651 1.47005,-1.3842 z"
             style="fill:#30074d;fill-opacity:1;fill-rule:evenodd;stroke:none"
             id="path19250" />
        </g>
        <g
           id="g19260"
           transform="matrix(0.64452,0,0,0.64651,-106.42648,2374.4557)">
          <path
             inkscape:connector-curvature="0"
             d="M 2.91863,0 C 1.20178,0 0,-1.18033 0,-2.92936 c 0,-1.72758 1.16961,-2.9079 2.95083,-2.9079 1.00864,0 1.84558,0.36483 2.41429,0.98718 L 4.61401,-4.06677 C 4.20627,-4.48525 3.65904,-4.71059 3.06886,-4.71059 c -0.83697,0 -1.45931,0.4936 -1.64175,1.30909 H 5.66559 C 5.80505,-1.31982 4.93591,0 2.91863,0 Z M 1.39495,-2.46796 c 0.12888,0.84769 0.70817,1.3842 1.53441,1.3842 0.86914,0 1.43785,-0.53651 1.47005,-1.3842 z"
             style="fill:#30074d;fill-opacity:1;fill-rule:evenodd;stroke:none"
             id="path19258" />
        </g>
        <g
           id="g19268"
           transform="matrix(0.64452,0,0,0.64651,-102.36687,2375.2951)">
          <path
             inkscape:connector-curvature="0"
             d="M 3.6161,-5.67631 C 3.30505,-5.82654 3.03666,-5.91238 2.80059,-5.91238 c -0.37568,0 -0.6009,0.1824 -0.6009,0.72966 v 2.586 h 1.64175 v 1.01937 H 2.19969 V 0 H 0.81551 V -1.57735 H 0 l 0.01134,-1.01937 h 0.80477 v -2.83279 c 0,-1.18034 0.75111,-1.71685 1.68465,-1.71685 0.5043,0 0.99791,0.15024 1.43785,0.41848 z"
             style="fill:#30074d;fill-opacity:1;fill-rule:evenodd;stroke:none"
             id="path19266" />
        </g>
        <g
           id="g19276"
           transform="matrix(0.64452,0,0,0.64651,-97.643332,2375.5795)">
          <path
             inkscape:connector-curvature="0"
             d="m 0,0 v -7.52192 h 6.45959 v 1.88853 H 2.48942 v 0.93353 h 3.5195 v 1.88853 h -3.5195 v 0.9228 h 3.8736 V 0 Z"
             style="fill:#30074d;fill-opacity:1;fill-rule:evenodd;stroke:none"
             id="path19274" />
        </g>
        <g
           id="g19284"
           transform="matrix(0.64452,0,0,0.64651,-92.657003,2374.4626)">
          <path
             inkscape:connector-curvature="0"
             d="M 3.45513,0 C 2.52159,-0.01058 1.80268,-0.36484 1.39491,-1.12668 v 1.07303 H 0 v -5.74069 h 1.39491 v 2.82206 c 0,0.94426 0.55797,1.64173 1.50225,1.65246 0.79404,0 1.27691,-0.49359 1.27691,-1.29836 v -3.17616 h 1.40565 v 3.58391 C 5.57972,-0.84769 4.77494,0 3.45513,0 Z"
             style="fill:#30074d;fill-opacity:1;fill-rule:evenodd;stroke:none"
             id="path19282" />
        </g>
        <g
           id="g19292"
           transform="matrix(0.64452,0,0,0.64651,-88.38992,2374.4558)">
          <path
             inkscape:connector-curvature="0"
             d="M 4.37794,-0.04317 V -0.90159 C 3.9809,-0.32216 3.3371,0.01048 2.51085,-2.5e-4 1.01938,-2.5e-4 0,-1.10547 0,-2.72574 0,-4.3782 1.03007,-5.49415 2.55379,-5.49415 c 0.81551,0 1.43784,0.32191 1.82415,0.90135 v -0.67601 c 0,-0.91208 -0.65454,-1.48078 -1.68465,-1.48078 -0.68674,0 -1.26618,0.2146 -1.79195,0.6009 L 0.34337,-7.15734 c 0.67601,-0.4614 1.50221,-0.76185 2.42502,-0.76185 1.81342,0 3.00446,1.04084 3.00446,2.68257 v 5.19345 z M 2.85422,-4.39966 c -0.91207,0 -1.52368,0.67601 -1.53441,1.64173 0.01134,0.95499 0.63307,1.64173 1.53441,1.64173 0.90135,0 1.52372,-0.67601 1.52372,-1.64173 0,-0.96572 -0.62237,-1.64173 -1.52372,-1.64173 z"
             style="fill:#30074d;fill-opacity:1;fill-rule:evenodd;stroke:none"
             id="path19290" />
        </g>
        <g
           id="g19300"
           transform="matrix(0.64452,0,0,0.64651,-83.915753,2374.4626)">
          <path
             inkscape:connector-curvature="0"
             d="M 5.23695,-5.79434 5.22561,-2.03875 C 5.21427,-0.76185 4.36721,0 2.86496,0 1.81342,0 1.16957,-0.2468 0.34337,-0.7082 l 0.5043,-0.96572 c 0.59018,0.3541 1.16962,0.53651 1.70612,0.53651 0.85841,0 1.29838,-0.39702 1.29838,-1.06229 V -2.34994 H 2.17822 C 0.78331,-2.36052 0,-3.01522 0,-4.07751 c 0,-1.01938 0.77257,-1.78123 2.00655,-1.78123 0.81551,0 1.45931,0.25754 1.85632,0.76185 V -5.79436 Z M 2.33979,-4.7857 c -0.63307,0 -1.01937,0.31117 -1.01937,0.79404 0,0.50432 0.34318,0.7082 1.08374,0.7082 H 3.85277 V -3.79851 C 3.77756,-4.35649 3.14457,-4.7857 2.33979,-4.7857 Z"
             style="fill:#30074d;fill-opacity:1;fill-rule:evenodd;stroke:none"
             id="path19298" />
        </g>
        <g
           id="g19308"
           transform="matrix(0.64452,0,0,0.64651,-79.869591,2374.4558)">
          <path
             inkscape:connector-curvature="0"
             d="M 4.37794,-0.04317 V -0.90159 C 3.9809,-0.32216 3.3371,0.01048 2.51085,-2.5e-4 1.01934,-2.5e-4 0,-1.10547 0,-2.72574 0,-4.3782 1.03007,-5.49415 2.55379,-5.49415 c 0.81551,0 1.43784,0.32191 1.82415,0.90135 v -0.67601 c 0,-0.91208 -0.65454,-1.48078 -1.68465,-1.48078 -0.68674,0 -1.26618,0.2146 -1.79195,0.6009 L 0.34333,-7.15734 c 0.67601,-0.4614 1.50225,-0.76185 2.42506,-0.76185 1.81342,0 3.00446,1.04084 3.00446,2.68257 v 5.19345 z M 2.85422,-4.39966 c -0.91207,0 -1.52368,0.67601 -1.53441,1.64173 0.01134,0.95499 0.63307,1.64173 1.53441,1.64173 0.90135,0 1.52372,-0.67601 1.52372,-1.64173 0,-0.96572 -0.62237,-1.64173 -1.52372,-1.64173 z"
             style="fill:#30074d;fill-opacity:1;fill-rule:evenodd;stroke:none"
             id="path19306" />
        </g>
        <g
           id="g19316"
           transform="matrix(0.64452,0,0,0.64651,-75.429622,2374.4557)">
          <path
             inkscape:connector-curvature="0"
             d="M 2.91863,0 C 1.20178,0 0,-1.18033 0,-2.92936 c 0,-1.72758 1.16961,-2.9079 2.95083,-2.9079 1.00864,0 1.84562,0.36483 2.41432,0.98718 L 4.61401,-4.06677 C 4.20627,-4.48525 3.65904,-4.71059 3.06886,-4.71059 c -0.83697,0 -1.45931,0.4936 -1.64171,1.30909 H 5.66559 C 5.80505,-1.31982 4.93591,0 2.91863,0 Z M 1.39495,-2.46796 c 0.12888,0.84769 0.70821,1.3842 1.53441,1.3842 0.86918,0 1.43785,-0.53651 1.47005,-1.3842 z"
             style="fill:#30074d;fill-opacity:1;fill-rule:evenodd;stroke:none"
             id="path19314" />
        </g>
        <g
           id="g19324"
           transform="matrix(0.64452,0,0,0.64651,-70.996549,2374.4626)">
          <path
             inkscape:connector-curvature="0"
             d="M 7.5219,0 C 6.51326,-0.01058 5.76215,-0.43994 5.38658,-1.37347 5.11824,-0.50432 4.42088,0 3.41223,0 2.50016,-0.01058 1.79195,-0.3541 1.39491,-1.11595 v 1.0623 H 0 v -5.74069 h 1.39491 v 2.83279 c 0,0.93353 0.54728,1.62027 1.45935,1.65246 0.77257,0 1.24471,-0.49359 1.24471,-1.30909 v -3.17616 h 1.40565 v 2.83279 c 0,0.93353 0.54724,1.62027 1.44858,1.65246 0.77257,0 1.25544,-0.49359 1.25544,-1.30909 v -3.17616 h 1.40568 v 3.58391 C 9.61432,-0.84769 8.82028,0 7.5219,0 Z"
             style="fill:#30074d;fill-opacity:1;fill-rule:evenodd;stroke:none"
             id="path19322" />
        </g>
        <g
           id="g19332"
           transform="matrix(0.64452,0,0,0.64651,-64.136027,2374.4557)">
          <path
             inkscape:connector-curvature="0"
             d="M 2.91863,0 C 1.20181,0 0,-1.18033 0,-2.92936 c 0,-1.72758 1.16961,-2.9079 2.95083,-2.9079 1.00864,0 1.84562,0.36483 2.41432,0.98718 L 4.61401,-4.06677 C 4.20627,-4.48525 3.65904,-4.71059 3.06886,-4.71059 c -0.83694,0 -1.45931,0.4936 -1.64171,1.30909 H 5.66559 C 5.80505,-1.31982 4.93595,0 2.91863,0 Z M 1.39495,-2.46796 c 0.12888,0.84769 0.70821,1.3842 1.53441,1.3842 0.86918,0 1.43788,-0.53651 1.47005,-1.3842 z"
             style="fill:#30074d;fill-opacity:1;fill-rule:evenodd;stroke:none"
             id="path19330" />
        </g>
        <g
           id="g19340"
           transform="matrix(0.64452,0,0,0.64651,-59.702954,2374.4626)">
          <path
             inkscape:connector-curvature="0"
             d="M 3.45513,0 C 2.52163,-0.01058 1.80268,-0.36484 1.39495,-1.12668 v 1.07303 H 0 v -5.74069 h 1.39495 v 2.82206 c 0,0.94426 0.55797,1.64173 1.50221,1.65246 0.79404,0 1.27691,-0.49359 1.27691,-1.29836 v -3.17616 h 1.40568 v 3.58391 C 5.57975,-0.84769 4.77498,0 3.45513,0 Z"
             style="fill:#30074d;fill-opacity:1;fill-rule:evenodd;stroke:none"
             id="path19338" />
        </g>
        <g
           id="g19348"
           transform="matrix(0.64452,0,0,0.64651,-55.470436,2375.2951)">
          <path
             inkscape:connector-curvature="0"
             d="M 3.6161,-5.67631 C 3.30505,-5.82654 3.03666,-5.91238 2.80059,-5.91238 c -0.37568,0 -0.6009,0.1824 -0.6009,0.72966 v 2.586 h 1.64175 v 1.01937 H 2.19969 V 0 H 0.81547 V -1.57735 H 0 l 0.01134,-1.01937 h 0.80477 v -2.83279 c 0,-1.18034 0.75115,-1.71685 1.68465,-1.71685 0.50434,0 0.99795,0.15024 1.43789,0.41848 z"
             style="fill:#30074d;fill-opacity:1;fill-rule:evenodd;stroke:none"
             id="path19346" />
        </g>
      </g>
    </g>
    <path
       style="fill:none;fill-opacity:1;stroke-width:1.42857146"
       d="M 0.26357052,67.818339 V 0.67548157 H 137.40643 274.54928 V 67.818339 134.9612 H 137.40643 0.26357052 Z M 234.81923,104.57333 c 0.85655,-1.34835 1.11994,-1.31628 1.13675,0.13838 0.0257,2.23239 8.70103,1.86891 10.35715,-0.43395 0.66644,-0.9267 1.05753,-0.8076 1.07143,0.32629 0.0114,0.98214 1.52158,1.78571 3.35455,1.78571 2.58325,0 3.27236,-0.72282 3.06437,-3.21429 -0.19005,-2.27685 -1.05785,-3.09538 -2.97554,-2.8066 -4.97318,0.74891 -45.48191,0.29118 -51.6358,-0.583453 -5.81426,-0.826367 -6.07143,-0.704773 -6.07143,2.870713 0,3.1961 0.61702,3.73364 4.28572,3.73364 2.35714,0 4.28571,-0.68878 4.28571,-1.53062 0,-0.84183 0.9697,-0.56091 2.15487,0.62427 1.72385,1.72383 4.9255,2.02385 16.00612,1.49988 8.74677,-0.41361 14.26208,-1.30174 14.9661,-2.40997 z M 99.921455,101.78574 c 3.686225,-2.439428 7.031255,-6.436524 9.452245,-11.294823 3.34741,-6.717368 3.74701,-9.162841 3.74701,-22.930533 0,-15.009658 -0.10864,-15.53283 -4.16907,-20.07665 -3.93222,-4.400351 -4.68294,-4.652962 -13.214285,-4.446548 -4.974867,0.120371 -10.763559,0.889203 -12.86376,1.708526 -3.565996,1.391152 -3.720624,1.808734 -2.337974,6.313818 1.47612,4.80964 1.504781,4.822883 9.532832,4.404867 l 8.05226,-0.419277 -8.348597,1.929084 c -8.962703,2.070985 -11.968607,4.177963 -12.413614,8.701278 -0.547914,5.569335 0.08151,7.890724 2.905069,10.714285 3.234034,3.234035 12.640611,3.930817 15.428571,1.142857 3.55506,-3.55506 1.740936,5.749115 -1.984134,10.176108 -4.866583,5.783605 -13.21376,6.18444 -18.509373,0.888828 -3.463857,-3.463858 -3.506493,-3.819946 -3.506493,-29.285714 V 33.532624 H 63.279321 54.866498 L 49.578186,44.604053 44.289875,55.675482 38.688005,44.604053 33.086135,33.532624 H 25.246281 17.406428 V 56.389767 79.24691 h 6.428571 6.428572 l 0.07567,-11.785714 0.07567,-11.785714 4.400713,9.642857 c 4.180983,9.161383 4.644142,9.642857 9.276026,9.642857 4.589187,0 5.116749,-0.524004 8.989194,-8.928572 l 4.113883,-8.928571 0.113814,12.857143 c 0.1356,15.317544 1.75693,21.928363 6.867669,28.00213 5.413511,6.433594 11.004656,8.544584 21.277966,8.033694 6.58822,-0.32764 10.177481,-1.37243 14.467271,-4.21128 z m 50.363985,2.61809 c 0.0143,-1.00166 0.43866,-0.92915 1.1537,0.19693 0.80136,1.26197 5.07053,1.6791 14.62099,1.42857 10.88071,-0.28542 13.48915,-0.76822 13.48915,-2.49671 0,-1.80041 -3.5328,-2.18748 -22.10667,-2.42212 -15.85501,-0.2003 -22.41372,0.2037 -23.19241,1.42857 -0.60983,0.95925 -1.09532,1.05837 -1.10761,0.22613 -0.0226,-1.52864 -1.92975,-2.04614 -9.30759,-2.52553 -3.46034,-0.22484 -4.37365,0.34067 -4.7423,2.93641 -0.45135,3.1781 -0.27567,3.21258 15.35715,3.01406 10.49789,-0.13331 15.82108,-0.73379 15.83559,-1.78631 z m 40.72087,-0.8421 c -0.29844,-4.050907 -1.28851,-4.579741 -5.54461,-2.96158 -5.53469,2.10429 -4.90343,5.78962 0.9917,5.78962 3.86271,0 4.72194,-0.53371 4.55291,-2.82804 z M 137.57214,92.301336 c 0.15179,-2.143446 0.21774,-2.145019 0.78465,-0.01871 0.69729,2.615337 7.60828,3.261215 7.64294,0.714285 0.0114,-0.883928 0.64504,-0.642857 1.4067,0.535715 1.08771,1.683107 1.38951,1.722202 1.4067,0.182221 0.0148,-1.33464 0.59201,-1.529966 1.80758,-0.611766 0.98215,0.741877 6.27676,1.302735 11.76583,1.24635 8.41724,-0.08647 10.05752,-0.50416 10.47437,-2.667308 0.40805,-2.117455 -0.46055,-2.550725 -4.98011,-2.48416 -3.0109,0.04434 -12.81934,0.05741 -21.79654,0.02904 -11.71888,-0.03703 -16.64819,0.462117 -17.47813,1.769874 -0.86761,1.367103 -1.16141,1.252073 -1.17783,-0.461144 -0.0149,-1.551489 -1.39456,-2.321622 -4.30759,-2.404446 -3.19044,-0.09071 -4.28571,0.523061 -4.28571,2.401647 0,3.589889 0.25957,3.692577 9.88653,3.91126 7.11297,0.161574 8.71489,-0.226273 8.85061,-2.142858 z m 18.76286,-15.544659 5.35714,-2.105708 v -9.844887 -9.844886 h -6.34233 c -6.29773,0 -6.34545,0.03769 -6.78571,5.357143 -0.38866,4.695881 -0.9439,5.414444 -4.49829,5.821365 -5.61821,0.643196 -9.51653,-3.24905 -9.51653,-9.501718 0,-2.762784 1.06392,-6.198864 2.36427,-7.635732 2.87332,-3.17498 10.14661,-3.41035 14.35246,-0.464458 2.88232,2.018853 3.32812,1.830921 7.41327,-3.125076 5.14388,-6.240408 4.41772,-7.788931 -5.18727,-11.061676 -8.54317,-2.910952 -14.02141,-2.797412 -21.14468,0.438243 -21.71808,9.865153 -18.87984,38.971092 4.34481,44.555743 5.12924,1.23339 12.33589,0.283766 19.64286,-2.588353 z m 98.21428,-3.938338 v -6.428572 h -35 c -30.15872,0 -35,-0.296404 -35,-2.142857 0,-1.715734 2.15199,-2.142857 10.79643,-2.142857 h 10.79643 l -0.43928,-6.071429 -0.43929,-6.071428 -10.35714,-0.419729 c -5.69643,-0.23085 -10.35715,-1.00738 -10.35715,-1.725621 0,-0.718243 4.98215,-1.49365 11.07143,-1.72313 l 11.07143,-0.417234 0.43929,-6.071429 0.43928,-6.071429 H 188.20286 168.835 V 56.389767 79.24691 h 42.85714 42.85714 z"
       id="path5461"
       inkscape:connector-curvature="0"
       transform="matrix(0.26458333,0,0,0.26458333,68.641937,127.20796)" />
  </g>
</svg>
