<?xml version="1.0" encoding="UTF-8" standalone="no"?>
<!-- Created with Inkscape (http://www.inkscape.org/) -->

<svg
   xmlns:dc="http://purl.org/dc/elements/1.1/"
   xmlns:cc="http://creativecommons.org/ns#"
   xmlns:rdf="http://www.w3.org/1999/02/22-rdf-syntax-ns#"
   xmlns:svg="http://www.w3.org/2000/svg"
   xmlns="http://www.w3.org/2000/svg"
   xmlns:sodipodi="http://sodipodi.sourceforge.net/DTD/sodipodi-0.dtd"
   xmlns:inkscape="http://www.inkscape.org/namespaces/inkscape"
   width="54.823631mm"
   height="27.333939mm"
   viewBox="0 0 54.823631 27.333939"
   version="1.1"
   id="svg8"
   inkscape:version="0.92.3 (2405546, 2018-03-11)"
   sodipodi:docname="contact.svg">
  <defs
     id="defs2" />
  <sodipodi:namedview
     id="base"
     pagecolor="#ffffff"
     bordercolor="#666666"
     borderopacity="1.0"
     inkscape:pageopacity="0.0"
     inkscape:pageshadow="2"
     inkscape:zoom="1.7691406"
     inkscape:cx="-59.496004"
     inkscape:cy="42.097624"
     inkscape:document-units="mm"
     inkscape:current-layer="layer1"
     showgrid="false"
     showguides="true"
     inkscape:guide-bbox="true"
     inkscape:window-width="1600"
     inkscape:window-height="836"
     inkscape:window-x="0"
     inkscape:window-y="27"
     inkscape:window-maximized="1">
    <sodipodi:guide
       position="-2.8246097,16.21451"
       orientation="1,0"
       id="guide843"
       inkscape:locked="false" />
    <sodipodi:guide
       position="35.853876,24.85967"
       orientation="0,1"
       id="guide882"
       inkscape:locked="false" />
    <sodipodi:guide
       position="4.3735243,27.2859"
       orientation="0,1"
       id="guide884"
       inkscape:locked="false" />
  </sodipodi:namedview>
  <metadata
     id="metadata5">
    <rdf:RDF>
      <cc:Work
         rdf:about="">
        <dc:format>image/svg+xml</dc:format>
        <dc:type
           rdf:resource="http://purl.org/dc/dcmitype/StillImage" />
        <dc:title></dc:title>
      </cc:Work>
    </rdf:RDF>
  </metadata>
  <g
     inkscape:label="Calque 1"
     inkscape:groupmode="layer"
     id="layer1"
     transform="translate(-86.817464,-111.8406)">
    <path
       style="fill:#fd4b71;fill-opacity:1;stroke:none;stroke-width:0.24051711px;stroke-linecap:butt;stroke-linejoin:miter;stroke-opacity:1"
       d="m 87.980385,111.8886 c 0.506473,0 11.395638,-0.0456 11.395638,-0.0456 1.289997,-0.0869 1.784377,2.21477 -0.076,2.44049 -1.860358,0.22571 -8.498116,0.0488 -11.117078,0.11406 -1.991391,0.0496 -1.546389,-2.6203 -0.20259,-2.50891 z"
       id="path826"
       inkscape:connector-curvature="0"
       sodipodi:nodetypes="cczsc" />
    <path
       style="fill:#fd4b71;fill-opacity:1;stroke:none;stroke-width:0.21389107px;stroke-linecap:butt;stroke-linejoin:miter;stroke-opacity:1"
       d="m 87.727669,116.89115 c 0.400515,0 9.011593,-0.0457 9.011593,-0.0457 1.020129,-0.0869 1.515373,2.21493 -0.06007,2.44066 -1.575447,0.22572 -6.829545,0.0488 -8.79131,0.11406 -1.574709,0.0523 -1.222874,-2.62047 -0.160206,-2.50908 z"
       id="path826-3"
       inkscape:connector-curvature="0"
       sodipodi:nodetypes="cczscc" />
    <path
       style="fill:#fd4b71;fill-opacity:1;stroke:none;stroke-width:0.15476735px;stroke-linecap:butt;stroke-linejoin:miter;stroke-opacity:1"
       d="m 87.74618,121.38808 c 0.209219,0 4.707418,-0.0457 4.707418,-0.0457 1.037681,0.0673 1.00173,2.5108 -0.03138,2.51482 -1.03311,0.004 -3.444053,-0.0114 -4.592348,0.0457 -1.457939,0.0726 -1.145922,-2.63227 -0.08369,-2.51482 z"
       id="path826-6"
       inkscape:connector-curvature="0"
       sodipodi:nodetypes="cczsc" />
    <path
       style="fill:none;fill-opacity:1;stroke:#ec6200;stroke-width:1.05833328;stroke-linecap:butt;stroke-linejoin:miter;stroke-miterlimit:4;stroke-dasharray:none;stroke-opacity:1"
       d="m 104.39302,112.41758 35.96895,0.10575 c 0,0 1.19722,0.79314 0.57258,2.90816 -0.62464,2.11502 -7.44364,21.99624 -7.44364,21.99624 0,0 -0.31232,1.26901 -1.24929,1.21614 -0.93697,-0.0529 -36.333316,0 -36.333316,0 0,0 -1.093124,-0.47588 -0.676695,-1.85065 0.416428,-1.37476 7.651861,-23.10663 7.651861,-23.10663 0.29714,-0.68462 0.66451,-1.28007 1.50955,-1.26901 z"
       id="path860"
       inkscape:connector-curvature="0"
       sodipodi:nodetypes="ccccccccc" />
    <g
       id="g871"
       transform="translate(3.7567494,-3.589313)">
      <path
         sodipodi:nodetypes="cccc"
         inkscape:connector-curvature="0"
         id="path862"
         d="m 99.126721,117.90418 13.796939,13.67016 c 0.004,0.005 1.1286,0.57463 2.0107,-0.0477 5.85727,-3.98449 22.08951,-13.59266 22.08951,-13.59266"
         style="fill:none;stroke:#eb6200;stroke-width:0.79374999;stroke-linecap:butt;stroke-linejoin:miter;stroke-miterlimit:4;stroke-dasharray:none;stroke-opacity:1" />
      <path
         sodipodi:nodetypes="cc"
         inkscape:connector-curvature="0"
         id="path864"
         d="m 91.517046,141.38717 17.168704,-13.8534"
         style="fill:none;stroke:#eb6200;stroke-width:0.79374999;stroke-linecap:butt;stroke-linejoin:miter;stroke-miterlimit:4;stroke-dasharray:none;stroke-opacity:1" />
      <path
         inkscape:connector-curvature="0"
         id="path866"
         d="m 121.34945,127.53377 8.08996,14.80516"
         style="fill:none;stroke:#eb6200;stroke-width:0.79374999;stroke-linecap:butt;stroke-linejoin:miter;stroke-miterlimit:4;stroke-dasharray:none;stroke-opacity:1" />
    </g>
  </g>
</svg>
