<?xml version="1.0" encoding="UTF-8" standalone="no"?>
<!-- Created with Inkscape (http://www.inkscape.org/) -->

<svg
   xmlns:osb="http://www.openswatchbook.org/uri/2009/osb"
   xmlns:dc="http://purl.org/dc/elements/1.1/"
   xmlns:cc="http://creativecommons.org/ns#"
   xmlns:rdf="http://www.w3.org/1999/02/22-rdf-syntax-ns#"
   xmlns:svg="http://www.w3.org/2000/svg"
   xmlns="http://www.w3.org/2000/svg"
   xmlns:sodipodi="http://sodipodi.sourceforge.net/DTD/sodipodi-0.dtd"
   xmlns:inkscape="http://www.inkscape.org/namespaces/inkscape"
   width="56.181194mm"
   height="44.802944mm"
   viewBox="0 0 56.181194 44.802944"
   version="1.1"
   id="svg3838"
   inkscape:version="0.92.3 (2405546, 2018-03-11)"
   sodipodi:docname="discrimination_green.svg">
  <defs
     id="defs3832">
    <linearGradient
       id="linearGradient64563"
       osb:paint="solid"
       gradientTransform="matrix(0.35277776,0,0,-0.35277776,65.97305,157.7602)">
      <stop
         style="stop-color:#59b6a4;stop-opacity:1;"
         offset="0"
         id="stop64561" />
    </linearGradient>
  </defs>
  <sodipodi:namedview
     id="base"
     pagecolor="#ffffff"
     bordercolor="#666666"
     borderopacity="1.0"
     inkscape:pageopacity="0.0"
     inkscape:pageshadow="2"
     inkscape:zoom="0.35"
     inkscape:cx="-675.26033"
     inkscape:cy="-101.04731"
     inkscape:document-units="mm"
     inkscape:current-layer="layer1"
     showgrid="false"
     inkscape:window-width="1600"
     inkscape:window-height="870"
     inkscape:window-x="1600"
     inkscape:window-y="0"
     inkscape:window-maximized="1" />
  <metadata
     id="metadata3835">
    <rdf:RDF>
      <cc:Work
         rdf:about="">
        <dc:format>image/svg+xml</dc:format>
        <dc:type
           rdf:resource="http://purl.org/dc/dcmitype/StillImage" />
        <dc:title></dc:title>
      </cc:Work>
    </rdf:RDF>
  </metadata>
  <g
     inkscape:label="Calque 1"
     inkscape:groupmode="layer"
     id="layer1"
     transform="translate(-107.22513,-77.294954)">
    <path
       inkscape:connector-curvature="0"
       id="path71795"
       style="fill:url(#linearGradient64563);fill-opacity:1;fill-rule:nonzero;stroke:none;stroke-width:0.35277706"
       d="m 130.44687,77.294954 c -2.5605,0 -4.64365,2.07331 -4.64365,4.622454 0,1.759197 0.9916,3.291173 2.44688,4.073137 h -1.21232 c -2.33638,0 -4.23696,1.894582 -4.23696,4.223515 l -0.002,4.483965 c -0.20362,-2.142808 -2.01973,-3.825607 -4.22558,-3.825607 h -1.33118 c 1.44963,-0.783696 2.43551,-2.312434 2.43551,-4.065383 0,-1.23317 -0.48438,-2.393516 -1.36374,-3.268017 -0.8793,-0.873336 -2.0454,-1.353926 -3.284,-1.353926 -2.56,0 -4.64365,2.073371 -4.64365,4.621943 0,1.752949 0.98502,3.281676 2.43293,4.065901 h -1.34824 c -2.34098,0 -4.24574,1.895306 -4.24574,4.227132 l 0.016,12.095902 h 2.99982 v 14.9009 h 9.60871 v -14.90038 h 2.96933 v -2.97811 h 2.97708 v 17.87952 h 10.1322 V 93.29139 l 7.47448,5.115454 c 0.4833,0.329142 1.04608,0.502811 1.62781,0.502811 0.94897,0 1.83558,-0.463349 2.3704,-1.240236 0.89809,-1.300543 0.56634,-3.085821 -0.73795,-3.978568 h -2.6e-4 c -9.19895,-6.306887 -9.61031,-6.589261 -9.61087,-6.589261 -0.58053,-0.413141 -1.91665,-1.111045 -3.25562,-1.111045 h -1.1498 c 1.45592,-0.781964 2.44843,-2.313467 2.44843,-4.0721 7.9e-4,-1.233148 -0.48277,-2.394563 -1.36271,-3.269054 -0.87937,-0.873357 -2.04531,-1.354437 -3.28455,-1.354437 z m 0,1.670699 c 0.791,0 1.53637,0.307689 2.09806,0.866098 0.56173,0.558398 0.87128,1.299573 0.87075,2.086694 0,1.629266 -1.33157,2.954856 -2.96881,2.954856 -1.63499,0 -2.96519,-1.32559 -2.96519,-2.954856 0,-1.628126 1.3302,-2.952792 2.96519,-2.952792 z m -15.41766,4.890139 c 0.79092,0 1.5358,0.307167 2.09806,0.865582 0.56233,0.558412 0.87186,1.299623 0.87126,2.086176 0,1.629269 -1.332,2.954341 -2.96984,2.954341 -1.63435,0 -2.96468,-1.325072 -2.96468,-2.954341 0,-1.628104 1.33021,-2.951758 2.9652,-2.951758 z m 44.30995,1.609721 c -1.62105,-0.04642 -3.15523,0.951008 -3.70985,2.556951 -0.68091,1.974261 0.37638,4.137808 2.36265,4.81366 1.98227,0.678709 4.15697,-0.379145 4.83846,-2.352831 0.68263,-1.977104 -0.38457,-4.137787 -2.36626,-4.813659 -0.37232,-0.127254 -0.75091,-0.193407 -1.125,-0.204121 z m -32.30138,2.195735 h 6.75772 c 0.85027,0 1.82941,0.47819 2.29702,0.811318 0.13286,0.09021 9.61731,6.593829 9.61802,6.594429 0.54398,0.371686 0.68109,1.11481 0.30644,1.656747 -0.35807,0.519818 -1.13585,0.666203 -1.66501,0.30644 l -8.78035,-6.009453 -0.22221,-0.147278 h -1.09967 v 29.554269 h -6.77582 v -17.88004 h -3.00136 l 0.007,-12.332071 c 0,-1.408497 1.1477,-2.554361 2.5585,-2.554361 z m 26.36635,4.868435 c -1.44897,-0.04085 -2.81926,0.850643 -3.31505,2.288748 l -3.50315,10.107909 2.83911,0.971 -4.75217,13.6369 7.49309,2.56366 h 10.90579 v -1.08624 h -10.52287 l 4.37647,-12.5522 2.81017,0.9617 3.48506,-10.11463 c 0.6102,-1.769957 -0.33217,-3.696352 -2.10685,-4.304132 l -6.70398,-2.290816 c -0.33297,-0.113425 -0.67125,-0.172473 -1.00562,-0.181899 z m -41.93336,0.01394 h 7.10189 c 1.41601,0 2.56728,1.146813 2.56728,2.555917 v 10.42729 h -2.96932 v 14.9009 h -6.2513 v -14.9009 h -3.0024 l -0.014,-10.427272 c 0,-1.409104 1.15238,-2.555917 2.5678,-2.555917 z"
       inkscape:export-filename="/home/sandrine/Documents/TAF FIGLI/APF_site/EXE/AUTRES_PAGES/PNG_autrespages/discrimination.svg.png"
       inkscape:export-xdpi="300"
       inkscape:export-ydpi="300" />
  </g>
</svg>
