<?xml version="1.0" encoding="UTF-8" standalone="no"?>
<!-- Created with Inkscape (http://www.inkscape.org/) -->

<svg
   xmlns:osb="http://www.openswatchbook.org/uri/2009/osb"
   xmlns:dc="http://purl.org/dc/elements/1.1/"
   xmlns:cc="http://creativecommons.org/ns#"
   xmlns:rdf="http://www.w3.org/1999/02/22-rdf-syntax-ns#"
   xmlns:svg="http://www.w3.org/2000/svg"
   xmlns="http://www.w3.org/2000/svg"
   xmlns:sodipodi="http://sodipodi.sourceforge.net/DTD/sodipodi-0.dtd"
   xmlns:inkscape="http://www.inkscape.org/namespaces/inkscape"
   width="171.60454mm"
   height="302.87219mm"
   viewBox="0 0 171.60454 302.87219"
   version="1.1"
   id="svg11788"
   inkscape:version="0.92.3 (2405546, 2018-03-11)"
   sodipodi:docname="dotted-curve_blue.svg">
  <defs
     id="defs11782">
    <linearGradient
       id="linearGradient62193"
       osb:paint="solid"
       gradientTransform="matrix(0.35277776,0,0,-0.35277776,402.14304,-19.262591)">
      <stop
         style="stop-color:#00b2b9;stop-opacity:1;"
         offset="0"
         id="stop62191" />
    </linearGradient>
  </defs>
  <sodipodi:namedview
     id="base"
     pagecolor="#ffffff"
     bordercolor="#666666"
     borderopacity="1.0"
     inkscape:pageopacity="0.0"
     inkscape:pageshadow="2"
     inkscape:zoom="0.35"
     inkscape:cx="-362.85083"
     inkscape:cy="726.64262"
     inkscape:document-units="mm"
     inkscape:current-layer="layer1"
     showgrid="false"
     inkscape:window-width="1600"
     inkscape:window-height="870"
     inkscape:window-x="1600"
     inkscape:window-y="0"
     inkscape:window-maximized="1" />
  <metadata
     id="metadata11785">
    <rdf:RDF>
      <cc:Work
         rdf:about="">
        <dc:format>image/svg+xml</dc:format>
        <dc:type
           rdf:resource="http://purl.org/dc/dcmitype/StillImage" />
        <dc:title></dc:title>
      </cc:Work>
    </rdf:RDF>
  </metadata>
  <g
     inkscape:label="Calque 1"
     inkscape:groupmode="layer"
     id="layer1"
     transform="translate(-24.566781,-38.218667)">
    <path
       inkscape:connector-curvature="0"
       style="color:#000000;font-style:normal;font-variant:normal;font-weight:normal;font-stretch:normal;font-size:medium;line-height:normal;font-family:sans-serif;font-variant-ligatures:normal;font-variant-position:normal;font-variant-caps:normal;font-variant-numeric:normal;font-variant-alternates:normal;font-feature-settings:normal;text-indent:0;text-align:start;text-decoration:none;text-decoration-line:none;text-decoration-style:solid;text-decoration-color:#000000;letter-spacing:normal;word-spacing:normal;text-transform:none;writing-mode:lr-tb;direction:ltr;text-orientation:mixed;dominant-baseline:auto;baseline-shift:baseline;text-anchor:start;white-space:normal;shape-padding:0;clip-rule:nonzero;display:inline;overflow:visible;visibility:visible;opacity:1;isolation:auto;mix-blend-mode:normal;color-interpolation:sRGB;color-interpolation-filters:linearRGB;solid-color:#000000;solid-opacity:1;vector-effect:none;fill:url(#linearGradient62193);fill-opacity:1;fill-rule:nonzero;stroke:none;stroke-width:0.35277775;stroke-linecap:butt;stroke-linejoin:miter;stroke-miterlimit:10;stroke-dasharray:4.00000601, 1.99999948;stroke-dashoffset:0;stroke-opacity:1;color-rendering:auto;image-rendering:auto;shape-rendering:auto;text-rendering:auto;enable-background:accumulate"
       d="m 24.979503,341.09086 -0.412722,-0.9109 c 1.2074,-0.54695 2.404262,-1.123 3.599437,-1.70876 l 0.440281,0.89778 c -1.199268,0.58777 -2.40532,1.16843 -3.626996,1.72188 z m 5.422582,-2.61345 -0.449241,-0.89365 c 1.18885,-0.59727 2.372526,-1.20518 3.551893,-1.82179 l 0.463709,0.88606 c -1.183798,0.61897 -2.372324,1.22952 -3.566361,1.82938 z m 5.338519,-2.76367 -0.469223,-0.88265 c 1.17523,-0.62469 2.345743,-1.2582 3.512619,-1.89892 l 0.481627,0.87709 c -1.170616,0.64278 -2.345577,1.27752 -3.525023,1.90448 z m 5.277887,-2.8746 -0.487137,-0.87299 c 1.162999,-0.64794 2.322068,-1.30342 3.476791,-1.96575 l 0.49747,0.86744 c -1.158434,0.6645 -2.320597,1.32141 -3.487124,1.9713 z m 5.222074,-2.97174 -0.502295,-0.86471 c 1.15124,-0.66874 2.29822,-1.3443 3.44165,-2.02642 l 0.512632,0.85854 c -1.146725,0.68403 -2.29737,1.36189 -3.451987,2.03259 z m 5.169021,-3.0634 -0.516764,-0.85577 c 1.139775,-0.68776 2.275015,-1.38327 3.407199,-2.08428 l 0.52641,0.85026 c -1.135068,0.70282 -2.273441,1.39983 -3.416845,2.08979 z m 5.116655,-3.14881 -0.530545,-0.84749 c 1.128342,-0.70694 2.25275,-1.41964 3.372749,-2.13942 l 0.540192,0.8413 c -1.123365,0.72194 -2.250945,1.43674 -3.382396,2.14561 z m 5.064292,-3.2322 -0.544325,-0.83852 c 1.116769,-0.72485 2.229837,-1.45619 3.338296,-2.19384 l 0.553971,0.83235 c -1.111568,0.73969 -2.227887,1.47304 -3.347942,2.20001 z m 5.011925,-3.31348 -0.557419,-0.82958 c 1.105032,-0.74268 2.205458,-1.49217 3.301783,-2.24758 l 0.567748,0.82338 c -1.099544,0.75764 -2.203931,1.50895 -3.312112,2.25378 z m 4.958181,-3.3927 -0.571196,-0.82135 c 1.092972,-0.75996 2.181185,-1.52678 3.26595,-2.29926 l 0.580152,0.81442 c -1.087411,0.77438 -2.178452,1.54379 -3.274906,2.30619 z m 4.903062,-3.47269 -0.58429,-0.81097 c 1.080619,-0.7783 2.156918,-1.56202 3.228054,-2.35231 l 0.593934,0.80476 c -1.074689,0.79293 -2.154443,1.57835 -3.237698,2.35852 z m 4.846558,-3.55052 -0.597379,-0.802 c 1.067978,-0.79532 2.131828,-1.59581 3.190158,-2.40332 l 0.606338,0.79513 c -1.061709,0.8101 -2.128303,1.61279 -3.199117,2.41019 z m 4.788683,-3.62836 -0.609782,-0.79237 c 1.054989,-0.8121 2.105038,-1.63033 3.150195,-2.45499 l 0.619429,0.7848 c -1.048308,0.82715 -2.101696,1.64803 -3.159842,2.46256 z m 4.728737,-3.70625 -0.622872,-0.78204 c 1.041509,-0.82931 2.077736,-1.66468 3.108855,-2.50666 l 0.632518,0.77449 c -1.034415,0.84466 -2.07391,1.68243 -3.118501,2.51421 z m 4.667414,-3.7841 -0.636654,-0.771 c 1.027473,-0.84702 2.050423,-1.69975 3.066825,-2.55902 l 0.64561,0.76412 c -1.020048,0.86237 -2.045613,1.71669 -3.075781,2.5659 z m 4.602647,-3.86126 -0.649055,-0.76066 c 1.012745,-0.86459 2.021255,-1.73457 3.023415,-2.6107 l 0.65802,0.75311 c -1.00546,0.87902 -2.01701,1.7514 -3.03238,2.61825 z m 4.53582,-3.93979 -0.66146,-0.75036 c 0.99813,-0.88043 1.99032,-1.76809 2.97725,-2.66167 l 0.6711,0.7414 c -0.98982,0.89619 -1.98519,1.78703 -2.98689,2.67063 z m 4.46828,-4.01839 -0.67524,-0.73794 c 0.98243,-0.89859 1.95952,-1.8023 2.92971,-2.71335 l 0.68489,0.72898 c -0.97375,0.91436 -1.95409,1.82114 -2.93936,2.72231 z m 4.39595,-4.0962 -0.68765,-0.72623 c 0.96634,-0.91521 1.92597,-1.83741 2.8801,-2.76575 l 0.69729,0.7166 c -0.95714,0.93126 -1.91994,1.85688 -2.88974,2.77538 z m 4.32152,-4.17478 -0.70073,-0.71384 c 0.94935,-0.9331 1.89289,-1.87184 2.8298,-2.81739 l 0.71038,0.70351 c -0.94003,0.94869 -1.88699,1.89156 -2.83945,2.82772 z m 4.24436,-4.254 -0.71382,-0.70073 c 0.93218,-0.94996 1.85785,-1.90637 2.77605,-2.86977 l 0.72347,0.68971 c -0.92159,0.96693 -1.85016,1.92741 -2.7857,2.88079 z m 4.16443,-4.33257 -0.72692,-0.68693 c 0.91359,-0.96813 1.82054,-1.94218 2.72025,-2.92283 l 0.73656,0.67662 c -0.90307,0.98432 -1.81329,1.96184 -2.72989,2.93314 z m 4.08037,-4.41248 -0.74001,-0.67179 c 0.89469,-0.98524 1.78245,-1.97743 2.66375,-2.97519 l 0.74897,0.66217 c -0.8841,1.0009 -1.7747,1.99591 -2.67271,2.98481 z m 3.99356,-4.491 -0.7531,-0.65733 c 0.87537,-1.00224 1.74268,-2.0121 2.60311,-3.02757 l 0.76275,0.64699 c -0.86348,1.01903 -1.73391,2.03169 -2.61276,3.03791 z m 3.9026,-4.5696 -0.76619,-0.64283 c 0.85505,-1.0196 1.7024,-2.04615 2.5411,-3.07922 l 0.77584,0.63045 c -0.84205,1.0372 -1.6923,2.06795 -2.55075,3.0916 z m 3.80959,-4.6495 -0.77997,-0.62629 c 0.83374,-1.0371 1.65973,-2.08114 2.47633,-3.13161 l 0.78962,0.61391 c -0.82003,1.05487 -1.6489,2.1028 -2.48598,3.14399 z m 3.71105,-4.72733 -0.79237,-0.60981 c 0.81151,-1.05467 1.6151,-2.11558 2.40881,-3.18326 l 0.80202,0.59669 c -0.79722,1.07241 -1.6038,2.13762 -2.41846,3.19638 z m 3.60977,-4.80593 -0.80546,-0.59256 c 0.7884,-1.0722 1.56859,-2.15021 2.33853,-3.23494 l 0.8158,0.57877 c -0.77356,1.08984 -1.55755,2.17258 -2.34887,3.24873 z m 3.50504,-4.88375 -0.81855,-0.57464 c 0.76451,-1.08945 1.52085,-2.18436 2.26618,-3.28595 l 0.8282,0.56085 c -0.749,1.10702 -1.50855,2.20638 -2.27583,3.29974 z m 3.3948,-4.96094 -0.83164,-0.55604 c 0.73988,-1.10621 1.47183,-2.21728 2.19176,-3.33555 l 0.84061,0.54088 c -0.72357,1.12391 -1.45809,2.24038 -2.20073,3.35071 z m 3.28111,-5.03604 -0.84336,-0.53746 c 0.71452,-1.1225 1.42008,-2.25047 2.11391,-3.38514 l 0.85301,0.52158 c -0.6973,1.14035 -1.40614,2.27397 -2.12356,3.40102 z m 3.16467,-5.11185 -0.85576,-0.51746 c 0.68839,-1.13831 1.36612,-2.28261 2.03329,-3.43337 l 0.86541,0.50161 c -0.67033,1.15616 -1.35141,2.30572 -2.04294,3.44922 z m 3.0427,-5.18418 -0.86747,-0.49745 c 0.66147,-1.15359 1.31094,-2.31447 1.9513,-3.48093 l 0.87643,0.48094 c -0.6429,1.17108 -1.29525,2.33772 -1.96026,3.49744 z m 2.91731,-5.25653 -0.87919,-0.47611 c 0.63358,-1.16847 1.25311,-2.34604 1.86655,-3.52778 l 0.88746,0.46098 c -0.61517,1.18501 -1.2373,2.36717 -1.87482,3.54291 z m 2.78915,-5.3261 -0.8909,-0.45476 c 0.60403,-1.18477 1.19563,-2.37607 1.77767,-3.57255 l 0.89917,0.43752 c -0.58447,1.20149 -1.17876,2.39882 -1.78594,3.58979 z m 2.65617,-5.39432 -0.90262,-0.43064 c 0.57302,-1.20124 1.13721,-2.40612 1.68672,-3.61668 l 0.91089,0.41342 c -0.55275,1.21765 -1.1199,2.42828 -1.69499,3.6339 z m 2.51905,-5.4598 -0.91295,-0.40721 c 0.54228,-1.21564 1.07605,-2.43396 1.5937,-3.65799 l 0.92122,0.38929 c -0.521,1.23197 -1.0579,2.45625 -1.60197,3.67591 z m 2.3785,-5.52112 -0.9226,-0.38583 c 0.5131,-1.22597 1.01041,-2.45953 1.49999,-3.69729 l 0.93018,0.36795 c -0.49124,1.24188 -0.99113,2.48123 -1.50757,3.71517 z m 2.23518,-5.58175 -0.93225,-0.36174 c 0.48059,-1.23963 0.94762,-2.48525 1.40354,-3.73514 l 0.93913,0.34311 c -0.45789,1.25532 -0.92708,2.50705 -1.41042,3.75377 z m 2.09117,-5.63961 -0.94258,-0.33419 c 0.44531,-1.25479 0.88339,-2.51107 1.30293,-3.77169 l 0.94878,0.31627 c -0.42255,1.26964 -0.86261,2.53135 -1.30913,3.78961 z m 1.93821,-5.68992 -0.94947,-0.31281 c 0.4153,-1.2622 0.81334,-2.53086 1.20372,-3.8034 l 0.95635,0.29284 c -0.39167,1.27677 -0.79247,2.55256 -1.2106,3.82337 z m 1.78869,-5.7416 -0.95774,-0.28593 c 0.38075,-1.27405 0.74772,-2.55245 1.10175,-3.83441 l 0.96393,0.26596 c -0.35582,1.28849 -0.72513,2.57341 -1.10794,3.85438 z m 1.63642,-5.78707 -0.96669,-0.25838 c 0.34403,-1.28629 0.68119,-2.5734 0.99839,-3.86334 l 0.97082,0.23912 c -0.31957,1.29956 -0.65757,2.59288 -1.00252,3.8826 z m 1.47726,-5.82771 -0.97152,-0.23495 c 0.31308,-1.29152 0.60878,-2.58855 0.89504,-3.88814 l 0.97703,0.21498 c -0.28737,1.30461 -0.58538,2.60798 -0.90055,3.90811 z m 1.32498,-5.86769 -0.97909,-0.20464 c 0.27339,-1.30391 0.54227,-2.60693 0.78892,-3.91157 l 0.98254,0.18602 c -0.24872,1.31562 -0.51855,2.62425 -0.79237,3.93019 z m 1.16238,-5.89731 -0.98323,-0.1833 c 0.2435,-1.30638 0.46967,-2.61712 0.68557,-3.93017 l 0.98737,0.16264 c -0.21677,1.31826 -0.44459,2.63567 -0.68971,3.95083 z m 1.00803,-5.93041 -0.98805,-0.15297 c 0.20378,-1.31628 0.40232,-2.63126 0.57946,-3.94737 l 0.99081,0.13296 c -0.17856,1.3267 -0.37804,2.64855 -0.58222,3.96738 z m 0.84612,-5.95105 -0.9915,-0.13024 c 0.1724,-1.31865 0.33168,-2.63871 0.47542,-3.96046 l 0.99357,0.10816 c -0.14456,1.32927 -0.3042,2.65702 -0.47749,3.98254 z m 0.68971,-5.97242 -0.99426,-0.10541 c 0.13984,-1.32027 0.25729,-2.64541 0.37138,-3.97287 l 0.99632,0.0854 c -0.11425,1.32933 -0.23241,2.66132 -0.37344,3.99288 z m 0.5333,-5.98826 -0.99632,-0.0813 c 0.10766,-1.31963 0.17813,-2.64908 0.27078,-3.98459 l 0.9977,0.0689 c -0.0919,1.32479 -0.16296,2.65857 -0.27216,3.99701 z m 0.37965,-6.00756 -0.99908,-0.0427 c 0.0566,-1.32404 0.0813,-2.64939 0.0751,-3.97495 l 0.99977,-0.005 c 0.006,1.34101 -0.0185,2.6823 -0.0758,4.02247 z m -0.95636,-6.00547 c -0.0373,-1.32507 -0.10509,-2.64944 -0.20533,-3.97084 l 0.99701,-0.0758 c 0.10147,1.3376 0.17038,2.6778 0.20808,4.01835 z M 194.76,99.267847 c -0.13044,-1.318823 -0.29313,-2.63472 -0.48644,-3.94603 l 0.98943,-0.14538 c 0.1956,1.326832 0.35992,2.657969 0.49196,3.99288 z m -0.79925,-5.909026 c -0.22421,-1.306619 -0.47794,-2.607805 -0.76344,-3.901935 l 0.97634,-0.215652 c 0.28899,1.309934 0.54629,2.626429 0.77308,3.948076 z m -1.21337,-5.83946 c -0.31431,-1.287675 -0.65891,-2.568081 -1.03284,-3.83988 l 0.95912,-0.281834 c 0.37826,1.286544 0.72721,2.581804 1.04524,3.884718 z m -1.61506,-5.741599 c -0.40188,-1.263333 -0.83275,-2.517918 -1.29122,-3.762023 l 0.93844,-0.345898 c 0.4636,1.258041 0.8992,2.526911 1.30569,3.804777 z m -1.99884,-5.62102 c -0.48497,-1.234054 -0.9974,-2.457733 -1.53583,-3.669702 l 0.91364,-0.405834 c 0.54423,1.225021 1.06267,2.461858 1.55305,3.70967 z m -2.36265,-5.479063 c -0.56336,-1.200608 -1.1525,-2.389645 -1.76596,-3.565665 l 0.88677,-0.462352 c 0.61984,1.188297 1.21515,2.389399 1.78456,3.602884 z m -2.70371,-5.320594 c -0.63678,-1.163638 -1.29744,-2.314223 -1.98093,-3.451296 l 0.85714,-0.515408 c 0.69031,1.148468 1.35753,2.310765 2.00091,3.486433 z m -3.02273,-5.146993 c -0.70562,-1.123597 -1.43372,-2.233506 -2.18281,-3.328634 l 0.82544,-0.564304 c 0.75646,1.105853 1.4916,2.226346 2.20418,3.36102 z m -3.32176,-4.960937 c -0.76995,-1.080735 -1.56067,-2.146124 -2.3716,-3.196343 l 0.79168,-0.611152 c 0.81884,1.06045 1.617,2.136245 2.39434,3.227352 z m -3.60288,-4.760418 c -0.83075,-1.034698 -1.6817,-2.053167 -2.55212,-3.054421 l 0.75516,-0.656661 c 0.87912,1.011273 1.73816,2.040079 2.57693,3.08476 z m -3.87229,-4.54339 c -0.88981,-0.983827 -1.79913,-1.949768 -2.72989,-2.893907 l 0.71176,-0.702098 c 0.94135,0.954899 1.8606,1.930999 2.75952,2.92488 z m -4.141,-4.2926 c -0.956,-0.921173 -1.92394,-1.823861 -2.93316,-2.667176 l 0.64148,-0.766904 c 1.03714,0.866669 2.02174,1.785373 2.98552,2.71406 z"
       id="path16806"
       inkscape:export-filename="/home/sandrine/Documents/TAF FIGLI/APF_site/EXE/ACCUEIL/filet_partenaires.png"
       inkscape:export-xdpi="300"
       inkscape:export-ydpi="300" />
  </g>
</svg>
