<?xml version="1.0" encoding="UTF-8" standalone="no"?>
<!-- Created with Inkscape (http://www.inkscape.org/) -->

<svg
   xmlns:osb="http://www.openswatchbook.org/uri/2009/osb"
   xmlns:dc="http://purl.org/dc/elements/1.1/"
   xmlns:cc="http://creativecommons.org/ns#"
   xmlns:rdf="http://www.w3.org/1999/02/22-rdf-syntax-ns#"
   xmlns:svg="http://www.w3.org/2000/svg"
   xmlns="http://www.w3.org/2000/svg"
   xmlns:sodipodi="http://sodipodi.sourceforge.net/DTD/sodipodi-0.dtd"
   xmlns:inkscape="http://www.inkscape.org/namespaces/inkscape"
   width="69.400803mm"
   height="197.47627mm"
   viewBox="0 0 69.400803 197.47627"
   version="1.1"
   id="svg4160"
   inkscape:version="0.92.3 (2405546, 2018-03-11)"
   sodipodi:docname="dotted-curve_green.svg">
  <defs
     id="defs4154">
    <linearGradient
       id="linearGradient62145"
       osb:paint="solid"
       gradientTransform="matrix(0.26458333,0,0,-0.26458333,-1103.9425,499.1465)">
      <stop
         style="stop-color:#9ee2d1;stop-opacity:1;"
         offset="0"
         id="stop62143" />
    </linearGradient>
  </defs>
  <sodipodi:namedview
     id="base"
     pagecolor="#ffffff"
     bordercolor="#666666"
     borderopacity="1.0"
     inkscape:pageopacity="0.0"
     inkscape:pageshadow="2"
     inkscape:zoom="0.35"
     inkscape:cx="239.72264"
     inkscape:cy="-26.816479"
     inkscape:document-units="mm"
     inkscape:current-layer="layer1"
     showgrid="false"
     inkscape:window-width="1600"
     inkscape:window-height="870"
     inkscape:window-x="1600"
     inkscape:window-y="0"
     inkscape:window-maximized="1" />
  <metadata
     id="metadata4157">
    <rdf:RDF>
      <cc:Work
         rdf:about="">
        <dc:format>image/svg+xml</dc:format>
        <dc:type
           rdf:resource="http://purl.org/dc/dcmitype/StillImage" />
        <dc:title></dc:title>
      </cc:Work>
    </rdf:RDF>
  </metadata>
  <g
     inkscape:label="Calque 1"
     inkscape:groupmode="layer"
     id="layer1"
     transform="translate(-42.406719,55.73814)">
    <path
       inkscape:connector-curvature="0"
       style="color:#000000;font-style:normal;font-variant:normal;font-weight:normal;font-stretch:normal;font-size:medium;line-height:normal;font-family:sans-serif;font-variant-ligatures:normal;font-variant-position:normal;font-variant-caps:normal;font-variant-numeric:normal;font-variant-alternates:normal;font-feature-settings:normal;text-indent:0;text-align:start;text-decoration:none;text-decoration-line:none;text-decoration-style:solid;text-decoration-color:#000000;letter-spacing:normal;word-spacing:normal;text-transform:none;writing-mode:lr-tb;direction:ltr;text-orientation:mixed;dominant-baseline:auto;baseline-shift:baseline;text-anchor:start;white-space:normal;shape-padding:0;clip-rule:nonzero;display:inline;overflow:visible;visibility:visible;opacity:1;isolation:auto;mix-blend-mode:normal;color-interpolation:sRGB;color-interpolation-filters:linearRGB;solid-color:#000000;solid-opacity:1;vector-effect:none;fill:url(#linearGradient62145);fill-opacity:1;fill-rule:nonzero;stroke:none;stroke-width:0.35277775;stroke-linecap:butt;stroke-linejoin:miter;stroke-miterlimit:10;stroke-dasharray:4.00000601, 1.99999948;stroke-dashoffset:0;stroke-opacity:1;color-rendering:auto;image-rendering:auto;shape-rendering:auto;text-rendering:auto;enable-background:accumulate"
       d="m 43.017191,141.73814 -0.610472,-0.79237 c 1.052308,-0.81086 2.093309,-1.63718 3.12608,-2.47495 l 0.630453,0.77653 c -1.038172,0.84215 -2.086067,1.674 -3.146061,2.49079 z m 4.696354,-3.76135 -0.637343,-0.77099 c 1.024799,-0.84773 2.04144,-1.70558 3.050286,-2.57281 l 0.651814,0.75861 c -1.013344,0.87111 -2.034791,1.7332 -3.064757,2.58519 z m 4.578533,-3.89848 -0.657327,-0.75307 c 1.001807,-0.8751 1.995289,-1.7593 2.982076,-2.65204 l 0.671103,0.7414 c -0.990716,0.89626 -1.989296,1.78449 -2.995852,2.66371 z m 4.475868,-4.01422 -0.676617,-0.73657 c 0.979438,-0.90057 1.951668,-1.80893 2.915926,-2.72573 l 0.689021,0.72415 c -0.968301,0.92067 -1.944803,1.8338 -2.92833,2.73815 z m 4.37527,-4.12446 -0.69522,-0.71932 c 0.957037,-0.92445 1.906397,-1.85649 2.847714,-2.79675 l 0.706935,0.70763 c -0.94536,0.94429 -1.898463,1.88021 -2.859429,2.80844 z m 4.271916,-4.22988 -0.712445,-0.7021 c 0.933799,-0.94791 1.859953,-1.90359 2.777437,-2.86703 l 0.724157,0.68972 c -0.921508,0.96767 -1.851522,1.92761 -2.789149,2.87941 z m 4.165123,-4.33599 -0.729671,-0.68422 c 0.909527,-0.97109 1.810359,-1.94973 2.702331,-2.93659 l 0.742074,0.67112 c -0.896128,0.99145 -1.801357,1.97447 -2.714734,2.94969 z m 4.052811,-4.44211 -0.747585,-0.66421 c 0.883766,-0.99416 1.758325,-1.99722 2.623783,-3.00757 l 0.759298,0.65041 c -0.869344,1.01491 -1.747554,2.02252 -2.635496,3.02137 z m 3.932918,-4.5496 -0.765501,-0.64354 c 0.855933,-1.01826 1.702112,-2.0442 2.538347,-3.07855 l 0.777216,0.62841 c -0.840322,1.03939 -1.690114,2.07063 -2.550062,3.09368 z m 3.803385,-4.65847 -0.784101,-0.62148 c 0.826061,-1.04253 1.642314,-2.09272 2.446703,-3.15154 l 0.79651,0.60494 c -0.808736,1.06454 -1.629053,2.12055 -2.459112,3.16808 z m 3.663516,-4.77075 -0.802018,-0.59669 c 0.79393,-1.06676 1.576245,-2.1421 2.346108,-3.22597 l 0.815112,0.57876 c -0.774337,1.09019 -1.561049,2.17146 -2.359202,3.2439 z m 3.512619,-4.88375 -0.821309,-0.57122 c 0.75878,-1.09146 1.504715,-2.19195 2.237933,-3.30108 l 0.833713,0.55122 c -0.737365,1.11541 -1.486953,2.22299 -2.250337,3.32108 z m 3.346567,-5.00091 -0.840603,-0.54158 c 0.72009,-1.11735 1.426753,-2.24332 2.118043,-3.37824 l 0.853694,0.52021 c -0.6959,1.14251 -1.406674,2.27549 -2.131134,3.39961 z m 3.164662,-5.11873 -0.859896,-0.50987 c 0.67762,-1.14339 1.340414,-2.29528 1.986442,-3.45613 l 0.873675,0.48648 c -0.650732,1.16928 -1.318305,2.32886 -2.000221,3.47952 z m 2.96485,-5.23861 -0.87919,-0.4754 c 0.63155,-1.16858 1.245159,-2.34721 1.84244,-3.53399 l 0.893656,0.44993 c -0.601522,1.19521 -1.220578,2.38206 -1.856906,3.55946 z m 2.745737,-5.35919 -0.899856,-0.43684 c 0.580336,-1.1944 1.141456,-2.39812 1.683966,-3.61044 l 0.91295,0.40789 c -0.5467,1.2217 -1.11202,2.43529 -1.69706,3.63939 z m 2.50252,-5.47839 -0.91915,-0.39412 c 0.52347,-1.22044 1.02755,-2.4486 1.50895,-3.68554 l 0.93225,0.36241 c -0.48576,1.24812 -0.99437,2.48697 -1.52205,3.71725 z m 2.23587,-5.59414 -0.93776,-0.34727 c 0.46085,-1.24541 0.90127,-2.49784 1.31603,-3.7579 l 0.95016,0.31281 c -0.419,1.27293 -0.86386,2.5369 -1.32843,3.79236 z m 1.94097,-5.70509 -0.95498,-0.29626 c 0.39335,-1.26756 0.76306,-2.54215 1.10587,-3.82337 l 0.96601,0.25838 c -0.34645,1.2948 -0.71992,2.58201 -1.1169,3.86125 z m 1.61919,-5.80636 -0.97014,-0.24116 c 0.31965,-1.28732 0.61225,-2.58117 0.87712,-3.88056 l 0.97979,0.19982 c -0.26776,1.31353 -0.56381,2.6212 -0.88677,3.9219 z m 1.26918,-5.89453 -0.98392,-0.18123 c 0.23973,-1.303897 0.45008,-2.613232 0.63114,-3.92673 l 0.9908,0.136419 c -0.18307,1.328174 -0.39556,2.65275 -0.63802,3.971541 z m 0.8909,-5.965547 -0.99288,-0.116451 c 0.15398,-1.316249 0.27611,-2.635919 0.36794,-3.958412 l 0.9977,0.0689 c -0.0929,1.337733 -0.21691,2.673668 -0.37276,4.005966 z m 0.4892,-6.013061 -0.99908,-0.04823 c 0.0632,-1.323409 0.0929,-2.648265 0.0909,-3.973582 h 1.00046 c 0.002,1.341298 -0.0284,2.682981 -0.0923,4.023183 z m -0.93362,-6.010309 c -0.0316,-1.32447 -0.097,-2.648268 -0.19568,-3.969456 l 0.99701,-0.0744 c 0.0999,1.338016 0.16648,2.678361 0.19844,4.019727 z m -0.36105,-5.953831 c -0.12175,-1.32147 -0.26805,-2.641071 -0.44097,-3.956331 l 0.99081,-0.130246 c 0.17468,1.328597 0.3229,2.661039 0.44579,3.994925 z m -0.71864,-5.92762 c -0.19588,-1.311627 -0.41952,-2.619409 -0.66904,-3.922606 l 0.98185,-0.188101 c 0.25196,1.315898 0.47862,2.636767 0.67662,3.962578 z M 108.6373,9.130248 c -0.27624,-1.297234 -0.57966,-2.588966 -0.91226,-3.872301 l 0.96807,-0.250788 c 0.33642,1.298045 0.64344,2.603394 0.9226,3.914314 z m -1.43109,-5.792576 c -0.35879,-1.276067 -0.74708,-2.544445 -1.16444,-3.802697 l 0.94878,-0.314889 c 0.42216,1.272752 0.81522,2.555769 1.17822,3.846793 z m -1.81143,-5.683038 c -0.44629,-1.248479 -0.92033,-2.486412 -1.42558,-3.711046 l 0.92466,-0.381034 c 0.51177,1.240438 0.99151,2.493327 1.44281,3.755847 z m -2.20417,-5.541079 c -0.5327,-1.213205 -1.09604,-2.413143 -1.68879,-3.598087 l 0.89435,-0.447146 c 0.60026,1.199938 1.17076,2.415117 1.71014,3.643524 z m -2.59898,-5.365398 c -0.620568,-1.170551 -1.270567,-2.325018 -1.94993,-3.462338 l 0.85852,-0.513326 c 0.68813,1.151996 1.34625,2.321666 1.97473,3.50714 z m -2.989658,-5.156623 c -0.706721,-1.120635 -1.442331,-2.223276 -2.205553,-3.305916 l 0.817866,-0.576721 c 0.773237,1.096857 1.517383,2.213716 2.233113,3.348636 z m -3.369993,-4.917546 c -0.789344,-1.064049 -1.605645,-2.107777 -2.448083,-3.130198 l 0.771699,-0.635953 c 0.853297,1.035579 1.680369,2.093209 2.479781,3.170838 z m -3.730349,-4.64947 c -0.866691,-1.00203 -1.759276,-1.982188 -2.675462,-2.93938 l 0.722784,-0.691091 c 0.927698,0.969221 1.83143,1.961726 2.709219,2.976561 z m -4.066591,-4.358746 c -0.938432,-0.935425 -1.90016,-1.847709 -2.883545,-2.736109 l 0.669726,-0.742068 c 0.995363,0.899195 1.969183,1.822697 2.919376,2.76987 z m -4.374581,-4.052111 c -1.003898,-0.86547 -2.027904,-1.707021 -3.071648,-2.523878 l 0.615981,-0.787576 c 1.056228,0.826664 2.093024,1.678481 3.108855,2.554216 z m -4.651571,-3.732424 c -1.061881,-0.793468 -2.14191,-1.562347 -3.239076,-2.306849 l 0.560858,-0.827511 c 1.109438,0.752828 2.202662,1.530279 3.276978,2.333025 z m -4.897546,-3.405152 c -1.113242,-0.72009 -2.242923,-1.415063 -3.387217,-2.084952 l 0.50505,-0.863353 c 1.156997,0.677333 2.299304,1.380878 3.425114,2.109082 z m -5.114589,-3.071636 c -1.158251,-0.645513 -2.330637,-1.265908 -3.516062,-1.860339 l 0.447862,-0.893656 c 1.198294,0.600886 2.384255,1.227666 3.555336,1.880305 z m -5.303379,-2.733323 c -1.197984,-0.568889 -2.408329,-1.111637 -3.629752,-1.627469 l 0.389294,-0.921244 c 1.23516,0.521652 2.458163,1.070398 3.669027,1.645391 z m -5.470123,-2.381249 c -1.232718,-0.488527 -2.475515,-0.94989 -3.72897,-1.378727 l 0.323148,-0.946044 c 1.26964,0.434376 2.528094,0.901383 3.774447,1.395272 z m -5.616193,-1.998169 c -1.267143,-0.393841 -2.53643,-0.762882 -3.817165,-1.054206 l 0.221862,-0.975642 c 1.319625,0.300143 2.613709,0.677474 3.892267,1.074879 z"
       id="path71673" />
  </g>
</svg>
