<?xml version="1.0" encoding="UTF-8" standalone="no"?>
<!-- Created with Inkscape (http://www.inkscape.org/) -->

<svg
   xmlns:osb="http://www.openswatchbook.org/uri/2009/osb"
   xmlns:dc="http://purl.org/dc/elements/1.1/"
   xmlns:cc="http://creativecommons.org/ns#"
   xmlns:rdf="http://www.w3.org/1999/02/22-rdf-syntax-ns#"
   xmlns:svg="http://www.w3.org/2000/svg"
   xmlns="http://www.w3.org/2000/svg"
   xmlns:sodipodi="http://sodipodi.sourceforge.net/DTD/sodipodi-0.dtd"
   xmlns:inkscape="http://www.inkscape.org/namespaces/inkscape"
   width="49.741852mm"
   height="44.33313mm"
   viewBox="0 0 49.741852 44.33313"
   version="1.1"
   id="svg3247"
   inkscape:version="0.92.3 (2405546, 2018-03-11)"
   sodipodi:docname="ecology_green.svg">
  <defs
     id="defs3241">
    <linearGradient
       id="linearGradient64563"
       osb:paint="solid"
       gradientTransform="matrix(0.35277776,0,0,-0.35277776,37.725208,246.41482)">
      <stop
         style="stop-color:#59b6a4;stop-opacity:1;"
         offset="0"
         id="stop64561" />
    </linearGradient>
  </defs>
  <sodipodi:namedview
     id="base"
     pagecolor="#ffffff"
     bordercolor="#666666"
     borderopacity="1.0"
     inkscape:pageopacity="0.0"
     inkscape:pageshadow="2"
     inkscape:zoom="0.35"
     inkscape:cx="-564.57104"
     inkscape:cy="3.7789858"
     inkscape:document-units="mm"
     inkscape:current-layer="layer1"
     showgrid="false"
     inkscape:window-width="1600"
     inkscape:window-height="870"
     inkscape:window-x="1600"
     inkscape:window-y="0"
     inkscape:window-maximized="1" />
  <metadata
     id="metadata3244">
    <rdf:RDF>
      <cc:Work
         rdf:about="">
        <dc:format>image/svg+xml</dc:format>
        <dc:type
           rdf:resource="http://purl.org/dc/dcmitype/StillImage" />
        <dc:title></dc:title>
      </cc:Work>
    </rdf:RDF>
  </metadata>
  <g
     inkscape:label="Calque 1"
     inkscape:groupmode="layer"
     id="layer1"
     transform="translate(-77.938588,-105.50006)">
    <path
       inkscape:connector-curvature="0"
       id="path71951"
       style="fill:url(#linearGradient64563);fill-opacity:1;fill-rule:nonzero;stroke:none;stroke-width:0.35277706"
       d="m 101.14307,105.50362 c -0.13907,-0.0113 -0.28274,0.004 -0.42324,0.0501 -8.867983,2.90377 -14.898094,10.23383 -15.205787,18.37717 -0.603178,-0.0663 -1.199745,-0.1049 -1.78077,-0.1049 -1.662676,0 -3.154635,0.28061 -4.432805,0.83457 -0.248142,0.10718 -0.446902,0.3044 -0.555003,0.55036 -2.397879,5.45324 0.88247,13.96182 5.450313,18.48672 2.913203,2.88608 6.755014,4.4757 10.817426,4.4757 h 5.3e-4 0.001 c 1.844461,0 3.630304,-0.33067 5.320606,-0.97978 l 2.37918,2.33164 c 0.20945,0.20567 0.4823,0.30799 0.75499,0.30799 0.27704,0 0.55426,-0.10565 0.7643,-0.31626 0.41769,-0.41875 0.41377,-1.09272 -0.009,-1.50689 l -1.62988,-1.59783 c 0.059,-0.13194 0.092,-0.27598 0.092,-0.42943 v -32.87086 c 0,-0.58865 -0.48089,-1.06557 -1.07486,-1.06557 -0.59394,0 -1.07487,0.47692 -1.07487,1.06557 v 10.55233 l -5.812061,-4.85139 c -0.454517,-0.37927 -1.131978,-0.32059 -1.514637,0.12868 -0.382021,0.45046 -0.323659,1.12244 0.130225,1.50171 l 7.034193,5.87148 c 0.0491,0.0414 0.10819,0.0609 0.16227,0.0925 v 6.49366 c -0.651039,-1.09756 -1.437794,-2.12978 -2.371385,-3.05511 -2.65952,-2.63592 -6.621529,-4.67714 -10.502718,-5.55315 0.140653,-7.36593 5.615961,-14.05976 13.730943,-16.71578 0.56385,-0.18567 0.86977,-0.78681 0.68368,-1.34565 -0.14004,-0.41913 -0.51762,-0.69379 -0.93482,-0.72761 z m 5.97741,0.7581 c -0.59394,0 -1.07487,0.47638 -1.07487,1.06505 v 38.63433 c 0,0.58879 0.48093,1.06557 1.07487,1.06557 0.027,0 0.0526,-0.007 0.0796,-0.008 0.4324,-0.002 0.861,-0.02 1.28725,-0.0486 0.10626,0.0335 0.21501,0.0563 0.32557,0.0563 0.15908,0 0.31354,-0.048 0.46095,-0.11782 7.95773,-0.8248 14.57758,-6.16857 17.19844,-13.38782 0.016,-0.0366 0.026,-0.0743 0.0382,-0.11265 0.75487,-2.1185 1.16995,-4.39594 1.16995,-6.76703 0,-2.32427 -0.39997,-4.55679 -1.12655,-6.6399 -0.0166,-0.0786 -0.0428,-0.15098 -0.076,-0.22221 -2.84871,-7.87121 -10.44894,-13.51748 -19.35747,-13.51748 z m 1.07487,2.16317 c 0.0344,0.002 0.0679,0.006 0.10232,0.009 0.0528,0.0773 0.11317,0.15096 0.1881,0.2155 0.059,0.0499 4.44122,3.86411 6.61613,10.50684 h -6.90655 z m 3.59719,0.56379 c 5.40812,1.40807 9.84742,5.19936 12.11141,10.16682 h -6.53914 c -1.39855,-4.72147 -3.85431,-8.17801 -5.57227,-10.16682 z m -3.59719,12.29745 h 7.49515 c 0.37775,1.64785 0.60926,3.43396 0.60926,5.35522 0,1.9194 -0.23899,3.71732 -0.62838,5.38469 h -7.47603 z m 9.70793,0 h 6.81716 c 0.52574,1.6941 0.81028,3.49174 0.81028,5.35522 0,1.87311 -0.28778,3.682 -0.81906,5.38469 h -6.82233 c 0.35253,-1.67284 0.56069,-3.4708 0.56069,-5.38469 0,-1.91089 -0.20338,-3.69763 -0.54674,-5.35522 z m -34.168456,4.67051 c 4.327067,0 9.757264,2.26929 12.911873,5.39709 3.367723,3.33537 4.639663,8.20857 3.420463,12.57959 l -7.27966,-7.136 -0.04599,-5.10408 c -0.0055,-0.58505 -0.485838,-1.05575 -1.074869,-1.05575 h -0.0098 c -0.593937,0.006 -1.070592,0.48615 -1.065051,1.07487 l 0.02687,2.95951 -3.332613,-3.2675 c -0.421994,-0.41395 -1.103267,-0.41007 -1.520322,0.009 -0.417653,0.41885 -0.413806,1.09241 0.0088,1.50637 l 5.184696,5.08341 c 0.0011,0.001 0.0017,0.002 0.0031,0.002 l 1.938382,1.90117 -5.15989,-0.50023 c -0.601946,-0.0584 -1.116857,0.37049 -1.174608,0.9555 -0.05835,0.58508 0.373415,1.10712 0.964282,1.16427 l 7.793324,0.75603 3.305746,3.23959 c -1.16332,0.34467 -2.372732,0.52193 -3.615287,0.52193 h -5.3e-4 c -3.489362,0 -6.791033,-1.36753 -9.297625,-3.85144 -3.871361,-3.83625 -6.84527,-11.11855 -5.156805,-15.73599 0.920099,-0.33179 1.985772,-0.49919 3.175516,-0.49919 z m 24.460526,8.20002 h 6.87658 c -1.91449,5.78192 -5.50663,9.5955 -6.62388,10.681 -0.0848,0.006 -0.16794,0.0137 -0.2527,0.0186 z m 9.14982,0 H 123.89 c -2.25475,4.92358 -6.64795,8.68391 -12.00082,10.10843 1.7708,-2.13678 4.10164,-5.5799 5.45599,-10.10843 z"
       inkscape:export-filename="/home/sandrine/Documents/TAF FIGLI/APF_site/EXE/AUTRES_PAGES/PNG_autrespages/ecologie.png"
       inkscape:export-xdpi="300"
       inkscape:export-ydpi="300" />
  </g>
</svg>
