<?xml version="1.0" encoding="UTF-8" standalone="no"?>
<!-- Created with Inkscape (http://www.inkscape.org/) -->

<svg
   xmlns:dc="http://purl.org/dc/elements/1.1/"
   xmlns:cc="http://creativecommons.org/ns#"
   xmlns:rdf="http://www.w3.org/1999/02/22-rdf-syntax-ns#"
   xmlns:svg="http://www.w3.org/2000/svg"
   xmlns="http://www.w3.org/2000/svg"
   xmlns:sodipodi="http://sodipodi.sourceforge.net/DTD/sodipodi-0.dtd"
   xmlns:inkscape="http://www.inkscape.org/namespaces/inkscape"
   width="24.502644mm"
   height="24.694901mm"
   viewBox="0 0 24.502644 24.694901"
   version="1.1"
   id="svg2066"
   inkscape:version="0.92.3 (2405546, 2018-03-11)"
   sodipodi:docname="hands-clapping_gray.svg">
  <defs
     id="defs2060" />
  <sodipodi:namedview
     id="base"
     pagecolor="#ffffff"
     bordercolor="#666666"
     borderopacity="1.0"
     inkscape:pageopacity="0.0"
     inkscape:pageshadow="2"
     inkscape:zoom="0.35"
     inkscape:cx="-497.9815"
     inkscape:cy="-141.90401"
     inkscape:document-units="mm"
     inkscape:current-layer="layer1"
     showgrid="false"
     inkscape:window-width="1600"
     inkscape:window-height="870"
     inkscape:window-x="1600"
     inkscape:window-y="0"
     inkscape:window-maximized="1" />
  <metadata
     id="metadata2063">
    <rdf:RDF>
      <cc:Work
         rdf:about="">
        <dc:format>image/svg+xml</dc:format>
        <dc:type
           rdf:resource="http://purl.org/dc/dcmitype/StillImage" />
        <dc:title></dc:title>
      </cc:Work>
    </rdf:RDF>
  </metadata>
  <g
     inkscape:label="Calque 1"
     inkscape:groupmode="layer"
     id="layer1"
     transform="translate(-60.320105,-86.592998)">
    <path
       inkscape:connector-curvature="0"
       id="path73265"
       style="fill:#7b7979;fill-opacity:1;fill-rule:nonzero;stroke:none;stroke-width:0.35277706"
       d="m 84.16407,86.593421 v 3.53e-4 c -0.16517,0.0055 -0.337555,0.09061 -0.459401,0.245462 l -2.484088,2.920753 v 0.0011 c -0.33461,0.395312 -0.04323,1.032613 0.472323,1.033526 0.181469,0 0.354214,-0.07973 0.472324,-0.218588 l 2.484084,-2.921788 c 0.133068,-0.145165 0.189537,-0.329195 0.1695,-0.494545 -0.02,-0.165347 -0.106006,-0.306899 -0.222211,-0.407208 -0.116205,-0.100312 -0.267357,-0.164645 -0.432531,-0.159163 z m -3.290238,0.434597 c -0.07645,-0.0032 -0.154594,0.0075 -0.230477,0.03514 -0.151835,0.05513 -0.287422,0.184228 -0.358119,0.36225 l -0.829405,2.090829 c -0.127176,0.319528 0.02956,0.688195 0.346749,0.815971 v 3.44e-4 c 0.07334,0.02914 0.152114,0.04385 0.230995,0.04392 0.25382,2.12e-4 0.483302,-0.156255 0.577741,-0.393777 l 0.829409,-2.090826 c 0.07073,-0.178022 0.06077,-0.365562 -0.01136,-0.51108 -0.07211,-0.145513 -0.195209,-0.248729 -0.334345,-0.304891 -0.06957,-0.02808 -0.144695,-0.04492 -0.221178,-0.04806 z m 3.270088,3.350701 c -0.08068,0.0049 -0.16189,0.02611 -0.238231,0.06459 l -1.659329,0.836126 c -0.170145,0.08569 -0.286131,0.232622 -0.328147,0.389639 -0.04202,0.157022 -0.01785,0.316502 0.04909,0.451651 0.06696,0.135118 0.179426,0.250628 0.32918,0.311094 0.149789,0.06047 0.336282,0.05572 0.50643,-0.02999 l 1.659329,-0.836641 c 0.30547,-0.153634 0.431218,-0.53346 0.278536,-0.84129 -0.0762,-0.153987 -0.208633,-0.262668 -0.360186,-0.313679 -0.07578,-0.02547 -0.155999,-0.03646 -0.236675,-0.0315 z m -11.59413,1.013376 c -0.517313,-0.0011 -1.013788,0.206607 -1.378208,0.576707 -0.562433,0.571111 -1.193969,1.207011 -2.122868,2.142504 h -3.44e-4 l -0.799952,0.807705 C 68.131049,94.50044 67.936887,94.10703 67.617451,93.807448 l -0.0011,-0.0011 -0.0014,-3.44e-4 c -0.593549,-0.540631 -1.508641,-0.516508 -2.073262,0.05478 l -2.995697,3.020477 C 59.730305,99.63988 59.5647,104.14863 62.170345,107.11014 l 3.52e-4,3.4e-4 v 0.001 c 0.601673,0.67024 1.321594,1.22151 2.123384,1.62626 0.847548,0.42735 1.772055,0.67431 2.717147,0.73897 0.458611,0.40474 0.959682,0.75764 1.504301,1.03405 h 0.0011 c 2.795129,1.41471 6.176676,0.86269 8.386053,-1.36891 l 5.631181,-5.67562 c 0.761506,-0.73667 0.819386,-1.95076 0.131258,-2.75745 l -3.44e-4,-3.4e-4 -0.0021,-0.002 c -0.190041,-0.21453 -0.458378,-0.31905 -0.718305,-0.43098 l 0.536921,-0.541575 c 0.761788,-0.736738 0.819669,-1.95072 0.131255,-2.757452 l -0.0014,-3.44e-4 -0.0014,-0.0021 c -0.19184,-0.216461 -0.462686,-0.32332 -0.725537,-0.435112 0.726613,-0.73981 0.779477,-1.923094 0.10232,-2.716632 l -0.0021,-0.0014 -3.44e-4,-0.0021 c -0.74546,-0.837817 -2.043379,-0.872752 -2.831908,-0.07604 L 78.51135,94.38864 c -0.09497,-0.224049 -0.178375,-0.456131 -0.349331,-0.630968 0.137337,-0.605931 0.01231,-1.245852 -0.400491,-1.716175 l -3.44e-4,-3.44e-4 -3.44e-4,-0.0011 c -0.746936,-0.834706 -2.042714,-0.868255 -2.831348,-0.07338 L 74.31454,92.58679 c -0.304765,-0.704815 -0.975512,-1.192724 -1.759067,-1.194241 h -3.44e-4 z M 72.5312,92.64163 c 0.03327,-3.44e-4 0.06679,0.0014 0.09973,0.0057 v 0.0011 c 0.06593,0.0085 0.130704,0.02611 0.192755,0.05219 0.248147,0.104281 0.436153,0.333414 0.434601,0.65991 v 3.44e-4 0.0011 c 3.44e-4,0.185349 -0.07279,0.362722 -0.202572,0.494026 l -0.0025,0.0025 -0.0057,0.0062 -1.530653,1.543061 c -0.448078,-0.238201 -0.979069,-0.273811 -1.426214,-0.01549 -0.118459,0.06516 -0.227373,0.144822 -0.324528,0.239261 l -0.0021,0.0014 -2.99775,3.022039 c -0.175334,0.176741 -0.338466,0.360574 -0.491962,0.548283 -0.02925,0.0356 -0.04663,0.06203 -0.05891,0.07752 -0.126859,0.158151 -0.249337,0.319751 -0.363284,0.488344 -0.05359,0.07906 -0.09129,0.149976 -0.129709,0.208255 l -0.0014,0.0014 -3.44e-4,0.0021 c -0.07729,0.122487 -0.158083,0.248427 -0.232026,0.382407 -0.05292,0.0956 -0.09506,0.18756 -0.13746,0.27182 v 3.4e-4 c -0.05464,0.10979 -0.113753,0.22343 -0.166916,0.34313 -0.04699,0.10693 -0.0852,0.21042 -0.123508,0.30799 -0.03948,0.10051 -0.08432,0.21427 -0.122989,0.32815 -0.03912,0.11511 -0.0694,0.22553 -0.09973,0.33227 -0.03027,0.1063 -0.0607,0.20849 -0.08733,0.3204 l 3.44e-4,-3.4e-4 c -0.02868,0.11818 -0.05038,0.23309 -0.07183,0.34365 v 3.3e-4 c -0.01937,0.10234 -0.04062,0.20845 -0.05684,0.31781 -0.01743,0.11931 -0.0296,0.23669 -0.04238,0.34985 v 0.001 0.002 c -0.01,0.10345 -0.02035,0.20836 -0.02688,0.31575 v 10e-4 c -0.0065,0.11948 -0.0091,0.23633 -0.01034,0.35243 v 0.002 3.4e-4 c 0,0.10372 1.38e-4,0.20905 0.0032,0.31626 v 3.4e-4 c 0.004,0.11698 0.01076,0.23392 0.02014,0.35037 v 0.001 c 0.0089,0.10675 0.02025,0.21341 0.03358,0.31988 v 3.4e-4 c 0.01443,0.11392 0.03041,0.22767 0.05013,0.34158 0.02018,0.11691 0.04307,0.21706 0.06305,0.31936 0.02244,0.11483 0.0511,0.22666 0.0801,0.33383 0.02984,0.11035 0.06415,0.22042 0.09819,0.32763 0.03401,0.10711 0.06726,0.20828 0.106451,0.31316 v 3.4e-4 l 3.44e-4,3.5e-4 c 0.04276,0.11158 0.08793,0.22057 0.134359,0.32866 v 3.5e-4 3.4e-4 c 0.04159,0.0951 0.08329,0.1898 0.125056,0.2837 l 0.0014,0.003 0.0021,0.003 c 0.05634,0.1167 0.116808,0.22672 0.176216,0.33435 0.04639,0.0849 0.09394,0.17459 0.14986,0.26613 0.02209,0.0364 0.04639,0.0687 0.06925,0.10388 -0.271074,-0.0906 -0.550422,-0.15893 -0.806153,-0.28836 l -0.0036,-0.002 c -0.662229,-0.33509 -1.257154,-0.79057 -1.753893,-1.34461 l -0.0011,-3.4e-4 -3.44e-4,-10e-4 c -2.162468,-2.46786 -2.016661,-6.20841 0.331241,-8.498149 l 0.0011,-0.0014 2.996198,-3.019452 c 0.05274,-0.05292 0.124005,-0.08267 0.198437,-0.0832 h 0.0011 c 0.05447,-7.15e-4 0.10638,0.01944 0.146241,0.05684 0.474489,0.448278 0.487718,1.196604 0.02791,1.660366 l -0.01499,0.01499 -0.0032,0.0047 -2.796731,2.818952 c -3.44e-4,3.44e-4 -7.14e-4,7.14e-4 -0.0011,0.0014 -0.137742,0.134867 -0.204311,0.312801 -0.195851,0.476458 0.0085,0.164179 0.08269,0.309225 0.189653,0.417025 0.106959,0.10785 0.251015,0.18264 0.413928,0.19121 0.162878,0.009 0.339369,-0.0597 0.473354,-0.19947 l 2.826184,-2.847895 0.0032,-0.0047 2.240174,-2.256194 v -3.44e-4 c 0.929675,-0.935845 1.562276,-1.573657 2.12545,-2.145086 0.114512,-0.115464 0.245382,-0.179479 0.378273,-0.202053 0.03323,-0.0056 0.06645,-0.0089 0.09973,-0.0093 z m 3.796668,0.0032 3.44e-4,3.44e-4 c 0.185843,0.0049 0.369214,0.08388 0.505915,0.235645 0.07743,0.08879 0.07694,0.210111 0.09974,0.323497 -0.177309,-0.01542 -0.355317,-0.03418 -0.530719,0 h -0.0014 l -0.02582,0.0052 v 3.44e-4 c -0.229831,0.04847 -0.449054,0.139001 -0.646472,0.267166 h -0.0011 l -3.44e-4,3.44e-4 c -0.01672,0.01062 -0.04125,0.02642 -0.06718,0.04651 -0.0014,0.0011 -0.0028,0.0021 -0.0041,0.0032 -0.08068,0.0575 -0.15681,0.121472 -0.227894,0.190687 l -0.0014,3.44e-4 -0.0021,0.0014 c 0.01919,-0.01937 0.0093,-0.01369 -0.02738,0.02325 l -1.203039,1.212846 c -0.357435,0.359551 -0.950408,0.956917 -1.730643,1.743046 -0.03443,-0.120297 -0.0624,-0.242008 -0.115242,-0.355532 l 1.5782,-1.590083 0.0083,-0.0083 1.874309,-1.890839 c 0.144343,-0.144807 0.332176,-0.214668 0.518266,-0.209799 z m 4.21628,1.776635 h 0.0032 0.0021 c 0.191981,0.0046 0.372872,0.09031 0.501777,0.233577 0.245498,0.31175 0.216986,0.755731 -0.07028,1.029914 l -0.0025,0.0025 -1.199924,1.209226 -5.319575,5.364018 c -0.134514,0.1355 -0.198035,0.31104 -0.188616,0.47335 0.0094,0.16235 0.08271,0.30659 0.188616,0.41341 0.105904,0.10686 0.248236,0.18054 0.409279,0.19017 0.161043,0.01 0.336257,-0.0547 0.470771,-0.19017 l 5.321116,-5.363484 c 0.286949,-0.290512 0.747843,-0.277643 1.020607,0.02533 0.245004,0.311996 0.215897,0.756334 -0.07183,1.029913 l -0.0025,0.0025 -1.773534,1.786971 -3.493329,3.52278 c -3.44e-4,3.5e-4 -9.2e-5,7.2e-4 -3.44e-4,10e-4 -0.137728,0.13487 -0.204805,0.31232 -0.196374,0.47594 0.0085,0.16422 0.08218,0.30974 0.189135,0.41755 0.106966,0.10784 0.251015,0.18263 0.413932,0.1912 0.162877,0.008 0.339887,-0.0597 0.473872,-0.19947 l 3.493844,-3.52175 0.0011,-3.5e-4 c 0.134761,-0.13871 0.321187,-0.21297 0.513662,-0.20567 h 0.0014 0.0014 c 0.191911,0.005 0.371807,0.0894 0.500743,0.23255 0.245252,0.31157 0.216705,0.75487 -0.07028,1.02887 l -0.0014,0.002 -0.0025,0.002 -5.633766,5.67873 c -1.831249,1.85083 -4.631571,2.30825 -6.949391,1.1358 -0.664351,-0.33627 -1.261294,-0.79311 -1.760615,-1.34824 -0.524757,-0.58057 -0.929326,-1.2615 -1.189076,-2.00195 -0.553085,-1.6111 -0.421856,-3.38088 0.361734,-4.89169 v -3.4e-4 c 0.302366,-0.59203 0.693727,-1.13355 1.160135,-1.605073 L 70.643972,96.5226 c 0.02515,-0.02529 0.05439,-0.04593 0.08682,-0.06046 l 0.0014,-0.0011 0.0014,-3.44e-4 c 0.08498,-0.03969 0.183177,-0.02335 0.253732,0.03824 0.221262,0.219145 0.353039,0.514262 0.365351,0.826823 3.44e-4,0.07264 -0.005,0.144981 -0.01757,0.216524 l -0.0032,0.01757 v 0.0011 c -0.0429,0.226589 -0.151092,0.435359 -0.313158,0.598413 l -0.01757,0.0181 -0.0025,0.0041 -2.79104,2.813784 c -3.44e-4,3.4e-4 -7.14e-4,7.1e-4 -0.0011,0.001 -0.137724,0.13486 -0.205355,0.31284 -0.196889,0.47645 0.0085,0.16422 0.08266,0.30919 0.18965,0.41703 0.106966,0.10781 0.251054,0.18267 0.413932,0.1912 0.162913,0.009 0.340438,-0.0596 0.474391,-0.19947 l 2.813858,-2.83653 3.134691,-3.164664 0.519864,-0.521931 0.725022,-0.73019 c -0.0011,0.0011 0.01009,-0.0072 0.03566,-0.02843 l 0.0041,-0.0036 0.0041,-0.0041 c 0.0175,-0.01612 0.03524,-0.03016 0.05426,-0.04444 -0.0025,0.0018 0.0094,-0.0057 0.03566,-0.0217 l 0.0014,-3.44e-4 3.44e-4,-3.44e-4 c 0.02519,-0.01591 0.05197,-0.03002 0.07906,-0.04238 0.0049,-0.0021 0.01475,-0.0053 0.03306,-0.01242 0.03002,-0.01157 0.06114,-0.02078 0.0925,-0.02791 h -0.0036 l 0.03101,-0.0067 0.0067,-3.43e-4 c 0.03408,-0.0058 0.06878,-0.009 0.103353,-0.0098 h 0.02222 c 0.08943,7.14e-4 0.177687,0.01806 0.260449,0.05219 -0.008,-0.0032 -4e-6,0.0014 0.02222,0.01136 0.07892,0.0357 0.151077,0.08579 0.21239,0.147277 0.275625,0.279294 0.27505,0.724616 -0.0011,1.003558 l -4.684893,4.719591 c -0.148558,0.13349 -0.222042,0.31476 -0.216009,0.48317 0.006,0.16842 0.08105,0.31808 0.190168,0.4284 0.109114,0.11031 0.256706,0.18619 0.423746,0.19275 0.167076,0.007 0.346738,-0.0682 0.479559,-0.21756 l 4.684469,-4.720636 1.882055,-1.898078 0.0025,-0.0021 c 0.131339,-0.140124 0.31702,-0.214673 0.507979,-0.204125 z"
       inkscape:export-filename="/home/sandrine/Documents/TAF FIGLI/APF_site/EXE/AUTRES_PAGES/PNG_autrespages/bravo_gris.png"
       inkscape:export-xdpi="300"
       inkscape:export-ydpi="300" />
  </g>
</svg>
