<?xml version="1.0" encoding="UTF-8" standalone="no"?>
<!-- Created with Inkscape (http://www.inkscape.org/) -->

<svg
   xmlns:osb="http://www.openswatchbook.org/uri/2009/osb"
   xmlns:dc="http://purl.org/dc/elements/1.1/"
   xmlns:cc="http://creativecommons.org/ns#"
   xmlns:rdf="http://www.w3.org/1999/02/22-rdf-syntax-ns#"
   xmlns:svg="http://www.w3.org/2000/svg"
   xmlns="http://www.w3.org/2000/svg"
   xmlns:sodipodi="http://sodipodi.sourceforge.net/DTD/sodipodi-0.dtd"
   xmlns:inkscape="http://www.inkscape.org/namespaces/inkscape"
   width="22.116665mm"
   height="27.516645mm"
   viewBox="0 0 22.116665 27.516645"
   version="1.1"
   id="svg5629"
   inkscape:version="0.92.3 (2405546, 2018-03-11)"
   sodipodi:docname="hand-liking_gray.svg">
  <defs
     id="defs5623">
    <linearGradient
       gradientTransform="matrix(0.35277776,0,0,-0.35277776,-224.92988,332.96151)"
       id="linearGradient73195"
       osb:paint="solid">
      <stop
         style="stop-color:#7b7979;stop-opacity:1;"
         offset="0"
         id="stop73193" />
    </linearGradient>
  </defs>
  <sodipodi:namedview
     id="base"
     pagecolor="#ffffff"
     bordercolor="#666666"
     borderopacity="1.0"
     inkscape:pageopacity="0.0"
     inkscape:pageshadow="2"
     inkscape:zoom="0.35"
     inkscape:cx="-465.34758"
     inkscape:cy="14.857028"
     inkscape:document-units="mm"
     inkscape:current-layer="layer1"
     showgrid="false"
     inkscape:window-width="1600"
     inkscape:window-height="870"
     inkscape:window-x="1600"
     inkscape:window-y="0"
     inkscape:window-maximized="1" />
  <metadata
     id="metadata5626">
    <rdf:RDF>
      <cc:Work
         rdf:about="">
        <dc:format>image/svg+xml</dc:format>
        <dc:type
           rdf:resource="http://purl.org/dc/dcmitype/StillImage" />
        <dc:title></dc:title>
      </cc:Work>
    </rdf:RDF>
  </metadata>
  <g
     inkscape:label="Calque 1"
     inkscape:groupmode="layer"
     id="layer1"
     transform="translate(-51.685715,-125.24761)">
    <path
       inkscape:connector-curvature="0"
       d="m 64.731084,125.24783 c -0.379765,0.01 -0.68266,0.32102 -0.682519,0.70195 v 1.57226 c 1.76e-4,0.38753 0.313549,0.70159 0.700017,0.70159 0.386503,0 0.699876,-0.31406 0.700052,-0.70159 v -1.57226 c 7.1e-5,-0.18925 -0.07609,-0.37051 -0.211173,-0.50267 -0.135114,-0.13215 -0.317676,-0.20401 -0.506377,-0.19928 z m -4.358851,1.79874 c -0.282011,0.003 -0.534564,0.1758 -0.640962,0.43772 -0.106363,0.26192 -0.04579,0.56226 0.15367,0.76218 l 1.120069,1.12314 c 0.131304,0.13183 0.309668,0.20566 0.495512,0.2051 0.283421,3.4e-4 0.53915,-0.17064 0.647664,-0.43321 0.10855,-0.26257 0.04844,-0.56483 -0.152188,-0.76561 l -1.120069,-1.12312 c -0.13335,-0.13393 -0.31496,-0.20827 -0.503696,-0.2062 z m 8.757073,0.0115 c -0.190148,-0.004 -0.373557,0.0708 -0.508071,0.20565 l -1.120069,1.12312 c -0.27372,0.27441 -0.273791,0.71936 -1.77e-4,0.99389 0.273615,0.27453 0.717374,0.27467 0.9912,3.4e-4 l 1.120034,-1.12311 c 0.198967,-0.19936 0.259821,-0.49866 0.154552,-0.7602 -0.105233,-0.26155 -0.356235,-0.43466 -0.637469,-0.4397 z m -4.82152,2.66521 c -0.640256,0.0125 -1.200009,0.43617 -1.38751,1.05018 -0.0099,0.0331 -0.01739,0.0668 -0.0224,0.1009 l -0.210043,1.51634 c -0.06329,0.45544 -0.19551,0.89853 -0.392113,1.31396 l -2.041598,4.29891 c -0.309845,0.71924 -0.948832,1.24277 -1.713477,1.40388 v -0.33397 c 0,-0.77534 -0.626851,-1.40392 -1.40007,-1.40392 h -4.054777 c -0.773246,0 -1.400083,0.62858 -1.400083,1.40392 v 12.28686 c 0,0.77537 0.626837,1.40391 1.400083,1.40391 h 4.054779 c 0.736564,0.002 1.348563,-0.56896 1.400069,-1.30573 l 0.867939,0.5226 c 0.826347,0.49731 1.771897,0.76024 2.73565,0.76066 H 68.0612 c 0.71561,0.008 1.425011,-0.13395 2.083188,-0.41571 1.890113,-0.84233 2.187081,-2.32192 2.047064,-3.30465 0.994198,-0.83714 1.358194,-2.20952 0.910061,-3.43133 0.468489,-0.56836 0.717021,-1.28697 0.700052,-2.02413 -0.03073,-0.5775 -0.23047,-1.13316 -0.574287,-1.59748 0.440514,-1.01699 0.18228,-2.2025 -0.640962,-2.9427 -0.05786,-0.0543 -0.118639,-0.10597 -0.182104,-0.15466 -0.318488,-0.23738 -0.685835,-0.4004 -1.075231,-0.47709 h -0.03062 c -1.856529,-0.39593 -3.105504,-0.42119 -4.942418,-0.42119 -0.06999,-0.42396 -0.06713,-1.31416 0.487292,-2.99042 0.512445,-1.55272 0.467501,-2.83584 -0.134514,-3.81575 -0.502673,-0.79326 -1.330431,-1.32193 -2.259824,-1.44339 h -0.08696 c -0.01806,-3.2e-4 -0.03609,-3.2e-4 -0.05415,0 z m -0.0044,1.40116 c 0.49396,0.0785 0.93211,0.36199 1.206994,0.78091 0.369641,0.60089 0.369641,1.51303 0,2.63617 -0.543207,1.63974 -0.711447,2.9344 -0.504225,3.84975 0.131551,0.58124 0.648723,0.99237 1.243118,0.98821 1.850919,0 2.993355,0.017 4.760278,0.39045 h 0.02843 c 0.186619,0.0338 0.363467,0.10855 0.517913,0.21883 l 0.08971,0.0757 c 0.716844,0.64861 0.263102,1.47979 0.167887,1.63424 -0.185103,0.29009 -0.132962,0.67201 0.123049,0.90156 0.272556,0.27665 0.439914,0.64026 0.473075,1.02771 -0.01658,0.5225 -0.243946,1.01586 -0.630026,1.36716 -0.215406,0.22835 -0.253189,0.57245 -0.09243,0.84232 0.0308,0.0533 0.750394,1.30856 -0.674864,2.35868 -0.244792,0.18485 -0.343958,0.50616 -0.246133,0.79734 0.0756,0.22465 0.372393,1.37598 -1.164907,2.05268 -0.487363,0.20415 -1.012014,0.30353 -1.540087,0.29174 h -5.927869 c -0.709365,-10e-4 -1.405149,-0.19519 -2.013197,-0.56155 l -1.579456,-0.94929 v -8.98496 l 0.145485,-0.0219 c 1.260546,-0.22176 2.324241,-1.06662 2.828043,-2.24624 l 2.024662,-4.28795 c 0.257387,-0.545 0.430213,-1.12624 0.512445,-1.7236 l 0.215477,-1.41816 c 0.01016,-0.01 0.02283,-0.0167 0.03665,-0.0198 z m -5.717902,0.30328 c -0.386609,0 -0.700052,0.31426 -0.700052,0.70193 0,0.3877 0.313443,0.70195 0.700052,0.70195 h 1.567991 c 0.386468,-1.7e-4 0.699664,-0.31439 0.699664,-0.70195 0,-0.38753 -0.313196,-0.70175 -0.699664,-0.70193 z m 10.758205,0 c -0.38661,0 -0.700052,0.31426 -0.700052,0.70193 0,0.3877 0.313442,0.70195 0.700052,0.70195 h 1.567991 c 0.386468,-1.7e-4 0.699699,-0.31439 0.699699,-0.70195 0,-0.38753 -0.313231,-0.70175 -0.699699,-0.70193 z m -16.257891,7.64576 h 4.054779 v 12.28686 h -4.054779 z m 2.027386,9.24598 c -0.471636,2.2e-4 -0.853842,0.38368 -0.853722,0.85662 1.8e-4,0.47272 0.382298,0.85587 0.853722,0.85605 0.471643,1.1e-4 0.854089,-0.38312 0.854266,-0.85605 1.41e-4,-0.47315 -0.382412,-0.85672 -0.854266,-0.85662 z"
       style="fill:url(#linearGradient73195);fill-opacity:1;fill-rule:nonzero;stroke:none;stroke-width:0.35277775"
       id="path72061"
       inkscape:export-filename="/home/sandrine/Documents/TAF FIGLI/APF_site/EXE/AUTRES_PAGES/PNG_autrespages/pas_mal_gris.png"
       inkscape:export-xdpi="300"
       inkscape:export-ydpi="300" />
  </g>
</svg>
