<?xml version="1.0" encoding="UTF-8" standalone="no"?>
<!-- Created with Inkscape (http://www.inkscape.org/) -->

<svg
   xmlns:osb="http://www.openswatchbook.org/uri/2009/osb"
   xmlns:dc="http://purl.org/dc/elements/1.1/"
   xmlns:cc="http://creativecommons.org/ns#"
   xmlns:rdf="http://www.w3.org/1999/02/22-rdf-syntax-ns#"
   xmlns:svg="http://www.w3.org/2000/svg"
   xmlns="http://www.w3.org/2000/svg"
   xmlns:xlink="http://www.w3.org/1999/xlink"
   xmlns:sodipodi="http://sodipodi.sourceforge.net/DTD/sodipodi-0.dtd"
   xmlns:inkscape="http://www.inkscape.org/namespaces/inkscape"
   width="28.976118mm"
   height="29.252989mm"
   viewBox="0 0 28.976118 29.252989"
   version="1.1"
   id="svg2654"
   inkscape:version="0.92.3 (2405546, 2018-03-11)"
   sodipodi:docname="hand-hesitating_gray.svg">
  <defs
     id="defs2648">
    <linearGradient
       gradientTransform="matrix(0.35277776,0,0,-0.35277776,-185.37886,310.28489)"
       inkscape:collect="always"
       xlink:href="#linearGradient73195"
       id="linearGradient73263"
       gradientUnits="userSpaceOnUse"
       x1="651.55774"
       y1="543.37225"
       x2="733.69476"
       y2="543.37225" />
    <linearGradient
       id="linearGradient73195"
       osb:paint="solid">
      <stop
         style="stop-color:#7b7979;stop-opacity:1;"
         offset="0"
         id="stop73193" />
    </linearGradient>
  </defs>
  <sodipodi:namedview
     id="base"
     pagecolor="#ffffff"
     bordercolor="#666666"
     borderopacity="1.0"
     inkscape:pageopacity="0.0"
     inkscape:pageshadow="2"
     inkscape:zoom="0.35"
     inkscape:cx="-438.09913"
     inkscape:cy="-59.004472"
     inkscape:document-units="mm"
     inkscape:current-layer="layer1"
     showgrid="false"
     inkscape:window-width="1600"
     inkscape:window-height="870"
     inkscape:window-x="1600"
     inkscape:window-y="0"
     inkscape:window-maximized="1" />
  <metadata
     id="metadata2651">
    <rdf:RDF>
      <cc:Work
         rdf:about="">
        <dc:format>image/svg+xml</dc:format>
        <dc:type
           rdf:resource="http://purl.org/dc/dcmitype/StillImage" />
        <dc:title></dc:title>
      </cc:Work>
    </rdf:RDF>
  </metadata>
  <g
     inkscape:label="Calque 1"
     inkscape:groupmode="layer"
     id="layer1"
     transform="translate(-44.476229,-103.96875)">
    <path
       inkscape:connector-curvature="0"
       id="path73261"
       style="fill:url(#linearGradient73263);fill-opacity:1;fill-rule:nonzero;stroke:none;stroke-width:0.35277706"
       d="m 53.240055,103.96881 c -2.556827,-0.008 -4.152307,0.72633 -4.248838,0.76275 -0.372822,0.18078 -0.534359,0.60277 -0.388605,0.98908 0.01326,0.0351 0.01365,0.0352 0.02688,0.0703 0.194087,0.40821 0.650878,0.55699 1.023707,0.3762 0.0351,-0.0133 2.952218,-1.31443 7.17889,-0.10076 0.408623,0.12666 0.83838,-0.11576 0.964798,-0.52452 0.12645,-0.40877 -0.115884,-0.83916 -0.524517,-0.96583 -1.508971,-0.4462 -2.870115,-0.6034 -4.03231,-0.6072 z m -0.02275,2.86133 c -1.313254,-7.2e-4 -2.152467,0.3814 -2.191597,0.42374 -0.372829,0.18079 -0.534363,0.60277 -0.388609,0.98909 0.01326,0.0351 0.01312,0.0352 0.02635,0.0703 0.194102,0.40822 0.650935,0.55679 1.058849,0.36277 0,0 1.272021,-0.56027 3.121775,-0.0145 0.360283,0.10478 0.825427,-0.15088 0.951877,-0.55965 0.126407,-0.4088 -0.115859,-0.83867 -0.524514,-0.96532 -0.762035,-0.22653 -1.457205,-0.30608 -2.054137,-0.30644 z m 0.463536,3.26233 c -0.682039,-0.0197 -1.443164,0.25462 -2.155423,0.82424 -0.205906,0.19807 -5.412662,4.56966 -6.985621,8.0517 -0.0874,0.19345 -0.07814,0.43057 -0.01189,0.60616 0.07951,0.21075 0.215868,0.36002 0.409279,0.44752 0.421872,0.16178 0.878374,-0.0105 1.053165,-0.39739 1.398199,-3.09516 6.350236,-7.29037 6.556188,-7.48843 0.530408,-0.4007 1.092337,-0.61247 1.325498,-0.41961 0.123173,0.114 0.224166,0.27624 0.255281,0.46509 0.0093,0.23718 -0.04259,0.41722 -0.213424,0.60203 l -2.991029,3.6561 c -0.214542,0.28154 -0.222508,0.68551 -0.03305,0.97514 0.202706,0.32469 0.563199,0.42955 0.914156,0.29714 l 12.178583,-4.59507 c 0.421164,-0.1589 0.905002,0.0602 1.064017,0.48162 0.159004,0.42143 -0.05943,0.90512 -0.480589,1.06402 l -2.597259,0.97979 -5.861657,2.21123 c -0.421164,0.1589 -0.617368,0.59453 -0.458371,1.01596 0.159014,0.42146 0.593764,0.6183 1.014927,0.45941 l 5.861657,-2.21176 2.596741,-0.97978 0.982884,-0.37052 c 0.421175,-0.15891 0.904505,0.0597 1.063502,0.48111 0.159011,0.42146 -0.05942,0.90511 -0.480589,1.06401 l -0.98237,0.37052 -2.105815,0.79479 -5.124235,1.93321 c -0.421167,0.1589 -0.617897,0.59398 -0.458886,1.01544 0.159,0.42143 0.594279,0.61882 1.015443,0.45992 l 5.193996,-1.96008 2.105815,-0.79427 c 0.421164,-0.1589 0.905016,0.0597 1.06402,0.48111 0.159011,0.42146 -0.05943,0.90511 -0.480592,1.06402 l -2.667537,1.00614 -0.10542,0.0398 -5.124235,1.93321 c -0.421164,0.1589 -0.617897,0.5945 -0.458889,1.01596 0.159004,0.42143 0.594278,0.6183 1.015442,0.4594 l 5.124238,-1.93321 0.105421,-0.0398 c 0.421195,-0.15891 0.904497,0.0597 1.063498,0.48111 0.159004,0.42142 -0.05939,0.9051 -0.480589,1.06402 l -0.982885,0.37103 c -3.259427,1.3501 -12.332201,4.61236 -15.579411,3.55069 -0.443713,-0.11342 -0.886957,0.0941 -1.013375,0.50281 -0.05222,0.1802 -0.06935,0.34737 -0.0032,0.52297 0.07951,0.21074 0.264499,0.38151 0.492993,0.45578 4.424711,1.41977 16.028031,-3.31908 16.646528,-3.59255 l 0.98237,-0.37103 c 1.228439,-0.46348 1.86213,-1.86571 1.398361,-3.0949 -0.105995,-0.28096 -0.233958,-0.51372 -0.432011,-0.71986 l 0.52658,-0.19844 c 1.228425,-0.46346 1.862131,-1.86621 1.398366,-3.09541 -0.1325,-0.35119 -0.335185,-0.67563 -0.629938,-0.92553 0.604541,-0.62926 0.804108,-1.58747 0.472842,-2.46548 -0.331256,-0.87798 -1.149041,-1.45175 -1.961643,-1.58647 0.03436,-0.33395 0.0073,-0.72525 -0.138494,-1.11156 -0.463765,-1.22919 -1.865983,-1.86337 -3.094383,-1.39991 l -9.441286,3.56206 1.099157,-1.33739 c 0.442295,-0.52794 0.642648,-1.16539 0.571024,-1.78025 -0.0716,-0.61491 -0.401916,-1.17209 -0.903302,-1.54461 -0.324876,-0.22346 -0.705435,-0.34115 -1.114661,-0.35295 z m -0.785999,8.59224 c -0.309563,-0.004 -0.618762,0.17337 -0.749826,0.46354 -0.02187,0.0484 -1.629551,3.54338 -5.22345,4.53822 -0.434414,0.12378 -0.666189,0.57249 -0.555523,0.97203 0.01326,0.0351 0.01312,0.0352 0.02635,0.0703 0.145747,0.38631 0.545867,0.59629 0.945159,0.48576 4.322371,-1.18949 6.157337,-5.25149 6.222876,-5.39657 0.196625,-0.43525 0.02455,-0.89207 -0.362253,-1.06712 -0.0967,-0.0438 -0.200152,-0.065 -0.30334,-0.0661 z m 16.517337,7.05486 c -0.310145,0.01 -0.589915,0.20543 -0.711066,0.52194 -0.0351,0.0132 -0.519204,1.27922 -2.2164,2.20038 -0.37283,0.18078 -0.499227,0.58931 -0.35347,0.97565 0.01326,0.0351 0.02604,0.0703 0.03928,0.10542 0.215921,0.35984 0.686421,0.54388 1.081074,0.31471 2.232268,-1.20328 2.908723,-3.02329 2.930567,-3.07165 0.126432,-0.40876 -0.0807,-0.85229 -0.454237,-0.99219 -0.105466,-0.0404 -0.212358,-0.0575 -0.315743,-0.0543 z m 3.206009,0.31471 c -0.310152,0.01 -0.589925,0.20543 -0.71107,0.52193 -0.0351,0.0132 -1.187217,3.01592 -5.033285,5.14905 -0.37279,0.18077 -0.499229,0.5893 -0.353465,0.97565 0.01326,0.0351 0.02653,0.0703 0.03979,0.10542 0.215953,0.35982 0.685853,0.54334 1.080551,0.31419 4.416189,-2.42843 5.695347,-5.83956 5.760889,-5.98465 0.161531,-0.422 -0.08089,-0.85179 -0.467669,-1.02681 -0.105474,-0.0404 -0.212363,-0.058 -0.315744,-0.0548 z"
       inkscape:export-filename="/home/sandrine/Documents/TAF FIGLI/APF_site/EXE/AUTRES_PAGES/PNG_autrespages/bof_gris.png"
       inkscape:export-xdpi="300"
       inkscape:export-ydpi="300" />
  </g>
</svg>
