<?xml version="1.0" encoding="UTF-8" standalone="no"?>
<!-- Created with Inkscape (http://www.inkscape.org/) -->

<svg
   xmlns:osb="http://www.openswatchbook.org/uri/2009/osb"
   xmlns:dc="http://purl.org/dc/elements/1.1/"
   xmlns:cc="http://creativecommons.org/ns#"
   xmlns:rdf="http://www.w3.org/1999/02/22-rdf-syntax-ns#"
   xmlns:svg="http://www.w3.org/2000/svg"
   xmlns="http://www.w3.org/2000/svg"
   xmlns:sodipodi="http://sodipodi.sourceforge.net/DTD/sodipodi-0.dtd"
   xmlns:inkscape="http://www.inkscape.org/namespaces/inkscape"
   width="33.099277mm"
   height="46.919628mm"
   viewBox="0 0 33.099277 46.919628"
   version="1.1"
   id="svg1477"
   inkscape:version="0.92.3 (2405546, 2018-03-11)"
   sodipodi:docname="knowledge_green.svg">
  <defs
     id="defs1471">
    <linearGradient
       id="linearGradient64563"
       osb:paint="solid"
       gradientTransform="matrix(0.35277776,0,0,-0.35277776,30.947341,307.00322)">
      <stop
         style="stop-color:#59b6a4;stop-opacity:1;"
         offset="0"
         id="stop64561" />
    </linearGradient>
  </defs>
  <sodipodi:namedview
     id="base"
     pagecolor="#ffffff"
     bordercolor="#666666"
     borderopacity="1.0"
     inkscape:pageopacity="0.0"
     inkscape:pageshadow="2"
     inkscape:zoom="0.35"
     inkscape:cx="-578.87876"
     inkscape:cy="17.238488"
     inkscape:document-units="mm"
     inkscape:current-layer="layer1"
     showgrid="false"
     inkscape:window-width="1600"
     inkscape:window-height="870"
     inkscape:window-x="1600"
     inkscape:window-y="0"
     inkscape:window-maximized="1" />
  <metadata
     id="metadata1474">
    <rdf:RDF>
      <cc:Work
         rdf:about="">
        <dc:format>image/svg+xml</dc:format>
        <dc:type
           rdf:resource="http://purl.org/dc/dcmitype/StillImage" />
        <dc:title></dc:title>
      </cc:Work>
    </rdf:RDF>
  </metadata>
  <g
     inkscape:label="Calque 1"
     inkscape:groupmode="layer"
     id="layer1"
     transform="translate(-81.724173,-106.47472)">
    <path
       inkscape:connector-curvature="0"
       id="path71833"
       style="fill:url(#linearGradient64563);fill-opacity:1;fill-rule:nonzero;stroke:none;stroke-width:0.35277706"
       d="m 98.224474,106.47472 c -0.592833,0 -1.086761,0.49316 -1.086761,1.08521 v 2.51612 c 0,0.64135 0.493928,1.13482 1.086761,1.13482 0.592825,0 1.086753,-0.49318 1.086753,-1.08521 v -2.56573 c 0,-0.59205 -0.493928,-1.08521 -1.086753,-1.08521 z m 8.892476,3.61373 c -0.28406,0 -0.56834,0.1113 -0.79065,0.33332 l -1.77818,1.77611 c -0.44463,0.44404 -0.44463,1.13469 0,1.57872 0.247,0.2467 0.54312,0.3452 0.79013,0.3452 0.29641,0 0.54363,-0.0985 0.79065,-0.3452 l 1.77818,-1.77612 c 0.44461,-0.44403 0.44461,-1.13468 0,-1.57871 -0.22231,-0.22202 -0.50606,-0.33332 -0.79013,-0.33332 z m -17.784962,0.0496 c -0.284064,0 -0.568337,0.11078 -0.790649,0.3328 -0.444624,0.44403 -0.444624,1.13468 0,1.57871 l 1.778706,1.77612 c 0.197605,0.19735 0.494232,0.34572 0.79065,0.34572 0.296411,0 0.543105,-0.099 0.790131,-0.34572 0.444606,-0.44403 0.444606,-1.13468 0,-1.57871 l -1.778188,-1.77612 c -0.222307,-0.22202 -0.506586,-0.3328 -0.79065,-0.3328 z m 8.869231,2.93833 c -1.839581,-3.5e-4 -3.570591,0.68773 -4.867406,1.98282 -1.432669,1.3321 -2.223118,3.2068 -2.223118,5.13095 0,1.57879 0.49372,3.10818 1.531173,4.39095 0.790437,0.98672 1.334181,1.97379 1.680001,2.96054 v 2.66392 c 0,0.39469 0.197306,0.74007 0.543116,0.93741 l 0.0987,0.0496 c 0.296404,1.52944 1.630489,2.66392 3.260785,2.66392 1.630288,0 2.96386,-1.13448 3.26026,-2.66392 l 0.0992,-0.0496 c 0.34583,-0.19734 0.54312,-0.54272 0.54312,-0.93741 v -2.61483 c 0.34583,-0.98671 0.88957,-1.97327 1.68,-2.96002 1.03745,-1.33209 1.5806,-3.00937 1.53117,-4.73615 -0.1482,-3.65094 -3.16168,-6.61153 -6.768054,-6.80888 -0.123508,-0.006 -0.246334,-0.009 -0.36897,-0.009 z m -0.02843,2.16886 c 0.08292,0.001 0.165713,0.005 0.249078,0.0114 2.519503,0.0987 4.545053,2.17087 4.693253,4.68706 0.0494,1.18409 -0.34552,2.31873 -1.03715,3.25613 -0.83985,1.08543 -1.43276,2.12165 -1.8774,3.20704 h -3.952212 c -0.395217,-1.08539 -1.037555,-2.17074 -1.877406,-3.25613 -0.691631,-0.88808 -1.037145,-1.92421 -1.037145,-3.00964 0,-1.33209 0.543422,-2.61485 1.482079,-3.55224 0.926275,-0.87881 2.113079,-1.36725 3.356903,-1.34358 z m 10.129611,3.8101 c -0.59283,0 -1.08675,0.49368 -1.08675,1.08572 0,0.59204 0.49392,1.0852 1.08675,1.0852 h 2.51975 c 0.59284,0 1.08675,-0.49316 1.08675,-1.0852 0,-0.59204 -0.49391,-1.08572 -1.08675,-1.08572 z m -22.675619,0.0496 c -0.592828,0 -1.086755,0.49316 -1.086755,1.0852 0,0.59205 0.493927,1.08572 1.086755,1.08572 h 2.519743 c 0.592844,0 1.086755,-0.49367 1.086755,-1.08572 0,-0.59204 -0.493911,-1.0852 -1.086755,-1.0852 z m 27.976069,8.57312 c -0.0383,0.002 -0.0761,0.005 -0.11317,0.0114 l -9.08988,1.77611 v 0.69092 c 0,0.59204 -0.14853,1.13445 -0.44493,1.62781 l 8.59637,-1.67742 v 18.2547 l -13.240024,2.56573 v -14.94896 c -0.345828,0.0494 -0.69154,0.0987 -1.086753,0.0987 -0.395221,0 -0.740929,-0.0494 -1.08676,-0.0987 v 14.99805 l -13.240018,-2.56521 v -18.2547 l 8.645469,1.67742 c -0.29644,-0.4934 -0.444419,-1.03629 -0.444419,-1.62833 v -0.6904 l -9.090402,-1.77611 c -0.345813,-0.0493 -0.641823,-1.9e-4 -0.888833,0.24649 -0.247013,0.19735 -0.395325,0.49335 -0.395327,0.83871 v 20.47472 c 0,0.54271 0.345411,0.98705 0.888835,1.08572 l 15.46314,3.00964 h 0.197923 0.197404 l 15.463135,-3.00964 c 0.49403,-0.0987 0.88884,-0.54301 0.88884,-1.08572 v -20.52381 c -0.0494,-0.34536 -0.1974,-0.64137 -0.44442,-0.83871 -0.21614,-0.17268 -0.50804,-0.26985 -0.77618,-0.25838 z m -17.107477,0.99838 h 3.408574 v 0.88781 c -0.345825,0.19734 -0.543116,0.54272 -0.543116,0.93741 0,0.64138 -0.494136,1.13481 -1.136364,1.13481 -0.642235,0 -1.136368,-0.49343 -1.136368,-1.13481 0,-0.39469 -0.197291,-0.74007 -0.543119,-0.93741 h -0.04961 z m 12.818857,5.00125 c -0.0731,0.002 -0.14708,0.0125 -0.22118,0.031 l -6.66936,1.28261 c -0.59283,0.0987 -0.98795,0.69057 -0.83974,1.28261 0.0988,0.5427 0.54333,0.88832 1.08675,0.88832 h 0.19741 l 6.62026,-1.33222 c 0.59282,-0.0987 0.98762,-0.69057 0.88884,-1.28261 -0.0865,-0.51804 -0.55103,-0.88523 -1.06298,-0.86972 z m -22.17953,0.0145 c -0.511969,0.008 -0.977048,0.33721 -1.063501,0.85524 -0.09881,0.59204 0.247433,1.18394 0.840258,1.28261 l 6.669361,1.28313 h 0.197407 c 0.49403,0 0.987941,-0.34561 1.086753,-0.88832 0.148203,-0.54271 -0.197322,-1.08551 -0.79013,-1.23351 l -6.718977,-1.28261 c -0.0741,-0.0124 -0.148037,-0.0177 -0.221175,-0.0165 z m 0,5.08186 c -0.511969,0.008 -0.977048,0.33721 -1.063501,0.85524 -0.09881,0.59204 0.247433,1.18394 0.840258,1.28261 l 6.718457,1.33222 h 0.197919 c 0.49403,0 0.987943,-0.34561 1.086757,-0.88832 0.09881,-0.5427 -0.246934,-1.13484 -0.839742,-1.23352 l -6.718977,-1.33169 c -0.0741,-0.0124 -0.148037,-0.0177 -0.221175,-0.0165 z m 22.17953,0.0351 c -0.0731,0.002 -0.14708,0.012 -0.22118,0.0305 l -6.66936,1.2826 c -0.59283,0.0987 -0.98795,0.69109 -0.83974,1.28313 0.0988,0.54271 0.54333,0.8878 1.08675,0.8878 h 0.19741 l 6.66936,-1.28261 c 0.54342,-0.19734 0.93852,-0.74017 0.83974,-1.33221 -0.0865,-0.51805 -0.55103,-0.88472 -1.06298,-0.8692 z m -22.179524,5.08135 c -0.511969,-0.0155 -0.977048,0.35168 -1.063501,0.86972 -0.09881,0.59204 0.247433,1.18393 0.840259,1.2826 l 6.669361,1.28261 h 0.197407 c 0.49403,0 0.98794,-0.34509 1.086753,-0.8878 0.148202,-0.5427 -0.197323,-1.0855 -0.790131,-1.23351 l -6.718972,-1.28261 c -0.0741,-0.0185 -0.148037,-0.0288 -0.221176,-0.031 z m 22.177464,0 c -0.0718,0.002 -0.14501,0.0125 -0.21911,0.031 l -6.71897,1.28261 c -0.59283,0.0987 -0.98795,0.69057 -0.83974,1.28261 0.0988,0.54271 0.54332,0.88832 1.08675,0.88832 h 0.19792 l 6.66936,-1.28261 c 0.59284,-0.0987 0.98794,-0.69108 0.83974,-1.28313 -0.0865,-0.56121 -0.51343,-0.93364 -1.01595,-0.9188 z"
       inkscape:export-filename="/home/sandrine/Documents/TAF FIGLI/APF_site/EXE/AUTRES_PAGES/PNG_autrespages/savoirs.png"
       inkscape:export-xdpi="300"
       inkscape:export-ydpi="300" />
  </g>
</svg>
