<?xml version="1.0" encoding="UTF-8" standalone="no"?>
<!-- Created with Inkscape (http://www.inkscape.org/) -->

<svg
   xmlns:dc="http://purl.org/dc/elements/1.1/"
   xmlns:cc="http://creativecommons.org/ns#"
   xmlns:rdf="http://www.w3.org/1999/02/22-rdf-syntax-ns#"
   xmlns:svg="http://www.w3.org/2000/svg"
   xmlns="http://www.w3.org/2000/svg"
   xmlns:sodipodi="http://sodipodi.sourceforge.net/DTD/sodipodi-0.dtd"
   xmlns:inkscape="http://www.inkscape.org/namespaces/inkscape"
   width="26.81633mm"
   height="27.564074mm"
   viewBox="0 0 26.81633 27.564074"
   version="1.1"
   id="svg9991"
   inkscape:version="0.92.3 (2405546, 2018-03-11)"
   sodipodi:docname="men-on-left-arrow_orange.html">
  <defs
     id="defs9985" />
  <sodipodi:namedview
     id="base"
     pagecolor="#ffffff"
     bordercolor="#666666"
     borderopacity="1.0"
     inkscape:pageopacity="0.0"
     inkscape:pageshadow="2"
     inkscape:zoom="0.35"
     inkscape:cx="-530.75204"
     inkscape:cy="-39.338911"
     inkscape:document-units="mm"
     inkscape:current-layer="layer1"
     showgrid="false"
     inkscape:window-width="1600"
     inkscape:window-height="870"
     inkscape:window-x="1600"
     inkscape:window-y="0"
     inkscape:window-maximized="1" />
  <metadata
     id="metadata9988">
    <rdf:RDF>
      <cc:Work
         rdf:about="">
        <dc:format>image/svg+xml</dc:format>
        <dc:type
           rdf:resource="http://purl.org/dc/dcmitype/StillImage" />
        <dc:title></dc:title>
      </cc:Work>
    </rdf:RDF>
  </metadata>
  <g
     inkscape:label="Calque 1"
     inkscape:groupmode="layer"
     id="layer1"
     transform="translate(-68.990645,-110.86084)">
    <path
       inkscape:connector-curvature="0"
       d="m 95.322154,124.6839 c -0.290336,-0.10241 -0.613657,-0.01 -0.805815,0.23093 l -0.637364,0.79763 c -1.132769,1.42127 -2.788179,2.32795 -4.594895,2.51665 v -3.58627 h 1.449529 c 0.400332,7e-5 0.724888,-0.32473 0.724782,-0.72538 v -5.25964 c -0.0035,-1.80474 -1.255607,-3.3662 -3.015862,-3.75789 0.130281,-0.33711 0.197238,-0.6954 0.197485,-1.05685 0,-1.64705 -1.3341,-2.98224 -2.979773,-2.98224 -1.645673,0 -2.979737,1.33519 -2.979737,2.98224 2.47e-4,0.36145 0.06717,0.71974 0.197485,1.05685 -1.760255,0.39169 -3.013393,1.95315 -3.015862,3.75789 v 5.25964 c -1.06e-4,0.40065 0.32445,0.72545 0.724782,0.72538 h 1.449528 v 3.62684 h -4.348621 v -2.17611 c 0,-0.2788 -0.159667,-0.53294 -0.410704,-0.65377 -0.251036,-0.12083 -0.549063,-0.087 -0.766656,0.0871 l -7.247679,5.80294 c -0.172014,0.13773 -0.272132,0.34622 -0.272132,0.56671 0,0.22045 0.100118,0.42897 0.272132,0.56666 l 7.247679,5.80295 c 0.217593,0.17406 0.51562,0.20789 0.766656,0.0871 0.251037,-0.12083 0.410704,-0.37493 0.410704,-0.65373 v -2.17611 h 9.856893 c 4.5611,-0.005 8.257223,-3.70463 8.262266,-8.2695 v -1.88567 c 7.2e-5,-0.30801 -0.194378,-0.58243 -0.484821,-0.68428 z m -14.010498,-1.49182 v -4.53426 c 0,-1.32316 1.072726,-2.3955 2.394761,-2.39712 h 0.476709 c 0.301977,-7e-5 0.572276,-0.1875 0.678426,-0.47043 0.106151,-0.28296 0.02575,-0.60212 -0.2014,-0.80109 -0.33581,-0.28596 -0.529555,-0.70485 -0.53012,-1.14614 0,-0.84582 0.685095,-1.53148 1.530209,-1.53148 0.845115,0 1.530244,0.68566 1.530244,1.53148 0,0.44129 -0.19431,0.86018 -0.530154,1.14614 -0.227295,0.19897 -0.307517,0.51813 -0.201366,0.80109 0.106151,0.28293 0.376449,0.47036 0.678427,0.47043 h 0.476674 c 1.322069,0.004 2.39335,1.07396 2.394796,2.39712 v 4.53426 H 89.28408 v -5.07757 h -1.449528 v 13.05662 h -1.449529 v -7.25367 h -1.449529 v 7.25367 h -1.449528 v -13.05662 h -1.449529 v 5.07757 z m 6.233053,10.88055 h -10.58164 c -0.400332,-1.1e-4 -0.724887,0.32469 -0.724782,0.72534 v 1.39199 l -5.362821,-4.29344 5.362821,-4.29342 v 1.39192 c -1.05e-4,0.40065 0.32445,0.72549 0.724782,0.72539 h 5.073368 v 2.17611 c -1.05e-4,0.40065 0.32445,0.72545 0.724747,0.72534 h 5.79815 c 0.400296,1.1e-4 0.724852,-0.32469 0.724746,-0.72534 v -2.21139 c 1.912303,-0.16214 3.707271,-0.99011 5.072627,-2.33987 -0.05359,3.72816 -3.086523,6.72341 -6.811998,6.72737 z"
       style="fill:#f79e1c;fill-opacity:1;fill-rule:nonzero;stroke:none;stroke-width:0.35277775"
       id="path16814"
       inkscape:export-filename="/home/sandrine/Documents/TAF FIGLI/APF_site/EXE/ACCUEIL/picto_orange_1.png"
       inkscape:export-xdpi="300"
       inkscape:export-ydpi="300" />
  </g>
</svg>
