<?xml version="1.0" encoding="UTF-8" standalone="no"?>
<!-- Created with Inkscape (http://www.inkscape.org/) -->

<svg
   xmlns:dc="http://purl.org/dc/elements/1.1/"
   xmlns:cc="http://creativecommons.org/ns#"
   xmlns:rdf="http://www.w3.org/1999/02/22-rdf-syntax-ns#"
   xmlns:svg="http://www.w3.org/2000/svg"
   xmlns="http://www.w3.org/2000/svg"
   xmlns:sodipodi="http://sodipodi.sourceforge.net/DTD/sodipodi-0.dtd"
   xmlns:inkscape="http://www.inkscape.org/namespaces/inkscape"
   width="26.81633mm"
   height="28.293964mm"
   viewBox="0 0 26.81633 28.293964"
   version="1.1"
   id="svg10595"
   inkscape:version="0.92.3 (2405546, 2018-03-11)"
   sodipodi:docname="men-on-right-arrow_orange.html">
  <defs
     id="defs10589" />
  <sodipodi:namedview
     id="base"
     pagecolor="#ffffff"
     bordercolor="#666666"
     borderopacity="1.0"
     inkscape:pageopacity="0.0"
     inkscape:pageshadow="2"
     inkscape:zoom="0.35"
     inkscape:cx="-693.60918"
     inkscape:cy="39.183236"
     inkscape:document-units="mm"
     inkscape:current-layer="layer1"
     showgrid="false"
     inkscape:window-width="1600"
     inkscape:window-height="870"
     inkscape:window-x="1600"
     inkscape:window-y="0"
     inkscape:window-maximized="1" />
  <metadata
     id="metadata10592">
    <rdf:RDF>
      <cc:Work
         rdf:about="">
        <dc:format>image/svg+xml</dc:format>
        <dc:type
           rdf:resource="http://purl.org/dc/dcmitype/StillImage" />
        <dc:title></dc:title>
      </cc:Work>
    </rdf:RDF>
  </metadata>
  <g
     inkscape:label="Calque 1"
     inkscape:groupmode="layer"
     id="layer1"
     transform="translate(-112.07993,-130.9066)">
    <path
       inkscape:connector-curvature="0"
       d="m 112.56479,159.15938 c 0.29033,0.10224 0.61351,0.01 0.80578,-0.23092 l 0.63736,-0.79763 c 1.29046,-1.62014 3.24947,-2.56184 5.31964,-2.55718 h 10.87152 v 2.17611 c 0,0.27876 0.15963,0.5329 0.4107,0.65373 0.25104,0.12083 0.54907,0.087 0.76666,-0.0871 l 7.24768,-5.80295 c 0.17201,-0.13772 0.27213,-0.34621 0.27213,-0.56666 0,-0.22049 -0.10012,-0.42898 -0.27213,-0.56671 l -7.24768,-5.80294 c -0.21759,-0.17406 -0.51562,-0.2079 -0.76666,-0.0871 -0.25107,0.12082 -0.4107,0.37496 -0.4107,0.65376 v 2.17611 h -4.34862 v -3.62687 H 127.3 c 0.40033,1.1e-4 0.72489,-0.3247 0.72478,-0.72535 v -5.25962 c -0.004,-1.80474 -1.25561,-3.36621 -3.01586,-3.7579 0.13028,-0.33711 0.19724,-0.69543 0.19748,-1.05688 0.004,-1.06649 -0.56589,-2.05268 -1.48844,-2.58639 -0.92258,-0.53372 -2.05969,-0.53372 -2.98227,0 -0.92255,0.53371 -1.4901,1.5199 -1.48844,2.58639 2.4e-4,0.36145 0.0672,0.71977 0.19748,1.05688 -1.7605,0.39134 -3.01392,1.95298 -3.01621,3.7579 v 5.25963 c -1.1e-4,0.40065 0.32445,0.72545 0.72478,0.72535 h 1.44953 v 3.81981 c -3.799,0.82602 -6.51239,4.1857 -6.5229,8.07652 v 1.88567 c -7e-5,0.30805 0.19442,0.58247 0.48486,0.68428 z m 5.31325,-15.91701 v -4.53425 c 0,-1.32317 1.07273,-2.39551 2.3948,-2.39713 h 0.47667 c 0.30198,-7e-5 0.57228,-0.1875 0.67843,-0.47043 0.10615,-0.28296 0.0257,-0.60212 -0.20136,-0.80108 -0.33564,-0.28611 -0.52921,-0.70493 -0.52981,-1.14614 0,-0.5479 0.29016,-1.05467 0.76405,-1.32895 0.47389,-0.27429 1.05809,-0.27429 1.53197,0 0.47389,0.27428 0.76525,0.78105 0.76405,1.32895 0,0.44129 -0.19431,0.86017 -0.53012,1.14614 -0.22733,0.19896 -0.30755,0.51812 -0.2014,0.80108 0.10615,0.28293 0.37645,0.47036 0.67843,0.47043 h 0.47671 c 1.32206,0.004 2.39335,1.07393 2.39479,2.39713 v 4.53425 h -0.72478 v -5.07757 h -1.44953 v 13.05663 h -1.44953 v -7.25368 h -1.44953 v 7.25368 h -1.44953 V 138.1648 h -1.44952 v 5.07757 z m 0.72479,6.76314 v 1.9413 c -1.1e-4,0.40065 0.32445,0.72545 0.72474,0.72535 h 5.79815 c 0.4003,1e-4 0.72486,-0.3247 0.72475,-0.72535 v -2.17611 h 5.07337 c 0.40033,1e-4 0.72488,-0.32473 0.72478,-0.72538 v -1.39196 l 5.36282,4.29345 -5.36282,4.29345 v -1.392 c 1e-4,-0.40064 -0.32445,-0.72545 -0.72478,-0.72538 h -11.59627 c -2.17,-0.005 -4.25407,0.8484 -5.79737,2.37519 0.0499,-3.05601 2.12129,-5.70721 5.07263,-6.49256 z"
       style="fill:#f79e1c;fill-opacity:1;fill-rule:nonzero;stroke:none;stroke-width:0.35277775"
       id="path16822"
       inkscape:export-filename="/home/sandrine/Documents/TAF FIGLI/APF_site/EXE/ACCUEIL/picto_orange2.png"
       inkscape:export-xdpi="300"
       inkscape:export-ydpi="300" />
  </g>
</svg>
