<?xml version="1.0" encoding="UTF-8" standalone="no"?>
<!-- Created with Inkscape (http://www.inkscape.org/) -->

<svg
   xmlns:osb="http://www.openswatchbook.org/uri/2009/osb"
   xmlns:dc="http://purl.org/dc/elements/1.1/"
   xmlns:cc="http://creativecommons.org/ns#"
   xmlns:rdf="http://www.w3.org/1999/02/22-rdf-syntax-ns#"
   xmlns:svg="http://www.w3.org/2000/svg"
   xmlns="http://www.w3.org/2000/svg"
   xmlns:sodipodi="http://sodipodi.sourceforge.net/DTD/sodipodi-0.dtd"
   xmlns:inkscape="http://www.inkscape.org/namespaces/inkscape"
   width="45.366322mm"
   height="21.522715mm"
   viewBox="0 0 45.366322 21.522715"
   version="1.1"
   id="svg12379"
   inkscape:version="0.92.3 (2405546, 2018-03-11)"
   sodipodi:docname="partners-hands_blue.svg">
  <defs
     id="defs12373">
    <linearGradient
       id="linearGradient62193"
       osb:paint="solid"
       gradientTransform="matrix(0.35277776,0,0,-0.35277776,226.57843,-133.26473)">
      <stop
         style="stop-color:#00b2b9;stop-opacity:1;"
         offset="0"
         id="stop62191" />
    </linearGradient>
  </defs>
  <sodipodi:namedview
     id="base"
     pagecolor="#ffffff"
     bordercolor="#666666"
     borderopacity="1.0"
     inkscape:pageopacity="0.0"
     inkscape:pageshadow="2"
     inkscape:zoom="0.35"
     inkscape:cx="-475.69685"
     inkscape:cy="66.390659"
     inkscape:document-units="mm"
     inkscape:current-layer="layer1"
     showgrid="false"
     inkscape:window-width="1600"
     inkscape:window-height="870"
     inkscape:window-x="1600"
     inkscape:window-y="0"
     inkscape:window-maximized="1" />
  <metadata
     id="metadata12376">
    <rdf:RDF>
      <cc:Work
         rdf:about="">
        <dc:format>image/svg+xml</dc:format>
        <dc:type
           rdf:resource="http://purl.org/dc/dcmitype/StillImage" />
        <dc:title></dc:title>
      </cc:Work>
    </rdf:RDF>
  </metadata>
  <g
     inkscape:label="Calque 1"
     inkscape:groupmode="layer"
     id="layer1"
     transform="translate(-54.423958,-144.87648)">
    <path
       inkscape:connector-curvature="0"
       d="m 95.869798,144.87648 c -0.08467,0 -0.180268,0.0123 -0.275167,0.0365 -0.13335,0.0339 -0.329848,0.0732 -0.436739,0.0871 -0.245886,0.0321 -0.364067,0.0574 -0.480836,0.10333 -0.06491,0.0258 -0.0822,0.0198 -0.05786,-0.0198 0.04657,-0.0751 -0.0321,-0.0726 -0.108302,0.004 -0.04798,0.0478 -0.06844,0.0468 -0.100893,-0.005 -0.02858,-0.0462 -0.0501,-0.0495 -0.07408,-0.0109 -0.01834,0.03 -0.05221,0.0428 -0.07514,0.0286 -0.02294,-0.0141 -0.05574,-0.004 -0.07232,0.0233 -0.01693,0.0272 -0.06738,0.0495 -0.112535,0.0495 -0.04516,0 -0.144992,0.0332 -0.22225,0.0731 -0.07691,0.0401 -0.164393,0.07 -0.194027,0.0665 -0.123473,-0.0145 -0.178858,0.008 -0.14605,0.061 0.02188,0.0356 0.01304,0.0426 -0.02434,0.0194 -0.06985,-0.0429 -0.344313,0.0602 -0.344313,0.12922 0,0.0261 -0.03104,0.0357 -0.06914,0.0212 -0.06385,-0.0243 -0.359481,0.0563 -0.415925,0.11334 -0.02646,0.0268 -0.319617,0.1705 -0.436385,0.21379 -0.117123,0.0433 -0.26388,0.14365 -0.305507,0.20895 -0.0762,0.11867 -0.422275,0.0583 -0.422275,-0.0737 0,-0.0415 -0.01376,-0.0617 -0.03069,-0.0449 -0.01659,0.0169 -0.08996,-0.0509 -0.162277,-0.15057 -0.07232,-0.0997 -0.233188,-0.23491 -0.357365,-0.30056 -0.124177,-0.0657 -0.225425,-0.14429 -0.225425,-0.17477 0,-0.0303 -0.04939,-0.057 -0.10936,-0.0587 -0.05997,-0.004 -0.191207,-0.0173 -0.291748,-0.0346 -0.10019,-0.0173 -0.20955,-0.01 -0.242359,0.0159 -0.03316,0.0261 -0.144285,0.0626 -0.247298,0.0811 -0.10301,0.0187 -0.232833,0.0758 -0.288184,0.12722 -0.05538,0.0514 -0.140017,0.0935 -0.188172,0.0935 -0.08452,0 -0.269626,0.1318 -0.418533,0.29802 -0.03958,0.0442 -0.101566,0.0691 -0.137655,0.0553 -0.03609,-0.0137 -0.06555,-0.004 -0.06555,0.0272 0,0.0286 -0.08714,0.10163 -0.193641,0.16228 -0.109466,0.0623 -0.194027,0.14714 -0.194027,0.19498 0,0.0465 -0.02766,0.0855 -0.061,0.0866 -0.03337,0 -0.115215,0.0684 -0.18189,0.14955 -0.247899,0.30137 -0.330624,0.37323 -0.415433,0.36082 -0.04784,-0.007 -0.103434,-0.0545 -0.123436,-0.10541 -0.02003,-0.0509 -0.03792,-0.0729 -0.03979,-0.0488 -0.0019,0.024 -0.04163,0.0116 -0.0883,-0.0279 -0.04667,-0.0394 -0.137515,-0.0743 -0.20179,-0.0776 -0.06431,-0.004 -0.132821,-0.0317 -0.15226,-0.063 -0.01939,-0.0314 -0.05845,-0.0428 -0.08675,-0.0254 -0.02833,0.0176 -0.07447,-0.0109 -0.102518,-0.0633 -0.04089,-0.0762 -0.0846,-0.0896 -0.219781,-0.0677 -0.107879,0.0176 -0.208455,0.004 -0.278834,-0.0436 -0.144322,-0.0931 -0.53199,-0.0746 -0.697161,0.0332 -0.07049,0.046 -0.111829,0.0574 -0.0919,0.0254 0.02643,-0.0426 -0.0019,-0.0514 -0.103153,-0.0325 -0.07669,0.0145 -0.247756,0.0405 -0.380082,0.058 -0.132326,0.0176 -0.29351,0.0733 -0.358212,0.12404 -0.06466,0.0507 -0.158289,0.0923 -0.208031,0.0923 -0.04978,0 -0.09049,0.0229 -0.09049,0.0512 0,0.0282 -0.02109,0.0382 -0.04678,0.0222 -0.02572,-0.0159 -0.08848,0.0127 -0.139454,0.0637 -0.05101,0.0508 -0.11617,0.10061 -0.144851,0.1106 -0.118216,0.0411 -0.582435,0.53527 -0.640715,0.68209 -0.03454,0.087 -0.09546,0.19647 -0.135395,0.24317 -0.03986,0.0467 -0.05948,0.0979 -0.04357,0.11381 0.0159,0.0159 0.0069,0.0864 -0.02008,0.15681 -0.04614,0.12047 -0.07511,1.25892 -0.03574,1.40427 0.02331,0.086 -0.127635,0.12781 -0.612635,0.16993 -0.380751,0.0332 -0.699347,0.0902 -0.872524,0.15642 -0.06558,0.025 -0.07874,0.0176 -0.05002,-0.0289 0.0214,-0.0346 0.01955,-0.0537 -0.0042,-0.0424 -0.43321,0.20557 -0.537668,0.24808 -0.58882,0.23968 -0.03334,-0.006 -0.06061,0.0102 -0.06061,0.0346 0,0.0243 -0.118462,0.10637 -0.263173,0.18193 -0.144744,0.0755 -0.256081,0.14898 -0.247579,0.16312 0.0085,0.0141 -0.01383,0.0528 -0.04964,0.0858 -0.04096,0.0377 -0.07606,0.0422 -0.09472,0.012 -0.01633,-0.0265 -0.01139,-0.0479 0.01108,-0.0479 0.02247,0 0.03761,-0.0599 0.03362,-0.13304 -0.0039,-0.0731 0.006,-0.15476 0.02198,-0.18136 0.01601,-0.0265 0.03168,-0.0592 0.03478,-0.0725 0.0032,-0.0134 0.03545,-0.10037 0.0719,-0.19346 0.03648,-0.0931 0.06152,-0.1856 0.0557,-0.20553 -0.0058,-0.0201 0.01358,-0.0363 0.04311,-0.0363 0.02956,0 0.0417,-0.0314 0.02702,-0.0694 -0.01471,-0.0382 -0.0096,-0.0763 0.01136,-0.0846 0.06325,-0.0254 0.29838,-0.52839 0.269064,-0.57573 -0.01503,-0.0243 -0.0024,-0.044 0.02811,-0.044 0.03048,0 0.04572,-0.0272 0.03383,-0.0605 -0.01193,-0.0332 0.005,-0.11486 0.03768,-0.18136 0.05659,-0.11511 0.09387,-0.34181 0.163161,-0.99145 0.03182,-0.29862 0.0013,-0.54567 -0.119735,-0.96823 -0.07959,-0.27774 -0.235654,-0.55524 -0.312278,-0.55524 -0.02864,0 -0.03919,-0.0208 -0.02349,-0.0461 0.0357,-0.0576 -0.119662,-0.24408 -0.203376,-0.24408 -0.03411,0 -0.06198,-0.0219 -0.06198,-0.0484 0,-0.0265 -0.03048,-0.0484 -0.06763,-0.0484 -0.03718,0 -0.0805,-0.0335 -0.09634,-0.0748 -0.01584,-0.0411 -0.0563,-0.0698 -0.08999,-0.0637 -0.03373,0.006 -0.140617,-0.0233 -0.237525,-0.0654 -0.207151,-0.0901 -0.607836,-0.11969 -0.915141,-0.0677 -0.320851,0.0543 -0.392712,0.0801 -0.361703,0.13007 0.01528,0.0247 -0.01707,0.0449 -0.072,0.0449 -0.05493,0 -0.09987,0.0219 -0.09987,0.0484 0,0.0265 -0.05454,0.0484 -0.12125,0.0484 -0.06671,0 -0.12125,0.0229 -0.12125,0.0512 0,0.0282 -0.01972,0.0391 -0.04378,0.0243 -0.05256,-0.0324 -0.360363,0.26589 -0.476356,0.46165 -0.04558,0.077 -0.101212,0.13998 -0.123614,0.13998 -0.0224,0 -0.09596,0.11427 -0.163512,0.25393 -0.15628,0.32308 -0.223449,0.442 -0.304094,0.5389 -0.03556,0.0427 -0.05024,0.0777 -0.0326,0.0777 0.01764,0 -0.01298,0.0482 -0.06802,0.10714 -0.05507,0.0589 -0.08975,0.13399 -0.07712,0.16683 0.01344,0.0346 -0.0041,0.0493 -0.04226,0.0346 -0.03588,-0.0138 -0.09878,0.0226 -0.139629,0.0809 -0.05856,0.0833 -0.126577,0.1071 -0.320322,0.11201 -0.135291,0.004 -0.245957,-0.01 -0.245922,-0.03 0,-0.0201 -0.06004,-0.0366 -0.133385,-0.037 -0.08752,0 -0.112007,-0.0141 -0.07116,-0.0401 0.03623,-0.0229 -0.02459,-0.0342 -0.145521,-0.0268 -0.351578,0.0215 -0.590162,0.0778 -0.722559,0.16993 -0.06971,0.0485 -0.139206,0.0758 -0.154411,0.0606 -0.01521,-0.0152 -0.203659,0.15413 -0.418818,0.37624 -0.257986,0.26628 -0.418818,0.47794 -0.472299,0.62145 -0.04456,0.1197 -0.108267,0.2503 -0.141534,0.2902 -0.03323,0.0399 -0.0756,0.15416 -0.09416,0.25389 -0.01856,0.0998 -0.05179,0.18136 -0.07391,0.18136 -0.05482,0 -0.288537,0.77654 -0.288537,0.95871 0,0.16016 -0.122519,0.31789 -0.218369,0.2812 -0.0332,-0.0127 -0.166793,-0.0375 -0.296898,-0.0552 -0.13014,-0.0176 -0.328471,-0.0657 -0.440725,-0.10647 -0.112254,-0.0408 -0.269381,-0.0646 -0.349109,-0.0529 -0.07976,0.0116 -0.133914,0.004 -0.120403,-0.0183 0.01347,-0.0219 -0.01076,-0.0396 -0.0539,-0.0396 -0.04318,0 -0.06735,0.018 -0.05373,0.04 0.01362,0.0219 -0.0997,0.0229 -0.251812,0.004 -0.152083,-0.0205 -0.358387,-0.019 -0.458435,0.004 -0.127564,0.0286 -0.182915,0.0243 -0.185385,-0.0145 -0.02169,-0.34167 -0.02018,-0.48451 0.0078,-0.73248 0.01799,-0.15959 0.01347,-0.31079 -0.01006,-0.33609 -0.05838,-0.0628 -0.05412,-0.13606 0.0058,-0.0992 0.0641,0.0395 0.06117,-0.0226 -0.01041,-0.22257 l -0.05884,-0.16436 -0.03239,0.1451 c -0.02607,0.11663 -0.03358,0.0946 -0.0382,-0.11205 -0.0066,-0.29703 -0.06015,-0.4168 -0.268288,-0.60056 -0.08237,-0.0727 -0.122237,-0.13251 -0.08865,-0.133 0.04844,0 0.04886,-0.0205 0.0018,-0.0953 -0.03256,-0.052 -0.06914,-0.0846 -0.08117,-0.0726 -0.0393,0.0392 -0.294887,-0.28077 -0.264054,-0.33052 0.01887,-0.0303 -0.01771,-0.0365 -0.0985,-0.0162 -0.09624,0.024 -0.128481,0.0141 -0.128481,-0.0403 0,-0.0399 -0.05457,-0.0863 -0.12125,-0.10297 -0.06671,-0.0166 -0.121285,-0.0462 -0.121285,-0.0657 0,-0.0575 -0.236114,-0.14764 -0.386892,-0.14764 -0.07687,0 -0.17018,-0.0303 -0.207398,-0.0675 -0.04,-0.0399 -0.120826,-0.0574 -0.197802,-0.0427 -0.07154,0.0138 -0.161749,0 -0.200448,-0.0335 -0.0387,-0.0321 -0.09264,-0.0444 -0.119839,-0.0275 -0.02723,0.0166 -0.215618,0.0367 -0.418641,0.0443 -0.239713,0.009 -0.382905,0.0362 -0.408517,0.0774 -0.02166,0.0349 -0.07366,0.0505 -0.115464,0.0346 -0.04184,-0.0159 -0.187043,0.004 -0.322686,0.0439 -0.226977,0.0672 -0.33274,0.12925 -0.51375,0.30106 -0.03704,0.0353 -0.06738,0.048 -0.06738,0.0286 0,-0.0194 -0.03817,-0.004 -0.08488,0.0392 -0.139453,0.12213 -0.299262,0.15219 -0.333658,0.0628 -0.05228,-0.13586 -0.321803,-0.41014 -0.372392,-0.37899 -0.02759,0.0169 -0.03358,0.006 -0.01383,-0.0261 0.02,-0.0325 -0.0018,-0.0701 -0.05108,-0.089 -0.128905,-0.0493 -0.308257,-0.21731 -0.308257,-0.28868 0,-0.0346 -0.05457,-0.0765 -0.121285,-0.0932 -0.06668,-0.0166 -0.12125,-0.051 -0.12125,-0.0763 0,-0.0254 -0.0187,-0.0346 -0.04149,-0.0205 -0.02283,0.0141 -0.09207,-0.0282 -0.153952,-0.0939 -0.06188,-0.0657 -0.149719,-0.11942 -0.195157,-0.11942 -0.04544,0 -0.109749,-0.0325 -0.142946,-0.0725 -0.03323,-0.0399 -0.100153,-0.0725 -0.14866,-0.0725 -0.04851,0 -0.101635,-0.0219 -0.118145,-0.0484 -0.01648,-0.0265 -0.115959,-0.0484 -0.221121,-0.0484 -0.131093,0 -0.191171,-0.0212 -0.191171,-0.0675 0,-0.0542 -0.04004,-0.0584 -0.204152,-0.0215 -0.112254,0.0251 -0.27051,0.0755 -0.351649,0.11193 -0.08117,0.0364 -0.191558,0.0786 -0.245392,0.0939 -0.0538,0.0152 -0.173849,0.1186 -0.266771,0.22976 -0.09292,0.11113 -0.218017,0.25376 -0.278059,0.3169 -0.06001,0.0632 -0.109115,0.13558 -0.109115,0.16098 0,0.0254 -0.08731,0.0462 -0.194027,0.0462 -0.106716,0 -0.194028,-0.0219 -0.194028,-0.0484 0,-0.0265 -0.04071,-0.0484 -0.09045,-0.0484 -0.04978,0 -0.146474,-0.0439 -0.214877,-0.0976 -0.06842,-0.0537 -0.218702,-0.11614 -0.333955,-0.13885 -0.115287,-0.0226 -0.275061,-0.0766 -0.355071,-0.11977 -0.08004,-0.0431 -0.194627,-0.0788 -0.25467,-0.0788 -0.06001,0 -0.109114,-0.0219 -0.109114,-0.0487 0,-0.0265 -0.06618,-0.0484 -0.147038,-0.0484 -0.08573,0 -0.158679,-0.03 -0.174907,-0.0723 -0.01527,-0.0397 -0.04826,-0.0597 -0.07331,-0.0442 -0.02505,0.0155 -0.07631,0.004 -0.113877,-0.0286 -0.03757,-0.031 -0.11303,-0.0424 -0.167675,-0.025 -0.05733,0.018 -0.09931,0.01 -0.09931,-0.0198 0,-0.0282 -0.04911,-0.0494 -0.109114,-0.0473 -0.06004,0.004 -0.227789,-0.0173 -0.372781,-0.0431 -0.145026,-0.0258 -0.350308,-0.0353 -0.456176,-0.0212 -0.132363,0.0176 -0.182175,0.009 -0.159632,-0.0272 0.02297,-0.037 -0.05472,-0.0454 -0.259292,-0.0279 -0.180375,0.0155 -0.292171,0.006 -0.292171,-0.0236 0,-0.064 -0.230469,-0.0383 -0.302683,0.0339 -0.03097,0.031 -0.126471,0.0561 -0.212302,0.0561 -0.08579,0 -0.167005,0.0272 -0.180481,0.0605 -0.01513,0.0374 -0.02593,0.0293 -0.02833,-0.0208 -0.0056,-0.12019 -0.160161,-0.14926 -0.577042,-0.10834 -0.204953,0.0201 -0.433161,0.0403 -0.507121,0.0449 -0.07396,0.005 -0.168353,0.0499 -0.209751,0.10075 -0.0414,0.0508 -0.0591,0.0615 -0.03941,0.0236 0.02752,-0.0527 0.01429,-0.0599 -0.05703,-0.031 -0.05106,0.0208 -0.125582,0.0421 -0.165601,0.0475 -0.250229,0.0339 -0.447516,0.0969 -0.467808,0.14964 -0.01295,0.0335 -0.06367,0.0507 -0.112741,0.0379 -0.06034,-0.0159 -0.09971,0.01 -0.121641,0.0786 -0.01782,0.056 -0.04994,0.091 -0.07134,0.0779 -0.02141,-0.0131 -0.0973,0.03 -0.168727,0.0961 -0.07142,0.066 -0.147468,0.11995 -0.169009,0.11995 -0.02155,0 -0.113216,0.0899 -0.203683,0.19971 -0.09046,0.10982 -0.20266,0.24038 -0.249347,0.29019 -0.04669,0.0498 -0.08488,0.12312 -0.08488,0.16302 0,0.0399 -0.02184,0.0726 -0.04851,0.0726 -0.02667,0 -0.0485,0.0387 -0.0485,0.0859 0,0.0473 -0.03196,0.13152 -0.07105,0.18715 -0.03907,0.0556 -0.05779,0.1143 -0.04159,0.13046 0.01619,0.0162 0.0057,0.0579 -0.02328,0.0927 -0.0828,0.0995 -0.09734,1.01488 -0.02692,1.69154 0.03528,0.33877 0.05647,0.68093 0.04718,0.76048 -0.0099,0.0853 0.0025,0.13279 0.0303,0.11564 0.02928,-0.018 0.03457,0.0282 0.01394,0.12206 -0.02018,0.0916 -0.01397,0.15113 0.0158,0.15113 0.02833,0 0.04122,0.0863 0.03041,0.20412 -0.01125,0.12234 0.0038,0.21802 0.0377,0.2389 0.03108,0.019 0.06091,0.10682 0.06622,0.19488 0.01034,0.17138 0.05918,0.71352 0.09284,1.03067 0.0399,0.37582 0.02113,1.44551 -0.02861,1.62962 -0.02769,0.10263 -0.05109,0.34386 -0.05192,0.53598 -7.07e-4,0.19216 -0.0211,0.51255 -0.0451,0.71208 -0.05582,0.46408 -0.06004,0.73872 -0.02445,1.57032 0.01591,0.37158 0.04864,0.69536 0.07285,0.71949 0.02639,0.0261 0.0254,0.0928 -0.0025,0.16588 -0.04253,0.11155 -0.03933,0.1162 0.03714,0.0543 0.06019,-0.0487 0.07301,-0.0501 0.04585,-0.005 -0.02078,0.0346 -0.01267,0.0927 0.01789,0.12943 0.03059,0.0367 0.06216,0.11744 0.0702,0.17928 0.04252,0.32685 0.158408,0.65243 0.24385,0.68513 0.0338,0.013 0.07517,0.0922 0.09199,0.17597 0.01704,0.085 0.0523,0.1391 0.07968,0.12224 0.02861,-0.0176 0.04934,0.0265 0.04983,0.10562 7.07e-4,0.10548 0.01122,0.11962 0.04775,0.0633 0.04018,-0.062 0.04712,-0.0602 0.04775,0.012 3.52e-4,0.0465 0.02258,0.0846 0.04926,0.0846 0.02667,0 0.0485,0.0335 0.0485,0.0742 0,0.0832 0.118188,0.28737 0.251055,0.4336 0.170088,0.18718 0.330972,0.40132 0.33233,0.44224 7.07e-4,0.0229 0.06623,0.10484 0.145518,0.18242 0.07929,0.0776 0.144191,0.17007 0.144191,0.20556 0,0.0354 0.01877,0.0645 0.04168,0.0645 0.03701,0 0.455065,0.36855 0.916195,0.80765 0.08938,0.0851 0.188715,0.14856 0.220737,0.14094 0.03203,-0.007 0.0419,-0.005 0.02187,0.007 -0.07329,0.0409 -0.03362,0.1089 0.06347,0.1089 0.05494,0 0.08752,0.0201 0.07238,0.0444 -0.01513,0.0243 0.04105,0.0595 0.124862,0.0778 0.09065,0.0198 0.129487,0.0474 0.09597,0.0681 -0.03567,0.0219 0.0065,0.0685 0.114829,0.12668 0.09412,0.0506 0.171168,0.11885 0.171168,0.15187 0,0.0335 0.03217,0.0478 0.07278,0.0321 0.04001,-0.0152 0.07274,-0.004 0.07274,0.0258 0,0.0293 0.02543,0.0536 0.05655,0.0536 0.03111,0 0.112994,0.0543 0.181892,0.12073 0.269381,0.25943 0.424286,0.37599 0.616479,0.46397 0.110032,0.0504 0.258339,0.16782 0.329565,0.26091 0.07123,0.0931 0.183092,0.18274 0.248603,0.19915 0.06548,0.0162 0.119062,0.0445 0.119062,0.0626 0,0.018 0.04914,0.0364 0.10915,0.0409 0.06004,0.005 0.147919,0.0557 0.195262,0.11384 0.04734,0.0582 0.09821,0.0936 0.113101,0.0788 0.01489,-0.0148 0.06572,0.009 0.112853,0.0537 0.166935,0.15709 0.285115,0.24049 0.386045,0.27241 0.0562,0.018 0.1022,0.066 0.1022,0.10721 0,0.054 0.03415,0.0684 0.122414,0.0516 0.06735,-0.0127 0.134091,-0.004 0.148343,0.0187 0.01429,0.0229 0.0018,0.0418 -0.02822,0.0418 -0.02981,0 -0.03944,0.0236 -0.02141,0.0529 0.01806,0.0289 0.08417,0.0431 0.146932,0.031 0.06276,-0.012 0.102517,-0.004 0.08841,0.0198 -0.01411,0.0226 -7.15e-4,0.0414 0.02992,0.0414 0.06124,0 0.498333,0.29256 0.524298,0.35094 0.0089,0.0201 0.03372,0.0257 0.05503,0.0127 0.06498,-0.04 0.41462,0.10545 0.400367,0.16662 -0.0073,0.0314 0.0053,0.0458 0.02805,0.0318 0.04184,-0.0258 0.449439,0.16246 0.572876,0.26458 0.04191,0.0346 0.06724,0.037 0.06724,0.006 0,-0.0272 0.111549,0.006 0.247826,0.0736 0.233045,0.11579 0.441749,0.16994 0.637399,0.16549 0.04667,0 0.08488,0.0176 0.08488,0.0413 0,0.0236 0.07669,0.0575 0.170357,0.075 0.09366,0.0176 0.182245,0.0512 0.19685,0.0747 0.0146,0.0236 0.04837,0.0429 0.07504,0.0429 0.02667,0 0.03524,-0.0215 0.01894,-0.0478 -0.03154,-0.0509 0.126471,-0.007 0.169369,0.0471 0.02194,0.0275 0.806379,0.14027 1.123103,0.16136 0.07073,0.005 0.117052,0.0272 0.103082,0.0501 -0.01401,0.0226 0.01531,0.03 0.0653,0.0159 0.04999,-0.0141 0.265536,-0.0389 0.478966,-0.0554 0.637857,-0.049 0.861766,-0.0791 1.091353,-0.14679 0.900572,-0.26564 1.115625,-0.33736 1.115625,-0.37197 0,-0.0219 0.03274,-0.0394 0.07278,-0.0394 0.04,0 0.07313,-0.0162 0.07313,-0.0363 3.44e-4,-0.0484 0.239853,-0.15719 0.345969,-0.15719 0.04646,0 0.09624,-0.019 0.110666,-0.0423 0.02798,-0.0452 0.541267,-0.29768 0.592773,-0.29161 0.0169,0.004 0.04403,-0.0152 0.06033,-0.0378 0.03792,-0.0529 0.308751,-0.18006 0.358492,-0.16835 0.02074,0.005 0.05034,-0.024 0.06576,-0.0639 0.01538,-0.04 0.04473,-0.0623 0.06526,-0.0497 0.02053,0.0127 0.09617,-0.0314 0.168063,-0.0978 0.0719,-0.0664 0.150989,-0.10834 0.175825,-0.093 0.02484,0.0152 0.04519,0.005 0.04519,-0.0233 0,-0.0282 0.02501,-0.0512 0.0556,-0.0512 0.06332,0 0.530542,-0.30123 0.646324,-0.41666 0.04212,-0.042 0.105163,-0.0655 0.140088,-0.0521 0.03493,0.0134 0.124142,-0.0481 0.19819,-0.13667 0.07408,-0.0886 0.203235,-0.18845 0.28695,-0.2219 0.08375,-0.0335 0.218299,-0.13306 0.299014,-0.22133 0.08072,-0.0883 0.171626,-0.16041 0.202071,-0.16041 0.03045,0 0.06272,-0.0219 0.07172,-0.0489 0.009,-0.0268 0.06572,-0.0583 0.126083,-0.0699 0.108267,-0.0208 0.44771,-0.33919 0.44771,-0.41998 0,-0.0229 0.01662,-0.0416 0.03687,-0.0416 0.05126,0 0.440972,-0.3412 0.89782,-0.78592 0.211772,-0.20616 0.404601,-0.37482 0.428484,-0.37482 0.02392,0 0.0435,-0.0325 0.0435,-0.0726 0,-0.0399 0.01725,-0.0725 0.03845,-0.0725 0.0212,0 0.124672,-0.11427 0.229835,-0.2539 0.105163,-0.13966 0.20581,-0.26486 0.223696,-0.2782 0.05584,-0.0417 0.381106,-0.52758 0.381106,-0.56931 0,-0.0219 0.08632,-0.1239 0.191946,-0.22673 0.105587,-0.1028 0.181857,-0.20334 0.169369,-0.22348 -0.01245,-0.0201 0.01023,-0.0695 0.05052,-0.10968 0.04025,-0.0402 0.07324,-0.0974 0.07324,-0.12732 0,-0.03 0.05454,-0.13441 0.12125,-0.2323 0.06671,-0.0979 0.12125,-0.2164 0.12125,-0.26342 0,-0.0471 0.01894,-0.0855 0.04216,-0.0855 0.02321,0 0.07013,-0.10337 0.10421,-0.22973 0.03408,-0.12633 0.07881,-0.24875 0.09948,-0.27196 0.02067,-0.0233 0.02469,-0.0757 0.0089,-0.11673 -0.01887,-0.049 -0.0092,-0.0625 0.02801,-0.0396 0.05489,0.0339 0.06498,-0.0109 0.07969,-0.35423 0.0028,-0.0646 0.03164,-0.12636 0.06414,-0.13716 0.03245,-0.0109 0.04681,-0.0394 0.03193,-0.0634 -0.01492,-0.024 0.0062,-0.11465 0.04699,-0.2014 0.04071,-0.0867 0.08008,-0.25019 0.08745,-0.36318 0.0073,-0.11303 0.02706,-0.20553 0.04385,-0.20557 0.01676,-3e-5 0.06015,-0.0707 0.09645,-0.15716 0.07327,-0.17462 0.07662,-0.18771 0.08527,-0.32939 0.0038,-0.0621 0.02709,-0.0866 0.06205,-0.0651 0.03482,0.0215 0.04279,0.0134 0.0211,-0.0215 -0.03972,-0.0641 0.0938,-0.21572 0.204258,-0.23188 0.04057,-0.006 0.210785,0.1293 0.378284,0.3005 0.167499,0.17117 0.329,0.31122 0.358881,0.31122 0.02985,0 0.04159,0.0205 0.02614,0.0454 -0.01549,0.0251 0.0035,0.063 0.04177,0.0846 0.03842,0.0215 0.07701,0.0713 0.08583,0.11052 0.0088,0.0392 0.05726,0.0936 0.107633,0.1209 0.05034,0.0272 0.09275,0.0714 0.09416,0.098 0.0014,0.0265 0.128552,0.17678 0.28261,0.33376 0.154058,0.15695 0.271322,0.29969 0.260527,0.31708 -0.01079,0.0173 0.05546,0.0941 0.147214,0.17032 0.09176,0.0763 0.166828,0.16739 0.166828,0.20243 0,0.0349 0.04367,0.0909 0.09701,0.12414 0.05334,0.0332 0.09701,0.0987 0.09701,0.14555 0,0.0468 0.02544,0.0851 0.05655,0.0851 0.03115,0 0.04406,0.0123 0.02872,0.0279 -0.02427,0.024 0.05824,0.12517 0.375637,0.45985 0.03993,0.0421 0.07264,0.11218 0.07264,0.15564 0,0.0505 0.02625,0.069 0.07324,0.051 0.0545,-0.0208 0.06484,-0.006 0.04025,0.0579 -0.02261,0.0588 -0.01506,0.0747 0.02381,0.0508 0.03404,-0.0212 0.05673,-0.005 0.05673,0.0404 0,0.0415 0.02967,0.0755 0.06593,0.0755 0.0363,0 0.107245,0.0589 0.157657,0.13103 0.05041,0.0721 0.16263,0.20482 0.249343,0.29499 0.08671,0.0902 0.157728,0.17815 0.15822,0.19544 2.65e-4,0.0173 0.131093,0.14809 0.29055,0.29076 0.159453,0.14263 0.278905,0.27707 0.26543,0.29876 -0.03062,0.0494 0.255127,0.35557 0.400931,0.42951 0.05976,0.0303 0.106291,0.0708 0.103362,0.09 -0.0145,0.0959 0.01267,0.15575 0.07077,0.15575 0.03552,0 0.09416,0.0551 0.130352,0.12252 0.03619,0.0674 0.09426,0.1118 0.12894,0.0985 0.03471,-0.0134 0.05849,-0.009 0.05288,0.0102 -0.01918,0.065 0.167851,0.30057 0.238617,0.30057 0.09934,0 0.197133,0.10887 0.170146,0.18951 -0.01632,0.0489 0.0024,0.0581 0.06738,0.0332 0.04949,-0.0191 0.07683,-0.0215 0.06071,-0.005 -0.04053,0.0404 0.470218,0.54257 0.590587,0.58067 0.05383,0.0169 0.08639,0.0497 0.07228,0.0725 -0.0141,0.0226 0.01595,0.0545 0.06682,0.0706 0.05083,0.0162 0.102835,0.0687 0.115464,0.11695 0.01267,0.0482 0.124108,0.13645 0.247721,0.19611 0.123648,0.0597 0.224825,0.12806 0.224825,0.15201 0,0.0757 0.157514,0.23044 0.213254,0.20941 0.02942,-0.0109 0.116874,0.0342 0.194416,0.10097 0.0775,0.0666 0.158043,0.12121 0.178929,0.12121 0.02088,0 0.109644,0.0653 0.197237,0.1451 0.08763,0.0798 0.199427,0.14506 0.248428,0.14506 0.04896,0 0.07697,0.0194 0.06223,0.0433 -0.03228,0.0521 0.110418,0.12054 0.222919,0.10693 0.04427,-0.005 0.110702,0.0332 0.147603,0.0858 0.0369,0.0525 0.126153,0.1223 0.198366,0.15511 0.07221,0.0328 0.131305,0.0794 0.131305,0.10354 0,0.024 0.0405,0.031 0.0901,0.0152 0.05204,-0.0166 0.116099,0.004 0.151481,0.0452 0.03373,0.0405 0.113173,0.0737 0.176602,0.0737 0.06343,0 0.115393,0.0219 0.115393,0.0484 0,0.0265 0.0737,0.0484 0.163795,0.0484 0.0901,0 0.189159,0.0303 0.220062,0.0675 0.03094,0.0372 0.0991,0.0564 0.151485,0.0427 0.0574,-0.0152 0.09521,0 0.09521,0.0361 0,0.0457 0.07553,0.0532 0.303143,0.0303 0.166757,-0.0169 0.276366,-0.0134 0.243592,0.007 -0.03281,0.0208 0.152754,0.0317 0.412292,0.024 0.556683,-0.0166 0.641633,-0.0254 0.641633,-0.0655 0,-0.0166 0.209762,-0.0346 0.466124,-0.0399 0.312526,-0.006 0.48754,-0.031 0.530932,-0.0742 0.03739,-0.0374 0.119591,-0.054 0.195791,-0.0395 0.08396,0.0159 0.119944,0.007 0.100188,-0.0254 -0.03669,-0.059 0.07267,-0.10872 0.238831,-0.10872 0.06456,0 0.117475,-0.0219 0.117475,-0.0484 0,-0.0265 0.05503,-0.0484 0.122767,-0.0484 0.06738,0 0.135114,-0.0324 0.150635,-0.0725 0.01622,-0.0421 0.08855,-0.0726 0.172863,-0.0726 0.138641,0 0.43321,-0.12958 0.467077,-0.20553 0.0088,-0.0201 0.0635,-0.0363 0.121708,-0.0363 0.05821,0 0.132998,-0.0435 0.166158,-0.0967 0.03422,-0.0547 0.113242,-0.0967 0.181327,-0.0967 0.06667,0 0.121005,-0.0219 0.121005,-0.0484 0,-0.0265 0.03281,-0.0484 0.07267,-0.0484 0.04022,0 0.07267,-0.0194 0.07267,-0.043 0,-0.0236 0.07091,-0.0565 0.157692,-0.073 0.08678,-0.0166 0.252942,-0.10545 0.369006,-0.19763 0.116417,-0.0922 0.285396,-0.19427 0.376061,-0.2269 0.09031,-0.0325 0.164393,-0.0823 0.164393,-0.11042 0,-0.0678 0.426157,-0.32287 0.445913,-0.26667 0.0081,0.024 0.105479,-0.0372 0.216252,-0.13603 0.436385,-0.38985 0.625827,-0.53971 0.684035,-0.54105 0.03316,0 0.06068,-0.0212 0.06068,-0.0457 0,-0.0243 0.109008,-0.11102 0.242004,-0.1928 0.237421,-0.14555 0.376414,-0.25657 0.71755,-0.57298 0.09313,-0.0865 0.196498,-0.1572 0.229658,-0.1572 0.03316,0 0.137583,-0.0883 0.232481,-0.19618 0.0949,-0.10791 0.183092,-0.18954 0.196144,-0.18136 0.01304,0.008 0.104071,-0.0559 0.202142,-0.14238 0.09772,-0.0864 0.192264,-0.15716 0.20955,-0.15766 0.01765,-3.4e-4 0.130175,-0.11105 0.250121,-0.24617 0.119943,-0.13511 0.305504,-0.32466 0.412395,-0.42128 0.410282,-0.37155 0.93698,-0.93913 1.119013,-1.2059 0.104775,-0.15314 0.239535,-0.33257 0.299508,-0.39882 0.05997,-0.0662 0.109361,-0.15392 0.109361,-0.19487 0,-0.041 0.04339,-0.1058 0.09701,-0.14415 0.05327,-0.0384 0.09701,-0.0996 0.09701,-0.13621 0,-0.0366 0.04516,-0.12971 0.100189,-0.20697 0.05503,-0.0773 0.08431,-0.14044 0.06526,-0.14044 -0.01939,0 -0.0035,-0.0381 0.03528,-0.0847 0.03881,-0.0465 0.110773,-0.20433 0.16016,-0.35063 0.04939,-0.14629 0.109009,-0.29054 0.13194,-0.32049 0.02328,-0.03 0.05327,-0.16055 0.06632,-0.2902 0.01304,-0.12965 0.03422,-0.26832 0.04692,-0.30822 0.08149,-0.2558 0.12206,-1.56566 0.06385,-2.04643 -0.10795,-0.8883 -0.146754,-1.31593 -0.160867,-1.77437 -0.0088,-0.27929 -0.02999,-0.54366 -0.04763,-0.58744 -0.01728,-0.0438 -0.0074,-0.35934 0.02222,-0.70129 0.09278,-1.07657 0.117475,-1.29681 0.192265,-1.69499 0.02363,-0.12704 0.03246,-0.24864 0.01905,-0.27019 -0.01341,-0.0215 -0.0035,-0.0654 0.02151,-0.0975 0.0254,-0.0321 0.04833,-0.0909 0.05045,-0.13081 0.07056,-1.18773 0.0762,-1.84753 0.01871,-2.12806 -0.03563,-0.17289 -0.07655,-0.37419 -0.09137,-0.44736 -0.01447,-0.0731 -0.04127,-0.13299 -0.05962,-0.13299 -0.01834,0 -0.06174,-0.0782 -0.09631,-0.17371 -0.03704,-0.10181 -0.216252,-0.32209 -0.432858,-0.53202 -0.328083,-0.3175 -0.507648,-0.45008 -0.421217,-0.31048 0.01693,0.0275 -0.0024,0.0355 -0.04586,0.019 -0.04127,-0.0159 -0.07514,-0.048 -0.07514,-0.0713 0,-0.0468 -0.321029,-0.20337 -0.436387,-0.21279 -0.08325,-0.007 -0.328788,-0.0678 -0.436738,-0.10845 -0.146379,-0.0553 -0.8604,-0.12181 -1.236814,-0.11528 -0.13335,0.004 -0.318911,-0.0131 -0.412398,-0.0346 -0.03986,-0.009 -0.08643,-0.0134 -0.136877,-0.0134 z m 0.238832,1.01603 c 0.231068,0 0.506235,0.01 0.6985,0.0332 0.13335,0.0162 0.31891,0.0361 0.412395,0.0442 0.311856,0.0272 0.604663,0.14379 0.759883,0.30247 0.08432,0.0864 0.167217,0.15716 0.18415,0.15716 0.06456,0 0.26529,0.27213 0.294217,0.39903 0.01693,0.0731 0.05433,0.13299 0.08326,0.13299 0.02893,0 0.04092,0.012 0.02611,0.0265 -0.01447,0.0145 0.01447,0.205 0.06456,0.42319 0.09525,0.41558 0.09278,1.06723 -0.0067,1.77511 -0.02434,0.1729 -0.05574,0.43406 -0.06985,0.58039 -0.0141,0.1463 -0.04727,0.39656 -0.07373,0.55619 -0.106187,0.64618 -0.200731,1.5227 -0.205671,1.91036 -0.0085,0.66795 0.01871,1.25748 0.05786,1.25748 0.02011,0 0.05009,0.13603 0.06667,0.30229 0.01659,0.16623 0.05786,0.51989 0.09208,0.78592 0.05468,0.42905 0.04268,0.98006 -0.03069,1.40254 -0.07444,0.42644 -0.0956,0.51291 -0.130175,0.53418 -0.02151,0.0134 -0.05398,0.12171 -0.07197,0.2408 -0.01799,0.11907 -0.05292,0.2165 -0.07832,0.2165 -0.02506,0 -0.03422,0.019 -0.01976,0.042 0.01447,0.0233 -0.02681,0.10333 -0.09137,0.17816 -0.06421,0.0749 -0.115711,0.14845 -0.1143,0.16351 0.0013,0.0152 -0.0024,0.0437 -0.0088,0.0637 -0.0067,0.0201 -0.01516,0.0526 -0.01871,0.0726 -0.02082,0.11176 -0.335492,0.58907 -0.37324,0.56589 -0.02434,-0.0152 -0.04445,-0.005 -0.04445,0.0233 0,0.0279 -0.04657,0.1041 -0.103362,0.16916 -0.05645,0.0651 -0.128058,0.16824 -0.158398,0.22916 -0.03069,0.061 -0.105481,0.13568 -0.16651,0.16609 -0.06138,0.0303 -0.10795,0.0707 -0.104071,0.0895 0.0042,0.0187 -0.05433,0.10326 -0.129821,0.1875 -0.0755,0.0843 -0.132292,0.16954 -0.12559,0.18951 0.0064,0.0198 -0.01376,0.0363 -0.04516,0.0363 -0.03104,0 -0.214842,0.16323 -0.408517,0.36273 -0.193675,0.19949 -0.375708,0.36272 -0.404283,0.36272 -0.02857,0 -0.05186,0.0321 -0.05186,0.0711 0,0.0432 -0.02858,0.0601 -0.07303,0.0431 -0.03986,-0.0152 -0.07267,-0.004 -0.07267,0.0293 0,0.0864 -0.144288,0.21996 -0.149579,0.13819 -0.0021,-0.0353 -0.03457,0.006 -0.07232,0.0919 -0.04233,0.0968 -0.09313,0.14622 -0.134408,0.13052 -0.03669,-0.0141 -0.101952,0.0293 -0.146757,0.098 -0.0448,0.0678 -0.113593,0.12341 -0.152752,0.12341 -0.03951,0 -0.07161,0.0219 -0.07161,0.0483 0,0.0265 -0.02893,0.0484 -0.06385,0.0484 -0.03493,0 -0.12559,0.0646 -0.201436,0.1434 -0.07585,0.0788 -0.153812,0.13335 -0.173566,0.12121 -0.01976,-0.0123 -0.04974,0.0321 -0.06632,0.0985 -0.01659,0.0663 -0.06491,0.12055 -0.106892,0.12055 -0.04233,0 -0.153106,0.0761 -0.246592,0.16919 -0.09313,0.093 -0.189089,0.15706 -0.213431,0.14224 -0.024,-0.0148 -0.04374,-0.008 -0.04374,0.0138 0,0.0226 -0.06562,0.0797 -0.146402,0.12707 -0.08043,0.0474 -0.133704,0.10647 -0.118181,0.13127 0.01516,0.0247 -0.0049,0.0452 -0.04516,0.0452 -0.03986,0 -0.101246,0.0381 -0.136171,0.0847 -0.101248,0.13466 -0.364773,0.30187 -0.526346,0.33408 -0.102304,0.0205 -0.140404,0.0512 -0.12206,0.0988 0.01976,0.0509 0.0011,0.0611 -0.06985,0.0386 -0.05539,-0.0176 -0.09702,-0.008 -0.09702,0.0208 0,0.0286 -0.02998,0.0517 -0.06667,0.0517 -0.03669,0 -0.09384,0.0325 -0.126646,0.072 -0.03316,0.0396 -0.07902,0.0603 -0.102658,0.0459 -0.02328,-0.0145 -0.02928,0.007 -0.01376,0.0482 0.01976,0.0509 -0.01482,0.0908 -0.108657,0.12647 -0.07549,0.0286 -0.148873,0.067 -0.162631,0.0853 -0.04833,0.064 -0.437444,0.2425 -0.437444,0.20084 0,-0.0229 -0.05927,0.0127 -0.131585,0.0795 -0.07267,0.0672 -0.168981,0.11179 -0.215196,0.0997 -0.04586,-0.012 -0.0949,0.008 -0.109008,0.0446 -0.01447,0.0375 -0.05891,0.0536 -0.102659,0.0369 -0.04515,-0.0173 -0.104775,0.008 -0.145695,0.0613 -0.0441,0.0583 -0.0695,0.0678 -0.07056,0.0268 -0.0011,-0.0481 -0.02045,-0.0451 -0.07761,0.012 -0.04198,0.0418 -0.109715,0.0761 -0.150638,0.0761 -0.04445,0 -0.06385,0.0275 -0.04833,0.0685 0.02045,0.0531 -0.01093,0.0639 -0.140054,0.0479 -0.129821,-0.0162 -0.166862,-0.004 -0.166862,0.0576 0,0.0552 -0.02506,0.0682 -0.08467,0.0442 -0.18909,-0.0757 -0.23495,-0.0854 -0.163338,-0.0346 0.05468,0.0389 0.04868,0.0576 -0.03316,0.10125 -0.05539,0.0296 -0.162983,0.0536 -0.239853,0.0536 -0.07669,0 -0.181821,0.0321 -0.233611,0.071 -0.05179,0.039 -0.126894,0.0713 -0.166933,0.0718 -0.05839,0 -0.06001,-0.007 -0.0079,-0.0403 0.06459,-0.0408 -0.588433,-0.031 -0.659376,0.01 -0.06812,0.0393 -1.080736,0.0265 -1.056042,-0.013 0.01363,-0.0219 -0.07278,-0.0544 -0.19191,-0.0723 -0.119169,-0.018 -0.229376,-0.0529 -0.244899,-0.0779 -0.01556,-0.0251 -0.07062,-0.0456 -0.122414,-0.0456 -0.05179,0 -0.09416,-0.0198 -0.09416,-0.0438 0,-0.024 -0.04375,-0.0325 -0.09719,-0.0187 -0.105198,0.0275 -0.630378,-0.21354 -0.630378,-0.28925 0,-0.025 -0.02889,-0.0346 -0.06417,-0.0212 -0.03524,0.0134 -0.08996,-0.0169 -0.12164,-0.0674 -0.03164,-0.0505 -0.08858,-0.0919 -0.126471,-0.0919 -0.03789,0 -0.107066,-0.0381 -0.153738,-0.0846 -0.04671,-0.0466 -0.100754,-0.0846 -0.120121,-0.0846 -0.01939,0 -0.09991,-0.0575 -0.178964,-0.1277 -0.0791,-0.0703 -0.190326,-0.14252 -0.247158,-0.16052 -0.05687,-0.018 -0.103362,-0.0529 -0.103362,-0.0777 0,-0.0247 -0.02808,-0.0452 -0.06244,-0.0452 -0.03436,0 -0.169968,-0.10883 -0.301345,-0.24182 -0.131408,-0.133 -0.277706,-0.24183 -0.325154,-0.24183 -0.04745,0 -0.135538,-0.0759 -0.195826,-0.1687 -0.06026,-0.0928 -0.144817,-0.16881 -0.187854,-0.1693 -0.08188,0 -0.334047,-0.22507 -0.334047,-0.29736 0,-0.0229 -0.03207,-0.0417 -0.07123,-0.0417 -0.03993,0 -0.06015,-0.0286 -0.04604,-0.0654 0.01384,-0.036 -0.02506,-0.0984 -0.08643,-0.13878 -0.161116,-0.1059 -0.523664,-0.45431 -0.524158,-0.50355 0,-0.0229 -0.07659,-0.0937 -0.169757,-0.15699 -0.09321,-0.0633 -0.169757,-0.13945 -0.170252,-0.1693 -2.64e-4,-0.0296 -0.109537,-0.1597 -0.242533,-0.28868 -0.132963,-0.12897 -0.24176,-0.24345 -0.24176,-0.25438 0,-0.0332 -0.748276,-0.74444 -0.783095,-0.74444 -0.01781,0 -0.02106,-0.0433 -0.0072,-0.0962 0.01598,-0.061 -0.0035,-0.10703 -0.05306,-0.12601 -0.04304,-0.0166 -0.07824,-0.0597 -0.07824,-0.0959 0,-0.0389 -0.03006,-0.0543 -0.07334,-0.0378 -0.05447,0.0208 -0.06481,0.006 -0.04025,-0.0578 0.02265,-0.0588 0.01516,-0.0749 -0.02368,-0.0509 -0.03228,0.0198 -0.05676,0.008 -0.05722,-0.0282 0,-0.0349 -0.06555,-0.11462 -0.145168,-0.1773 -0.07959,-0.0627 -0.132645,-0.13343 -0.117934,-0.1572 0.01471,-0.0236 -0.0073,-0.0431 -0.0489,-0.0431 -0.04156,0 -0.0756,-0.0166 -0.0756,-0.0368 0,-0.0201 -0.05398,-0.0948 -0.119909,-0.16567 -0.08121,-0.0873 -0.100789,-0.13673 -0.06064,-0.15296 0.04477,-0.018 0.04508,-0.025 0.0011,-0.0279 -0.08943,-0.006 -0.318099,-0.23478 -0.286102,-0.28642 0.01559,-0.025 -0.0042,-0.0582 -0.04406,-0.0735 -0.03986,-0.0152 -0.07246,-0.0493 -0.07246,-0.0755 0,-0.0261 -0.04911,-0.0998 -0.109149,-0.16341 -0.06001,-0.0637 -0.156492,-0.17889 -0.214383,-0.25612 -0.05789,-0.0772 -0.192758,-0.23749 -0.29965,-0.3562 -0.106891,-0.11871 -0.183444,-0.23353 -0.170074,-0.25512 0.01341,-0.0215 -0.0046,-0.0332 -0.03986,-0.0261 -0.04029,0.008 -0.05807,-0.0226 -0.04755,-0.0834 0.0092,-0.0532 0.0014,-0.0815 -0.01771,-0.0629 -0.01898,0.0187 -0.143016,-0.0958 -0.275695,-0.25411 -0.13268,-0.15836 -0.264513,-0.27361 -0.292912,-0.25608 -0.03048,0.0187 -0.03743,0.009 -0.01697,-0.024 0.02109,-0.0342 -0.01397,-0.0743 -0.08954,-0.10298 -0.13896,-0.0527 -0.171662,-0.10953 -0.0393,-0.0684 0.04766,0.0148 0.01044,-0.0442 -0.08491,-0.13462 -0.38989,-0.36981 -0.434658,-0.48761 -0.282963,-0.74397 0.137512,-0.23238 0.249343,-0.28085 0.671018,-0.29094 0.369429,-0.009 0.489973,-0.0247 0.533577,-0.0702 0.06777,-0.0707 0.296721,-0.1923 0.362055,-0.1923 0.04096,0 0.07447,-0.0219 0.07447,-0.0484 0,-0.0265 0.02907,-0.0484 0.06459,-0.0484 0.03556,0 0.134797,-0.0871 0.220557,-0.19346 0.136349,-0.1692 0.307693,-0.26169 0.291148,-0.1572 -0.01609,0.10142 0.01175,0.15921 0.06177,0.12837 0.03563,-0.0219 0.04272,-0.0131 0.01958,0.0243 -0.02064,0.0335 0.01799,0.14044 0.08953,0.24821 0.06921,0.10432 0.125906,0.21936 0.125906,0.25573 0,0.0363 0.04367,0.10544 0.09701,0.1536 0.05334,0.0481 0.09701,0.11913 0.09701,0.15773 0,0.043 0.02861,0.0593 0.07391,0.0419 0.05856,-0.0222 0.06403,-0.01 0.0266,0.0597 -0.03588,0.0669 -0.01662,0.13335 0.08033,0.27703 0.07017,0.10397 0.145521,0.19632 0.167428,0.20518 0.02188,0.009 0.03979,0.0675 0.03979,0.13024 0,0.0628 0.0406,0.14256 0.09034,0.17731 0.04974,0.0349 0.133774,0.14376 0.186656,0.24211 0.08428,0.15688 0.219533,0.35042 0.377788,0.5407 0.02671,0.0321 0.07186,0.0996 0.100436,0.15011 0.02858,0.0505 0.08315,0.10209 0.12125,0.11465 0.05793,0.019 0.05736,0.007 -0.0035,-0.0697 -0.06671,-0.0848 -0.0659,-0.0871 0.0093,-0.0286 0.04512,0.0353 0.07161,0.0909 0.05891,0.12393 -0.01267,0.0332 0.01979,0.0988 0.07232,0.14616 0.05249,0.0473 0.08357,0.11691 0.06904,0.15462 -0.01831,0.0476 -0.0024,0.0594 0.05182,0.0386 0.04301,-0.0166 0.07818,-0.008 0.07818,0.0183 0,0.0265 0.120049,0.168 0.266771,0.31429 0.146719,0.1463 0.266769,0.29006 0.266769,0.31955 0,0.0296 0.01767,0.0537 0.0393,0.0537 0.02167,0 0.0817,0.039 0.133419,0.0866 0.05172,0.0476 0.2032,0.16072 0.336587,0.25118 0.133384,0.0905 0.249835,0.18196 0.258725,0.20344 0.0089,0.0215 0.06026,0.0391 0.114266,0.0391 0.06579,0 0.08932,0.0229 0.07123,0.0701 -0.01802,0.0468 -0.0037,0.0611 0.04329,0.0431 0.03866,-0.0148 0.07031,-0.005 0.07031,0.0212 0,0.0265 0.07641,0.0842 0.169757,0.12838 0.09338,0.0442 0.169794,0.0984 0.169794,0.12061 0,0.0222 0.09864,0.0652 0.219215,0.0954 0.120544,0.0303 0.258339,0.0941 0.306176,0.14178 0.04784,0.0477 0.11289,0.0781 0.144568,0.0675 0.03168,-0.0106 0.05761,0.007 0.05761,0.0384 0,0.0318 0.0321,0.0453 0.07133,0.0303 0.03923,-0.0152 0.102483,0.004 0.140512,0.0416 0.03799,0.0379 0.131445,0.069 0.207539,0.069 0.07613,-3e-5 0.284797,0.01 0.463656,0.0222 0.178858,0.0123 0.397121,0 0.485034,-0.0296 0.252378,-0.082 0.522465,-0.20454 0.523063,-0.2372 2.64e-4,-0.0166 0.08682,-0.0868 0.19223,-0.15632 0.144285,-0.0952 0.199742,-0.16944 0.224401,-0.3005 0.01802,-0.0957 0.06212,-0.18517 0.09807,-0.19893 0.03591,-0.0138 0.07923,-0.0993 0.09634,-0.19014 0.01707,-0.0908 0.04893,-0.17611 0.07077,-0.18959 0.02201,-0.0134 0.03171,-0.11112 0.02199,-0.21706 -0.0097,-0.10598 0.0021,-0.19269 0.02606,-0.19269 0.02403,0 0.03224,-0.03 0.01818,-0.0665 -0.01408,-0.0366 0.0296,-0.12908 0.09701,-0.20553 0.100576,-0.11405 0.122838,-0.12319 0.124108,-0.0509 0.0011,0.0648 0.03242,0.084 0.118322,0.0728 0.07825,-0.0102 0.157654,0.0286 0.240241,0.11741 0.06787,0.073 0.166757,0.13275 0.219816,0.13275 0.05302,0 0.112078,0.025 0.131091,0.0558 0.02146,0.0346 0.01331,0.0427 -0.02141,0.0212 -0.0308,-0.019 -0.05599,-0.0159 -0.05599,0.007 0,0.0229 0.08184,0.0473 0.181893,0.0542 0.100047,0.007 0.220097,0.0159 0.266769,0.0201 0.04671,0.004 0.08491,0.0354 0.08491,0.0696 0,0.067 0.03052,0.0742 0.291005,0.068 0.141499,-0.004 0.153601,0.004 0.07278,0.0418 -0.112395,0.0532 0.319405,0.0215 0.618207,-0.0451 0.300921,-0.0672 0.706967,-0.50176 0.714023,-0.76429 0.0011,-0.0332 0.01976,-0.0605 0.04163,-0.0605 0.102306,0 0.197908,-0.90887 0.124883,-1.18491 -0.02082,-0.0786 -0.01622,-0.0832 0.0254,-0.0243 0.03845,0.055 0.0508,0.0162 0.05151,-0.16038 2.64e-4,-0.12813 0.02363,-0.27569 0.05186,-0.32798 0.05045,-0.0943 0.05221,-0.0942 0.189442,0.004 0.07585,0.0541 0.159808,0.0983 0.186266,0.0983 0.02611,0 0.06032,0.0325 0.07585,0.0725 0.01516,0.0399 0.05962,0.0726 0.09878,0.0726 0.03881,0 0.110419,0.0499 0.159102,0.11109 0.06491,0.0815 0.146405,0.11445 0.306565,0.12355 0.119944,0.007 0.238831,0.0332 0.264231,0.0582 0.06632,0.0658 0.349954,0.0554 0.6477,-0.0236 0.297038,-0.0788 0.669571,-0.34029 0.710846,-0.49883 0.01553,-0.0599 0.06068,-0.10883 0.10019,-0.10883 0.03951,0 0.07161,-0.0423 0.07161,-0.0939 0,-0.0516 0.02188,-0.10725 0.04868,-0.12372 0.07232,-0.0446 0.33937,-0.60025 0.33937,-0.70619 0,-0.0505 0.02434,-0.0918 0.05397,-0.0918 0.02928,0 0.04092,-0.0328 0.02574,-0.0725 -0.01553,-0.0399 -0.01058,-0.0726 0.0113,-0.0726 0.03669,0 0.115358,-0.29485 0.180271,-0.67708 0.05045,-0.29803 0.05821,-0.96728 0.01093,-0.96728 -0.02506,0 -0.0314,-0.0222 -0.01447,-0.0498 0.01693,-0.0275 0.0141,-0.27224 -0.0063,-0.54409 -0.02681,-0.3532 -0.04692,-0.45289 -0.07091,-0.34921 -0.03034,0.13229 -0.03387,0.12689 -0.03916,-0.0619 -0.0032,-0.11391 -0.0381,-0.2849 -0.07796,-0.37994 -0.04034,-0.0955 -0.05939,-0.22634 -0.04246,-0.29238 0.02434,-0.0972 0.0515,-0.11409 0.144991,-0.0907 0.06315,0.0159 0.115004,0.012 0.115359,-0.008 0,-0.0205 0.179916,-0.0372 0.40005,-0.0372 0.403928,0 0.435678,-0.0102 0.648051,-0.20415 0.102659,-0.0939 0.1143,-0.13805 0.09278,-0.35165 -0.02257,-0.22779 -0.18133,-0.53241 -0.277283,-0.53241 -0.02151,0 -0.03916,-0.0353 -0.03916,-0.0784 0,-0.056 -0.01765,-0.0649 -0.06068,-0.0307 -0.03351,0.0261 -0.15875,0.0394 -0.279046,0.0293 -0.40005,-0.0339 -1.042458,-0.0134 -1.05904,0.0335 -0.02151,0.0615 -0.153458,0.0598 -0.153458,-0.004 0,-0.0272 -0.138642,-0.0484 -0.318558,-0.0484 -0.175332,0 -0.357717,-0.0208 -0.405694,-0.0466 -0.04798,-0.0254 -0.232129,-0.0505 -0.408871,-0.0554 -0.177094,-0.005 -0.322085,-0.0296 -0.322085,-0.0555 0,-0.0258 -0.05468,-0.0328 -0.121357,-0.0162 -0.08608,0.0215 -0.121002,0.0106 -0.121002,-0.0375 0,-0.0373 -0.04374,-0.0791 -0.09701,-0.0931 -0.07514,-0.0194 -0.09807,-0.0678 -0.100894,-0.21121 -0.0021,-0.10223 -0.01199,-0.22941 -0.02222,-0.28261 -0.02257,-0.11956 0.150635,-0.48944 0.246592,-0.52617 0.03881,-0.0148 0.07056,-0.0513 0.07056,-0.0811 0,-0.0839 0.844902,-0.97631 0.885825,-0.93556 0.01058,0.0102 0.0702,-0.0353 0.132644,-0.10171 0.06279,-0.0664 0.142875,-0.12072 0.178152,-0.12072 0.03528,0 0.06421,-0.0254 0.06421,-0.0564 0,-0.031 0.01341,-0.0431 0.02963,-0.0268 0.01622,0.0162 0.1143,-0.0236 0.217311,-0.0887 0.103364,-0.065 0.230716,-0.11818 0.282929,-0.11818 0.05221,0 0.109009,-0.0222 0.125942,-0.0497 0.01693,-0.0272 0.05644,-0.045 0.08784,-0.0394 0.03104,0.006 0.242358,-0.0501 0.469193,-0.12376 0.402519,-0.13067 0.551744,-0.16295 0.848783,-0.18351 0.08008,-0.006 0.159102,-0.03 0.176036,-0.0542 0.01659,-0.0243 0.203906,-0.0371 0.434975,-0.0381 z m -5.896682,0.48863 c 0.03457,0 0.151342,0.058 0.259998,0.12877 0.339019,0.22137 0.380646,0.64124 0.1016,1.02528 -0.0762,0.10474 -0.12559,0.20298 -0.110421,0.21829 0.01553,0.0152 0.0013,0.06 -0.0314,0.0993 -0.06421,0.0769 -0.121005,1.43023 -0.06032,1.43023 0.01871,0 0.08219,0.10573 0.141816,0.23491 0.117121,0.25485 0.404635,0.59673 0.521759,0.62072 0.04022,0.008 0.10442,0.0215 0.143226,0.0296 0.03881,0.008 0.111477,0.0515 0.161574,0.0967 0.05009,0.0452 0.127351,0.0822 0.172153,0.0822 0.04445,0 0.08079,0.0205 0.08079,0.0453 0,0.025 0.04939,0.0413 0.10936,0.0363 0.151342,-0.0127 1.112309,0.11133 1.195917,0.15423 0.03775,0.0194 0.07655,0.0877 0.08643,0.15191 0.0095,0.0642 0.04974,0.16573 0.08925,0.22556 0.03916,0.0598 0.07126,0.1596 0.07126,0.22169 0,0.0621 0.02752,0.14224 0.06068,0.17808 0.04868,0.0521 0.04868,0.0583 0,0.031 -0.03316,-0.0187 -0.06068,-0.013 -0.06068,0.0131 0,0.0258 0.02188,0.0544 0.04833,0.0633 0.129469,0.0435 0.262467,1.7821 0.141817,1.85643 -0.02928,0.0183 -0.03951,0.0883 -0.02257,0.16002 0.02222,0.0957 0.01728,0.10953 -0.01976,0.0552 -0.03881,-0.0569 -0.04974,-0.0413 -0.05115,0.0726 -0.0011,0.0798 -0.04445,0.19949 -0.09666,0.26599 -0.05221,0.0665 -0.09525,0.1433 -0.09595,0.17068 -2.65e-4,0.0275 -0.0755,0.12001 -0.166513,0.20574 -0.131233,0.12347 -0.226835,0.16411 -0.45861,0.19572 -0.161219,0.0219 -0.284692,0.0272 -0.275167,0.0113 0.0099,-0.0155 -0.01304,-0.0705 -0.0508,-0.12185 -0.03775,-0.0513 -0.06844,-0.0766 -0.06844,-0.0562 0,0.0205 -0.09278,-0.0514 -0.20602,-0.15956 -0.113596,-0.10809 -0.222605,-0.19657 -0.242713,-0.19703 -0.02011,0 -0.03634,-0.0318 -0.03634,-0.0694 0,-0.0379 -0.05997,-0.13999 -0.13335,-0.22691 -0.07338,-0.0869 -0.127707,-0.17018 -0.121002,-0.18503 0.0071,-0.0148 -0.0254,-0.0706 -0.07197,-0.12376 -0.04621,-0.0532 -0.08467,-0.11232 -0.08502,-0.13141 -7.94e-4,-0.019 -0.03986,-0.08 -0.08714,-0.13525 -0.04762,-0.0553 -0.07373,-0.12143 -0.05786,-0.147 0.01588,-0.0254 -0.0032,-0.0588 -0.04233,-0.0739 -0.03951,-0.0152 -0.08502,-0.0801 -0.101245,-0.14471 -0.01622,-0.0645 -0.0508,-0.1174 -0.07726,-0.1174 -0.02611,0 -0.04727,-0.0332 -0.04727,-0.074 0,-0.0407 -0.03281,-0.0866 -0.07267,-0.10184 -0.03986,-0.0152 -0.06032,-0.0473 -0.04551,-0.0712 0.02822,-0.0451 -0.169334,-0.44182 -0.233892,-0.47039 -0.02011,-0.009 -0.02646,-0.0328 -0.0141,-0.053 0.0127,-0.0201 -0.0448,-0.16524 -0.128059,-0.32229 -0.336552,-0.63642 -0.426158,-0.82004 -0.426862,-0.87207 -2.64e-4,-0.03 -0.03387,-0.0821 -0.07444,-0.11571 -0.04071,-0.0335 -0.06184,-0.099 -0.0471,-0.14528 0.01598,-0.0501 -0.0032,-0.0956 -0.04745,-0.1125 -0.04082,-0.0155 -0.07419,-0.0618 -0.07419,-0.10248 0,-0.0407 -0.02183,-0.0741 -0.04851,-0.0741 -0.02667,0 -0.04614,-0.0162 -0.04328,-0.0363 0.01003,-0.0693 -0.06523,-0.25389 -0.103542,-0.25389 -0.02119,0 -0.03295,-0.0381 -0.02606,-0.0847 0.0069,-0.0465 -0.01474,-0.1064 -0.04801,-0.133 -0.0333,-0.0264 -0.109289,-0.18436 -0.168838,-0.35062 -0.05955,-0.16627 -0.128516,-0.3023 -0.153176,-0.3023 -0.02468,0 -0.03083,-0.0226 -0.01365,-0.0503 0.01717,-0.0275 -0.03708,-0.19156 -0.12051,-0.36403 -0.08343,-0.17251 -0.136453,-0.3381 -0.117864,-0.36812 0.02146,-0.0346 0.01204,-0.0411 -0.02585,-0.0176 -0.04583,0.0282 -0.05193,-0.018 -0.02614,-0.19809 0.04061,-0.28377 0.34745,-0.71642 0.715539,-1.00873 0.133985,-0.1064 0.278376,-0.22934 0.320886,-0.27309 0.08244,-0.0849 0.411586,-0.23473 0.515303,-0.23473 z m -10.831935,0.37871 c 0.115076,-0.004 0.207151,0.0155 0.235691,0.0606 0.02392,0.0376 0.04367,0.0484 0.04417,0.0236 3.44e-4,-0.0247 0.06061,0.008 0.133774,0.0725 0.119803,0.10562 0.12393,0.10643 0.04103,0.008 -0.05066,-0.0598 -0.06918,-0.1088 -0.04124,-0.1088 0.05419,0 0.13148,0.14136 0.115499,0.21121 -0.0053,0.0229 0.0254,0.0949 0.06802,0.15984 0.06509,0.099 0.06893,0.15883 0.02434,0.37293 -0.02917,0.14023 -0.03902,0.29128 -0.02187,0.33581 0.01722,0.0447 0.0078,0.081 -0.02103,0.081 -0.02872,0 -0.03962,0.0325 -0.02427,0.0725 0.01542,0.0401 0.0014,0.0725 -0.03126,0.0725 -0.0381,0 -0.05172,0.0512 -0.03817,0.14323 0.0133,0.0903 -0.0025,0.15229 -0.043,0.16774 -0.03528,0.0134 -0.06406,0.0591 -0.06406,0.10146 0,0.0458 -0.02261,0.063 -0.05598,0.0424 -0.0333,-0.0205 -0.04293,-0.0134 -0.02367,0.0176 0.03616,0.0584 -0.04794,0.28158 -0.153846,0.40827 -0.0381,0.0456 -0.05814,0.11172 -0.04452,0.14707 0.01358,0.0354 0,0.096 -0.03052,0.1348 -0.118921,0.15183 -0.383222,0.0469 -0.290195,-0.11515 0.01771,-0.0307 0.01521,-0.0408 -0.0056,-0.0222 -0.0436,0.0392 -0.11751,-0.0268 -0.240911,-0.21501 -0.04784,-0.0729 -0.110138,-0.11833 -0.13843,-0.10086 -0.03214,0.0197 -0.03983,0 -0.02046,-0.0488 0.02021,-0.0526 0.0063,-0.0805 -0.04025,-0.0805 -0.03919,0 -0.07126,-0.0219 -0.07126,-0.0484 0,-0.0265 -0.0279,-0.0484 -0.06205,-0.0484 -0.03411,0 -0.09204,-0.0415 -0.128729,-0.0923 -0.03669,-0.0508 -0.0913,-0.083 -0.12125,-0.0715 -0.172684,0.066 -0.340712,-0.34615 -0.191487,-0.46965 0.03686,-0.0307 0.06699,-0.0912 0.06699,-0.13473 0,-0.0435 0.04364,-0.10629 0.09701,-0.13952 0.05334,-0.0332 0.09701,-0.0854 0.09701,-0.11589 0,-0.0307 0.05457,-0.12686 0.12125,-0.21403 0.06671,-0.0872 0.121249,-0.17629 0.121249,-0.19809 0,-0.0562 0.248109,-0.27986 0.36382,-0.32797 0.120932,-0.0503 0.259115,-0.0783 0.374191,-0.0824 z m -20.854846,0.59087 c 0.270263,3.5e-4 0.469265,0.012 0.453425,0.0374 -0.03454,0.0557 0.346604,0.16464 0.588786,0.16831 0.08668,0 0.157621,0.0205 0.157621,0.0423 0,0.0219 0.0424,0.0399 0.09419,0.0399 0.05175,0 0.107598,0.0219 0.124108,0.0484 0.01648,0.0264 0.07232,0.0484 0.124072,0.0484 0.05179,0 0.09419,0.019 0.09419,0.0423 0,0.0233 0.05906,0.0423 0.131303,0.0423 0.07225,0 0.139383,0.024 0.14912,0.0529 0.0097,0.0289 0.09306,0.0669 0.185208,0.0841 0.09214,0.0173 0.189583,0.0724 0.216464,0.12252 0.02688,0.0501 0.08184,0.0911 0.122132,0.0911 0.04029,0 0.128235,0.0548 0.195439,0.12185 0.0672,0.067 0.142628,0.10926 0.167569,0.0939 0.02498,-0.0155 0.0454,0.006 0.0454,0.0474 0,0.0414 0.02727,0.0757 0.06061,0.0762 0.03337,3.4e-4 0.115217,0.0672 0.181892,0.1482 0.06671,0.081 0.182951,0.21068 0.258375,0.28801 0.07539,0.0774 0.124672,0.16054 0.109608,0.18485 -0.0151,0.0243 0.0082,0.0412 0.05172,0.0376 0.04353,-0.004 0.08978,0.0236 0.102799,0.0605 0.01595,0.0454 0.0032,0.0545 -0.03951,0.0282 -0.03761,-0.0233 -0.03041,0.008 0.01789,0.0766 0.04463,0.0635 0.08121,0.1542 0.08121,0.20147 0,0.0473 0.02109,0.086 0.04699,0.086 0.0775,0 0.04156,0.35042 -0.05447,0.53125 -0.04925,0.0927 -0.09045,0.14711 -0.09155,0.1209 -0.0011,-0.0261 -0.06946,0.0286 -0.151941,0.12167 -0.08248,0.0931 -0.132539,0.13836 -0.111337,0.10061 0.03006,-0.0534 0.01806,-0.0599 -0.05415,-0.0293 -0.05108,0.0215 -0.130069,0.041 -0.175471,0.0428 -0.0454,0.004 -0.07303,0.0127 -0.06138,0.0244 0.02466,0.0247 -0.12827,0.14781 -0.186267,0.1501 -0.02159,0 -0.0249,-0.0215 -0.0074,-0.0499 0.02152,-0.0346 -0.06255,-0.0465 -0.259116,-0.0363 -0.160901,0.008 -0.2788,0.0349 -0.263666,0.0596 0.01527,0.0247 -0.01009,0.03 -0.05722,0.012 -0.04657,-0.018 -0.110172,-0.0328 -0.141322,-0.0332 -0.03358,-3.4e-4 -0.02702,-0.0219 0.01609,-0.0529 0.06054,-0.0434 0.05782,-0.0473 -0.01609,-0.0233 -0.04886,0.0159 -0.09924,0.0286 -0.111972,0.0286 -0.01273,0 -0.0097,0.0219 0.0068,0.0484 0.01648,0.0265 -0.0041,0.0484 -0.04565,0.0484 -0.04159,0 -0.07567,-0.0162 -0.07571,-0.0363 0,-0.0201 -0.251143,-0.0363 -0.557918,-0.0363 -0.30674,0 -0.557742,0.0162 -0.557707,0.0363 3.6e-5,0.0198 -0.0339,0.0363 -0.07549,0.0363 -0.04159,0 -0.06209,-0.0219 -0.04547,-0.0487 0.01669,-0.0268 -0.03083,-0.0219 -0.106292,0.0109 -0.15434,0.0675 -0.354718,0.27312 -0.354718,0.36417 -3.5e-5,0.0332 -0.02194,0.0604 -0.04879,0.0604 -0.02889,0 -0.04145,0.10619 -0.03069,0.26102 0.01563,0.22415 0.04145,0.28173 0.182281,0.40749 0.157938,0.14104 0.181257,0.14665 0.631895,0.14944 0.257387,0 0.524757,0.0243 0.594184,0.0507 0.127459,0.0483 0.162419,0.11896 0.08308,0.16785 -0.02371,0.0145 -0.0544,0.0975 -0.06819,0.18422 -0.01383,0.0867 -0.04632,0.23753 -0.07221,0.33525 -0.03228,0.12185 -0.03062,0.19399 0.0052,0.22973 0.035,0.0349 0.03556,0.0521 0.0018,0.0521 -0.106186,0 -0.155963,0.25117 -0.154799,0.78062 0.0018,0.71254 0.133703,1.66582 0.24063,1.73638 0.02191,0.0145 0.04685,0.0722 0.05542,0.12827 0.0086,0.0561 0.03919,0.13137 0.06801,0.16721 0.02886,0.0358 0.06795,0.11959 0.08689,0.18609 0.03743,0.13166 0.358387,0.62773 0.40774,0.63024 0.01676,0 0.07401,0.0346 0.127212,0.0745 0.08371,0.0631 0.087,0.0798 0.02427,0.12393 -0.0617,0.0434 -0.06039,0.0471 0.0088,0.0251 0.04473,-0.0141 0.107456,0.005 0.139347,0.0437 0.03189,0.0383 0.09666,0.0697 0.143898,0.0697 0.04724,0 0.09892,0.0342 0.114935,0.0757 0.01598,0.0416 0.05352,0.0605 0.08336,0.0421 0.02984,-0.0183 0.07031,-0.008 0.08989,0.024 0.02173,0.0349 0.156493,0.0565 0.346287,0.0551 0.372463,-0.004 0.53153,-0.0169 0.50359,-0.0447 -0.03323,-0.0332 0.317042,-0.20577 0.361703,-0.17826 0.02233,0.0138 0.05253,-0.0205 0.0671,-0.0761 0.01468,-0.056 0.04974,-0.0867 0.07863,-0.0689 0.02865,0.0176 0.06512,-0.004 0.08107,-0.0433 0.01595,-0.0414 0.05013,-0.0622 0.07599,-0.0463 0.02586,0.0159 0.09458,-0.0155 0.152612,-0.0696 0.05807,-0.0542 0.160126,-0.11924 0.226801,-0.14443 0.105586,-0.0399 0.121461,-0.0325 0.123084,0.0572 0.0011,0.0567 0.01831,0.16475 0.03835,0.24014 0.02413,0.0906 0.01944,0.12658 -0.01383,0.10608 -0.03433,-0.0212 -0.03528,0.008 -0.0028,0.0935 0.02611,0.0685 0.05337,0.33069 0.06054,0.58282 0.01267,0.44556 0.05849,0.59581 0.09948,0.3259 0.01531,-0.10072 0.02219,-0.086 0.02822,0.0605 0.0044,0.1064 0.03976,0.24786 0.07853,0.31436 0.03881,0.0665 0.09455,0.179 0.123931,0.25001 0.02939,0.071 0.08463,0.14112 0.122766,0.15569 0.03817,0.0145 0.06936,0.0588 0.06936,0.0984 0,0.12904 0.695607,0.36928 0.791704,0.27347 0.02875,-0.0286 0.154411,-0.0521 0.279188,-0.0521 0.142523,0 0.249344,-0.0268 0.287268,-0.0725 0.0332,-0.0399 0.08255,-0.0726 0.109678,-0.0726 0.02716,0 0.07835,-0.0381 0.113806,-0.0846 0.03542,-0.0465 0.06519,-0.06 0.066,-0.03 0.0018,0.0626 0.341065,-0.0739 0.341065,-0.13727 0,-0.0212 0.03274,-0.0383 0.07274,-0.0383 0.04004,0 0.07278,-0.0219 0.07278,-0.0483 0,-0.0265 0.03274,-0.0484 0.07274,-0.0484 0.04004,0 0.07278,-0.0229 0.07278,-0.0512 0,-0.0282 0.02035,-0.0387 0.04519,-0.0233 0.02484,0.0152 0.05884,0.006 0.0756,-0.0215 0.01676,-0.0272 0.07278,-0.0491 0.124566,-0.0491 0.05179,0 0.08872,-0.0243 0.08206,-0.0544 -0.0067,-0.03 0.01154,-0.0632 0.04043,-0.0738 0.02893,-0.0106 0.05651,0.009 0.06138,0.0423 0.0049,0.0339 0.01577,0.11621 0.0241,0.18271 0.0083,0.0665 0.03238,0.15991 0.05362,0.20761 0.0212,0.0477 0.02519,0.10011 0.0088,0.11648 -0.01641,0.0162 -0.0055,0.059 0.02416,0.0947 0.0297,0.0357 0.03778,0.0649 0.01792,0.0649 -0.0199,0 -0.0092,0.0325 0.02378,0.072 0.03291,0.0396 0.0471,0.10485 0.03164,0.14507 -0.01549,0.0403 -0.0095,0.0731 0.01344,0.0731 0.02286,0 0.03856,0.0376 0.03486,0.0835 -0.0037,0.0459 0.02392,0.084 0.06138,0.0846 0.03747,0 0.07355,0.0339 0.08008,0.0737 0.014,0.0858 0.166334,0.38075 0.166828,0.32296 0,-0.0219 0.03302,-0.007 0.07302,0.0328 0.04001,0.0399 0.07278,0.0925 0.07278,0.11677 0,0.0503 0.233539,0.1686 0.485034,0.24578 0.303672,0.0932 1.254443,0.0657 1.192636,-0.0346 -0.01051,-0.0169 0.05955,-0.0368 0.155646,-0.0439 0.09613,-0.007 0.191487,-0.0397 0.211843,-0.0725 0.02035,-0.0328 0.05415,-0.0599 0.07514,-0.0599 0.05408,0 0.615244,-0.27534 0.644489,-0.31587 0.01333,-0.0183 0.07881,-0.0499 0.145486,-0.0699 0.115111,-0.0346 0.433634,-0.34551 0.43561,-0.42538 3.44e-4,-0.0205 0.05553,-0.0581 0.122202,-0.0834 0.06671,-0.0254 0.121285,-0.0676 0.121285,-0.094 0,-0.0265 0.02737,-0.0376 0.06082,-0.0247 0.05239,0.0201 0.269416,-0.15353 0.702945,-0.56216 0.05994,-0.0565 0.09652,-0.1228 0.08128,-0.14735 -0.01524,-0.0247 -0.0066,-0.0387 0.01905,-0.0314 0.02568,0.007 0.114335,-0.0737 0.197026,-0.18013 0.08273,-0.10643 0.167605,-0.21523 0.18863,-0.24183 0.02106,-0.0265 0.0914,-0.12453 0.156422,-0.21766 0.06498,-0.0931 0.143228,-0.19103 0.173849,-0.21763 0.06766,-0.0588 0.360186,-0.48937 0.360186,-0.53023 0,-0.0159 0.0677,-0.0952 0.150424,-0.17586 0.08276,-0.0806 0.13709,-0.15984 0.120792,-0.17607 -0.0163,-0.0162 0.01531,-0.0772 0.0701,-0.13539 0.05482,-0.0582 0.09394,-0.12506 0.087,-0.14866 -0.007,-0.0236 0.04664,-0.13498 0.119062,-0.24751 0.07242,-0.1125 0.131692,-0.22677 0.131692,-0.2539 0,-0.0272 0.02029,-0.0493 0.04502,-0.0493 0.0592,0 0.177165,-0.23565 0.326919,-0.65292 0.06685,-0.18619 0.160866,-0.42559 0.208879,-0.53199 0.04805,-0.1064 0.116382,-0.29682 0.151871,-0.42319 0.03552,-0.12636 0.08029,-0.22973 0.09948,-0.22973 0.01919,0 0.03306,-0.0381 0.03087,-0.0846 -0.0075,-0.15931 0.0623,-0.94629 0.08756,-0.98704 0.01386,-0.0222 -0.0014,-0.0407 -0.03365,-0.0407 -0.03651,0 -0.02558,-0.0367 0.02889,-0.0967 0.102059,-0.11243 0.178577,-0.12753 0.140124,-0.0279 -0.01905,0.0495 3.44e-4,0.062 0.0689,0.0441 0.05242,-0.0137 0.109961,0 0.127882,0.0275 0.01792,0.0289 0.07497,0.0526 0.126753,0.0526 0.05179,0 0.09416,0.018 0.09416,0.0402 0,0.0222 0.06004,0.0703 0.13342,0.10721 0.163231,0.082 0.396981,0.29397 0.398816,0.36167 7.14e-4,0.0275 0.04018,0.0818 0.08763,0.12093 0.394934,0.32586 0.546276,0.43395 0.607836,0.43395 0.03933,0 0.0847,0.0342 0.100718,0.0757 0.01598,0.0416 0.04879,0.0633 0.07295,0.0484 0.05701,-0.0353 0.34484,0.23269 0.34484,0.32089 0,0.0372 -0.01866,0.0884 -0.04142,0.11366 -0.02275,0.0254 -0.06904,0.14891 -0.102976,0.27478 -0.03394,0.12587 -0.07881,0.2183 -0.09966,0.20546 -0.02085,-0.0127 -0.02657,0.0201 -0.0126,0.0734 0.01418,0.0541 0.0018,0.0968 -0.02872,0.0968 -0.02977,0 -0.05419,0.0392 -0.05419,0.0871 0,0.0479 -0.0199,0.10771 -0.04424,0.133 -0.109996,0.11423 -0.342053,0.6471 -0.31376,0.72055 0.01919,0.0499 -0.0082,0.11684 -0.07228,0.17635 -0.0568,0.0527 -0.105057,0.13311 -0.107245,0.17865 -0.009,0.18701 -0.05306,0.3653 -0.114264,0.46284 -0.0357,0.0569 -0.07987,0.18835 -0.09814,0.292 -0.01828,0.10361 -0.0628,0.23421 -0.09892,0.29016 -0.03612,0.056 -0.09384,0.2432 -0.12827,0.4161 -0.0344,0.17289 -0.08096,0.32738 -0.10354,0.34329 -0.02258,0.0159 -0.043,0.0975 -0.04537,0.18136 -0.0025,0.0838 -0.01834,0.15247 -0.03546,0.15247 -0.01707,0 -0.05817,0.10107 -0.0913,0.22461 -0.03316,0.12355 -0.09962,0.28134 -0.147708,0.35063 -0.04808,0.0693 -0.101212,0.16411 -0.118039,0.21068 -0.01683,0.0465 -0.05313,0.0846 -0.08061,0.0846 -0.02752,0 -0.05002,0.0325 -0.05002,0.0725 0,0.0399 -0.02042,0.0726 -0.0454,0.0726 -0.02494,0 -0.07299,0.0762 -0.106751,0.16926 -0.03376,0.0931 -0.07648,0.16926 -0.09504,0.16926 -0.01852,0 -0.103787,0.10884 -0.189371,0.24183 -0.08558,0.133 -0.175154,0.24183 -0.199037,0.24183 -0.02388,0 -0.0435,0.0325 -0.0435,0.0725 0,0.0399 -0.0218,0.0726 -0.04851,0.0726 -0.02667,0 -0.04851,0.0219 -0.04851,0.0484 0,0.0265 -0.03817,0.0886 -0.08488,0.1378 -0.157127,0.16563 -0.254635,0.29827 -0.254635,0.34639 0,0.0265 -0.01961,0.0478 -0.04357,0.0478 -0.05041,0 -0.456742,0.34893 -0.633624,0.54413 -0.06629,0.0731 -0.146544,0.13299 -0.178365,0.13299 -0.03186,0 -0.127035,0.087 -0.211561,0.19343 -0.08452,0.10643 -0.175189,0.19346 -0.201506,0.19346 -0.05182,0 -0.440443,0.30583 -0.731379,0.57556 -0.09955,0.0923 -0.194839,0.15399 -0.211808,0.13705 -0.01701,-0.0169 -0.110208,0.0441 -0.207116,0.13568 -0.09687,0.0916 -0.204399,0.16701 -0.239007,0.16701 -0.03464,0 -0.116487,0.058 -0.181892,0.12837 -0.06544,0.0704 -0.119733,0.10845 -0.120615,0.0846 -7.14e-4,-0.024 -0.04163,0.005 -0.09056,0.0629 -0.04893,0.0584 -0.146438,0.12072 -0.216676,0.13829 -0.0702,0.0176 -0.127705,0.0514 -0.127705,0.0751 0,0.0236 -0.04135,0.0431 -0.09186,0.0431 -0.05055,0 -0.161995,0.0653 -0.24765,0.1451 -0.08569,0.0798 -0.197097,0.1451 -0.24765,0.1451 -0.05087,0 -0.0919,0.0335 -0.0919,0.0753 0,0.0414 -0.02184,0.062 -0.04851,0.0455 -0.02667,-0.0166 -0.04851,-0.005 -0.04851,0.0265 0,0.031 -0.03274,0.0439 -0.07274,0.0286 -0.04572,-0.0176 -0.07278,3.4e-4 -0.07278,0.0484 0,0.0461 -0.02734,0.0657 -0.06925,0.0497 -0.03807,-0.0145 -0.09613,0.006 -0.129011,0.0454 -0.03291,0.0395 -0.08844,0.0609 -0.123437,0.0475 -0.03503,-0.0134 -0.09701,0.0229 -0.13776,0.0811 -0.04075,0.058 -0.07408,0.0885 -0.07408,0.0678 0,-0.0208 -0.06548,0 -0.145521,0.0481 -0.08004,0.0471 -0.145521,0.099 -0.145521,0.11525 0,0.0162 -0.06579,0.0198 -0.146156,0.008 -0.119626,-0.0176 -0.140652,-0.007 -0.115887,0.0573 0.02244,0.0583 0.0098,0.0709 -0.04851,0.0486 -0.04332,-0.0166 -0.108444,-0.006 -0.144745,0.0243 -0.0363,0.03 -0.09599,0.0469 -0.132715,0.0375 -0.03672,-0.009 -0.05045,-0.008 -0.03041,0.004 0.09155,0.0511 0.02067,0.1089 -0.133385,0.1089 -0.09338,0 -0.169792,0.0233 -0.169792,0.0517 0,0.0307 -0.04191,0.0383 -0.103082,0.019 -0.06611,-0.0208 -0.09186,-0.0145 -0.07179,0.0176 0.02131,0.0342 -0.01764,0.0365 -0.122132,0.007 -0.15113,-0.0432 -0.257598,-0.0229 -0.217805,0.0413 0.01122,0.018 -0.295839,0.0383 -0.682378,0.0448 -0.386539,0.006 -0.717338,0.0198 -0.735048,0.0293 -0.01774,0.009 -0.09666,-3.4e-4 -0.175471,-0.0222 -0.07878,-0.0219 -0.198826,-0.0279 -0.266771,-0.0134 -0.09659,0.0208 -0.107668,0.0152 -0.05077,-0.0251 0.05634,-0.0399 0.02349,-0.0534 -0.145521,-0.0599 -0.12005,-0.005 -0.250754,-0.006 -0.290371,-0.004 -0.03962,0.004 -0.08378,-0.0148 -0.09814,-0.038 -0.01436,-0.0233 -0.129998,-0.0475 -0.257034,-0.054 -0.127,-0.007 -0.254599,-0.0404 -0.283633,-0.0753 -0.02903,-0.0349 -0.104739,-0.0635 -0.168169,-0.0635 -0.06343,0 -0.115288,-0.0198 -0.115288,-0.0441 0,-0.0243 -0.05397,-0.0382 -0.119944,-0.031 -0.06593,0.007 -0.108338,-0.006 -0.09416,-0.0286 0.01418,-0.0229 -0.03972,-0.0416 -0.119733,-0.0416 -0.08004,0 -0.158961,-0.0219 -0.175471,-0.0484 -0.01648,-0.0265 -0.07232,-0.0484 -0.124108,-0.0484 -0.05179,0 -0.09416,-0.0233 -0.09416,-0.0516 0,-0.0303 -0.04494,-0.0391 -0.109149,-0.0212 -0.06473,0.0183 -0.08551,0.0141 -0.05105,-0.0102 0.03425,-0.024 0.04173,-0.0671 0.01817,-0.10505 -0.0284,-0.0458 -0.04957,-0.0487 -0.07359,-0.01 -0.02325,0.0375 -0.07782,0.0229 -0.175542,-0.0463 -0.078,-0.0553 -0.167111,-0.085 -0.19812,-0.0659 -0.035,0.0215 -0.04318,0.0134 -0.0217,-0.0212 0.02053,-0.0332 0.0038,-0.0558 -0.04099,-0.0558 -0.04159,0 -0.0756,-0.0243 -0.0756,-0.0539 0,-0.031 -0.05031,-0.0445 -0.119839,-0.031 -0.0659,0.0127 -0.108303,0.004 -0.09426,-0.0183 0.014,-0.0226 -0.0357,-0.068 -0.110561,-0.10079 -0.07489,-0.0328 -0.15367,-0.0873 -0.174978,-0.12111 -0.02134,-0.0339 -0.103681,-0.0615 -0.18295,-0.0615 -0.106786,0 -0.158468,-0.0314 -0.199496,-0.12118 -0.03048,-0.0667 -0.07913,-0.11585 -0.108126,-0.10929 -0.07228,0.0162 -0.412115,-0.19798 -0.572488,-0.36103 -0.07246,-0.0737 -0.171274,-0.13395 -0.219604,-0.13395 -0.04829,0 -0.125201,-0.0435 -0.170886,-0.0967 -0.04568,-0.0532 -0.122379,-0.0967 -0.170356,-0.0967 -0.04794,0 -0.20641,-0.11176 -0.352108,-0.24843 -0.304447,-0.28557 -0.612669,-0.49265 -0.675569,-0.45388 -0.02378,0.0148 -0.05027,-0.0208 -0.05884,-0.0785 -0.0089,-0.0598 -0.05585,-0.11092 -0.108938,-0.11857 -0.05136,-0.007 -0.11243,-0.0475 -0.135784,-0.0891 -0.02332,-0.0416 -0.07387,-0.0756 -0.112325,-0.0756 -0.03849,0 -0.09659,-0.0424 -0.129046,-0.0943 -0.04385,-0.07 -0.07514,-0.0809 -0.121638,-0.0424 -0.04738,0.0392 -0.06262,0.0296 -0.06262,-0.0389 0,-0.0942 -0.279647,-0.38971 -0.348721,-0.36848 -0.02166,0.007 -0.03933,-0.007 -0.03933,-0.0307 0,-0.038 -0.796734,-0.84381 -0.90861,-0.91891 -0.02441,-0.0162 -0.06028,-0.0726 -0.07977,-0.12506 -0.03009,-0.0809 -0.04303,-0.0846 -0.08554,-0.024 -0.03885,0.0552 -0.04446,0.0456 -0.0249,-0.0425 0.02995,-0.13515 -0.056,-0.34583 -0.141066,-0.34583 -0.08147,0 -0.271995,-0.32777 -0.212019,-0.36474 0.02579,-0.0159 0.03408,-0.0495 0.01849,-0.0747 -0.01563,-0.0251 -0.04436,-0.0359 -0.06385,-0.024 -0.01951,0.012 -0.06331,-0.0226 -0.0973,-0.0768 -0.03411,-0.0545 -0.03841,-0.0843 -0.0097,-0.0666 0.02865,0.0176 0.05211,0.009 0.05211,-0.019 0,-0.0282 -0.02184,-0.0512 -0.0485,-0.0512 -0.02667,0 -0.04851,-0.0293 -0.04851,-0.0651 0,-0.0358 -0.04365,-0.11543 -0.09701,-0.17674 -0.05781,-0.0665 -0.09728,-0.18178 -0.09777,-0.28547 -7.07e-4,-0.13014 -0.01259,-0.15571 -0.04775,-0.10145 -0.04986,0.0768 -0.06633,0.037 -0.04936,-0.11864 0.0087,-0.08 -0.0011,-0.0849 -0.0648,-0.0324 -0.06615,0.0547 -0.07158,0.0406 -0.04566,-0.11864 0.02307,-0.14154 0.01573,-0.17223 -0.03411,-0.1415 -0.03777,0.0233 -0.05178,0.0201 -0.0345,-0.008 0.01602,-0.0258 -3.52e-4,-0.13251 -0.03647,-0.23711 -0.0473,-0.13719 -0.0506,-0.19946 -0.01175,-0.22341 0.03846,-0.0236 0.03457,-0.0692 -0.01372,-0.15917 -0.03719,-0.0693 -0.06599,-0.23661 -0.06395,-0.3719 0.0025,-0.15709 -0.01157,-0.22197 -0.03856,-0.17946 -0.02815,0.0443 -0.04265,0.004 -0.04358,-0.12696 -7.07e-4,-0.1064 -0.01478,-0.24787 -0.03108,-0.31436 -0.02893,-0.11794 -0.02776,-0.1185 0.04746,-0.0243 0.07205,0.0904 0.07549,0.0761 0.05116,-0.21573 -0.01432,-0.17187 -0.03565,-0.32783 -0.04727,-0.3466 -0.01164,-0.0187 -3.52e-4,-0.0881 0.02473,-0.15417 0.0425,-0.11144 0.07722,-1.27733 0.05286,-1.77426 -0.009,-0.18415 -0.01655,-0.19903 -0.04916,-0.0967 -0.02374,0.0745 -0.03041,-0.004 -0.01736,-0.20136 0.01281,-0.19467 0.0011,-0.33465 -0.02935,-0.35349 -0.02783,-0.0173 -0.04843,-0.10065 -0.04576,-0.18552 0.0046,-0.14739 0.0066,-0.14891 0.04367,-0.0335 0.02999,0.0933 0.03976,0.0603 0.04292,-0.1451 0.0025,-0.16931 -0.01131,-0.24163 -0.03835,-0.19905 -0.06374,0.10034 -0.09009,-0.0325 -0.128468,-0.64727 -0.01827,-0.2926 -0.05528,-0.57397 -0.08223,-0.62523 -0.06202,-0.11797 -0.09518,-1.91389 -0.03534,-1.91389 0.02413,0 0.04511,-0.0925 0.04661,-0.20553 0.0055,-0.41084 0.03002,-0.57488 0.09171,-0.61288 0.03461,-0.0212 0.06401,-0.0581 0.06537,-0.0817 0.0049,-0.0871 0.1033,-0.26063 0.147793,-0.26063 0.02526,0 0.03334,-0.0324 0.01799,-0.0726 -0.01535,-0.0399 -0.006,-0.0725 0.02092,-0.0725 0.02688,0 0.136722,-0.0893 0.244044,-0.19847 0.107322,-0.10915 0.20755,-0.18609 0.222727,-0.17095 0.01517,0.0152 0.07324,-0.005 0.129028,-0.0434 0.05579,-0.039 0.140257,-0.0709 0.187678,-0.0709 0.04742,0 0.0862,-0.0261 0.0862,-0.058 0,-0.0418 0.01475,-0.0433 0.05267,-0.005 0.03794,0.0378 0.116088,0.0366 0.278906,-0.004 0.182767,-0.046 0.831406,-0.0757 1.281867,-0.075 z m 5.503721,0.23329 c 0.0084,-0.004 0.01309,3.4e-4 0.01309,0.009 0,0.0229 0.07638,0.0318 0.169757,0.0198 0.127952,-0.0162 0.169756,-0.004 0.169756,0.0505 0,0.0398 0.01637,0.0688 0.03641,0.0646 0.06152,-0.0131 0.210326,0.065 0.327695,0.17184 0.176848,0.16101 0.259504,0.22261 0.300884,0.22416 0.0617,0.004 0.353625,0.2824 0.353625,0.3393 0,0.0286 0.02025,0.0394 0.04501,0.0243 0.02477,-0.0152 0.05902,0.0162 0.07606,0.0697 0.01707,0.0536 0.0514,0.0974 0.07627,0.0974 0.02487,0 0.04519,0.0423 0.04519,0.0939 0,0.0516 0.01951,0.1059 0.04339,0.12061 0.02544,0.0155 0.02473,0.10957 -0.0018,0.22691 -0.0248,0.11006 -0.03404,0.2111 -0.02057,0.22454 0.01348,0.0134 -0.01563,0.0812 -0.0647,0.15078 -0.04907,0.0695 -0.104422,0.17533 -0.123049,0.23519 -0.01866,0.0598 -0.0556,0.10884 -0.08206,0.10884 -0.02646,0 -0.03432,0.0222 -0.01753,0.0492 0.01679,0.0272 -0.01623,0.12464 -0.07331,0.21678 -0.05711,0.0921 -0.09014,0.18969 -0.07334,0.21678 0.01679,0.0272 0.0074,0.0492 -0.02085,0.0492 -0.02826,0 -0.05133,0.0442 -0.05133,0.0983 0,0.054 -0.03274,0.11078 -0.07278,0.12609 -0.04001,0.0152 -0.07274,0.0486 -0.07274,0.0739 0,0.0254 0.02184,0.0325 0.04851,0.0162 0.02667,-0.0166 0.04851,-0.007 0.04851,0.0215 0,0.0282 -0.02184,0.0512 -0.04851,0.0512 -0.02667,0 -0.04851,0.0448 -0.04851,0.0996 0,0.0548 -0.01976,0.0873 -0.04396,0.0725 -0.0242,-0.0148 -0.03203,0.0187 -0.01736,0.0747 0.01468,0.0559 0.0072,0.11578 -0.01665,0.133 -0.09574,0.0692 -0.504119,0.86649 -0.504119,0.98418 0,0.051 -0.01947,0.0806 -0.04336,0.0659 -0.04974,-0.0307 -0.114794,0.10675 -0.07835,0.16549 0.01326,0.0215 -0.0085,0.0514 -0.04833,0.0666 -0.03986,0.0152 -0.07246,0.0829 -0.07246,0.15022 0,0.0673 -0.02011,0.12241 -0.04473,0.12241 -0.02459,0 -0.0695,0.0748 -0.09977,0.16626 -0.03023,0.0914 -0.102905,0.22698 -0.161431,0.30113 -0.05849,0.0742 -0.102835,0.14627 -0.09842,0.1602 0.01245,0.0395 -0.224402,0.53965 -0.320393,0.67652 -0.04731,0.0675 -0.07638,0.14983 -0.06459,0.18309 0.01175,0.0332 -0.0025,0.0604 -0.03119,0.0604 -0.02889,0 -0.05256,0.0328 -0.05256,0.0726 0,0.0399 -0.01926,0.0725 -0.04283,0.0725 -0.02357,0 -0.05567,0.0381 -0.07133,0.0846 -0.0157,0.0466 -0.04865,0.11729 -0.07313,0.15719 -0.02452,0.0399 -0.0852,0.15519 -0.134832,0.25619 -0.04964,0.101 -0.139312,0.21579 -0.199319,0.25502 -0.06004,0.0393 -0.10915,0.10122 -0.10915,0.13766 0,0.0969 -0.510681,0.53086 -0.666749,0.56656 -0.22151,0.0507 -0.352531,0.0452 -0.339725,-0.0141 0.0067,-0.0311 -0.03824,-0.069 -0.09984,-0.0846 -0.06163,-0.0155 -0.11617,-0.0502 -0.121285,-0.0768 -0.0051,-0.0265 -0.02565,-0.0429 -0.04565,-0.0363 -0.02,0.007 -0.03637,-0.0545 -0.03637,-0.13582 0,-0.0863 -0.02021,-0.1355 -0.04851,-0.11808 -0.02667,0.0166 -0.04851,-0.0148 -0.04851,-0.0697 0,-0.0548 -0.0242,-0.0995 -0.05373,-0.0995 -0.02953,0 -0.04159,-0.0314 -0.02692,-0.0694 0.01471,-0.0382 0.0062,-0.0763 -0.01873,-0.0847 -0.02493,-0.008 -0.05961,-0.18387 -0.07707,-0.39003 -0.01746,-0.20613 -0.05038,-0.37483 -0.07313,-0.37483 -0.02279,0 -0.04142,-0.13786 -0.04142,-0.30631 0,-0.16849 -0.01506,-0.32138 -0.03355,-0.3398 -0.01845,-0.0183 -0.03482,-0.14975 -0.03637,-0.29196 -0.0021,-0.20369 0.01171,-0.25301 0.06576,-0.23237 0.03916,0.0148 0.05539,0.005 0.03789,-0.0233 -0.03552,-0.0573 0.03337,-0.27711 0.193357,-0.61729 0.06188,-0.13159 0.112466,-0.29757 0.112466,-0.36887 0,-0.1815 0.112572,-0.25509 0.403931,-0.26412 0.138006,-0.004 0.283633,-0.0205 0.323638,-0.036 0.06174,-0.024 0.199743,-0.0481 0.521441,-0.0913 0.03334,-0.005 0.06061,-0.0275 0.06061,-0.0513 0,-0.0236 0.02184,-0.0296 0.04851,-0.0131 0.0267,0.0166 0.04851,0.007 0.04851,-0.0215 0,-0.0282 0.06547,-0.0512 0.14552,-0.0512 0.08004,0 0.145521,-0.0166 0.145521,-0.0366 0,-0.0201 0.06001,-0.0631 0.133385,-0.0955 0.07338,-0.0325 0.261409,-0.17794 0.417901,-0.32325 0.249026,-0.23128 0.287655,-0.29157 0.309386,-0.48383 0.01365,-0.12083 0.03845,-0.21135 0.05503,-0.20112 0.01662,0.0102 0.03619,-0.14799 0.0436,-0.35158 0.0074,-0.20362 0.02537,-0.40845 0.03979,-0.45512 0.01573,-0.051 -0.0042,-0.0965 -0.04992,-0.11391 -0.04187,-0.0159 -0.07609,-0.0499 -0.07609,-0.0752 0,-0.0254 0.02184,-0.0325 0.04851,-0.0162 0.02667,0.0166 0.04851,0.007 0.04851,-0.0215 0,-0.0282 -0.02184,-0.0512 -0.04851,-0.0512 -0.02667,0 -0.04851,-0.1101 -0.04851,-0.24465 0,-0.14891 -0.01877,-0.23315 -0.04794,-0.21519 -0.02646,0.0162 -0.03619,0 -0.0217,-0.0387 0.01447,-0.0375 -0.03442,-0.14016 -0.108647,-0.22811 -0.151589,-0.17967 -0.171556,-0.41574 -0.0538,-0.6363 0.06625,-0.12414 0.305717,-0.36954 0.364526,-0.38435 z m 21.550701,0.006 c 0.02907,0 0.04184,0.018 0.02833,0.0397 -0.01355,0.0219 0.09603,0.018 0.243454,-0.009 0.16665,-0.03 0.280387,-0.0314 0.300601,-0.004 0.01791,0.025 0.117898,0.045 0.222072,0.045 0.154343,0 0.223944,0.0335 0.37592,0.18288 0.102553,0.10079 0.186444,0.21346 0.186444,0.25044 0,0.037 0.03415,0.10131 0.07588,0.14291 0.0417,0.0416 0.06318,0.0959 0.04773,0.12082 -0.01543,0.025 0.01598,0.0592 0.06974,0.0762 0.05373,0.0169 0.09765,0.073 0.09765,0.12439 0,0.0514 0.01979,0.0934 0.04395,0.0934 0.02421,0 0.03164,0.0469 0.01659,0.10428 -0.01873,0.0714 -0.0097,0.0935 0.02882,0.0697 0.03531,-0.0219 0.05616,0 0.05616,0.0615 0,0.0528 0.0363,0.13232 0.08064,0.17653 0.06276,0.0626 0.06696,0.0888 0.01902,0.11835 -0.04353,0.0268 -0.04583,0.0476 -0.0079,0.071 0.02956,0.0183 0.07528,0.0197 0.101671,0.004 0.02635,-0.0162 0.03634,0 0.02209,0.0377 -0.01426,0.037 0.0078,0.0953 0.04907,0.1294 0.0412,0.0342 0.07493,0.10157 0.07493,0.14993 0,0.0484 0.02093,0.10083 0.04643,0.11656 0.02551,0.0159 0.03559,0.0565 0.02244,0.0907 -0.01312,0.0342 0.03461,0.12485 0.106008,0.20165 0.0714,0.0768 0.106151,0.14756 0.07722,0.15719 -0.02893,0.01 -0.04071,0.0486 -0.02606,0.0866 0.01463,0.038 0.04625,0.0572 0.07013,0.0424 0.02389,-0.0148 0.04339,0 0.04339,0.0314 0,0.0788 0.342053,0.78659 0.39751,0.8225 0.02426,0.0159 0.03944,0.0484 0.03373,0.0725 -0.0057,0.024 0.01844,0.10922 0.05369,0.18902 0.03528,0.0798 0.05923,0.17445 0.05317,0.21036 -0.0061,0.0358 0.01048,0.0521 0.03676,0.0359 0.02627,-0.0162 0.0622,0.0358 0.07976,0.1155 0.01757,0.0797 0.05203,0.15734 0.07666,0.17251 0.02463,0.0152 0.0448,0.072 0.0448,0.12629 0,0.0543 0.03013,0.16726 0.06696,0.25108 0.03686,0.0838 0.102481,0.23212 0.145804,0.32956 0.04335,0.0974 0.123013,0.32597 0.176988,0.50782 0.05394,0.18186 0.116874,0.36457 0.139805,0.40602 0.06583,0.11885 0.473994,1.82463 0.452827,1.89244 -0.0056,0.0183 -0.01447,0.10534 -0.01939,0.19346 -0.006,0.10262 -0.06209,0.21664 -0.156104,0.3174 -0.08079,0.0864 -0.127529,0.15716 -0.103929,0.15716 0.0236,0 -0.0039,0.0435 -0.06121,0.0967 -0.161573,0.15007 -0.387702,0.12414 -0.636447,-0.073 -0.11712,-0.0928 -0.252799,-0.16881 -0.301448,-0.16881 -0.04865,0 -0.111831,-0.0435 -0.140406,-0.0967 -0.0291,-0.0542 -0.101529,-0.0967 -0.164923,-0.0967 -0.120227,0 -0.695465,-0.51061 -0.669785,-0.59453 0.0078,-0.0254 -0.01844,-0.0335 -0.05817,-0.0183 -0.04635,0.0176 -0.08431,-0.0106 -0.105905,-0.0787 -0.01852,-0.0585 -0.106926,-0.19188 -0.196498,-0.29644 -0.08957,-0.10453 -0.16284,-0.21827 -0.16284,-0.25277 0,-0.0346 -0.05271,-0.0971 -0.117123,-0.13924 -0.06438,-0.0421 -0.152718,-0.15141 -0.196287,-0.24296 -0.04357,-0.0915 -0.105444,-0.16672 -0.137546,-0.16718 -0.04251,0 -0.04152,-0.0113 0.0037,-0.0401 0.04815,-0.0303 0.03997,-0.0672 -0.03637,-0.16397 -0.05415,-0.0687 -0.09842,-0.15061 -0.09842,-0.18214 0,-0.0901 -0.164219,-0.27499 -0.232092,-0.26138 -0.03376,0.007 -0.03902,0 -0.01167,-0.0123 0.02734,-0.0134 0.04974,-0.0567 0.04974,-0.0959 0,-0.0393 -0.02183,-0.0579 -0.04851,-0.0415 -0.02667,0.0166 -0.04851,-0.005 -0.04851,-0.0475 0,-0.0741 -0.174485,-0.35581 -0.258339,-0.41716 -0.02204,-0.0162 -0.03492,-0.0597 -0.02851,-0.0967 0.01736,-0.10076 -0.05694,-0.33334 -0.106503,-0.33334 -0.02379,0 -0.04318,-0.0402 -0.04318,-0.0893 0,-0.0491 -0.04368,-0.12859 -0.09701,-0.17674 -0.05337,-0.0481 -0.09701,-0.11677 -0.09701,-0.15254 0,-0.0358 -0.0231,-0.0651 -0.05137,-0.0651 -0.02826,0 -0.03824,-0.0212 -0.02225,-0.047 0.01601,-0.0257 -0.009,-0.11832 -0.05549,-0.20552 -0.04653,-0.0872 -0.07927,-0.18581 -0.07267,-0.21908 0.0066,-0.0332 -0.0073,-0.0604 -0.0309,-0.0604 -0.02358,0 -0.07285,-0.0925 -0.109609,-0.20556 -0.03672,-0.11307 -0.09236,-0.2273 -0.123614,-0.2539 -0.03126,-0.0265 -0.07024,-0.12492 -0.08661,-0.21851 -0.01632,-0.0936 -0.07211,-0.24899 -0.123896,-0.34533 -0.05179,-0.0964 -0.081,-0.18839 -0.06491,-0.20444 0.01611,-0.0159 -0.0087,-0.071 -0.05503,-0.12213 -0.06234,-0.0687 -0.08078,-0.15949 -0.07077,-0.3477 0.0076,-0.14234 -0.0083,-0.26193 -0.03591,-0.27111 -0.03073,-0.0102 -0.03718,-0.1114 -0.01704,-0.26779 0.01778,-0.13825 0.02231,-0.2897 0.01005,-0.33648 -0.01228,-0.0468 0.02371,-0.16298 0.08005,-0.25816 0.0563,-0.0952 0.102412,-0.20426 0.102412,-0.2424 0,-0.0382 0.04364,-0.0966 0.09701,-0.12978 0.05334,-0.0332 0.09698,-0.0785 0.09698,-0.10062 0,-0.052 0.08675,-0.13342 0.260739,-0.24454 0.102938,-0.0658 0.148836,-0.074 0.175154,-0.0314 0.02564,0.0414 0.04396,0.036 0.06519,-0.0191 0.01619,-0.0421 0.05323,-0.0766 0.0823,-0.0766 z m -17.210441,1.00341 c 0.242958,-0.004 0.616585,0.0275 0.596477,0.0601 -0.017,0.0275 0.0025,0.0355 0.04558,0.019 0.04138,-0.0159 0.07528,-0.005 0.07528,0.0247 0,0.0296 0.02247,0.0536 0.04985,0.0536 0.102835,0 0.386715,0.30744 0.386715,0.41881 0,0.0622 0.01651,0.11317 0.03665,0.11317 0.21022,0 0.242746,1.43934 0.04131,1.82775 -0.0429,0.0827 -0.07796,0.19505 -0.07796,0.24955 0,0.0545 -0.0194,0.0991 -0.04311,0.0991 -0.02371,0 -0.05757,0.0768 -0.07521,0.1706 -0.01767,0.0938 -0.05285,0.15787 -0.07817,0.14224 -0.02533,-0.0155 -0.04604,0.0166 -0.04604,0.0719 0,0.0551 -0.02021,0.13801 -0.04498,0.18423 -0.07902,0.14732 -0.252906,0.53865 -0.256857,0.57799 -0.0021,0.0208 -0.0387,0.0645 -0.08135,0.0969 -0.04269,0.0325 -0.05789,0.0597 -0.03373,0.0605 0.02413,0 0.0069,0.0423 -0.03838,0.0922 -0.04526,0.0499 -0.0768,0.10975 -0.0701,0.133 0.01079,0.0375 -0.09031,0.29153 -0.201224,0.50528 -0.0217,0.0418 -0.09807,0.19417 -0.169686,0.33856 -0.07161,0.1444 -0.150142,0.29514 -0.174484,0.33504 -0.02438,0.0399 -0.07955,0.15416 -0.12259,0.25393 -0.04304,0.0998 -0.09627,0.18136 -0.118251,0.18136 -0.02198,0 -0.05256,0.0397 -0.06802,0.0882 -0.01545,0.0485 -0.06639,0.13014 -0.1131,0.18136 -0.04674,0.0513 -0.12566,0.1845 -0.175472,0.29623 -0.04978,0.11172 -0.153141,0.2588 -0.229729,0.32685 -0.07659,0.068 -0.139277,0.14305 -0.139277,0.16672 0,0.0866 -1.070574,1.21373 -1.152842,1.21373 -0.02716,0 -0.06287,0.0349 -0.07927,0.0775 -0.01707,0.0443 -0.06086,0.0657 -0.10213,0.0499 -0.04392,-0.0169 -0.07239,3.5e-4 -0.07239,0.0434 0,0.0435 -0.04695,0.071 -0.121285,0.071 -0.06668,0 -0.121249,0.0219 -0.121249,0.0484 0,0.0265 -0.04237,0.0484 -0.09416,0.0484 -0.05179,0 -0.107632,0.0219 -0.124107,0.0484 -0.07701,0.12425 -0.326178,-0.0148 -0.575804,-0.32109 -0.102975,-0.12637 -0.177165,-0.93638 -0.08576,-0.93638 0.07296,0 0.07094,-0.15854 -0.0028,-0.2322 -0.04526,-0.0451 -0.04526,-0.058 0,-0.058 0.03235,0 0.05817,-0.0645 0.05817,-0.1451 0,-0.0798 0.02184,-0.1451 0.04851,-0.1451 0.02667,0 0.04851,-0.0762 0.04851,-0.16926 0,-0.0931 0.02011,-0.16926 0.04473,-0.16926 0.05189,0 0.140864,-0.24903 0.164183,-0.45946 0.0088,-0.0798 0.0418,-0.19262 0.07331,-0.25072 0.0315,-0.0581 0.05733,-0.16284 0.05733,-0.23266 0,-0.0698 0.01976,-0.11465 0.04396,-0.0997 0.0242,0.0148 0.03263,-0.0166 0.01866,-0.0697 -0.01422,-0.0541 -0.0018,-0.0968 0.02872,-0.0968 0.02977,0 0.05419,-0.0205 0.05419,-0.0453 0,-0.025 0.02512,-0.10647 0.05588,-0.18137 0.03076,-0.0749 0.06392,-0.17794 0.0737,-0.22905 0.0098,-0.0511 0.03722,-0.11642 0.06092,-0.1451 0.07031,-0.0851 0.238865,-0.59934 0.206904,-0.63119 -0.01619,-0.0162 0.01542,-0.041 0.0702,-0.0553 0.07497,-0.0194 0.09405,-0.055 0.07712,-0.14322 -0.01291,-0.0674 3.44e-4,-0.11723 0.03164,-0.11723 0.02977,0 0.05419,-0.0423 0.05419,-0.0939 0,-0.0516 0.02184,-0.10731 0.04851,-0.12375 0.02667,-0.0166 0.04851,-0.0721 0.04851,-0.12376 0,-0.0516 0.02184,-0.0939 0.04851,-0.0939 0.02667,0 0.04851,-0.0456 0.04851,-0.10139 0,-0.0557 0.04307,-0.16168 0.09578,-0.23548 0.115005,-0.16108 0.221756,-0.40195 0.237701,-0.53654 0.0032,-0.0282 0.03136,-0.0357 0.06223,-0.0166 0.03828,0.0236 0.04759,0.004 0.02935,-0.0673 -0.01471,-0.0561 -0.0049,-0.10922 0.0217,-0.11808 0.05465,-0.0183 0.181928,-0.35496 0.183057,-0.48433 3.44e-4,-0.0465 0.02618,-0.0846 0.05729,-0.0846 0.03111,0 0.04339,-0.0131 0.0272,-0.0293 -0.01619,-0.0162 0.01295,-0.0747 0.0647,-0.13007 0.05175,-0.0554 0.09476,-0.12386 0.09571,-0.15208 0.0011,-0.0282 0.0423,-0.13698 0.09197,-0.24172 0.04971,-0.10478 0.07821,-0.22448 0.06339,-0.266 -0.01485,-0.0418 -0.0098,-0.0601 0.01118,-0.0413 0.02092,0.0187 0.09529,-0.0791 0.165312,-0.21763 0.150636,-0.29802 0.214736,-0.37285 0.31944,-0.37285 0.04276,0 0.08971,-0.0314 0.104387,-0.0695 0.01542,-0.0402 0.0593,-0.0571 0.10347,-0.0402 0.04724,0.018 0.06445,0.01 0.0448,-0.0222 -0.01905,-0.0307 0.01189,-0.0501 0.07694,-0.0484 0.05983,0 0.130669,-0.004 0.157339,-0.0109 0.03253,-0.009 0.09902,-0.0138 0.180022,-0.0148 z m 7.77487,0.39916 c 0.253435,0 0.458152,0.0162 0.455012,0.0363 -0.02039,0.12863 0.0079,0.15664 0.100048,0.0993 0.07662,-0.0477 0.110702,-0.0444 0.181892,0.018 0.04815,0.0422 0.136737,0.0917 0.196744,0.10996 0.06004,0.0183 0.109432,0.059 0.109891,0.0904 3.44e-4,0.0339 0.01997,0.0275 0.04777,-0.0155 0.03133,-0.0484 0.04727,-0.0524 0.04773,-0.012 3.44e-4,0.0339 0.06075,0.0605 0.137089,0.0605 0.075,0 0.180058,0.0406 0.233433,0.0902 0.05341,0.0496 0.150319,0.11786 0.215336,0.1517 0.140476,0.0731 0.401425,0.37267 0.417054,0.47864 0.006,0.0412 0.04498,0.0995 0.08647,0.12979 0.04152,0.0303 0.07553,0.0866 0.07553,0.12517 0,0.0385 0.03196,0.11225 0.07112,0.1639 0.03919,0.0516 0.07228,0.14831 0.07352,0.2148 0.0018,0.096 0.01203,0.10598 0.04935,0.0484 0.03475,-0.0536 0.04741,-0.0219 0.04851,0.1209 0.0011,0.14291 0.01379,0.17448 0.04851,0.12089 0.03757,-0.0579 0.0483,-0.0482 0.05334,0.0484 0.0035,0.0665 0.0025,0.159 -0.0021,0.20556 -0.0052,0.0508 0.02427,0.0846 0.07369,0.0846 0.06985,0 0.07821,0.0349 0.05465,0.22973 -0.01545,0.12778 -0.01108,0.18747 0.0099,0.13452 0.02628,-0.0665 0.04808,0.007 0.07207,0.24183 0.01894,0.18535 0.04459,0.39144 0.05704,0.45794 0.02043,0.10904 0.01771,0.11141 -0.02737,0.0243 -0.03948,-0.0764 -0.04558,-0.0523 -0.02889,0.11437 0.01838,0.18341 0.0018,0.23255 -0.12827,0.37483 -0.145203,0.1591 -0.191488,0.18683 -0.236361,0.14206 -0.01193,-0.012 -0.119309,-0.0272 -0.238548,-0.0339 -0.119275,-0.007 -0.245886,-0.0407 -0.281376,-0.0756 -0.03549,-0.0349 -0.08304,-0.0519 -0.105727,-0.0379 -0.02268,0.0141 -0.05366,0.005 -0.06886,-0.0194 -0.0152,-0.0247 -0.07475,-0.0321 -0.132256,-0.0173 -0.07842,0.0205 -0.09458,0.0113 -0.06474,-0.0369 0.02854,-0.046 0.01803,-0.0559 -0.03694,-0.0349 -0.04413,0.0169 -0.08805,0 -0.103434,-0.0401 -0.01503,-0.0391 -0.09045,-0.0695 -0.17205,-0.0695 -0.09207,0 -0.205669,-0.0527 -0.30988,-0.14397 -0.09049,-0.0792 -0.178541,-0.12999 -0.195721,-0.11288 -0.01718,0.0173 -0.03119,0.004 -0.03119,-0.0303 0,-0.0339 -0.03161,-0.0496 -0.07027,-0.0349 -0.04254,0.0162 -0.0822,-0.0102 -0.10033,-0.0673 -0.01651,-0.0519 -0.04755,-0.0943 -0.06907,-0.0943 -0.02152,0 -0.173672,-0.1197 -0.338102,-0.26599 -0.164465,-0.1463 -0.31884,-0.266 -0.343147,-0.266 -0.02431,0 -0.104034,-0.0553 -0.177165,-0.12291 -0.07313,-0.0676 -0.208844,-0.18185 -0.301554,-0.25389 -0.269522,-0.20959 -0.812059,-0.76659 -0.655744,-0.67324 0.03535,0.0212 0.06593,-0.0386 0.08696,-0.16965 0.01785,-0.11123 0.05408,-0.22829 0.0805,-0.26007 0.02646,-0.0317 0.04381,-0.0763 0.03856,-0.0991 -0.0052,-0.0226 0.01584,-0.10262 0.04681,-0.17752 0.03097,-0.0749 0.05637,-0.16164 0.05637,-0.19279 0,-0.0869 0.252977,-0.56582 0.298909,-0.56582 0.0223,0 0.08428,-0.0435 0.137618,-0.0967 0.0834,-0.0832 0.161714,-0.0967 0.557813,-0.0967 z m -20.470798,1.08631 c -0.0088,-0.004 -0.01496,0.0247 -0.01496,0.0744 0,0.0665 0.01097,0.0937 0.02445,0.0605 0.01344,-0.0332 0.01344,-0.0877 0,-0.12089 -0.0035,-0.008 -0.0066,-0.0131 -0.0095,-0.0141 z m 16.899875,0.6126 c 0.02639,0 0.05094,0.004 0.06735,0.0106 0.03284,0.0134 -0.0058,0.0233 -0.08583,0.0222 -0.08001,0 -0.106857,-0.012 -0.05969,-0.024 0.0236,-0.006 0.05179,-0.009 0.07818,-0.009 z m 9.888043,0.19212 c 0.0047,0 0.0077,0.008 0.009,0.0268 0.0028,0.0387 0.09208,0.0479 0.290478,0.03 0.340818,-0.0307 0.480446,0 0.63528,0.13215 0.06339,0.0548 0.143124,0.089 0.177165,0.076 0.03404,-0.0131 0.07419,-0.004 0.08926,0.0205 0.01503,0.0243 0.06071,0.0314 0.101457,0.0159 0.04872,-0.0187 0.08333,0.007 0.101071,0.0746 0.01484,0.0566 0.04307,0.10304 0.06262,0.10304 0.01955,0 0.08752,0.1306 0.151096,0.2902 0.0636,0.1596 0.129714,0.29019 0.146965,0.29019 0.01722,0 0.05803,0.0707 0.09066,0.15717 0.100507,0.26652 0.163618,0.39553 0.236749,0.48365 0.0386,0.0465 0.05507,0.0846 0.03655,0.0846 -0.01852,0 0.0114,0.0482 0.06643,0.1071 0.05503,0.0589 0.126365,0.19494 0.158398,0.30229 0.03203,0.10736 0.106431,0.28223 0.165417,0.38862 0.05895,0.1064 0.189688,0.35666 0.290547,0.55619 0.100859,0.1995 0.200695,0.37003 0.221755,0.37896 0.02109,0.009 0.02617,0.0358 0.0113,0.0598 -0.02516,0.0406 0.0032,0.0867 0.16069,0.26159 0.0338,0.0375 0.05715,0.0858 0.05189,0.10721 -0.0053,0.0215 0.0629,0.19117 0.151376,0.37736 0.08851,0.1862 0.16143,0.3712 0.162102,0.4111 7.94e-4,0.0399 0.03083,0.0944 0.0671,0.121 0.03623,0.0268 0.07087,0.1191 0.07701,0.20546 0.0065,0.0917 0.03757,0.15709 0.07476,0.15709 0.03499,0 0.05831,0.0382 0.05172,0.0847 -0.0066,0.0465 0.0063,0.1608 0.02872,0.25389 0.04974,0.20666 0.06135,0.53203 0.01894,0.53203 -0.01704,0 -0.0453,0.0762 -0.06283,0.16926 -0.01749,0.0931 -0.05267,0.1693 -0.07814,0.1693 -0.02548,0 -0.04632,0.0229 -0.04632,0.0512 0,0.0282 0.02727,0.0349 0.06061,0.0148 0.0417,-0.0251 0.04001,-0.0109 -0.0055,0.045 -0.03634,0.0447 -0.08548,0.0694 -0.109114,0.0548 -0.02368,-0.0145 -0.04301,0.005 -0.04301,0.0437 0,0.0769 -0.09546,0.12629 -0.258657,0.13377 -0.0967,0.005 -0.09539,0.008 0.01611,0.0435 0.09539,0.0303 0.06696,0.0398 -0.133387,0.0436 -0.140652,0.004 -0.254669,-0.0169 -0.254669,-0.0436 0,-0.0265 0.01638,-0.0458 0.03641,-0.0427 0.02,0.004 0.06911,0 0.109115,-0.005 0.07281,-0.0113 -0.134443,-0.0668 -0.52123,-0.13952 -0.113276,-0.0212 -0.244228,-0.0696 -0.291041,-0.10732 -0.04681,-0.0377 -0.166934,-0.10989 -0.266946,-0.1604 -0.10005,-0.0505 -0.181928,-0.12108 -0.181928,-0.15681 0,-0.0357 -0.02559,-0.0649 -0.05683,-0.0649 -0.03126,0 -0.09127,-0.031 -0.133387,-0.0688 -0.04212,-0.0378 -0.109289,-0.0759 -0.149294,-0.0846 -0.04004,-0.009 -0.120862,-0.0648 -0.179636,-0.12468 -0.05874,-0.0599 -0.140581,-0.10883 -0.181891,-0.10883 -0.04127,0 -0.07567,-0.0272 -0.07645,-0.0604 -7.94e-4,-0.0332 -0.0896,-0.15839 -0.19752,-0.27809 -0.107915,-0.11973 -0.227965,-0.2775 -0.2667,-0.35066 -0.03873,-0.0731 -0.0876,-0.133 -0.108656,-0.133 -0.02103,0 -0.0822,-0.0816 -0.135853,-0.18136 -0.16355,-0.30417 -0.232058,-0.41409 -0.320289,-0.51418 -0.04653,-0.0527 -0.130032,-0.18439 -0.185489,-0.29263 -0.05549,-0.10819 -0.134162,-0.22253 -0.174908,-0.254 -0.04067,-0.0314 -0.06057,-0.079 -0.04413,-0.10551 0.01643,-0.0265 0.0059,-0.063 -0.02339,-0.081 -0.02935,-0.018 -0.0949,-0.12301 -0.145732,-0.23315 -0.0508,-0.1101 -0.112641,-0.23279 -0.137443,-0.27269 -0.02479,-0.0399 -0.08022,-0.15321 -0.123153,-0.25185 -0.04297,-0.0986 -0.0997,-0.19269 -0.126119,-0.20895 -0.02638,-0.0162 -0.03581,-0.0492 -0.02093,-0.0732 0.01484,-0.024 -0.0067,-0.10845 -0.04776,-0.18768 -0.0411,-0.0793 -0.07472,-0.1911 -0.07472,-0.24846 0,-0.0662 -0.02331,-0.0954 -0.06367,-0.0799 -0.046,0.0176 -0.05782,-0.0145 -0.04293,-0.11571 0.01135,-0.077 0,-0.14009 -0.02537,-0.14009 -0.04011,0 -0.05002,-0.0533 -0.06519,-0.35062 -0.0035,-0.0694 0.03609,-0.33705 0.07881,-0.53248 0.01606,-0.0734 0.04903,-0.12118 0.07324,-0.1063 0.02421,0.0148 0.0345,0 0.02294,-0.0359 -0.02664,-0.0798 0.424071,-0.42566 0.554776,-0.42566 0.05387,0 0.09797,-0.019 0.09797,-0.0422 0,-0.0233 0.08548,-0.0558 0.189936,-0.0724 0.104492,-0.0166 0.201012,-0.0575 0.214487,-0.0908 0.0082,-0.0201 0.0146,-0.0307 0.01934,-0.0314 z m -10.589189,0.88992 c 0.07765,-0.004 0.138924,0.008 0.149578,0.0247 0.01425,0.0229 0.06904,0.0335 0.12185,0.0233 0.05278,-0.0102 0.09596,0.005 0.09596,0.0328 0,0.0286 0.05383,0.0409 0.122414,0.0279 0.06731,-0.0127 0.134126,-0.005 0.148449,0.0187 0.01432,0.0229 0.122943,0.086 0.24137,0.13981 0.118569,0.0538 0.215336,0.13116 0.215336,0.17201 0,0.0408 0.02187,0.0607 0.04861,0.0442 0.02674,-0.0166 0.07101,0.0314 0.09842,0.10597 0.02741,0.0748 0.06378,0.16859 0.08082,0.20849 0.0756,0.17717 -0.02194,0.86582 -0.171273,1.20911 -0.04054,0.0931 -0.08132,0.21209 -0.09066,0.26441 -0.0094,0.0523 -0.04918,0.144 -0.08851,0.20383 -0.0393,0.0598 -0.0714,0.14214 -0.0714,0.18296 0,0.0409 -0.02184,0.0743 -0.04851,0.0743 -0.02671,0 -0.04851,0.0419 -0.04851,0.0932 0,0.0513 -0.03274,0.12598 -0.07278,0.16588 -0.04001,0.0399 -0.07274,0.10668 -0.07274,0.14849 0,0.0418 -0.02007,0.0761 -0.04463,0.0761 -0.02455,0 -0.05906,0.0653 -0.07666,0.14509 -0.01757,0.0798 -0.05433,0.14507 -0.08174,0.14507 -0.02745,0 -0.03799,0.031 -0.0235,0.0686 0.0145,0.0377 -0.005,0.0806 -0.04329,0.0952 -0.03835,0.0148 -0.06974,0.06 -0.06974,0.10071 0,0.0408 -0.02311,0.074 -0.05133,0.074 -0.02826,0 -0.03644,0.0243 -0.0181,0.0538 0.01831,0.0296 0.01129,0.0677 -0.01563,0.0846 -0.08947,0.0564 -0.500134,0.68796 -0.474345,0.72951 0.01394,0.0226 -0.0077,0.0535 -0.04794,0.0689 -0.04025,0.0155 -0.09465,0.0844 -0.120897,0.15314 -0.02903,0.0762 -0.06957,0.11155 -0.103717,0.0905 -0.03394,-0.0208 -0.043,-0.0134 -0.02293,0.019 0.01887,0.0303 -0.02494,0.0849 -0.101671,0.12641 -0.07415,0.0401 -0.104846,0.0738 -0.06819,0.0749 0.03662,0 -0.08304,0.15508 -0.265924,0.34233 -0.182915,0.18726 -0.350343,0.37225 -0.372145,0.41109 -0.0218,0.0389 -0.06713,0.0707 -0.100683,0.0707 -0.03355,0 -0.125201,0.0531 -0.203694,0.1179 -0.07849,0.0648 -0.164606,0.1234 -0.191276,0.13018 -0.02667,0.007 -0.101564,0.0614 -0.16644,0.12135 -0.06488,0.06 -0.132962,0.0999 -0.151201,0.0886 -0.01827,-0.0113 -0.07225,0.0226 -0.119944,0.0751 -0.04773,0.0526 -0.137901,0.0956 -0.200484,0.0956 -0.06255,0 -0.113771,0.0205 -0.113771,0.0455 0,0.025 -0.103681,0.0584 -0.230399,0.0743 -0.648899,0.0816 -0.64269,0.0815 -0.64269,0.0116 0,-0.0374 -0.04364,-0.10742 -0.09701,-0.15557 -0.05334,-0.0481 -0.09701,-0.11815 -0.09701,-0.15547 0,-0.039 -0.02381,-0.0532 -0.05599,-0.0335 -0.0308,0.0191 -0.04427,0.0148 -0.02992,-0.009 0.01436,-0.024 0.007,-0.18108 -0.01651,-0.34894 -0.03239,-0.23205 -0.02653,-0.33637 0.02427,-0.43529 0.03672,-0.0715 0.08329,-0.24976 0.103434,-0.39606 0.02783,-0.20207 0.0459,-0.24275 0.07504,-0.1693 0.03214,0.081 0.03891,0.0729 0.0418,-0.0497 0.0018,-0.0805 0.03736,-0.1948 0.07888,-0.25389 0.04233,-0.0602 0.05299,-0.10753 0.02427,-0.10753 -0.02819,0 -0.0059,-0.0452 0.04953,-0.10051 0.05542,-0.0552 0.08886,-0.13141 0.07429,-0.16926 -0.01457,-0.0378 -0.0071,-0.0688 0.01658,-0.0688 0.02371,0 0.0793,-0.10883 0.123613,-0.24183 0.04431,-0.133 0.102976,-0.24183 0.130387,-0.24183 0.02738,0 0.0381,-0.0303 0.02385,-0.0672 -0.01422,-0.037 0.0108,-0.10858 0.05553,-0.1591 0.04473,-0.0505 0.0883,-0.12361 0.09691,-0.16245 0.0086,-0.0389 0.07793,-0.20126 0.154058,-0.36086 0.07609,-0.1596 0.167182,-0.37437 0.202354,-0.47731 0.03517,-0.10291 0.115217,-0.2274 0.177905,-0.27658 0.06269,-0.0492 0.10474,-0.11709 0.09342,-0.15095 -0.01132,-0.0339 0.0032,-0.0882 0.03182,-0.12083 0.14725,-0.16633 0.165312,-0.20479 0.140583,-0.29894 -0.01753,-0.0669 -0.0039,-0.10259 0.03951,-0.10337 0.06978,0 0.236079,-0.29135 0.236079,-0.41183 0,-0.0388 0.02184,-0.0705 0.04851,-0.0705 0.02671,0 0.04851,-0.0328 0.04851,-0.0732 0,-0.0403 0.02029,-0.11098 0.04502,-0.15716 0.02473,-0.0462 0.05729,-0.1234 0.07239,-0.17163 0.01602,-0.0513 0.0508,-0.0733 0.08375,-0.053 0.03267,0.0201 0.04332,0.0138 0.02537,-0.0152 -0.03708,-0.0598 0.08417,-0.31613 0.191558,-0.40499 0.04205,-0.0349 0.11871,-0.0698 0.170356,-0.0776 0.05165,-0.008 0.144004,-0.047 0.205282,-0.087 0.06128,-0.0399 0.126012,-0.0581 0.143898,-0.0403 0.01789,0.0176 0.03249,0.005 0.03249,-0.0293 0,-0.0349 0.03157,-0.0496 0.07278,-0.0339 0.04001,0.0152 0.07274,0.006 0.07274,-0.0198 0,-0.0261 0.06004,-0.0465 0.133385,-0.0452 0.07338,0 0.225919,-0.007 0.338984,-0.0198 0.02826,-0.004 0.05595,-0.005 0.08184,-0.005 z m -16.009637,0.42781 c -0.0073,0 -0.01245,0.0166 -0.01394,0.0518 -0.0021,0.051 0.0094,0.0796 0.02547,0.0635 0.01612,-0.0162 0.01789,-0.0577 0.0039,-0.0927 -0.0058,-0.0145 -0.01104,-0.0219 -0.01545,-0.0226 z m 21.611501,0.5696 c 0.01686,0 0.03136,0.005 0.03941,0.013 0.01612,0.0162 -0.01252,0.0275 -0.06364,0.0254 -0.05652,-0.004 -0.06798,-0.0138 -0.02928,-0.0293 0.0175,-0.007 0.03665,-0.01 0.05352,-0.01 z m 16.583767,4.63994 c -0.04198,0.004 -0.112538,0.0265 -0.20814,0.0659 -0.122415,0.0511 -0.17004,0.0543 -0.184502,0.012 -0.01058,-0.0314 -0.02117,0.0145 -0.02363,0.10129 -0.0028,0.0869 0.01553,0.14548 0.04057,0.13014 0.02468,-0.0152 0.04515,-0.005 0.04515,0.0233 0,0.0282 0.04551,0.0965 0.101248,0.15197 0.05539,0.0554 0.115006,0.0868 0.131939,0.0699 0.01693,-0.0169 -0.0013,-0.0528 -0.04057,-0.0796 -0.05115,-0.0349 -0.02574,-0.0397 0.08961,-0.0169 0.112183,0.0222 0.18556,0.01 0.242358,-0.042 0.04516,-0.0405 0.10301,-0.0735 0.129117,-0.0735 0.02611,0 0.05151,-0.0236 0.05715,-0.053 0.0067,-0.0371 0.0019,-0.0369 -0.01659,0 -0.01482,0.0307 -0.05045,0.005 -0.08255,-0.0592 -0.03104,-0.0622 -0.105127,-0.12019 -0.164745,-0.12876 -0.05997,-0.008 -0.09631,-0.0357 -0.08079,-0.0604 0.01976,-0.0321 0.0067,-0.0461 -0.03563,-0.0419 z m -12.714254,3.48009 c -0.03471,3.4e-4 -0.02875,0.0194 0.015,0.0476 0.09317,0.06 0.109961,0.06 0.07274,0 -0.01648,-0.0265 -0.05595,-0.0481 -0.08774,-0.0476 z m -15.316728,4.06777 c 0.01686,0 0.03136,0.005 0.03941,0.013 0.01612,0.0162 -0.01252,0.0275 -0.06364,0.0254 -0.05651,-0.003 -0.06798,-0.0138 -0.02928,-0.0293 0.0175,-0.007 0.03669,-0.01 0.05352,-0.009 z m 0.388056,0 c 0.01683,0 0.03136,0.005 0.03941,0.013 0.01612,0.0162 -0.01252,0.0275 -0.06368,0.0254 -0.05652,-0.003 -0.06794,-0.0138 -0.02925,-0.0293 0.0175,-0.007 0.03665,-0.01 0.05352,-0.009 z"
       style="fill:url(#linearGradient62193);fill-opacity:1;fill-rule:nonzero;stroke:none;stroke-width:0.35277775"
       id="path16798"
       inkscape:export-filename="/home/sandrine/Documents/TAF FIGLI/APF_site/EXE/ACCUEIL/mains_partenaires.png"
       inkscape:export-xdpi="300"
       inkscape:export-ydpi="300" />
  </g>
</svg>
