<?xml version="1.0" encoding="UTF-8" standalone="no"?>
<!-- Created with Inkscape (http://www.inkscape.org/) -->

<svg
   xmlns:osb="http://www.openswatchbook.org/uri/2009/osb"
   xmlns:dc="http://purl.org/dc/elements/1.1/"
   xmlns:cc="http://creativecommons.org/ns#"
   xmlns:rdf="http://www.w3.org/1999/02/22-rdf-syntax-ns#"
   xmlns:svg="http://www.w3.org/2000/svg"
   xmlns="http://www.w3.org/2000/svg"
   xmlns:sodipodi="http://sodipodi.sourceforge.net/DTD/sodipodi-0.dtd"
   xmlns:inkscape="http://www.inkscape.org/namespaces/inkscape"
   width="16.165653mm"
   height="17.638926mm"
   viewBox="0 0 16.165653 17.638926"
   version="1.1"
   id="svg6841"
   inkscape:version="0.92.3 (2405546, 2018-03-11)"
   sodipodi:docname="pdf-document.svg">
  <defs
     id="defs6835">
    <linearGradient
       id="linearGradient62163"
       osb:paint="solid"
       gradientTransform="matrix(0.35277776,0,0,-0.35277776,-369.71925,114.50776)">
      <stop
         style="stop-color:#1a1135;stop-opacity:1;"
         offset="0"
         id="stop62161" />
    </linearGradient>
  </defs>
  <sodipodi:namedview
     id="base"
     pagecolor="#ffffff"
     bordercolor="#666666"
     borderopacity="1.0"
     inkscape:pageopacity="0.0"
     inkscape:pageshadow="2"
     inkscape:zoom="0.35"
     inkscape:cx="-502.30788"
     inkscape:cy="-66.66659"
     inkscape:document-units="mm"
     inkscape:current-layer="layer1"
     showgrid="false"
     inkscape:window-width="1600"
     inkscape:window-height="870"
     inkscape:window-x="1600"
     inkscape:window-y="0"
     inkscape:window-maximized="1" />
  <metadata
     id="metadata6838">
    <rdf:RDF>
      <cc:Work
         rdf:about="">
        <dc:format>image/svg+xml</dc:format>
        <dc:type
           rdf:resource="http://purl.org/dc/dcmitype/StillImage" />
        <dc:title></dc:title>
      </cc:Work>
    </rdf:RDF>
  </metadata>
  <g
     inkscape:label="Calque 1"
     inkscape:groupmode="layer"
     id="layer1"
     transform="translate(-61.464792,-113.55554)">
    <path
       inkscape:connector-curvature="0"
       d="m 65.924397,120.16285 h -1.311088 c -0.269173,0 -0.487384,0.21664 -0.487384,0.48384 v 3.45655 c 0,0.26719 0.218211,0.48387 0.487384,0.48387 0.269176,0 0.487387,-0.21668 0.487387,-0.48387 v -1.24443 h 0.823701 c 0.748348,-0.004 1.354102,-0.60504 1.357841,-1.34796 0.004,-0.3587 -0.13783,-0.70386 -0.393347,-0.95751 -0.255516,-0.25365 -0.603179,-0.3944 -0.964494,-0.39049 z m 0,1.7283 h -0.823701 v -0.76059 h 0.823701 c 0.102305,-0.002 0.201154,0.0369 0.273544,0.10872 0.07239,0.0718 0.111936,0.16997 0.109537,0.27157 0,0.21001 -0.17152,0.3803 -0.383081,0.3803 z m 3.844501,-1.73408 h -1.315966 c -0.26917,0 -0.487363,0.2166 -0.487363,0.48383 v 3.46819 c 0,0.2672 0.218193,0.48387 0.487363,0.48387 h 1.315966 c 0.753675,0 1.364686,-0.60656 1.364686,-1.3548 v -1.73408 c -0.0043,-0.74521 -0.614045,-1.34705 -1.364686,-1.34701 z m 0.38989,3.08493 c 0,0.21382 -0.174554,0.38707 -0.38989,0.38707 h -0.828569 v -2.50433 h 0.828569 c 0.215336,0 0.38989,0.17328 0.38989,0.38706 z m 1.674672,0.8709 v -3.472 c 0,-0.26723 0.218263,-0.48383 0.487398,-0.48383 h 2.188351 c 0.269134,0 0.487397,0.2166 0.487397,0.48383 0,0.26723 -0.218263,0.48384 -0.487397,0.48384 h -1.70487 v 0.76641 h 1.129771 c 0.269134,0 0.487363,0.2166 0.487363,0.48383 0,0.26723 -0.218229,0.48383 -0.487363,0.48383 h -1.129771 v 1.25028 c 0,0.2672 -0.218263,0.48387 -0.487397,0.48387 -0.269134,0 -0.487398,-0.21667 -0.487398,-0.48387 z m 5.796985,-8.22138 c -0.0021,-1.28962 -1.055017,-2.33439 -2.354086,-2.33598 H 63.818871 c -1.299072,0.002 -2.351931,1.04636 -2.354079,2.33598 v 12.96692 c 0.0021,1.28961 1.055007,2.33436 2.354079,2.33602 h 8.761278 c 0.06431,2.9e-4 0.128059,-0.0126 0.187149,-0.0378 0.05906,-0.0242 0.112677,-0.0598 0.157903,-0.10446 l 4.560958,-4.52779 c 0.04523,-0.0451 0.08132,-0.0982 0.106257,-0.15678 0.02487,-0.0588 0.03782,-0.12202 0.03803,-0.18584 z m -15.190879,12.96692 v -12.96692 c 0.0018,-0.75541 0.618356,-1.36724 1.379305,-1.3683 h 11.457488 c 0.760906,0.001 1.377633,0.61289 1.379291,1.3683 v 9.80645 h -2.2098 c -1.299281,0.002 -2.35204,1.04708 -2.353098,2.33698 v 2.1918 h -8.273881 c -0.760949,-0.001 -1.377696,-0.61288 -1.379305,-1.36831 z m 13.525944,-2.19277 -2.897998,2.87687 v -1.50759 c 7.14e-4,-0.75562 0.617149,-1.36822 1.378338,-1.36928 z"
       style="fill:url(#linearGradient62163);fill-opacity:1;fill-rule:nonzero;stroke:none;stroke-width:0.35277775"
       id="path72069"
       inkscape:export-filename="/home/sandrine/Documents/TAF FIGLI/APF_site/EXE/AUTRES_PAGES/PNG_autrespages/picto_pdf.png"
       inkscape:export-xdpi="300"
       inkscape:export-ydpi="300" />
  </g>
</svg>
