<?xml version="1.0" encoding="UTF-8" standalone="no"?>
<!-- Created with Inkscape (http://www.inkscape.org/) -->

<svg
   xmlns:osb="http://www.openswatchbook.org/uri/2009/osb"
   xmlns:dc="http://purl.org/dc/elements/1.1/"
   xmlns:cc="http://creativecommons.org/ns#"
   xmlns:rdf="http://www.w3.org/1999/02/22-rdf-syntax-ns#"
   xmlns:svg="http://www.w3.org/2000/svg"
   xmlns="http://www.w3.org/2000/svg"
   xmlns:sodipodi="http://sodipodi.sourceforge.net/DTD/sodipodi-0.dtd"
   xmlns:inkscape="http://www.inkscape.org/namespaces/inkscape"
   width="370.98993mm"
   height="166.21706mm"
   viewBox="0 0 370.98993 166.21706"
   version="1.1"
   id="svg9340"
   inkscape:version="0.92.3 (2405546, 2018-03-11)"
   sodipodi:docname="runners.html">
  <defs
     id="defs9334">
    <linearGradient
       id="linearGradient64563"
       osb:paint="solid"
       gradientTransform="translate(-69.121941,-58.575001)">
      <stop
         style="stop-color:#59b6a4;stop-opacity:1;"
         offset="0"
         id="stop64561" />
    </linearGradient>
    <linearGradient
       id="linearGradient62145"
       osb:paint="solid"
       gradientTransform="matrix(0.75000002,0,0,0.75000002,-2506.5047,85.543559)">
      <stop
         style="stop-color:#9ee2d1;stop-opacity:1;"
         offset="0"
         id="stop62143" />
    </linearGradient>
    <linearGradient
       id="linearGradient62151"
       osb:paint="solid"
       gradientTransform="translate(-69.121941,-58.575001)">
      <stop
         style="stop-color:#c3ca00;stop-opacity:1;"
         offset="0"
         id="stop62149" />
    </linearGradient>
  </defs>
  <sodipodi:namedview
     id="base"
     pagecolor="#ffffff"
     bordercolor="#666666"
     borderopacity="1.0"
     inkscape:pageopacity="0.0"
     inkscape:pageshadow="2"
     inkscape:zoom="0.35"
     inkscape:cx="151.08332"
     inkscape:cy="371.25382"
     inkscape:document-units="mm"
     inkscape:current-layer="layer1"
     showgrid="false"
     inkscape:window-width="1600"
     inkscape:window-height="870"
     inkscape:window-x="1600"
     inkscape:window-y="0"
     inkscape:window-maximized="1" />
  <metadata
     id="metadata9337">
    <rdf:RDF>
      <cc:Work
         rdf:about="">
        <dc:format>image/svg+xml</dc:format>
        <dc:type
           rdf:resource="http://purl.org/dc/dcmitype/StillImage" />
        <dc:title></dc:title>
      </cc:Work>
    </rdf:RDF>
  </metadata>
  <g
     inkscape:label="Calque 1"
     inkscape:groupmode="layer"
     id="layer1"
     transform="translate(111.41163,-80.843848)">
    <g
       id="g71481"
       transform="matrix(0.35277777,0,0,-0.35277777,-63.89756,740.52243)"
       inkscape:export-filename="../../../../home/sandrine/illus_eve.html"
       inkscape:export-xdpi="300"
       inkscape:export-ydpi="300">
      <path
         inkscape:connector-curvature="0"
         style="color:#000000;font-style:normal;font-variant:normal;font-weight:normal;font-stretch:normal;font-size:medium;line-height:normal;font-family:sans-serif;font-variant-ligatures:normal;font-variant-position:normal;font-variant-caps:normal;font-variant-numeric:normal;font-variant-alternates:normal;font-feature-settings:normal;text-indent:0;text-align:start;text-decoration:none;text-decoration-line:none;text-decoration-style:solid;text-decoration-color:#000000;letter-spacing:normal;word-spacing:normal;text-transform:none;writing-mode:lr-tb;direction:ltr;text-orientation:mixed;dominant-baseline:auto;baseline-shift:baseline;text-anchor:start;white-space:normal;shape-padding:0;clip-rule:nonzero;display:inline;overflow:visible;visibility:visible;opacity:1;isolation:auto;mix-blend-mode:normal;color-interpolation:sRGB;color-interpolation-filters:linearRGB;solid-color:#000000;solid-opacity:1;vector-effect:none;fill:url(#linearGradient64563);fill-opacity:1;fill-rule:nonzero;stroke:none;stroke-linecap:butt;stroke-linejoin:miter;stroke-miterlimit:10;stroke-dasharray:11.3386, 5.66929;stroke-dashoffset:0;stroke-opacity:1;color-rendering:auto;image-rendering:auto;shape-rendering:auto;text-rendering:auto;enable-background:accumulate"
         d="m 219.86328,1500.5664 -0.91601,1.5859 2.45507,1.418 0.91602,-1.5859 z m -3.78906,6.4414 c -1.94339,3.2218 -3.94376,6.4096 -6.00586,9.5547 l 2.37109,1.5547 c 2.08249,-3.1762 4.10165,-6.3938 6.0625,-9.6445 z m -9.14258,14.25 c -2.11056,3.1107 -4.2892,6.1774 -6.52148,9.207 l 2.2832,1.6817 c 2.25159,-3.0558 4.45046,-6.1524 6.58398,-9.2969 z m -9.91602,13.7168 c -2.28532,2.9851 -4.63462,5.9215 -7.03906,8.8145 l 2.18164,1.8125 c 2.42717,-2.9203 4.79966,-5.8874 7.10938,-8.9043 z m -10.68945,13.1172 c -2.45612,2.8457 -4.97432,5.6394 -7.54687,8.3828 l 2.06836,1.9395 c 2.59792,-2.7705 5.14221,-5.5941 7.625,-8.4707 z m -11.44726,12.459 c -2.62269,2.6933 -5.30396,5.3312 -8.03907,7.9101 l 1.94532,2.0625 c 2.76446,-2.6066 5.47422,-5.272 8.125,-7.9941 z m -12.17774,11.7441 c -2.7845,2.5267 -5.62184,4.9976 -8.50781,7.4082 l 1.81836,2.1739 c 2.91543,-2.4353 5.78226,-4.9295 8.5957,-7.4825 z m -12.875,10.9785 c -2.93061,2.3537 -5.91266,4.6428 -8.9414,6.8711 l 1.67968,2.2832 c 3.05986,-2.2512 6.0742,-4.5637 9.03711,-6.9433 z m -13.51953,10.1719 c -3.06965,2.1706 -6.18382,4.2759 -9.3418,6.3164 l 1.53711,2.3809 c 3.19095,-2.0618 6.33925,-4.1892 9.44141,-6.3828 z m -14.10937,9.3359 c -3.19498,1.9824 -6.43159,3.8994 -9.70508,5.75 l 1.39453,2.4688 c 3.30665,-1.8694 6.5766,-3.8057 9.80469,-5.8086 z m -14.64454,8.4825 c -3.30491,1.7922 -6.64826,3.5154 -10.023433,5.1777 l 1.251953,2.543 c 3.40594,-1.6775 6.78306,-3.4173 10.12305,-5.2285 z m -15.109371,7.623 c -3.403678,1.6003 -6.839892,3.136 -10.302734,4.6055 l 1.107422,2.6094 c 3.495452,-1.4834 6.963492,-3.0325 10.400391,-4.6485 z m -15.517578,6.7656 c -3.488188,1.4099 -7.002016,2.756 -10.539062,4.0391 l 0.966797,2.666 c 3.568873,-1.2946 7.114703,-2.6534 10.634765,-4.0762 z m -15.861328,5.92 c -3.557976,1.2247 -7.137488,2.387 -10.736328,3.4863 l 0.828125,2.7109 c 3.630372,-1.1089 7.240651,-2.2801 10.830078,-3.5156 z m -16.150391,5.0957 c -3.61559,1.0441 -7.24927,2.0268 -10.898437,2.9492 l 0.695313,2.748 c 3.679292,-0.93 7.343593,-1.9215 10.990234,-2.9746 z m -16.384765,4.2929 c -3.662408,0.8688 -7.340265,1.6762 -11.029297,2.4278 l 0.566406,2.7793 c 3.717785,-0.7575 7.424664,-1.5734 11.117188,-2.4492 z m -16.572266,3.5176 c -3.69907,0.6992 -7.4089987,1.3394 -11.128906,1.9277 l 0.4414062,2.8008 c 3.7463097,-0.5925 7.4863906,-1.2386 11.2148438,-1.9433 z m -146.089841,1.0606 -0.55274,2.7793 c 3.74351,0.7457 7.50133,1.3408 11.25196,1.8886 l 0.41015,-2.8047 c -3.72816,-0.5445 -7.43927,-1.1321 -11.10937,-1.8632 z m 129.3730444,1.7089 c -3.7271817,0.5359 -7.4612494,1.0169 -11.2031254,1.4454 l 0.322266,2.8164 c 3.768093,-0.4315 7.5302221,-0.9172 11.2851562,-1.4571 z m -112.6718744,0.9161 -0.35938,2.8105 c 3.76381,0.4811 7.53472,0.9039 11.31055,1.2695 l 0.27344,-2.8222 c -3.74797,-0.363 -7.49039,-0.7806 -11.22461,-1.2578 z m 95.849609,1.1328 c -3.747037,0.3783 -7.498859,0.7047 -11.25586,0.9804 l 0.207032,2.8262 c 3.781774,-0.2775 7.560188,-0.6053 11.333984,-0.9863 z m -78.996089,0.6347 -0.23633,2.8262 c 3.779227,0.3161 7.561656,0.5788 11.347653,0.793 l 0.160156,-2.8301 c -3.760971,-0.2128 -7.517959,-0.4752 -11.271479,-0.7891 z m 62.101558,0.7207 c -3.759634,0.2268 -7.521999,0.4015 -11.28711,0.5274 l 0.09375,2.832 c 3.789695,-0.1267 7.577589,-0.3029 11.363281,-0.5312 z m -45.185547,0.3536 -0.123047,2.832 c 3.787871,0.1656 7.577624,0.2824 11.36914,0.3496 l 0.05078,-2.834 c -3.76636,-0.067 -7.532911,-0.1831 -11.296875,-0.3476 z m 28.248047,0.3261 c -3.7661,0.079 -7.533526,0.1081 -11.300782,0.088 l -0.01563,2.834 c 3.79167,0.02 7.583708,-0.01 11.375,-0.088 z"
         id="path10062" />
      <path
         inkscape:connector-curvature="0"
         style="color:#000000;font-style:normal;font-variant:normal;font-weight:normal;font-stretch:normal;font-size:medium;line-height:normal;font-family:sans-serif;font-variant-ligatures:normal;font-variant-position:normal;font-variant-caps:normal;font-variant-numeric:normal;font-variant-alternates:normal;font-feature-settings:normal;text-indent:0;text-align:start;text-decoration:none;text-decoration-line:none;text-decoration-style:solid;text-decoration-color:#000000;letter-spacing:normal;word-spacing:normal;text-transform:none;writing-mode:lr-tb;direction:ltr;text-orientation:mixed;dominant-baseline:auto;baseline-shift:baseline;text-anchor:start;white-space:normal;shape-padding:0;clip-rule:nonzero;display:inline;overflow:visible;visibility:visible;opacity:1;isolation:auto;mix-blend-mode:normal;color-interpolation:sRGB;color-interpolation-filters:linearRGB;solid-color:#000000;solid-opacity:1;vector-effect:none;fill:url(#linearGradient64563);fill-opacity:1;fill-rule:nonzero;stroke:none;stroke-linecap:butt;stroke-linejoin:miter;stroke-miterlimit:10;stroke-dasharray:11.3386, 5.6693;stroke-dashoffset:0;stroke-opacity:1;color-rendering:auto;image-rendering:auto;shape-rendering:auto;text-rendering:auto;enable-background:accumulate"
         d="m 220.72852,1500.5762 -2.46485,1.4004 c 1.88735,3.3204 3.90608,6.5473 5.94922,9.7382 l 2.38672,-1.5293 c -2.03232,-3.174 -4.02302,-6.3579 -5.87109,-9.6093 z m 8.96093,14.334 -2.35937,1.5703 c 2.10174,3.1587 4.25002,6.2842 6.4375,9.3808 l 2.3164,-1.6367 c -2.17383,-3.0773 -4.30891,-6.1799 -6.39453,-9.3144 z m 9.6836,13.9101 -2.29493,1.6641 c 2.22578,3.0683 4.48778,6.1117 6.78516,9.1269 l 2.25586,-1.7187 c -2.28383,-2.9974 -4.53329,-6.0219 -6.74609,-9.0723 z m 10.19531,13.5527 -2.23633,1.7403 c 2.32812,2.9909 4.68905,5.9551 7.08008,8.8945 l 2.19922,-1.7871 c -2.37892,-2.9246 -4.72796,-5.8736 -7.04297,-8.8477 z m 10.63281,13.2149 -2.17969,1.8125 c 2.42095,2.9142 4.87095,5.8048 7.35157,8.6699 l 2.14257,-1.8555 c -2.46726,-2.8496 -4.90509,-5.7267 -7.31445,-8.6269 z m 11.03516,12.8867 -2.125,1.875 c 2.50554,2.8422 5.03913,5.6598 7.60156,8.4512 l 2.08789,-1.918 c -2.54937,-2.7771 -5.07128,-5.5801 -7.56445,-8.4082 z m 11.40625,12.5606 -2.07031,1.9355 c 2.58671,2.7674 5.19758,5.5126 7.83789,8.2305 l 2.0332,-1.9766 c -2.62688,-2.704 -5.22577,-5.4346 -7.80078,-8.1894 z m 11.75976,12.2304 -2.01562,1.9942 c 2.66322,2.6934 5.35074,5.3649 8.0664,8.0078 l 1.97657,-2.0332 c -2.70146,-2.6291 -5.37571,-5.2871 -8.02735,-7.9688 z m 12.09766,11.9004 -1.96094,2.0469 c 2.73622,2.6208 5.49857,5.2151 8.28321,7.7832 l 1.91992,-2.084 c -2.77212,-2.5565 -5.51947,-5.1382 -8.24219,-7.7461 z m 12.41797,11.5625 -1.90235,2.0996 c 2.80684,2.5437 5.63619,5.0626 8.49219,7.5528 l 1.86328,-2.1368 c -2.84145,-2.4775 -5.65885,-4.9832 -8.45312,-7.5156 z m 12.73242,11.2188 -1.84766,2.1504 c 2.87461,2.4676 5.77337,4.9084 8.69532,7.3203 l 1.80468,-2.1856 c -2.90765,-2.4 -5.79136,-4.8292 -8.65234,-7.2851 z m 13.0293,10.8691 -1.78711,2.2012 c 2.94065,2.3895 5.90525,4.7486 8.88867,7.082 l 1.74609,-2.2324 c -2.97077,-2.3235 -5.92186,-4.6733 -8.84765,-7.0508 z m 13.31836,10.5137 -1.72461,2.25 c 3.0042,2.3062 6.02866,4.5879 9.07812,6.8379 l 1.68164,-2.2813 c -3.0331,-2.2379 -6.04335,-4.5099 -9.03515,-6.8066 z m 13.60156,10.1504 -1.66797,2.2929 c 3.0649,2.2298 6.1544,4.4241 9.25781,6.5938 l 1.62305,-2.3223 c -3.09172,-2.1615 -6.16522,-4.3472 -9.21289,-6.5644 z m 13.86523,9.7812 -1.60351,2.3379 c 3.12365,2.1435 6.26864,4.2569 9.43359,6.3399 l 1.5586,-2.3672 c -3.14927,-2.0727 -6.27967,-4.1772 -9.38868,-6.3106 z m 14.125,9.4043 -1.53906,2.3809 c 3.1805,2.0542 6.37887,4.088 9.60156,6.084 l 1.49219,-2.4102 c -3.20366,-1.9842 -6.38547,-4.0078 -9.55469,-6.0547 z m 14.37305,9.0195 -1.47461,2.4219 c 3.23442,1.9686 6.48463,3.9156 9.75977,5.8242 l 1.42773,-2.4492 c -3.25585,-1.8974 -6.49022,-3.8355 -9.71289,-5.7969 z m 14.60938,8.6329 -1.40821,2.4609 c 3.28625,1.8804 6.58748,3.7379 9.91211,5.5586 l 1.36133,-2.4863 c -3.30536,-1.8101 -6.59059,-3.6595 -9.86523,-5.5332 z m 14.83789,8.2363 -1.34375,2.4961 c 3.33596,1.7982 6.68888,3.5599 10.05468,5.2949 l 1.29883,-2.5195 c -3.35305,-1.7285 -6.69184,-3.483 -10.00976,-5.2715 z m 15.05273,7.8359 -1.2793,2.5313 c 3.382,1.7099 6.78317,3.382 10.19727,5.0234 l 1.22656,-2.5547 c -3.39845,-1.6339 -6.78071,-3.2992 -10.14453,-5 z m 15.25391,7.4336 -1.20899,2.5645 c 3.4259,1.6151 6.8676,3.2025 10.32617,4.7519 l 1.15821,-2.5879 c -3.43985,-1.541 -6.86404,-3.1202 -10.27539,-4.7285 z m 15.44726,7.0274 -1.14258,2.5937 c 3.46803,1.5275 6.9533,3.018 10.44922,4.4766 l 1.08985,-2.6172 c -3.4802,-1.4521 -6.94676,-2.9338 -10.39649,-4.4531 z m 15.62696,6.6152 -1.07227,2.623 c 3.50689,1.4333 7.02771,2.8338 10.56055,4.2012 l 1.02343,-2.6445 c -3.51658,-1.3611 -7.02139,-2.7532 -10.51171,-4.1797 z m 15.79882,6.2012 -1.00586,2.6504 c 3.54274,1.3434 7.09881,2.6518 10.66797,3.9238 l 0.95117,-2.6699 c -3.55112,-1.2656 -7.08814,-2.5676 -10.61328,-3.9043 z m 15.95118,5.789 -0.93555,2.6778 c 3.57646,1.2488 7.165,2.4647 10.76562,3.6445 l 0.88282,-2.6953 c -3.58258,-1.1739 -7.15294,-2.3839 -10.71289,-3.627 z m 16.0957,5.377 -0.86328,2.6992 c 3.60705,1.1524 7.22357,2.2773 10.85351,3.3652 l 0.81446,-2.7148 c -3.61095,-1.0822 -7.21123,-2.2016 -10.80469,-3.3496 z m 16.23047,4.959 -0.79492,2.7207 c 3.63572,1.0632 7.28087,2.0947 10.93554,3.0918 l 0.7461,-2.7344 c -3.63788,-0.9925 -7.26727,-2.0196 -10.88672,-3.0781 z m 16.35156,4.5468 -0.72656,2.7403 c 3.66138,0.9722 7.33158,1.911 11.00976,2.8164 l 0.67774,-2.752 c -3.66178,-0.9014 -7.31645,-1.8369 -10.96094,-2.8047 z m 16.46094,4.1387 -0.65821,2.7578 c 3.6839,0.8798 7.37568,1.7281 11.07618,2.541 l 0.60742,-2.7695 c -3.68252,-0.809 -7.35698,-1.6532 -11.02539,-2.5293 z m 16.55664,3.7305 -0.58985,2.7734 c 3.7031,0.7856 7.41533,1.5474 11.13672,2.2676 l 0.53711,-2.7832 c -3.7,-0.7161 -7.3926,-1.4748 -11.08398,-2.2578 z m 16.64453,3.3242 -0.52148,2.7852 c 3.7208,0.697 7.4477,1.3718 11.18554,2.0019 l 0.4707,-2.7949 c -3.71597,-0.6265 -7.42592,-1.2974 -11.13476,-1.9922 z m 281.62695,1.4727 c -3.73368,0.5761 -7.46371,1.1446 -11.19531,1.6679 l 0.39453,2.8086 c 3.75421,-0.5265 7.49559,-1.0991 11.23242,-1.6758 z m -264.90429,1.4511 -0.46094,2.7969 c 3.74025,0.6175 7.48376,1.1885 11.22851,1.7383 l 0.41211,-2.8047 c -3.73394,-0.5482 -7.46189,-1.1167 -11.17968,-1.7305 z m 248.10156,1.0059 c -3.74595,0.5087 -7.48611,1.0191 -11.22461,1.4785 l 0.3457,2.8145 c 3.76412,-0.4626 7.51561,-0.9759 11.25977,-1.4844 z m -231.31836,1.5234 -0.39258,2.8067 c 3.75194,0.5267 7.50828,1.0172 11.26758,1.4765 l 0.34375,-2.8144 c -3.74396,-0.4575 -7.48503,-0.9446 -11.21875,-1.4688 z m 214.47461,0.6485 c -3.75609,0.4409 -7.50301,0.8891 -11.24805,1.2832 l 0.29688,2.8203 c 3.77253,-0.3969 7.53006,-0.8488 11.28125,-1.2891 z m -197.63867,1.4941 -0.32227,2.8164 c 3.75827,0.4301 7.52259,0.8473 11.29688,1.2149 l 0.27539,-2.8223 c -3.74921,-0.3651 -7.49837,-0.7797 -11.25,-1.209 z m 180.76172,0.3828 c -3.76359,0.3737 -7.51833,0.7573 -11.26954,1.084 l 0.2461,2.8242 c 3.77935,-0.3291 7.54451,-0.7147 11.30273,-1.0879 z m -163.8711,1.3692 -0.26953,2.8222 c 3.77373,0.3591 7.54914,0.6732 11.32227,0.9668 l 0.2207,-2.8261 c -3.76309,-0.2929 -7.52207,-0.606 -11.27344,-0.9629 z m 146.96094,0.205 c -3.76838,0.3076 -7.53017,0.6196 -11.28711,0.877 l 0.19531,2.8281 c 3.78445,-0.2593 7.55686,-0.5716 11.32227,-0.8789 z m -130.04688,1.1778 -0.19531,2.8281 c 3.77324,0.2615 7.55106,0.5124 11.33789,0.7129 l 0.15039,-2.832 c -3.76169,-0.1992 -7.52536,-0.4479 -11.29297,-0.709 z m 113.11133,0.086 c -3.77083,0.2417 -7.53669,0.4794 -11.29883,0.666 l 0.14063,2.8321 c 3.78767,-0.1879 7.56726,-0.4262 11.33984,-0.668 z m -96.16015,0.918 -0.14258,2.832 c 3.78448,0.1925 7.56772,0.3456 11.35156,0.4727 l 0.0957,-2.834 c -3.77093,-0.1267 -7.53984,-0.2792 -11.30468,-0.4707 z m 79.20312,0.029 c -3.77144,0.1753 -7.53992,0.3342 -11.30664,0.4492 l 0.0859,2.832 c 3.78884,-0.1157 7.57217,-0.2755 11.35156,-0.4511 z m -62.23828,0.6191 -0.082,2.832 c 3.78783,0.1106 7.57397,0.1819 11.35742,0.2344 l 0.0391,-2.834 c -3.77458,-0.052 -7.54663,-0.1224 -11.31445,-0.2324 z m 45.26758,0 c -3.77057,0.1071 -7.54167,0.1848 -11.3125,0.2285 l 0.0332,2.834 c 3.78773,-0.044 7.57394,-0.121 11.35938,-0.2285 z m -16.97852,0.2852 c -3.76828,0.036 -7.53944,0.028 -11.31445,0 l -0.0195,2.836 c 3.7838,0.026 7.57086,0.034 11.36133,0 z"
         id="path10070" />
      <path
         inkscape:connector-curvature="0"
         d="m 114.01065,1603.6786 -43.200674,-15.2031 69.172924,-185.7245 185.91678,69.8521 -14.81166,43.5549 -132.07064,-49.7183 -6.37889,9.8615 -10.48994,-4.0441 -48.1379,132.2433 v 0 z"
         style="fill:url(#linearGradient62145);fill-opacity:1;fill-rule:evenodd;stroke:none;stroke-width:0.82233"
         id="path12224" />
      <path
         inkscape:connector-curvature="0"
         d="m 137.61401,1398.7886 c 62.67123,23.3435 131.12733,48.8418 194.03996,72.2752 l -18.68619,50.0359 -134.50233,-50.0989 -3.50365,9.3817 -9.40058,-3.5015 -49.41059,132.3065 -50.137048,-18.6748 c 23.357842,-62.5452 48.242698,-129.1792 71.600428,-191.7241 z m 55.72141,70.6264 3.50364,-9.3817 c 1.52725,-4.0895 7.79476,-1.755 6.26752,2.3345 l -3.50365,9.3817 12.77527,4.7585 7.00733,-18.7635 c 1.52721,-4.0894 7.79381,-1.7553 6.26659,2.3342 l -7.00733,18.7634 12.53473,4.6689 3.50365,-9.3817 c 1.52724,-4.0895 7.79383,-1.7553 6.26659,2.3342 l -3.50365,9.3817 12.53472,4.6689 7.00733,-18.7635 c 1.52721,-4.0894 7.7938,-1.7553 6.26659,2.3341 l -7.00733,18.7635 12.53473,4.6689 3.50364,-9.3817 c 1.52725,-4.0895 7.79384,-1.7553 6.2666,2.3342 l -3.50365,9.3816 12.53472,4.6689 7.00733,-18.7634 c 1.52721,-4.0895 7.79457,-1.755 6.26736,2.3344 l -7.00733,18.7635 14.94406,5.5663 14.01464,-37.5269 -127.99366,-47.6746 -14.01463,37.5269 z m -22.30507,2.3787 17.5183,-46.9087 -47.00329,-17.5076 -17.51831,46.9087 z m -58.81115,128.8049 5.03101,-13.4715 -18.801467,-7.0031 c -4.097648,-1.5263 -1.761863,-7.7808 2.335787,-6.2545 l 18.80147,7.0031 4.67128,-12.5083 -9.40058,-3.5015 c -4.09773,-1.5263 -1.76194,-7.7808 2.33578,-6.2545 l 9.40058,3.5015 4.67157,-12.509 -18.80147,-7.0031 c -4.09765,-1.5263 -1.76186,-7.7808 2.33578,-6.2545 l 18.80147,7.0031 4.67157,-12.5091 -9.40058,-3.5015 c -4.09772,-1.5263 -1.76194,-7.7808 2.33579,-6.2545 l 9.40058,3.5015 4.67156,-12.509 -18.80146,-7.0031 c -4.09765,-1.5263 -1.76187,-7.7808 2.33578,-6.2545 l 18.80147,7.0031 4.67157,-12.5091 -9.40058,-3.5015 c -4.09773,-1.5263 -1.76197,-7.7807 2.33575,-6.2544 l 9.40058,3.5015 4.67157,-12.509 -37.60271,-14.0062 -47.074811,126.052 z"
         style="fill:url(#linearGradient64563);fill-opacity:1;fill-rule:nonzero;stroke:none;stroke-width:0.822326"
         id="path12232" />
      <path
         inkscape:connector-curvature="0"
         d="m 197.64054,1554.6888 -5.21296,-8.4083 -0.95663,-6.4328 -6.58125,-3.934 -1.59402,-8.4634 1.5246,-8.2874 -2.07712,-10.1612 6.09159,-9.7918 c 0,0 8.94245,-2.1115 8.89767,-1.9897 -0.0448,0.1218 43.02834,16.6085 43.02834,16.6085 0,0 5.40738,10.1382 5.58649,9.6511 0.17915,-0.4873 -2.86339,10.4227 -2.46854,10.1017 0.39486,-0.3211 -9.23251,4.4062 -9.23251,4.4062 l -4.06299,10.6739 -12.74808,1.5454 -9.06155,4.6941 -6.97744,1.0351 -3.86687,-1.2798 v 0 z"
         style="fill:url(#linearGradient62151);fill-opacity:1;fill-rule:evenodd;stroke:none;stroke-width:0.82232499"
         id="path12244" />
      <path
         inkscape:connector-curvature="0"
         d="m 197.64054,1554.6888 -5.21296,-8.4083 -0.95663,-6.4328 -6.58125,-3.934 -1.59402,-8.4634 1.5246,-8.2874 -2.07712,-10.1612 6.09159,-9.7918 c 0,0 8.94245,-2.1115 8.89767,-1.9897 -0.0448,0.1218 43.02834,16.6085 43.02834,16.6085 0,0 5.40738,10.1382 5.58649,9.6511 0.17915,-0.4873 -2.86339,10.4227 -2.46854,10.1017 0.39486,-0.3211 -9.23251,4.4062 -9.23251,4.4062 l -4.06299,10.6739 -12.74808,1.5454 -9.06155,4.6941 -6.97744,1.0351 -3.86687,-1.2798 v 0"
         style="fill:none;stroke:#1f1e1d;stroke-width:0.82232499;stroke-linecap:butt;stroke-linejoin:miter;stroke-miterlimit:10;stroke-dasharray:none;stroke-opacity:1"
         id="path12248" />
      <path
         inkscape:connector-curvature="0"
         d="m 179.89872,1505.1285 c 3.13295,-8.5209 12.58933,-12.892 21.12142,-9.7632 l 15.44872,5.6653 5.6727,-15.4285 c 0.62658,-1.7041 2.5179,-2.5784 4.22429,-1.9526 1.70639,0.6258 2.58178,2.5146 1.9552,4.2187 l -5.6727,15.4285 15.44873,5.6652 c 8.5321,3.1289 12.90897,12.5728 9.77602,21.0937 -1.81295,4.9821 -5.94664,8.7668 -11.07357,10.1388 -0.16014,1.0308 -0.42097,2.0435 -0.77862,3.0236 -2.87413,7.8258 -11.15914,12.2637 -19.27705,10.3257 -4.50241,4.7876 -11.43319,6.4258 -17.60681,4.1619 -6.17362,-2.264 -10.39589,-7.9922 -10.72615,-14.5519 -7.4446,-3.769 -10.88527,-12.5069 -8.00539,-20.3306 0.36242,-0.9784 0.81981,-1.919 1.36566,-2.8084 -3.01964,-4.3594 -3.71862,-9.9163 -1.87245,-14.8862 z m 8.39558,12.4985 c 1.17868,1.2211 1.23354,3.1372 0.1267,4.4236 -2.12618,2.4009 -2.94051,5.6892 -2.18015,8.8031 0.76045,3.1139 2.99927,5.6586 5.99347,6.8124 0.11587,0.043 0.44958,0.1123 0.55773,0.152 1.4764,0.4657 2.41507,1.9111 2.23884,3.4473 -0.47533,4.4729 2.15561,8.6958 6.38354,10.2462 4.22793,1.5505 8.97005,0.031 11.50608,-3.6858 0.87498,-1.2662 2.51214,-1.7569 3.94065,-1.1812 0.18539,0.068 0.36305,0.1331 0.31024,0.1575 3.0382,1.1426 6.44589,0.7071 9.09806,-1.1627 2.65217,-1.8697 4.20408,-4.9307 4.14323,-8.1724 -0.0102,-1.696 1.27328,-3.1213 2.96305,-3.2905 4.55916,-0.4701 8.19509,-4.0115 8.77972,-8.5514 0.58466,-4.54 -2.03576,-8.8849 -6.32746,-10.4918 l -15.44873,-5.6652 -2.7626,7.5136 8.72426,9.0297 c 1.20278,1.3134 1.14037,3.3442 -0.14071,4.5814 -1.28104,1.2373 -3.31548,1.2315 -4.58954,-0.013 l -6.51553,-6.7402 -4.92674,13.3996 c -0.62658,1.7041 -2.5179,2.5784 -4.22428,1.9526 -1.70639,-0.6257 -2.58179,-2.5146 -1.95521,-4.2187 l 6.08397,-16.547 -9.3202,0.9593 c -1.80876,0.1924 -3.43127,-1.1159 -3.62404,-2.9223 -0.19269,-1.8064 1.11736,-3.4268 2.92612,-3.6193 l 12.54531,-1.2911 1.5997,-4.3508 -15.44872,-5.6653 c -5.11925,-1.8773 -10.79309,0.7454 -12.67285,5.8579 -1.30969,3.5515 -0.44612,7.5389 2.21609,10.2324 z"
         style="fill:#59b6a4;fill-opacity:1;fill-rule:nonzero;stroke:none;stroke-width:0.82232499"
         id="path12254" />
      <g
         id="g64575"
         style="fill:url(#linearGradient64563)">
        <g
           id="g61302"
           style="fill:url(#linearGradient64563)">
          <path
             inkscape:connector-curvature="0"
             d="m 835.58981,1852.6819 c 0.0211,4.3326 3.55979,7.8241 7.90645,7.8005 4.34837,-0.024 7.85448,-3.5533 7.83261,-7.8842 -0.021,-4.3318 -3.55979,-7.8241 -7.90805,-7.8004 -4.34748,0.024 -7.85202,3.5539 -7.83101,7.8841 z m 33.51775,-67.1291 -8.27618,13.0354 -4.46605,14.4174 0.88454,0.3776 c 2.19122,0.932 3.20792,3.46 2.27054,5.6449 -0.0436,0.1 -0.10546,0.1842 -0.15593,0.2793 0.005,0.5824 -0.0589,1.1745 -0.21293,1.7654 l -2.92976,10.8251 2.06556,-0.9011 5.91909,-9.1128 c 1.12278,-1.7377 3.44474,-2.2415 5.18871,-1.1255 1.74247,1.116 2.24844,3.4316 1.12643,5.1677 l -6.42321,9.8916 c -0.34088,0.5283 -0.80069,0.9263 -1.31428,1.2162 -0.2555,0.208 -0.53193,0.3961 -0.84762,0.5356 l -8.99377,3.9209 c -1.64686,1.9307 -4.30752,2.8733 -6.93276,2.1976 -2.67518,-0.6899 -4.56352,-2.8646 -5.02055,-5.4091 l -5.47947,-4.6453 -10.81034,-1.2992 c -2.06099,-0.2435 -3.53157,-2.1015 -3.28893,-4.1534 0.24436,-2.0504 2.1114,-3.5185 4.16903,-3.2769 l 11.73597,1.4117 c 0.62474,0.073 1.18541,0.3093 1.67093,0.642 0.28709,0.1323 0.56437,0.2903 0.81881,0.5003 0.65814,-1.282 1.97716,-2.1718 3.5226,-2.1802 0.16718,0 0.32637,0.027 0.48803,0.046 l 2.01688,-7.4535 -13.56885,-5.791 c -2.19222,-0.9343 -3.20719,-3.461 -2.27054,-5.6449 0.16689,-0.3886 0.39811,-0.7253 0.65633,-1.0354 l 5.7989,-16.0053 c 0.77283,-2.2484 3.22731,-3.4482 5.48237,-2.681 2.25442,0.768 3.4579,3.2136 2.68427,5.4619 l -4.96236,13.6968 8.7337,3.728 4.47676,-14.4527 c 0.20409,-0.6621 0.566,-1.2257 1.01589,-1.6946 l 7.89418,-12.4334 c 1.25835,-2.0203 3.91872,-2.6417 5.94538,-1.3896 2.02192,1.2531 2.64474,3.905 1.38863,5.9233 z m -10.79046,68.0366 c 3.49891,-2.1671 6.08323,-1.9242 7.65271,1.8009 0,0 -3.50721,-2.2694 -5.93517,1.7045 -2.52577,4.1343 -7.70817,4.2898 -8.72987,1.0772 0,0 1.61963,-1.9395 1.73663,-4.6434 0,0 1.77679,2.2279 5.2757,0.061 z"
             style="fill:url(#linearGradient64563);fill-opacity:1;fill-rule:nonzero;stroke:none;stroke-width:0.99999899"
             id="path10440" />
        </g>
        <g
           id="g61307"
           style="fill:url(#linearGradient64563)">
          <path
             inkscape:connector-curvature="0"
             d="m 659.56707,1782.7415 -8.92063,2.6857 0.002,0.01 -3.19008,-1.866 0.97312,15.8652 c -0.24322,-0.072 -0.4884,-0.139 -0.73622,-0.1869 -1.53494,-0.2966 -2.86222,-0.077 -3.8687,0.2456 l 0.71222,-17.6333 -2.94287,-1.7215 -0.42312,-5.131 18.39243,3.5547 c 1.41325,0.2731 1.98566,1.121 1.71203,2.5368 -0.16014,0.8191 -0.73236,1.3641 -1.71041,1.6428 z"
             style="fill:url(#linearGradient64563);fill-opacity:1;fill-rule:nonzero;stroke:none"
             id="path10448" />
          <path
             inkscape:connector-curvature="0"
             d="m 638.44637,1854.6987 c -1.90394,1.2543 -3.08017,3.0393 -3.5272,5.3523 -0.43165,2.2334 -0.002,4.3098 1.29045,6.2208 1.29783,1.9111 3.06102,3.0887 5.29753,3.5209 2.23928,0.4328 4.31152,0 6.22802,-1.2934 1.91215,-1.2916 3.08392,-3.0585 3.51557,-5.2919 0.44703,-2.313 0.0216,-4.4076 -1.27882,-6.2812 -1.3047,-1.8755 -3.06938,-3.0306 -5.30866,-3.4634 -2.23651,-0.4322 -4.30709,-0.019 -6.21689,1.2359 z"
             style="fill:url(#linearGradient64563);fill-opacity:1;fill-rule:nonzero;stroke:none"
             id="path10456" />
          <path
             inkscape:connector-curvature="0"
             d="m 670.39281,1836.5625 c -0.93538,0.6323 -1.96074,0.8411 -3.08218,0.6243 l -13.54347,-2.6175 -9.36044,13.6222 c -0.10516,0.1315 -0.26601,0.3698 -0.48699,0.718 l -0.15752,0.2011 -0.10977,-0.021 c -1.90601,2.6495 -4.43878,3.7406 -7.60052,3.2842 -0.59459,-0.1149 -1.14029,-0.2963 -1.63106,-0.5458 l -34.17984,-15.305 c -1.07282,-0.4389 -1.82072,-1.184 -2.2367,-2.2331 -0.41696,-1.0482 -0.36829,-2.1005 0.14722,-3.1621 0.42469,-0.9996 1.16117,-1.7073 2.20927,-2.1223 1.04561,-0.4222 2.10985,-0.4053 3.18453,0.034 l 22.72289,10.3071 -12.32859,-33.4761 -19.46267,-3.7615 c 0,0 -3.99597,-1.1234 -2.90316,-5.3343 1.20818,-4.6506 7.27856,-3.1007 7.27856,-3.1007 l 20.50814,3.9636 c 2.60883,0.5042 4.3015,1.7573 5.07754,3.7612 l 3.72766,10.1215 14.66132,-9.814 c 0,0 3.3436,-2.4534 7.34808,0.3347 2.77226,1.9315 2.76309,7.3062 -1.40139,9.7498 l -11.99395,8.0071 6.02486,16.2496 5.77982,-8.2832 c 1.00634,-1.5786 2.66502,-2.0009 4.16673,-1.7439 l 16.0004,3.0925 c 1.11968,0.2164 1.99551,0.7907 2.62773,1.727 0.62985,0.9338 0.87505,1.9632 0.73602,3.0947 -0.21398,1.1219 -0.79006,1.9962 -1.72252,2.6282 z m -23.91,-28.8456 c 0.93392,0.1805 1.83509,-0.4318 2.01485,-1.3619 0.18048,-0.9338 -0.4285,-1.8333 -1.36241,-2.0138 -0.93117,-0.18 -1.83333,0.4274 -2.01381,1.3613 -0.17871,0.9293 0.43109,1.8346 1.36137,2.0144 z"
             style="fill:url(#linearGradient64563);fill-opacity:1;fill-rule:nonzero;stroke:none"
             id="path10464" />
        </g>
        <g
           id="g61310"
           style="fill:url(#linearGradient64563)">
          <path
             inkscape:connector-curvature="0"
             d="m 505.3733,1798.8164 c 0.69677,4.2762 -2.21476,8.3056 -6.5053,9.0022 -4.29224,0.6968 -8.33451,-2.2033 -9.03025,-6.478 -0.69669,-4.2754 2.21477,-8.3056 6.5069,-9.0023 4.29134,-0.6969 8.33219,2.2043 9.02865,6.4781 z m -44.17313,-60.6505 10.32089,11.4845 6.79226,13.4787 -0.80978,0.5189 c -2.00661,1.2819 -2.59055,3.9435 -1.30425,5.9429 0.0596,0.091 0.13451,0.1642 0.20004,0.2496 0.092,0.5752 0.25262,1.1486 0.50238,1.7058 l 4.68221,10.1903 -2.18628,-0.5465 -7.34667,-8.0066 c -1.39508,-1.5277 -3.76842,-1.64 -5.30347,-0.2506 -1.53356,1.3892 -1.64903,3.7566 -0.25497,5.2829 l 7.97283,8.6912 c 0.42367,0.4645 0.94306,0.7809 1.49756,0.9817 0.28642,0.1628 0.59018,0.3025 0.92463,0.3878 l 9.51895,2.3772 c 1.94388,1.6312 4.72392,2.1202 7.20097,1.0189 2.52397,-1.1234 4.02606,-3.5808 4.05534,-6.1659 l 4.63442,-5.4886 10.44585,-3.0718 c 1.99217,-0.5814 3.13471,-2.6574 2.55559,-4.6407 -0.58058,-1.9816 -2.665,-3.1202 -4.65427,-2.5412 l -11.33998,3.336 c -0.604,0.1756 -1.1178,0.5014 -1.54152,0.9099 -0.26121,0.1781 -0.5085,0.3797 -0.72463,0.629 -2.13438,0.8424 -3.03379,1.13 -3.19003,1.1758 l -4.34218,-9.6326 12.42231,-7.9584 c 2.0072,-1.2844 2.58968,-3.9443 1.30425,-5.9429 -0.22895,-0.3556 -0.51274,-0.6494 -0.81876,-0.9125 l -8.3697,-14.8238 c -1.13455,-2.0893 -3.75385,-2.866 -5.85068,-1.7359 -2.09608,1.1308 -2.8779,3.7419 -1.74256,5.8311 l 7.16234,12.6856 -7.99562,5.1231 -6.80866,-13.5116 c -0.31092,-0.6191 -0.76118,-1.115 -1.28252,-1.5029 l -9.84447,-10.9542 c -1.5756,-1.7841 -4.30213,-1.9562 -6.09342,-0.3857 -1.78646,1.5706 -1.96146,4.289 -0.3884,6.0715 z"
             style="fill:url(#linearGradient64563);fill-opacity:1;fill-rule:nonzero;stroke:none;stroke-width:0.99999899"
             id="path20882" />
        </g>
      </g>
    </g>
  </g>
</svg>
