<?xml version="1.0" encoding="UTF-8" standalone="no"?>
<svg
   xmlns:osb="http://www.openswatchbook.org/uri/2009/osb"
   xmlns:dc="http://purl.org/dc/elements/1.1/"
   xmlns:cc="http://creativecommons.org/ns#"
   xmlns:rdf="http://www.w3.org/1999/02/22-rdf-syntax-ns#"
   xmlns:svg="http://www.w3.org/2000/svg"
   xmlns="http://www.w3.org/2000/svg"
   xmlns:xlink="http://www.w3.org/1999/xlink"
   xmlns:sodipodi="http://sodipodi.sourceforge.net/DTD/sodipodi-0.dtd"
   xmlns:inkscape="http://www.inkscape.org/namespaces/inkscape"
   version="1.1"
   id="svg71757"
   xml:space="preserve"
   width="1213.6517"
   height="884.83276"
   viewBox="0 0 1213.6517 884.83276"
   sodipodi:docname="AUTRES PICTOS.svg"
   inkscape:version="1.0.2 (e86c870879, 2021-01-15, custom)"><metadata
     id="metadata71763"><rdf:RDF><cc:Work
         rdf:about=""><dc:format>image/svg+xml</dc:format><dc:type
           rdf:resource="http://purl.org/dc/dcmitype/StillImage" /><dc:title></dc:title></cc:Work></rdf:RDF></metadata><defs
     id="defs71761"><linearGradient
       id="linearGradient73269"
       osb:paint="solid"
       gradientTransform="translate(-12.634548,-162.82332)"><stop
         style="stop-color:#94c118;stop-opacity:1;"
         offset="0"
         id="stop73267" /></linearGradient><linearGradient
       id="linearGradient73195"
       osb:paint="solid"><stop
         style="stop-color:#7b7979;stop-opacity:1;"
         offset="0"
         id="stop73193" /></linearGradient><linearGradient
       id="linearGradient73186"
       osb:paint="solid"
       gradientTransform="translate(-653.10757,-458.48306)"><stop
         style="stop-color:#f28033;stop-opacity:1;"
         offset="0"
         id="stop73184" /></linearGradient><clipPath
       clipPathUnits="userSpaceOnUse"
       id="clipPath71773"><path
         d="M -14.17323,-14.17323 H 856.06299 V 609.44882 H -14.17323 Z"
         id="path71771" /></clipPath><clipPath
       clipPathUnits="userSpaceOnUse"
       id="clipPath71785"><path
         d="M 0,0 H 159.254 V -127 H 0 Z"
         clip-rule="evenodd"
         id="path71783" /></clipPath><clipPath
       clipPathUnits="userSpaceOnUse"
       id="clipPath71823"><path
         d="M 0,0 H 93.8256 V -133 H 0 Z"
         clip-rule="evenodd"
         id="path71821" /></clipPath><clipPath
       clipPathUnits="userSpaceOnUse"
       id="clipPath71941"><path
         d="M 0,0 H 141 V -125.669 H 0 Z"
         clip-rule="evenodd"
         id="path71939" /></clipPath><clipPath
       clipPathUnits="userSpaceOnUse"
       id="clipPath71971"><path
         d="M 0,0 H 102.496 V -105 H 0 Z"
         clip-rule="evenodd"
         id="path71969" /></clipPath><linearGradient
       id="linearGradient62187"
       osb:paint="solid"
       gradientTransform="translate(-590.84106,1183.2484)"><stop
         style="stop-color:#f79e1c;stop-opacity:1;"
         offset="0"
         id="stop62185" /></linearGradient><linearGradient
       id="linearGradient64563"
       osb:paint="solid"
       gradientTransform="translate(-69.121941,-58.575001)"><stop
         style="stop-color:#59b6a4;stop-opacity:1;"
         offset="0"
         id="stop64561" /></linearGradient><linearGradient
       id="linearGradient62163"
       osb:paint="solid"
       gradientTransform="translate(-562.70704,219.34971)"><stop
         style="stop-color:#1a1135;stop-opacity:1;"
         offset="0"
         id="stop62161" /></linearGradient><linearGradient
       inkscape:collect="always"
       xlink:href="#linearGradient73186"
       id="linearGradient73259"
       gradientUnits="userSpaceOnUse"
       x1="649.26484"
       y1="370.55441"
       x2="711.95775"
       y2="370.55441" /><linearGradient
       inkscape:collect="always"
       xlink:href="#linearGradient73195"
       id="linearGradient73263"
       gradientUnits="userSpaceOnUse"
       x1="651.55776"
       y1="543.37226"
       x2="733.69479"
       y2="543.37226" /><linearGradient
       inkscape:collect="always"
       xlink:href="#linearGradient73269"
       id="linearGradient73271"
       x1="343.28293"
       y1="116.80243"
       x2="412.73923"
       y2="116.80243"
       gradientUnits="userSpaceOnUse"
       gradientTransform="translate(-34.792635,4.7552401)" /><linearGradient
       id="linearGradient62175"
       osb:paint="solid"
       gradientTransform="translate(214.16763,616.89046)"><stop
         style="stop-color:#fd4b71;stop-opacity:1;"
         offset="0"
         id="stop62173" /></linearGradient></defs><sodipodi:namedview
     pagecolor="#ffffff"
     bordercolor="#666666"
     borderopacity="1"
     objecttolerance="10"
     gridtolerance="10"
     guidetolerance="10"
     inkscape:pageopacity="0"
     inkscape:pageshadow="2"
     inkscape:window-width="1920"
     inkscape:window-height="1027"
     id="namedview71759"
     showgrid="false"
     inkscape:zoom="1.1427727"
     inkscape:cx="718.69731"
     inkscape:cy="473.59111"
     inkscape:window-x="1920"
     inkscape:window-y="24"
     inkscape:window-maximized="1"
     inkscape:current-layer="g71765" /><g
     id="g71765"
     inkscape:groupmode="layer"
     inkscape:label="AUTRES PICTOS"
     transform="matrix(1.3333333,0,0,-1.3333333,0,884.83276)"><path
       id="path71795"
       style="fill:url(#linearGradient64563);fill-opacity:1;fill-rule:nonzero;stroke:none;stroke-width:0.999998"
       d="m 113.63849,169.51547 c -7.2581,0 -13.16309,-5.8771 -13.16309,-13.10302 0,-4.9867 2.81084,-9.32931 6.93604,-11.5459 h -3.43652 c -6.622799,0 -12.010259,-5.37047 -12.010259,-11.97217 l -0.007,-12.71045 c -0.5772,6.0741 -5.72523,10.84424 -11.97803,10.84424 h -3.77344 c 4.1092,2.2215 6.90381,6.55493 6.90381,11.52392 0,3.4956 -1.37302,6.78477 -3.86572,9.26367 -2.4926,2.4756 -5.79808,3.8379 -9.30908,3.8379 -7.2567,0 -13.16309,-5.87727 -13.16309,-13.10157 0,-4.96899 2.79218,-9.30239 6.89649,-11.52539 h -3.82179 c -6.63581,0 -12.03515,-5.37252 -12.03515,-11.98242 l 0.0454,-34.287602 h 8.50342 V 42.517907 h 27.2373 v 42.237309 h 8.417 v 8.441892 h 8.438959 V 42.514982 h 28.72119 v 81.656258 l 21.1875,-14.5005 c 1.37,-0.933 2.96526,-1.42529 4.61426,-1.42529 2.69001,0 5.20324,1.31343 6.71924,3.51563 2.54578,3.68658 1.6054,8.74721 -2.0918,11.27783 h -0.001 c -26.07553,17.87779 -27.24157,18.67822 -27.24317,18.67822 -1.64559,1.17111 -5.43301,3.14942 -9.22851,3.14942 h -3.25928 c 4.127,2.21659 6.94043,6.55786 6.94043,11.54296 0.002,3.49554 -1.36849,6.78774 -3.8628,9.26661 -2.4927,2.47566 -5.79774,3.83935 -9.31054,3.83935 z m 0,-4.73584 c 2.2422,0 4.35507,-0.87219 5.94727,-2.45508 1.5923,-1.58286 2.46975,-3.68383 2.46825,-5.91504 0,-4.61839 -3.77452,-8.37597 -8.41552,-8.37597 -4.6346,0 -8.40527,3.75758 -8.40527,8.37597 0,4.61516 3.77067,8.37012 8.40527,8.37012 z M 69.934881,150.91782 c 2.242,0 4.35346,-0.87071 5.94726,-2.45362 1.594,-1.5829 2.47143,-3.68397 2.46973,-5.91357 0,-4.6184 -3.77576,-8.37451 -8.41846,-8.37451 -4.6328,0 -8.40381,3.75611 -8.40381,8.37451 0,4.6151 3.77068,8.36719 8.40528,8.36719 z m 125.603029,-4.56299 c -4.5951,0.13159 -8.94396,-2.69577 -10.51611,-7.24805 -1.93014,-5.59633 1.06691,-11.72922 6.69726,-13.64502 5.61905,-1.9239 11.78353,1.07474 13.71533,6.66944 1.935,5.60439 -1.09012,11.72916 -6.70752,13.64502 -1.05539,0.36072 -2.12855,0.54824 -3.18896,0.57861 z m -91.56299,-6.22413 h 19.15576 c 2.4102,0 5.18573,-1.3555 6.51123,-2.2998 0.3766,-0.2557 27.26167,-18.69117 27.26367,-18.69287 1.542,-1.0536 1.93066,-3.16009 0.86866,-4.69629 -1.01501,-1.4735 -3.21973,-1.88845 -4.71973,-0.86865 l -24.88917,17.03467 -0.62988,0.41748 h -3.11718 V 47.249357 h -19.20704 v 50.683591 h -8.507809 l 0.019,34.957042 c 0,3.99259 3.25334,7.24071 7.252449,7.24071 z m 74.73926,-13.80029 c -4.10729,0.1158 -7.9916,-2.41127 -9.39698,-6.48779 l -9.93017,-28.652342 8.04785,-2.752442 -13.47071,-38.655766 21.24024,-7.267088 h 30.91406 v 3.079103 h -29.82861 l 12.40576,35.58105 7.96582,-2.72607 9.87891,28.671385 c 1.7297,5.0172 -0.94157,10.47785 -5.97217,12.20069 l -19.00342,6.49365 c -0.94385,0.32152 -1.90275,0.4889 -2.85058,0.51562 z m -118.866219,-0.0395 h 20.13135 c 4.0139,0 7.27734,-3.25081 7.27734,-7.24512 V 89.488128 h -8.41699 V 47.249357 h -17.72022 v 42.238771 h -8.51074 l -0.0396,29.557612 c 0,3.99431 3.2666,7.24512 7.27881,7.24512 z"
       inkscape:export-filename="/home/sandrine/Documents/TAF FIGLI/APF_site/EXE/AUTRES_PAGES/PNG_autrespages/discrimination.svg.png"
       inkscape:export-xdpi="300"
       inkscape:export-ydpi="300" /><path
       id="path71833"
       style="fill:url(#linearGradient64563);fill-opacity:1;fill-rule:nonzero;stroke:none;stroke-width:0.999998"
       d="m 121.5849,509.85228 c -1.68047,0 -3.08058,-1.39794 -3.08058,-3.07617 v -7.13233 c 0,-1.818 1.40011,-3.21679 3.08058,-3.21679 1.68045,0 3.08056,1.39797 3.08056,3.07617 v 7.27295 c 0,1.67823 -1.40011,3.07617 -3.08056,3.07617 z m 25.20702,-10.24365 c -0.80522,0 -1.61103,-0.31549 -2.24121,-0.94483 l -5.04052,-5.03466 c -1.26035,-1.25867 -1.26035,-3.21642 0,-4.4751 0.70018,-0.6993 1.53955,-0.97851 2.23974,-0.97851 0.84023,0 1.54102,0.27921 2.24122,0.97851 l 5.04052,5.03467 c 1.2603,1.25868 1.2603,3.21643 0,4.47509 -0.63019,0.62934 -1.43452,0.94483 -2.23975,0.94483 z m -50.414064,-0.14062 c -0.805222,0 -1.611037,-0.31402 -2.24121,-0.94336 -1.260352,-1.25867 -1.260352,-3.21642 0,-4.4751 l 5.042,-5.03467 c 0.56014,-0.5594 1.400974,-0.97998 2.241214,-0.97998 0.84022,0 1.53951,0.28068 2.23974,0.97998 1.2603,1.25868 1.2603,3.21643 0,4.4751 l -5.040534,5.03467 c -0.63016,0.62934 -1.43599,0.94336 -2.24121,0.94336 z m 25.141124,-8.32911 c -5.21456,0.001 -10.12136,-1.94947 -13.79737,-5.6206 -4.06111,-3.77603 -6.30175,-9.09014 -6.30175,-14.54444 0,-4.4753 1.39952,-8.81058 4.34033,-12.44677 2.24061,-2.79701 3.78193,-5.595 4.76221,-8.39209 v -7.55127 c 0,-1.11881 0.55929,-2.09783 1.53954,-2.65723 l 0.27979,-0.14062 c 0.8402,-4.33541 4.62186,-7.55127 9.24317,-7.55127 4.62129,0 8.4015,3.21586 9.24169,7.55127 l 0.28125,0.14062 c 0.9803,0.5594 1.53956,1.53842 1.53956,2.65723 v 7.41211 c 0.98029,2.79699 2.5216,5.59352 4.7622,8.39062 2.9408,3.776 4.48043,8.5305 4.34033,13.4253 -0.4201,10.34913 -8.96225,18.74136 -19.18505,19.30077 -0.3501,0.0175 -0.69827,0.0263 -1.0459,0.0264 z m -0.0806,-6.14795 c 0.23505,-0.004 0.46974,-0.0147 0.70605,-0.0322 7.1419,-0.27971 12.88362,-6.15364 13.30371,-13.28614 0.14001,-3.35649 -0.97944,-6.57278 -2.93994,-9.22998 -2.3807,-3.0768 -4.06137,-6.01412 -5.32177,-9.09082 H 115.9833 c -1.1203,3.0767 -2.9411,6.15328 -5.32178,9.22998 -1.96053,2.5174 -2.93994,5.45446 -2.93994,8.53126 0,3.77599 1.54041,7.41217 4.20117,10.06933 2.62566,2.49113 5.98983,3.87568 9.51563,3.80859 z m 28.71387,-10.80029 c -1.68046,0 -3.08057,-1.3994 -3.08057,-3.07763 0,-1.67823 1.40011,-3.07617 3.08057,-3.07617 h 7.14258 c 1.68049,0 3.08056,1.39794 3.08056,3.07617 0,1.67823 -1.40007,3.07763 -3.08056,3.07763 z m -64.277356,-0.14063 c -1.680458,0 -3.080565,-1.39794 -3.080565,-3.07617 0,-1.67823 1.400107,-3.07763 3.080565,-3.07763 h 7.14258 c 1.680502,0 3.080565,1.3994 3.080565,3.07763 0,1.67823 -1.400063,3.07617 -3.080565,3.07617 z m 79.302256,-24.30175 c -0.10858,-0.005 -0.21578,-0.0147 -0.3208,-0.0322 l -25.7666,-5.03467 v -1.9585 c 0,-1.67823 -0.42103,-3.21575 -1.26123,-4.61425 l 24.36767,4.75488 v -51.74561 l -37.53076,-7.27294 v 42.375 c -0.9803,-0.13991 -1.96027,-0.27979 -3.08056,-0.27979 -1.12031,0 -2.10027,0.13988 -3.08058,0.27979 v -42.51416 l -37.530759,7.27148 v 51.7456 l 24.506839,-4.75488 c -0.8403,1.3986 -1.25977,2.9375 -1.25977,4.61573 v 1.95703 l -25.768067,5.03466 c -0.980257,0.13986 -1.819342,5.4e-4 -2.519527,-0.69873 -0.700193,-0.5594 -1.120605,-1.39847 -1.120613,-2.37744 v -58.03857 c 0,-1.5384 0.979118,-2.79794 2.519535,-3.07764 l 43.832522,-8.53125 h 0.56104 0.55957 l 43.83252,8.53125 c 1.4004,0.2797 2.51953,1.53924 2.51953,3.07764 v 58.17774 c -0.14,0.97896 -0.55956,1.81803 -1.25976,2.37744 -0.61268,0.48948 -1.44012,0.76492 -2.2002,0.73242 z M 116.6835,446.9182 h 9.6621 v -2.51661 c -0.98029,-0.55939 -1.53954,-1.53842 -1.53954,-2.65722 0,-1.8181 -1.4007,-3.2168 -3.22119,-3.2168 -1.82051,0 -3.2212,1.3987 -3.2212,3.2168 0,1.1188 -0.55925,2.09783 -1.53955,2.65722 h -0.14062 z m 36.33691,-14.17676 c -0.20731,-0.006 -0.4169,-0.0354 -0.62695,-0.0879 l -18.90528,-3.63575 c -1.68045,-0.27969 -2.80049,-1.9575 -2.38037,-3.63573 0.28007,-1.53838 1.54015,-2.51807 3.08057,-2.51807 h 0.55957 l 18.76611,3.77636 c 1.68041,0.27971 2.79953,1.95751 2.51954,3.63575 -0.2451,1.46846 -1.56197,2.50931 -3.01319,2.46533 z m -62.871101,-0.041 c -1.45125,-0.0229 -2.769585,-0.95586 -3.014648,-2.42431 -0.28008,-1.67823 0.701385,-3.35603 2.381835,-3.63575 l 18.905274,-3.6372 h 0.55958 c 1.4004,0 2.80046,0.97968 3.08056,2.51807 0.4201,1.53838 -0.55934,3.07702 -2.23974,3.49657 l -19.045906,3.63575 c -0.21006,0.035 -0.419633,0.0501 -0.626955,0.0469 z m 0,-14.40527 c -1.45125,-0.023 -2.769585,-0.95587 -3.014648,-2.42431 -0.28008,-1.67823 0.701385,-3.35604 2.381835,-3.63575 l 19.044444,-3.77636 h 0.56103 c 1.4004,0 2.80047,0.97967 3.08057,2.51806 0.2801,1.53838 -0.69997,3.21688 -2.38037,3.49659 l -19.045906,3.7749 c -0.21006,0.035 -0.419633,0.0502 -0.626955,0.0469 z m 62.871101,-0.0996 c -0.20731,-0.006 -0.4169,-0.034 -0.62695,-0.0864 l -18.90528,-3.63573 c -1.68045,-0.27971 -2.80049,-1.95898 -2.38037,-3.63721 0.28007,-1.53839 1.54015,-2.5166 3.08057,-2.5166 h 0.55957 l 18.90527,3.63573 c 1.54041,0.55941 2.66037,2.09814 2.38038,3.77637 -0.2451,1.46847 -1.56197,2.50785 -3.01319,2.46387 z M 90.149339,403.79173 c -1.45125,0.044 -2.769585,-0.99687 -3.014648,-2.46533 -0.28008,-1.67824 0.701385,-3.35604 2.381835,-3.63574 l 18.905274,-3.63574 h 0.55958 c 1.4004,0 2.80046,0.97822 3.08056,2.5166 0.4201,1.53838 -0.55934,3.07702 -2.23974,3.49658 l -19.045906,3.63574 c -0.21006,0.0525 -0.419633,0.0816 -0.626955,0.0879 z m 62.865241,0 c -0.20349,-0.006 -0.41103,-0.0354 -0.62109,-0.0879 l -19.0459,-3.63574 c -1.68046,-0.27971 -2.80049,-1.95751 -2.38037,-3.63574 0.28007,-1.53838 1.54014,-2.51807 3.08056,-2.51807 h 0.56104 l 18.90527,3.63574 c 1.6805,0.27971 2.80047,1.95898 2.38037,3.63721 -0.24508,1.59083 -1.4554,2.64655 -2.87988,2.60449 z"
       inkscape:export-filename="/home/sandrine/Documents/TAF FIGLI/APF_site/EXE/AUTRES_PAGES/PNG_autrespages/savoirs.png"
       inkscape:export-xdpi="300"
       inkscape:export-ydpi="300" /><path
       id="path71951"
       style="fill:url(#linearGradient64563);fill-opacity:1;fill-rule:nonzero;stroke:none;stroke-width:0.999998"
       d="m 110.64522,340.85833 c -0.39421,0.0319 -0.80146,-0.0122 -1.19971,-0.14209 -25.137606,-8.23117 -42.230834,-29.00927 -43.103032,-52.09277 -1.709797,0.188 -3.400852,0.29736 -5.047852,0.29736 -4.713098,0 -8.942273,-0.79542 -12.565433,-2.36572 -0.703395,-0.3038 -1.26681,-0.86286 -1.573238,-1.56006 -6.797137,-15.458 2.50149,-39.57682 15.449708,-52.40332 8.257898,-8.181 19.148071,-12.68702 30.663571,-12.68702 h 0.0015 0.0029 c 5.228392,0 10.290626,0.93735 15.082036,2.77734 l 6.74414,-6.60937 c 0.5937,-0.583 1.36713,-0.87305 2.14013,-0.87305 0.78531,0 1.57111,0.29949 2.16651,0.89649 1.184,1.187 1.1729,3.09748 -0.0249,4.27149 l -4.62012,4.52929 c 0.1672,0.374 0.26074,0.78229 0.26074,1.21729 v 93.17724 c 0,1.6686 -1.36318,3.02051 -3.04687,3.02051 -1.6836,0 -3.04688,-1.35191 -3.04688,-3.02051 v -29.91211 l -16.475098,13.75196 c -1.288395,1.0751 -3.208756,0.90875 -4.293458,-0.36475 -1.082895,-1.2769 -0.91746,-3.18173 0.369142,-4.25683 l 19.939454,-16.64356 c 0.1393,-0.1174 0.30666,-0.17261 0.45996,-0.26221 v -18.40722 c -1.8456,3.1112 -4.07577,6.03716 -6.72217,8.66015 -7.538798,7.4719 -18.769689,13.25802 -29.771484,15.74121 0.3987,20.87981 15.91926,39.85443 38.922364,47.38331 1.5983,0.52632 2.46549,2.23033 1.93799,3.81445 -0.39697,1.18808 -1.46727,1.96665 -2.6499,2.0625 z m 16.94385,-2.14893 c -1.68361,0 -3.04688,-1.35037 -3.04688,-3.01904 V 226.17571 c 0,-1.669 1.36327,-3.02051 3.04688,-3.02051 0.0766,0 0.14898,0.019 0.22558,0.022 1.22572,0.007 2.44062,0.0567 3.64892,0.1377 0.3012,-0.095 0.60947,-0.15967 0.92286,-0.15967 0.45094,0 0.88878,0.13599 1.30664,0.33399 22.55733,2.338 41.32226,17.4857 48.75146,37.94971 0.0453,0.10369 0.0736,0.21053 0.10841,0.31933 2.13979,6.0052 3.3164,12.46093 3.3164,19.18213 0,6.5885 -1.13376,12.91688 -3.19336,18.82178 -0.0471,0.2227 -0.12133,0.42798 -0.21533,0.62988 -8.0751,22.3122 -29.61905,38.31738 -54.87158,38.31738 z m 3.04687,-6.13183 c 0.0975,-0.007 0.19254,-0.0181 0.29004,-0.0249 0.14973,-0.21917 0.32079,-0.42792 0.53321,-0.61085 0.16714,-0.14149 12.58929,-10.9534 18.75438,-29.78319 h -19.57763 z m 10.19678,-1.59815 c 15.3301,-3.99137 27.91394,-14.73834 34.33154,-28.81933 h -18.53613 c -3.9644,13.3837 -10.92561,23.18176 -15.79541,28.81933 z m -10.19678,-34.85889 h 21.24609 c 1.07081,-4.67109 1.72706,-9.73407 1.72706,-15.18017 0,-5.4408 -0.67746,-10.53727 -1.78125,-15.26367 h -21.1919 z m 27.51856,0 h 19.32422 c 1.4903,-4.80219 2.29687,-9.89787 2.29687,-15.18017 0,-5.3096 -0.81577,-10.43717 -2.32177,-15.26367 h -19.33888 c 0.9993,4.7419 1.58936,9.83847 1.58936,15.26367 0,5.4167 -0.5765,10.48148 -1.5498,15.18017 z M 61.299021,282.88128 c 12.265703,0 27.658388,-6.43263 36.600585,-15.29883 9.546304,-9.4546 13.151814,-23.26839 9.695814,-35.65869 l -20.635269,20.22802 -0.130365,14.46827 c -0.0157,1.6584 -1.37718,2.99267 -3.046875,2.99267 h -0.02783 c -1.6836,-0.0172 -3.034748,-1.37807 -3.019043,-3.04687 l 0.07617,-8.38916 -9.446775,9.26221 c -1.196205,1.1734 -3.127373,1.16239 -4.309575,-0.0249 -1.183898,-1.18729 -1.172993,-3.09661 0.02491,-4.27002 l 14.696776,-14.40967 c 0.003,-0.004 0.0048,-0.006 0.0088,-0.006 l 5.494627,-5.38916 -14.626462,1.41797 c -1.706303,0.16551 -3.165893,-1.05019 -3.329596,-2.70849 -0.165397,-1.6585 1.058498,-3.1383 2.733398,-3.3003 l 22.091311,-2.14306 9.370618,-9.18311 c -3.2976,-0.977 -6.725854,-1.47949 -10.248058,-1.47949 h -0.0015 c -9.891105,0 -19.250175,3.87648 -26.355473,10.91748 -10.973895,10.8744 -19.403873,31.51716 -14.617673,44.60596 2.608155,0.9405 5.62896,1.41504 9.001463,1.41504 z m 69.336919,-23.24414 h 19.49267 c -5.42689,-16.3897 -15.60935,-27.19986 -18.77636,-30.27686 -0.24027,-0.017 -0.47604,-0.0387 -0.71631,-0.0527 z m 25.93652,0 h 18.55225 c -6.3914,-13.95661 -18.84457,-24.61582 -34.01806,-28.65382 5.0196,6.057 11.62671,15.81702 15.46581,28.65382 z"
       inkscape:export-filename="/home/sandrine/Documents/TAF FIGLI/APF_site/EXE/AUTRES_PAGES/PNG_autrespages/ecologie.png"
       inkscape:export-xdpi="300"
       inkscape:export-ydpi="300" /><path
       id="path71981"
       style="fill:url(#linearGradient64563);fill-opacity:1;fill-rule:nonzero;stroke:none;stroke-width:0.999998"
       d="m 95.255693,638.27992 c -7.69587,0 -13.853033,-6.30178 -13.853033,-13.92919 v -67.09864 c 0,-7.7379 6.267098,-13.92774 13.853033,-13.92774 h 33.861327 c -2.7485,2.4319 -5.16668,5.30505 -6.92578,8.51075 H 95.255693 v -0.10987 c -2.968403,0 -5.3877,2.4323 -5.3877,5.417 v 67.2085 c 0,2.9847 2.419297,5.41698 5.3877,5.41698 h 52.990717 c 2.96841,0 5.3877,-2.43228 5.3877,-5.41698 v -25.09278 c 2.9684,-0.3316 5.82673,-1.10505 8.46534,-2.21045 v 27.30323 c 0,7.73794 -6.26713,13.92919 -13.85304,13.92919 z m 10.003417,-22.99365 c -2.30877,0 -4.2876,-1.87912 -4.2876,-4.31104 0,-2.43192 1.97883,-4.1997 4.2876,-4.1997 h 32.98242 c 2.4187,0 4.28907,1.87833 4.28907,4.1997 0,2.32139 -1.87037,4.31104 -4.28907,4.31104 z m 0,-20.33935 c -2.30877,0 -4.2876,-1.87912 -4.2876,-4.31104 0,-2.32138 1.86889,-4.31103 4.2876,-4.31103 h 19.021 c 2.5287,3.53734 5.71609,6.52177 9.45409,8.62207 z m 44.63672,-3.5376 c -13.193,0 -23.85645,-10.72182 -23.85645,-23.98682 0,-13.265 10.66345,-23.98828 23.85645,-23.98828 4.7275,0 9.12493,1.43749 12.75293,3.75878 l 9.56543,-11.49609 c 0.2198,-0.33159 0.54911,-0.66376 0.87891,-0.88476 2.85849,-2.3214 6.92703,-1.98933 9.23583,0.88476 2.41871,2.76351 1.97814,6.96425 -0.88037,9.28565 l -11.4331,9.61669 c 2.4187,3.7584 3.73828,8.06995 3.73828,12.82325 0,13.265 -10.66491,23.98682 -23.85791,23.98682 z m 0,-6.63282 c 9.5649,0 17.26025,-7.7368 17.26025,-17.354 0,-9.6171 -7.69535,-17.35547 -17.26025,-17.35547 -9.455,0 -17.26026,7.73837 -17.26026,17.35547 0,9.6172 7.69536,17.354 17.26026,17.354 z m 7.37695,-8.9209 c -1.01353,0.0885 -2.11381,-0.30911 -2.86962,-1.13818 l -6.48633,-7.40625 -2.41846,2.76416 c -1.20935,1.3265 -3.29789,1.54702 -4.61719,0.33106 -1.3193,-1.21596 -1.53894,-3.31563 -0.32959,-4.6421 l 4.83692,-5.52685 c 0.65965,-0.6632 1.53892,-1.10596 2.41846,-1.10596 0.98946,0 1.86878,0.44276 2.41845,1.10596 l 9.01611,10.28027 c 1.2094,1.32651 1.09815,3.42614 -0.33105,4.6421 -0.45353,0.41453 -1.02957,0.64268 -1.6377,0.69579 z m -52.01367,-1.13818 c -2.30877,0 -4.2876,-1.98965 -4.2876,-4.31103 0,-2.32139 1.86889,-4.31104 4.2876,-4.31104 h 12.86426 v 1.21582 c 0,2.54247 0.3292,4.97501 0.87891,7.29639 h -13.74317 z"
       inkscape:export-filename="/home/sandrine/Documents/TAF FIGLI/APF_site/EXE/AUTRES_PAGES/PNG_autrespages/resultats.png"
       inkscape:export-xdpi="300"
       inkscape:export-ydpi="300" /><path
       id="path73261"
       style="fill:url(#linearGradient73263);fill-opacity:1;fill-rule:nonzero;stroke:none;stroke-width:0.999998"
       d="m 676.40011,584.833 c -7.2477,0.0237 -11.77032,-2.05888 -12.04395,-2.16211 -1.05682,-0.51246 -1.51472,-1.70864 -1.10156,-2.80371 0.0376,-0.0996 0.0387,-0.0997 0.0762,-0.19922 0.55017,-1.15711 1.84501,-1.57886 2.90185,-1.0664 0.0995,0.0376 8.36849,3.72596 20.34961,0.28564 1.1583,-0.35903 2.37651,0.32813 2.73486,1.48682 0.35844,1.15872 -0.32849,2.37873 -1.48682,2.73779 -4.2774,1.26482 -8.13576,1.71043 -11.43017,1.72119 z m -0.0645,-8.11084 c -3.72261,0.002 -6.10148,-1.08114 -6.2124,-1.20117 -1.05684,-0.51246 -1.51473,-1.70863 -1.10157,-2.80371 0.0376,-0.0996 0.0372,-0.0997 0.0747,-0.19922 0.55021,-1.15717 1.84517,-1.5783 3.00146,-1.02832 0,0 3.60573,1.58816 8.84913,0.041 1.02127,-0.297 2.33979,0.42771 2.69823,1.58643 0.35832,1.15878 -0.32842,2.37733 -1.48681,2.73633 -2.1601,0.64212 -4.13066,0.86763 -5.82275,0.86865 z m 1.31396,-9.24756 c -1.93334,0.0558 -4.09086,-0.72177 -6.10986,-2.33642 -0.58367,-0.56148 -15.34298,-12.95338 -19.80176,-22.82374 -0.24774,-0.54835 -0.22149,-1.2205 -0.0337,-1.71825 0.22539,-0.59739 0.61191,-1.02053 1.16016,-1.26856 1.19586,-0.45858 2.48988,0.0298 2.98535,1.12647 3.9634,8.77369 18.00067,20.66563 18.58447,21.22705 1.50352,1.13585 3.09639,1.73613 3.75732,1.18945 0.34915,-0.32316 0.63543,-0.78305 0.72363,-1.31836 0.0264,-0.67234 -0.12072,-1.18269 -0.60498,-1.70655 l -8.47851,-10.36376 c -0.60815,-0.79805 -0.63073,-1.94317 -0.0937,-2.76416 0.5746,-0.92039 1.59647,-1.21763 2.59131,-0.84229 l 34.52197,13.02539 c 1.19385,0.45043 2.56536,-0.17053 3.01611,-1.36523 0.45072,-1.1946 -0.16845,-2.56568 -1.3623,-3.01612 l -7.36231,-2.77734 -16.61572,-6.26807 c -1.19385,-0.45043 -1.75002,-1.68528 -1.29932,-2.87988 0.45075,-1.19469 1.68311,-1.75267 2.87696,-1.30225 l 16.61572,6.26954 7.36084,2.77734 2.78613,1.05029 c 1.19388,0.45044 2.56395,-0.16917 3.01465,-1.36377 0.45074,-1.19469 -0.16843,-2.56567 -1.3623,-3.01611 l -2.78467,-1.05029 -5.96924,-2.25293 -14.52539,-5.47998 c -1.19386,-0.45042 -1.75152,-1.68373 -1.30078,-2.87842 0.45071,-1.1946 1.68457,-1.75414 2.87842,-1.30371 l 14.72314,5.55615 5.96924,2.25147 c 1.19385,0.45043 2.5654,-0.16917 3.01612,-1.36377 0.45074,-1.19469 -0.16846,-2.56568 -1.36231,-3.01612 l -7.56152,-2.85205 -0.29883,-0.11279 -14.52539,-5.47998 c -1.19385,-0.45043 -1.75152,-1.6852 -1.30079,-2.87989 0.45072,-1.1946 1.68457,-1.75266 2.87842,-1.30224 l 14.5254,5.47998 0.29883,0.1128 c 1.19394,0.45045 2.56393,-0.16917 3.01464,-1.36377 0.45072,-1.1946 -0.16836,-2.56566 -1.3623,-3.01612 l -2.78613,-1.05176 c -9.23932,-3.82706 -34.95742,-13.0744 -44.16211,-10.06494 -1.25777,0.3215 -2.51421,-0.2666 -2.87256,-1.42529 -0.14804,-0.51081 -0.19659,-0.98467 -0.009,-1.48243 0.22539,-0.59739 0.74976,-1.08147 1.39746,-1.29198 12.54249,-4.02456 45.43379,9.4084 47.18701,10.18359 l 2.78467,1.05176 c 3.48219,1.31379 5.27848,5.28861 3.96386,8.77294 -0.30046,0.79641 -0.66319,1.4562 -1.2246,2.04054 l 1.49267,0.5625 c 3.48215,1.31376 5.27848,5.29005 3.96387,8.7744 -0.37559,0.99551 -0.95013,1.91517 -1.78565,2.62354 1.71366,1.78375 2.27936,4.49993 1.34034,6.98877 -0.93898,2.48875 -3.25711,4.11521 -5.56055,4.49707 0.0974,0.94664 0.0206,2.05583 -0.39258,3.15088 -1.31461,3.48434 -5.2894,5.28201 -8.77148,3.96826 l -26.7627,-10.09717 3.11572,3.79102 c 1.25375,1.49651 1.82168,3.30346 1.61865,5.04638 -0.20296,1.74306 -1.13929,3.32246 -2.56054,4.37842 -0.92091,0.63344 -1.99966,0.96704 -3.15967,1.00049 z m -2.22803,-24.35595 c -0.8775,0.0101 -1.75397,-0.49146 -2.12549,-1.31397 -0.062,-0.13711 -4.6192,-10.04424 -14.80663,-12.86426 -1.23141,-0.35088 -1.88841,-1.62279 -1.57471,-2.75536 0.0376,-0.0996 0.0372,-0.0997 0.0747,-0.19923 0.41314,-1.09505 1.54734,-1.69027 2.67919,-1.37695 12.25239,3.37177 17.45387,14.8861 17.63965,15.29737 0.55736,1.23376 0.0696,2.5287 -1.02686,3.0249 -0.2741,0.12402 -0.56736,0.18414 -0.85986,0.1875 z m 46.8208,-19.99805 c -0.87915,-0.0278 -1.6722,-0.58231 -2.01562,-1.47949 -0.0995,-0.0375 -1.47176,-3.62614 -6.28271,-6.2373 -1.05684,-0.51246 -1.41513,-1.67049 -1.00196,-2.76563 0.0376,-0.0996 0.0738,-0.19928 0.11133,-0.29883 0.61206,-1.02001 1.94576,-1.54171 3.06446,-0.89209 6.32769,3.41087 8.2452,8.56994 8.30712,8.70703 0.35839,1.1587 -0.22876,2.41594 -1.2876,2.8125 -0.29896,0.11465 -0.60196,0.1631 -0.89502,0.15381 z m 9.0879,-0.89209 c -0.87917,-0.0279 -1.67223,-0.58232 -2.01563,-1.47949 -0.0995,-0.0375 -3.36534,-8.54905 -14.26758,-14.59571 -1.05673,-0.51242 -1.41514,-1.67047 -1.00195,-2.76562 0.0376,-0.0995 0.0752,-0.19928 0.1128,-0.29883 0.61215,-1.01996 1.94415,-1.5402 3.06298,-0.89063 12.51833,6.88374 16.14429,16.5531 16.33008,16.96436 0.45788,1.19624 -0.2293,2.41453 -1.32568,2.91064 -0.29898,0.11465 -0.60197,0.16456 -0.89502,0.15528 z"
       inkscape:export-filename="/home/sandrine/Documents/TAF FIGLI/APF_site/EXE/AUTRES_PAGES/PNG_autrespages/bof_gris.png"
       inkscape:export-xdpi="300"
       inkscape:export-ydpi="300" /><path
       id="path72045"
       style="fill:url(#linearGradient62175);fill-opacity:1;fill-rule:nonzero;stroke:none;stroke-width:0.999998"
       d="m 371.49112,351.72148 c -7.2477,0.0237 -11.77032,-2.05888 -12.04395,-2.16211 -1.05682,-0.51246 -1.51472,-1.70864 -1.10156,-2.80371 0.0376,-0.0996 0.0387,-0.0997 0.0762,-0.19922 0.55017,-1.15711 1.84501,-1.57886 2.90185,-1.0664 0.0995,0.0376 8.36849,3.72596 20.34961,0.28564 1.1583,-0.35903 2.37651,0.32813 2.73486,1.48682 0.35844,1.15872 -0.32849,2.37873 -1.48682,2.73779 -4.2774,1.26482 -8.13576,1.71043 -11.43017,1.72119 z m -0.0645,-8.11084 c -3.72261,0.002 -6.10148,-1.08114 -6.2124,-1.20117 -1.05684,-0.51246 -1.51473,-1.70863 -1.10157,-2.80371 0.0376,-0.0996 0.0372,-0.0997 0.0747,-0.19922 0.55021,-1.15717 1.84517,-1.5783 3.00146,-1.02832 0,0 3.60573,1.58816 8.84913,0.041 1.02127,-0.297 2.33979,0.42771 2.69823,1.58643 0.35832,1.15878 -0.32842,2.37733 -1.48681,2.73633 -2.1601,0.64212 -4.13066,0.86763 -5.82275,0.86865 z m 1.31396,-9.24756 c -1.93334,0.0558 -4.09086,-0.72177 -6.10986,-2.33642 -0.58367,-0.56148 -15.34298,-12.95338 -19.80176,-22.82374 -0.24774,-0.54835 -0.22149,-1.2205 -0.0337,-1.71825 0.22539,-0.59739 0.61191,-1.02053 1.16016,-1.26856 1.19586,-0.45858 2.48988,0.0298 2.98535,1.12647 3.9634,8.77369 18.00067,20.66563 18.58447,21.22705 1.50352,1.13585 3.09639,1.73613 3.75732,1.18945 0.34915,-0.32316 0.63543,-0.78305 0.72363,-1.31836 0.0264,-0.67234 -0.12072,-1.18269 -0.60498,-1.70655 l -8.47851,-10.36376 c -0.60815,-0.79805 -0.63073,-1.94317 -0.0937,-2.76416 0.5746,-0.92039 1.59647,-1.21763 2.59131,-0.84229 l 34.52197,13.02539 c 1.19385,0.45043 2.56536,-0.17053 3.01611,-1.36523 0.45072,-1.1946 -0.16845,-2.56568 -1.3623,-3.01612 l -7.36231,-2.77734 -16.61572,-6.26807 c -1.19385,-0.45043 -1.75002,-1.68528 -1.29932,-2.87988 0.45075,-1.19469 1.68311,-1.75267 2.87696,-1.30225 l 16.61572,6.26954 7.36084,2.77734 2.78613,1.05029 c 1.19388,0.45044 2.56395,-0.16917 3.01465,-1.36377 0.45074,-1.19469 -0.16843,-2.56567 -1.3623,-3.01611 l -2.78467,-1.05029 -5.96924,-2.25293 -14.52539,-5.47998 c -1.19386,-0.45042 -1.75152,-1.68373 -1.30078,-2.87842 0.45071,-1.1946 1.68457,-1.75414 2.87842,-1.30371 l 14.72314,5.55615 5.96924,2.25147 c 1.19385,0.45043 2.5654,-0.16917 3.01612,-1.36377 0.45074,-1.19469 -0.16846,-2.56568 -1.36231,-3.01612 l -7.56152,-2.85205 -0.29883,-0.11279 -14.52539,-5.47998 c -1.19385,-0.45043 -1.75152,-1.6852 -1.30079,-2.87989 0.45072,-1.1946 1.68457,-1.75266 2.87842,-1.30224 l 14.5254,5.47998 0.29883,0.1128 c 1.19394,0.45045 2.56393,-0.16917 3.01464,-1.36377 0.45072,-1.1946 -0.16836,-2.56566 -1.3623,-3.01612 l -2.78613,-1.05176 c -9.23932,-3.82706 -34.95742,-13.0744 -44.16211,-10.06494 -1.25777,0.3215 -2.51421,-0.2666 -2.87256,-1.42529 -0.14804,-0.51081 -0.19659,-0.98467 -0.009,-1.48243 0.22539,-0.59739 0.74976,-1.08147 1.39746,-1.29198 12.54249,-4.02456 45.43379,9.4084 47.18701,10.18359 l 2.78467,1.05176 c 3.48219,1.31379 5.27848,5.28861 3.96386,8.77294 -0.30046,0.79641 -0.66319,1.4562 -1.2246,2.04054 l 1.49267,0.5625 c 3.48215,1.31376 5.27848,5.29005 3.96387,8.7744 -0.37559,0.99551 -0.95013,1.91517 -1.78565,2.62354 1.71366,1.78375 2.27936,4.49993 1.34034,6.98877 -0.93898,2.48875 -3.25711,4.11521 -5.56055,4.49707 0.0974,0.94664 0.0206,2.05583 -0.39258,3.15088 -1.31461,3.48434 -5.2894,5.28201 -8.77148,3.96826 l -26.7627,-10.09717 3.11572,3.79102 c 1.25375,1.49651 1.82168,3.30346 1.61865,5.04638 -0.20296,1.74306 -1.13929,3.32246 -2.56054,4.37842 -0.92091,0.63344 -1.99966,0.96704 -3.15967,1.00049 z m -2.22803,-24.35595 c -0.8775,0.0101 -1.75397,-0.49146 -2.12549,-1.31397 -0.062,-0.13711 -4.6192,-10.04424 -14.80663,-12.86426 -1.23141,-0.35088 -1.88841,-1.62279 -1.57471,-2.75536 0.0376,-0.0996 0.0372,-0.0997 0.0747,-0.19923 0.41314,-1.09505 1.54734,-1.69027 2.67919,-1.37695 12.25239,3.37177 17.45387,14.8861 17.63965,15.29737 0.55736,1.23376 0.0696,2.5287 -1.02686,3.0249 -0.2741,0.12402 -0.56736,0.18414 -0.85986,0.1875 z m 46.8208,-19.99805 c -0.87915,-0.0278 -1.6722,-0.58231 -2.01562,-1.47949 -0.0995,-0.0375 -1.47176,-3.62614 -6.28271,-6.2373 -1.05684,-0.51246 -1.41513,-1.67049 -1.00196,-2.76563 0.0376,-0.0996 0.0738,-0.19928 0.11133,-0.29883 0.61206,-1.02001 1.94576,-1.54171 3.06446,-0.89209 6.32769,3.41087 8.2452,8.56994 8.30712,8.70703 0.35839,1.1587 -0.22876,2.41594 -1.2876,2.8125 -0.29896,0.11465 -0.60196,0.1631 -0.89502,0.15381 z m 9.0879,-0.89209 c -0.87917,-0.0279 -1.67223,-0.58232 -2.01563,-1.47949 -0.0995,-0.0375 -3.36534,-8.54905 -14.26758,-14.59571 -1.05673,-0.51242 -1.41514,-1.67047 -1.00195,-2.76562 0.0376,-0.0995 0.0752,-0.19928 0.1128,-0.29883 0.61215,-1.01996 1.94415,-1.5402 3.06298,-0.89063 12.51833,6.88374 16.14429,16.5531 16.33008,16.96436 0.45788,1.19624 -0.2293,2.41453 -1.32568,2.91064 -0.29898,0.11465 -0.60197,0.16456 -0.89502,0.15528 z"
       inkscape:export-filename="/home/sandrine/Documents/TAF FIGLI/APF_site/EXE/AUTRES_PAGES/PNG_autrespages/bof_rose.png"
       inkscape:export-xdpi="300"
       inkscape:export-ydpi="300" /><path
       id="path73265"
       style="fill:#7b7979;fill-opacity:1;fill-rule:nonzero;stroke:none;stroke-width:0.999998"
       d="m 583.98303,578.15538 v -0.001 c -0.4682,-0.0155 -0.95685,-0.25686 -1.30224,-0.6958 l -7.04151,-8.2793 v -0.003 c -0.9485,-1.12057 -0.12253,-2.92709 1.33887,-2.92968 0.5144,0 1.00407,0.22602 1.33887,0.61962 l 7.0415,8.28223 c 0.3772,0.41149 0.53727,0.93315 0.48047,1.40186 -0.0567,0.4687 -0.30049,0.86995 -0.62989,1.15429 -0.3294,0.28435 -0.75786,0.46671 -1.22607,0.45117 z m -9.32666,-1.23193 c -0.2167,0.009 -0.43822,-0.0214 -0.65332,-0.0996 -0.4304,-0.15627 -0.81474,-0.52222 -1.01514,-1.02685 l -2.35107,-5.92676 c -0.3605,-0.90575 0.0838,-1.95079 0.98291,-2.31299 v -10e-4 c 0.2079,-0.0826 0.43119,-0.12431 0.65479,-0.12451 0.71949,-6e-4 1.36999,0.44293 1.63769,1.11622 l 2.35108,5.92675 c 0.20049,0.50463 0.17227,1.03624 -0.0322,1.44873 -0.2044,0.41248 -0.55335,0.70506 -0.94775,0.86426 -0.1972,0.0796 -0.41016,0.12734 -0.62696,0.13623 z m 9.26954,-9.49805 c -0.22871,-0.0139 -0.4589,-0.074 -0.6753,-0.1831 l -4.70361,-2.37012 c -0.4823,-0.2429 -0.81108,-0.6594 -0.93018,-1.10449 -0.1191,-0.4451 -0.0506,-0.89717 0.13916,-1.28027 0.1898,-0.38301 0.50861,-0.71044 0.93311,-0.88184 0.4246,-0.1714 0.95324,-0.15794 1.43555,0.085 l 4.70361,2.37158 c 0.8659,0.4355 1.22235,1.51217 0.78955,2.38476 -0.216,0.4365 -0.5914,0.74457 -1.021,0.88917 -0.2148,0.0722 -0.4422,0.10335 -0.67089,0.0893 z m -32.86525,-2.87256 c -1.4664,0.003 -2.87373,-0.58566 -3.90673,-1.63476 -1.5943,-1.6189 -3.38448,-3.42145 -6.01758,-6.07324 h -10e-4 l -2.26758,-2.28956 c -0.3327,1.1865 -0.88308,2.30168 -1.78857,3.15089 l -0.003,0.003 -0.004,10e-4 c -1.6825,1.5325 -4.27646,1.46412 -5.87696,-0.15528 l -8.49169,-8.56201 c -7.98159,-7.81959 -8.45102,-20.60031 -1.06494,-28.99512 l 10e-4,-10e-4 v -0.003 c 1.70553,-1.8999 3.74625,-3.46256 6.01904,-4.60986 2.4025,-1.2114 5.02315,-1.91143 7.70215,-2.09473 1.3,-1.1473 2.72036,-2.14765 4.26416,-2.93115 h 0.003 c 7.9232,-4.0102 17.50869,-2.44543 23.77149,3.88037 l 15.9624,16.08838 c 2.1586,2.0882 2.32267,5.52971 0.37207,7.8164 l -10e-4,10e-4 -0.006,0.006 c -0.5387,0.6081 -1.29934,0.90438 -2.03614,1.22168 l 1.52198,1.53516 c 2.1594,2.08839 2.32347,5.5296 0.37206,7.8164 l -0.004,0.001 -0.004,0.006 c -0.5438,0.61359 -1.31155,0.9165 -2.05664,1.23339 2.05969,2.0971 2.20954,5.45129 0.29004,7.70069 l -0.006,0.004 -10e-4,0.006 c -2.113,2.3747 -5.79214,2.47373 -8.02734,0.21533 l -1.81641,-1.83105 c -0.2692,0.6351 -0.50563,1.29297 -0.99023,1.78857 0.3893,1.7176 0.0349,3.53155 -1.13525,4.86475 l -10e-4,10e-4 -10e-4,0.003 c -2.1173,2.3661 -5.79037,2.4612 -8.02587,0.208 l -1.74317,-1.75781 c -0.8639,1.9979 -2.76523,3.38095 -4.98633,3.38525 h -0.001 z m -0.0527,-3.54199 c 0.0943,10e-4 0.18932,-0.004 0.28271,-0.0161 v -0.003 c 0.1869,-0.0242 0.3705,-0.074 0.54639,-0.14795 0.70341,-0.2956 1.23634,-0.94511 1.23194,-1.87061 v -0.001 -0.003 c 0.001,-0.5254 -0.20632,-1.02819 -0.57422,-1.40039 l -0.007,-0.007 -0.0161,-0.0176 -4.33886,-4.37403 c -1.27031,0.67521 -2.77548,0.77615 -4.04298,0.0439 -0.33579,-0.1847 -0.64452,-0.41052 -0.91992,-0.67822 l -0.006,-0.004 -8.49756,-8.56641 c -0.49701,-0.501 -0.95943,-1.0221 -1.39454,-1.55419 -0.0829,-0.10091 -0.13219,-0.17583 -0.16699,-0.21973 -0.3596,-0.4483 -0.70678,-0.90638 -1.02978,-1.38428 -0.1519,-0.2241 -0.25878,-0.42513 -0.36768,-0.59033 l -0.004,-0.004 -10e-4,-0.006 c -0.2191,-0.34719 -0.44811,-0.70418 -0.65771,-1.08398 -0.15,-0.2711 -0.26945,-0.5317 -0.38965,-0.7705 v -10e-4 c -0.1549,-0.3112 -0.32245,-0.63336 -0.47315,-0.97266 -0.1332,-0.3031 -0.2415,-0.59644 -0.3501,-0.87304 -0.1119,-0.2849 -0.23903,-0.60738 -0.34863,-0.93018 -0.1109,-0.3263 -0.19671,-0.63929 -0.28271,-0.9419 -0.0858,-0.30129 -0.17206,-0.591 -0.24756,-0.9082 l 10e-4,10e-4 c -0.0813,-0.335 -0.14281,-0.66072 -0.20361,-0.97412 v -10e-4 c -0.0549,-0.2901 -0.11513,-0.59088 -0.16113,-0.90088 -0.0494,-0.3382 -0.0839,-0.6709 -0.12012,-0.9917 v -0.004 -0.006 c -0.0283,-0.2932 -0.0577,-0.59062 -0.0762,-0.89502 v -0.003 c -0.0183,-0.3387 -0.0257,-0.66992 -0.0293,-0.99902 v -0.006 -10e-4 c 0,-0.294 3.9e-4,-0.59258 0.009,-0.89648 v -10e-4 c 0.0113,-0.33159 0.0305,-0.66306 0.0571,-0.99316 v -0.003 c 0.0252,-0.3026 0.0574,-0.60494 0.0952,-0.90674 v -10e-4 c 0.0409,-0.32291 0.0862,-0.64537 0.14209,-0.96827 0.0572,-0.3314 0.1221,-0.61527 0.17871,-0.90527 0.0636,-0.3255 0.14485,-0.64249 0.22704,-0.94629 0.0846,-0.3128 0.18183,-0.62481 0.27833,-0.92871 0.0964,-0.3036 0.19066,-0.59039 0.30175,-0.88769 v -0.001 l 10e-4,-10e-4 c 0.1212,-0.3163 0.24926,-0.62524 0.38086,-0.93165 v -10e-4 -10e-4 c 0.1179,-0.2697 0.23609,-0.53801 0.35449,-0.8042 l 0.004,-0.009 0.006,-0.009 c 0.1597,-0.3308 0.33111,-0.64266 0.49951,-0.94776 0.1315,-0.24069 0.2663,-0.49489 0.4248,-0.75439 0.0626,-0.1033 0.13149,-0.19473 0.19629,-0.29444 -0.7684,0.25691 -1.56025,0.45049 -2.28516,0.81739 l -0.0103,0.006 c -1.8772,0.9499 -3.5636,2.24102 -4.97168,3.81152 l -0.003,10e-4 -0.001,0.003 c -6.12981,6.9956 -5.7165,17.59875 0.93897,24.08935 l 0.003,0.004 8.49316,8.55908 c 0.14951,0.15 0.35151,0.23434 0.5625,0.23584 h 0.003 c 0.1544,0.002 0.30155,-0.0551 0.41454,-0.16113 1.34501,-1.27071 1.38251,-3.39195 0.0791,-4.70655 l -0.0425,-0.0425 -0.009,-0.0132 -7.92774,-7.99073 c -9.9e-4,-9.9e-4 -0.002,-0.002 -0.003,-0.004 -0.39045,-0.3823 -0.57915,-0.88668 -0.55517,-1.35059 0.0241,-0.46539 0.2344,-0.87652 0.5376,-1.18212 0.30319,-0.3057 0.71154,-0.5177 1.17334,-0.542 0.4617,-0.0242 0.96199,0.16913 1.34179,0.56543 l 8.01123,8.07276 0.009,0.0132 6.3501,6.39551 v 10e-4 c 2.6353,2.65279 4.4285,4.46076 6.0249,6.08056 0.3246,0.3273 0.69557,0.50876 1.07227,0.57275 0.0942,0.016 0.18836,0.0251 0.28271,0.0264 z m 10.76221,-0.009 10e-4,-10e-4 c 0.5268,-0.0138 1.04659,-0.23777 1.43409,-0.66797 0.2195,-0.2517 0.21811,-0.59559 0.28272,-0.917 -0.50261,0.0437 -1.0072,0.0969 -1.5044,0 h -0.004 l -0.0732,-0.0146 v -0.001 c -0.65149,-0.1374 -1.27291,-0.39402 -1.83252,-0.75732 h -0.003 l -0.001,-10e-4 c -0.0474,-0.0301 -0.11693,-0.0749 -0.19043,-0.13183 -0.004,-0.003 -0.008,-0.006 -0.0117,-0.009 -0.2287,-0.163 -0.4445,-0.34433 -0.646,-0.54053 l -0.004,-10e-4 -0.006,-0.004 c 0.0544,0.0549 0.0263,0.0388 -0.0776,-0.0659 l -3.41016,-3.43798 c -1.0132,-1.0192 -2.69407,-2.71252 -4.90576,-4.94092 -0.0976,0.341 -0.17687,0.68601 -0.32667,1.00781 l 4.47364,4.50732 0.0234,0.0234 5.313,5.35986 c 0.40929,0.41049 0.94173,0.60852 1.46923,0.59472 z m 11.95166,-5.03613 h 0.009 0.006 c 0.5442,-0.0131 1.05696,-0.25601 1.42236,-0.66211 0.6959,-0.8837 0.61508,-2.14223 -0.19921,-2.91944 l -0.007,-0.007 -3.40136,-3.42773 -15.07911,-15.20508 c -0.3813,-0.3841 -0.56136,-0.8817 -0.53466,-1.34179 0.0266,-0.4602 0.23446,-0.86908 0.53466,-1.17188 0.3002,-0.3029 0.70366,-0.51176 1.16016,-0.53906 0.4565,-0.0272 0.95317,0.15496 1.33447,0.53906 l 15.0835,15.20361 c 0.8134,0.8235 2.11987,0.78702 2.89306,-0.0718 0.6945,-0.8844 0.61199,-2.14394 -0.20361,-2.91944 l -0.007,-0.007 -5.02734,-5.06542 -9.90235,-9.98585 c -10e-4,-9.9e-4 -2.6e-4,-0.002 -10e-4,-0.004 -0.39041,-0.3823 -0.58055,-0.88532 -0.55665,-1.34912 0.0241,-0.4655 0.23294,-0.87799 0.53613,-1.18359 0.30321,-0.3057 0.71154,-0.5177 1.17335,-0.542 0.4617,-0.0242 0.96346,0.16913 1.34326,0.56543 l 9.90381,9.98292 0.003,10e-4 c 0.382,0.3932 0.91045,0.6037 1.45605,0.58301 h 0.004 0.004 c 0.544,-0.0128 1.05394,-0.25338 1.41943,-0.65918 0.6952,-0.8832 0.61428,-2.1398 -0.19922,-2.9165 l -0.004,-0.007 -0.007,-0.006 -15.96973,-16.09717 c -5.1911,-5.2466 -13.12902,-6.54322 -19.69922,-3.21972 -1.8832,0.95319 -3.57532,2.24817 -4.99072,3.82177 -1.4875,1.6457 -2.63431,3.57591 -3.37061,5.67481 -1.5678,4.5669 -1.19581,9.58361 1.02539,13.86621 v 10e-4 c 0.8571,1.6782 1.96647,3.21321 3.28857,4.54981 l 8.4961,8.56054 c 0.0713,0.0717 0.15419,0.13019 0.24609,0.17139 l 0.004,0.003 0.004,10e-4 c 0.2409,0.1125 0.51924,0.0662 0.71924,-0.1084 0.6272,-0.6212 1.00074,-1.45775 1.03564,-2.34375 10e-4,-0.2059 -0.0143,-0.41097 -0.0498,-0.61377 l -0.009,-0.0498 v -0.003 c -0.1216,-0.6423 -0.42829,-1.23409 -0.88769,-1.69629 l -0.0498,-0.0513 -0.007,-0.0117 -7.91161,-7.97607 c -0.001,-10e-4 -0.002,-0.002 -0.003,-0.004 -0.3904,-0.3823 -0.58211,-0.88679 -0.55811,-1.35059 0.0241,-0.4655 0.2343,-0.87643 0.53759,-1.18213 0.30321,-0.30559 0.71165,-0.51779 1.17335,-0.54199 0.4618,-0.0243 0.96502,0.16903 1.34473,0.56543 l 7.97607,8.04053 8.88574,8.9707 1.47363,1.47949 2.05518,2.06983 c -0.003,-0.003 0.0286,0.0203 0.10107,0.0806 l 0.0117,0.0102 0.0117,0.0117 c 0.0496,0.0457 0.0999,0.0855 0.15381,0.12598 -0.007,-0.005 0.0266,0.0161 0.10108,0.0615 l 0.004,10e-4 10e-4,10e-4 c 0.0714,0.0451 0.14732,0.0851 0.22412,0.12012 0.0139,0.006 0.0418,0.0149 0.0937,0.0352 0.0851,0.0328 0.1733,0.0589 0.26221,0.0791 h -0.0103 l 0.0879,0.019 0.019,0.001 c 0.0966,0.0163 0.19497,0.0254 0.29297,0.0278 h 0.063 c 0.2535,-0.002 0.50368,-0.0512 0.73828,-0.14795 -0.0228,0.009 -10e-6,-0.004 0.063,-0.0322 0.2237,-0.1012 0.42825,-0.24318 0.60205,-0.41748 0.7813,-0.7917 0.77967,-2.05403 -0.003,-2.84473 l -13.28027,-13.37842 c -0.42111,-0.3784 -0.62941,-0.89223 -0.61231,-1.36963 0.017,-0.4774 0.22976,-0.90165 0.53906,-1.21435 0.3093,-0.31271 0.72767,-0.52779 1.20117,-0.54639 0.4736,-0.0185 0.98288,0.1933 1.35938,0.6167 l 13.27881,13.38134 5.33496,5.38038 0.007,0.006 c 0.3723,0.3972 0.89864,0.60852 1.43994,0.57862 z"
       inkscape:export-filename="/home/sandrine/Documents/TAF FIGLI/APF_site/EXE/AUTRES_PAGES/PNG_autrespages/bravo_gris.png"
       inkscape:export-xdpi="300"
       inkscape:export-ydpi="300" /><path
       id="path72053"
       style="fill:url(#linearGradient73271);fill-opacity:1;fill-rule:nonzero;stroke:none;stroke-width:0.999998"
       d="m 376.07948,156.55715 v -0.001 c -0.4682,-0.0155 -0.95685,-0.25686 -1.30224,-0.6958 l -7.04151,-8.2793 v -0.003 c -0.9485,-1.12057 -0.12253,-2.92709 1.33887,-2.92968 0.5144,0 1.00407,0.22602 1.33887,0.61962 l 7.0415,8.28223 c 0.3772,0.41149 0.53727,0.93315 0.48047,1.40186 -0.0567,0.4687 -0.30049,0.86995 -0.62989,1.15429 -0.3294,0.28435 -0.75786,0.46671 -1.22607,0.45117 z m -9.32666,-1.23193 c -0.2167,0.009 -0.43822,-0.0214 -0.65332,-0.0996 -0.4304,-0.15627 -0.81474,-0.52222 -1.01514,-1.02685 l -2.35107,-5.92676 c -0.3605,-0.90575 0.0838,-1.95079 0.98291,-2.31299 v -0.001 c 0.2079,-0.0826 0.43119,-0.12431 0.65479,-0.12451 0.71949,-6e-4 1.36999,0.44293 1.63769,1.11622 l 2.35108,5.92675 c 0.20049,0.50463 0.17227,1.03624 -0.0322,1.44873 -0.2044,0.41248 -0.55335,0.70506 -0.94775,0.86426 -0.1972,0.0796 -0.41016,0.12734 -0.62696,0.13623 z m 9.26954,-9.49805 c -0.22871,-0.0139 -0.4589,-0.074 -0.6753,-0.1831 l -4.70361,-2.37012 c -0.4823,-0.2429 -0.81108,-0.6594 -0.93018,-1.10449 -0.1191,-0.4451 -0.0506,-0.89717 0.13916,-1.28027 0.1898,-0.38301 0.50861,-0.71044 0.93311,-0.88184 0.4246,-0.1714 0.95324,-0.15794 1.43555,0.085 l 4.70361,2.37158 c 0.8659,0.4355 1.22235,1.51217 0.78955,2.38476 -0.216,0.4365 -0.5914,0.74457 -1.021,0.88917 -0.2148,0.0722 -0.4422,0.10335 -0.67089,0.0893 z m -32.86525,-2.87256 c -1.4664,0.003 -2.87373,-0.58566 -3.90673,-1.63476 -1.5943,-1.6189 -3.38448,-3.42145 -6.01758,-6.07324 h -10e-4 l -2.26758,-2.28956 c -0.3327,1.1865 -0.88308,2.30168 -1.78857,3.15089 l -0.003,0.003 -0.004,0.001 c -1.6825,1.5325 -4.27646,1.46412 -5.87696,-0.15528 L 314.8,127.39465 c -7.98159,-7.81959 -8.45102,-20.60031 -1.06494,-28.995116 l 0.001,-0.001 v -0.003 c 1.70553,-1.8999 3.74625,-3.46256 6.01904,-4.60986 2.4025,-1.2114 5.02315,-1.91143 7.70215,-2.09473 1.3,-1.1473 2.72036,-2.14765 4.26416,-2.93115 h 0.003 c 7.9232,-4.0102 17.50869,-2.44543 23.77149,3.88037 l 15.9624,16.088376 c 2.1586,2.0882 2.32267,5.52971 0.37207,7.8164 l -0.001,0.001 -0.006,0.006 c -0.5387,0.6081 -1.29934,0.90438 -2.03614,1.22168 l 1.52198,1.53516 c 2.1594,2.08839 2.32347,5.5296 0.37206,7.8164 l -0.004,0.001 -0.004,0.006 c -0.5438,0.61359 -1.31155,0.9165 -2.05664,1.23339 2.05969,2.0971 2.20954,5.45129 0.29004,7.70069 l -0.006,0.004 -10e-4,0.006 c -2.113,2.3747 -5.79214,2.47373 -8.02734,0.21533 l -1.81641,-1.83105 c -0.2692,0.6351 -0.50563,1.29297 -0.99023,1.78857 0.3893,1.7176 0.0349,3.53155 -1.13525,4.86475 l -10e-4,0.001 -10e-4,0.003 c -2.1173,2.3661 -5.79037,2.4612 -8.02587,0.208 l -1.74317,-1.75781 c -0.8639,1.9979 -2.76523,3.38095 -4.98633,3.38525 h -10e-4 z m -0.0527,-3.54199 c 0.0943,0.001 0.18932,-0.004 0.28271,-0.0161 v -0.003 c 0.1869,-0.0242 0.3705,-0.074 0.54639,-0.14795 0.70341,-0.2956 1.23634,-0.94511 1.23194,-1.87061 v -10e-4 -0.003 c 10e-4,-0.5254 -0.20632,-1.02819 -0.57422,-1.40039 l -0.007,-0.007 -0.0161,-0.0176 -4.33886,-4.37403 c -1.27031,0.67521 -2.77548,0.77615 -4.04298,0.0439 -0.33579,-0.1847 -0.64452,-0.41052 -0.91992,-0.67822 l -0.006,-0.004 -8.49756,-8.56641 c -0.49701,-0.501 -0.95943,-1.0221 -1.39454,-1.55419 -0.0829,-0.10091 -0.13219,-0.17583 -0.16699,-0.21973 -0.3596,-0.4483 -0.70678,-0.90638 -1.02978,-1.38428 -0.1519,-0.2241 -0.25878,-0.42513 -0.36768,-0.59033 l -0.004,-0.004 -0.001,-0.006 c -0.2191,-0.34719 -0.44811,-0.70418 -0.65771,-1.08398 -0.15,-0.2711 -0.26945,-0.5317 -0.38965,-0.7705 v -10e-4 c -0.1549,-0.3112 -0.32245,-0.63336 -0.47315,-0.97266 -0.1332,-0.3031 -0.2415,-0.59644 -0.3501,-0.87304 -0.1119,-0.2849 -0.23903,-0.60738 -0.34863,-0.93018 -0.1109,-0.3263 -0.19671,-0.63929 -0.28271,-0.9419 -0.0858,-0.30129 -0.17206,-0.591 -0.24756,-0.9082 l 0.001,0.001 c -0.0813,-0.335 -0.14281,-0.66072 -0.20361,-0.97412 v -0.001 c -0.0549,-0.2901 -0.11513,-0.59088 -0.16113,-0.90088 -0.0494,-0.3382 -0.0839,-0.6709 -0.12012,-0.9917 v -0.004 -0.006 c -0.0283,-0.2932 -0.0577,-0.59062 -0.0762,-0.89502 v -0.003 c -0.0183,-0.3387 -0.0257,-0.66992 -0.0293,-0.99902 v -0.006 -0.001 c 0,-0.294 3.9e-4,-0.59258 0.009,-0.89648 v -0.001 c 0.0113,-0.33159 0.0305,-0.66306 0.0571,-0.99316 v -0.003 c 0.0252,-0.3026 0.0574,-0.60494 0.0952,-0.90674 v -10e-4 c 0.0409,-0.32291 0.0862,-0.64537 0.14209,-0.96827 0.0572,-0.3314 0.1221,-0.61527 0.17871,-0.90527 0.0636,-0.3255 0.14485,-0.64249 0.22704,-0.94629 0.0846,-0.3128 0.18183,-0.62481 0.27833,-0.92871 0.0964,-0.3036 0.19066,-0.59039 0.30175,-0.887686 v -10e-4 l 0.001,-0.001 c 0.1212,-0.3163 0.24926,-0.62524 0.38086,-0.93165 v -10e-4 -0.001 c 0.1179,-0.2697 0.23609,-0.53801 0.35449,-0.8042 l 0.004,-0.009 0.006,-0.009 c 0.1597,-0.3308 0.33111,-0.64266 0.49951,-0.94776 0.1315,-0.24069 0.2663,-0.49489 0.4248,-0.75439 0.0626,-0.1033 0.13149,-0.19473 0.19629,-0.29444 -0.7684,0.25691 -1.56025,0.45049 -2.28516,0.81739 l -0.0103,0.006 c -1.8772,0.9499 -3.5636,2.24102 -4.97168,3.811516 l -0.003,0.001 -10e-4,0.003 c -6.12981,6.9956 -5.7165,17.59875 0.93897,24.08935 l 0.003,0.004 8.49316,8.55908 c 0.14951,0.15 0.35151,0.23434 0.5625,0.23584 h 0.003 c 0.1544,0.002 0.30155,-0.0551 0.41454,-0.16113 1.34501,-1.27071 1.38251,-3.39195 0.0791,-4.70655 l -0.0425,-0.0425 -0.009,-0.0132 -7.92774,-7.99073 c -9.9e-4,-9.9e-4 -0.002,-0.002 -0.003,-0.004 -0.39045,-0.3823 -0.57915,-0.88668 -0.55517,-1.35059 0.0241,-0.46539 0.2344,-0.87652 0.5376,-1.18212 0.30319,-0.3057 0.71154,-0.5177 1.17334,-0.542 0.4617,-0.0242 0.96199,0.16913 1.34179,0.56543 l 8.01123,8.07276 0.009,0.0132 6.3501,6.39551 v 0.001 c 2.6353,2.65279 4.4285,4.46076 6.0249,6.08056 0.3246,0.3273 0.69557,0.50876 1.07227,0.57275 0.0942,0.016 0.18836,0.0251 0.28271,0.0264 z m 10.76221,-0.009 10e-4,-10e-4 c 0.5268,-0.0138 1.04659,-0.23777 1.43409,-0.66797 0.2195,-0.2517 0.21811,-0.59559 0.28272,-0.917 -0.50261,0.0437 -1.0072,0.0969 -1.5044,0 h -0.004 l -0.0732,-0.0146 v -0.001 c -0.65149,-0.1374 -1.27291,-0.39402 -1.83252,-0.75732 h -0.003 l -10e-4,-10e-4 c -0.0474,-0.0301 -0.11693,-0.0749 -0.19043,-0.13183 -0.004,-0.003 -0.008,-0.006 -0.0117,-0.009 -0.2287,-0.163 -0.4445,-0.34433 -0.646,-0.54053 l -0.004,-0.001 -0.006,-0.004 c 0.0544,0.0549 0.0263,0.0388 -0.0776,-0.0659 l -3.41016,-3.43798 c -1.0132,-1.0192 -2.69407,-2.71252 -4.90576,-4.94092 -0.0976,0.341 -0.17687,0.68601 -0.32667,1.00781 l 4.47364,4.50732 0.0234,0.0234 5.313,5.35986 c 0.40929,0.41049 0.94173,0.60852 1.46923,0.59472 z m 11.95166,-5.03613 h 0.009 0.006 c 0.5442,-0.0131 1.05696,-0.25601 1.42236,-0.66211 0.6959,-0.8837 0.61508,-2.14223 -0.19921,-2.91944 l -0.007,-0.007 -3.40136,-3.42773 -15.07911,-15.20508 c -0.3813,-0.3841 -0.56136,-0.8817 -0.53466,-1.34179 0.0266,-0.4602 0.23446,-0.86908 0.53466,-1.17188 0.3002,-0.3029 0.70366,-0.51176 1.16016,-0.53906 0.4565,-0.0272 0.95317,0.15496 1.33447,0.53906 l 15.0835,15.20361 c 0.8134,0.8235 2.11987,0.78702 2.89306,-0.0718 0.6945,-0.8844 0.61199,-2.14394 -0.20361,-2.91944 l -0.007,-0.007 -5.02734,-5.06542 -9.90235,-9.98585 c -0.001,-9.9e-4 -2.6e-4,-0.002 -0.001,-0.004 -0.39041,-0.3823 -0.58055,-0.88532 -0.55665,-1.34912 0.0241,-0.4655 0.23294,-0.87799 0.53613,-1.18359 0.30321,-0.3057 0.71154,-0.5177 1.17335,-0.542 0.4617,-0.0242 0.96346,0.16913 1.34326,0.56543 l 9.90381,9.98292 0.003,10e-4 c 0.382,0.3932 0.91045,0.6037 1.45605,0.58301 h 0.004 0.004 c 0.544,-0.0128 1.05394,-0.25338 1.41943,-0.65918 0.6952,-0.8832 0.61428,-2.1398 -0.19922,-2.9165 l -0.004,-0.007 -0.007,-0.006 -15.96973,-16.097166 c -5.1911,-5.2466 -13.12902,-6.54322 -19.69922,-3.21972 -1.8832,0.95319 -3.57532,2.24817 -4.99072,3.82177 -1.4875,1.6457 -2.63431,3.57591 -3.37061,5.674806 -1.5678,4.5669 -1.19581,9.58361 1.02539,13.86621 v 10e-4 c 0.8571,1.6782 1.96647,3.21321 3.28857,4.54981 l 8.4961,8.56054 c 0.0713,0.0717 0.15419,0.13019 0.24609,0.17139 l 0.004,0.003 0.004,0.001 c 0.2409,0.1125 0.51924,0.0662 0.71924,-0.1084 0.6272,-0.6212 1.00074,-1.45775 1.03564,-2.34375 0.001,-0.2059 -0.0143,-0.41097 -0.0498,-0.61377 l -0.009,-0.0498 v -0.003 c -0.1216,-0.6423 -0.42829,-1.23409 -0.88769,-1.69629 l -0.0498,-0.0513 -0.007,-0.0117 -7.91161,-7.97607 c -10e-4,-0.001 -0.002,-0.002 -0.003,-0.004 -0.3904,-0.3823 -0.58211,-0.88679 -0.55811,-1.35059 0.0241,-0.4655 0.2343,-0.87643 0.53759,-1.18213 0.30321,-0.30559 0.71165,-0.51779 1.17335,-0.54199 0.4618,-0.0243 0.96502,0.16903 1.34473,0.56543 l 7.97607,8.04053 8.88574,8.9707 1.47363,1.47949 2.05518,2.06983 c -0.003,-0.003 0.0286,0.0203 0.10107,0.0806 l 0.0117,0.0102 0.0117,0.0117 c 0.0496,0.0457 0.0999,0.0855 0.15381,0.12598 -0.007,-0.005 0.0266,0.0161 0.10108,0.0615 l 0.004,0.001 0.001,0.001 c 0.0714,0.0451 0.14732,0.0851 0.22412,0.12012 0.0139,0.006 0.0418,0.0149 0.0937,0.0352 0.0851,0.0328 0.1733,0.0589 0.26221,0.0791 h -0.0103 l 0.0879,0.019 0.019,0.001 c 0.0966,0.0163 0.19497,0.0254 0.29297,0.0278 h 0.063 c 0.2535,-0.002 0.50368,-0.0512 0.73828,-0.14795 -0.0228,0.009 -10e-6,-0.004 0.063,-0.0322 0.2237,-0.1012 0.42825,-0.24318 0.60205,-0.41748 0.7813,-0.7917 0.77967,-2.05403 -0.003,-2.84473 l -13.28027,-13.37842 c -0.42111,-0.3784 -0.62941,-0.89223 -0.61231,-1.36963 0.017,-0.4774 0.22976,-0.90165 0.53906,-1.21435 0.3093,-0.31271 0.72767,-0.52779 1.20117,-0.54639 0.4736,-0.0185 0.98288,0.1933 1.35938,0.6167 l 13.27881,13.38134 5.33496,5.38038 0.007,0.006 c 0.3723,0.3972 0.89864,0.60852 1.43994,0.57862 z"
       inkscape:export-filename="/home/sandrine/Documents/TAF FIGLI/APF_site/EXE/AUTRES_PAGES/PNG_autrespages/bravo_vert.png"
       inkscape:export-xdpi="300"
       inkscape:export-ydpi="300" /><path
       d="m 686.24384,409.55382 c -1.0765,-0.027 -1.9351,-0.90999 -1.9347,-1.98978 v -4.4568 c 5e-4,-1.09853 0.8888,-1.98878 1.9843,-1.98878 1.0956,0 1.9839,0.89025 1.9844,1.98878 v 4.4568 c 2e-4,0.53645 -0.2157,1.05025 -0.5986,1.42487 -0.383,0.37462 -0.9005,0.57832 -1.4354,0.56491 z m -12.3558,-5.09881 c -0.7994,-0.009 -1.5153,-0.49831 -1.8169,-1.24077 -0.3015,-0.74245 -0.1298,-1.5938 0.4356,-2.16051 l 3.175,-3.18369 c 0.3722,-0.3737 0.8778,-0.583 1.4046,-0.5814 0.8034,-10e-4 1.5283,0.4837 1.8359,1.228 0.3077,0.7443 0.1373,1.6011 -0.4314,2.17022 l -3.175,3.18365 c -0.378,0.37965 -0.8928,0.59038 -1.4278,0.5845 z m 24.8232,-0.0327 c -0.539,0.01 -1.0589,-0.20073 -1.4402,-0.58294 l -3.175,-3.18365 c -0.7759,-0.77787 -0.7761,-2.03913 -5e-4,-2.81733 0.7756,-0.7782 2.0335,-0.7786 2.8097,-10e-4 l 3.1749,3.18364 c 0.564,0.5651 0.7365,1.41352 0.4381,2.1549 -0.2983,0.74138 -1.0098,1.2321 -1.807,1.24638 z m -13.6673,-7.55492 c -1.8149,-0.0355 -3.4016,-1.2364 -3.9331,-2.9769 -0.0281,-0.0937 -0.0493,-0.1893 -0.0635,-0.286 l -0.5954,-4.2983 c -0.1794,-1.291 -0.5542,-2.547 -1.1115,-3.7246 l -5.7872,-12.1859 c -0.8783,-2.0388 -2.6896,-3.5228 -4.8571,-3.9795 v 0.9467 c 0,2.1978 -1.7769,3.9796 -3.9687,3.9796 h -11.49386 c -2.19188,0 -3.96874,-1.7818 -3.96874,-3.9796 v -34.8289 c 0,-2.1979 1.77686,-3.9796 3.96874,-3.9796 h 11.49386 c 2.0879,-0.005 3.8227,1.6128 3.9687,3.7013 l 2.4603,-1.4814 c 2.3424,-1.4097 5.0227,-2.155 7.7546,-2.1562 h 16.7725 c 2.0285,-0.0215 4.0394,0.3797 5.9051,1.1784 5.3578,2.3877 6.1996,6.5818 5.8027,9.3675 2.8182,2.373 3.85,6.2632 2.5797,9.7266 1.328,1.6111 2.0325,3.6481 1.9844,5.7377 -0.0871,1.637 -0.6533,3.2121 -1.6279,4.5283 1.2487,2.8828 0.5167,6.2433 -1.8169,8.3415 -0.164,0.1539 -0.3363,0.3004 -0.5162,0.4384 -0.9028,0.6729 -1.9441,1.135 -3.0479,1.3524 h -0.0868 c -5.2626,1.1223 -8.803,1.1939 -14.01,1.1939 -0.1984,1.2018 -0.1903,3.7252 1.3813,8.4768 1.4526,4.4014 1.3252,8.0386 -0.3813,10.8163 -1.4249,2.2486 -3.7713,3.7472 -6.4058,4.0915 h -0.2465 c -0.0512,9e-4 -0.1023,9e-4 -0.1535,0 z m -0.0124,-3.9718 c 1.4002,-0.2226 2.6422,-1.0261 3.4214,-2.2136 1.0478,-1.7033 1.0478,-4.2889 0,-7.4726 -1.5398,-4.6481 -2.0167,-8.318 -1.4293,-10.9127 0.3729,-1.6476 1.8389,-2.813 3.5238,-2.8012 5.2467,0 8.4851,-0.0483 13.4937,-1.1068 h 0.0806 c 0.529,-0.0959 1.0303,-0.3077 1.4681,-0.6203 l 0.2543,-0.2145 c 2.032,-1.8386 0.7458,-4.1947 0.4759,-4.6325 -0.5247,-0.8223 -0.3769,-1.9049 0.3488,-2.5556 0.7726,-0.7842 1.247,-1.8149 1.341,-2.9132 -0.047,-1.4811 -0.6915,-2.8796 -1.7859,-3.8754 -0.6106,-0.6473 -0.7177,-1.6227 -0.262,-2.3877 0.0873,-0.1512 2.1271,-3.7093 -1.913,-6.686 -0.6939,-0.524 -0.975,-1.4348 -0.6977,-2.2602 0.2143,-0.6368 1.0556,-3.9004 -3.3021,-5.8186 -1.3815,-0.5787 -2.8687,-0.8604 -4.3656,-0.827 h -16.8035 c -2.0108,0.003 -3.9831,0.5533 -5.7067,1.5918 l -4.4772,2.6909 v 25.4692 l 0.4124,0.0621 c 3.5732,0.6286 6.5884,3.0235 8.0165,6.3673 l 5.7392,12.1548 c 0.7296,1.5449 1.2195,3.1925 1.4526,4.8858 l 0.6108,4.02 c 0.0288,0.0281 0.0647,0.0474 0.1039,0.056 z m -16.2083,-0.8597 c -1.0959,0 -1.9844,-0.8908 -1.9844,-1.9897 0,-1.099 0.8885,-1.9898 1.9844,-1.9898 h 4.4447 c 1.0955,5e-4 1.9833,0.8912 1.9833,1.9898 0,1.0985 -0.8878,1.9892 -1.9833,1.9897 z m 30.4957,0 c -1.0959,0 -1.9844,-0.8908 -1.9844,-1.9897 0,-1.099 0.8885,-1.9898 1.9844,-1.9898 h 4.4447 c 1.0955,5e-4 1.9834,0.8912 1.9834,1.9898 0,1.0985 -0.8879,1.9892 -1.9834,1.9897 z m -46.08536,-21.673 h 11.49386 v -34.8289 h -11.49386 z m 5.74692,-26.2091 c -1.33692,-6e-4 -2.42034,-1.0876 -2.42,-2.4282 5.1e-4,-1.34 1.08368,-2.4261 2.42,-2.4266 1.33694,-3e-4 2.42104,1.086 2.42154,2.4266 4e-4,1.3412 -1.084,2.4285 -2.42154,2.4282 z"
       style="fill:url(#linearGradient73259);fill-opacity:1;fill-rule:nonzero;stroke:none"
       id="path73257"
       inkscape:export-filename="/home/sandrine/Documents/TAF FIGLI/APF_site/EXE/AUTRES_PAGES/PNG_autrespages/pas_mal_orange.png"
       inkscape:export-xdpi="300"
       inkscape:export-ydpi="300" /><path
       d="m 821.08627,588.7947 c -1.0765,-0.027 -1.9351,-0.90999 -1.9347,-1.98978 v -4.4568 c 5e-4,-1.09853 0.8888,-1.98878 1.9843,-1.98878 1.0956,0 1.9839,0.89025 1.9844,1.98878 v 4.4568 c 2e-4,0.53645 -0.2157,1.05025 -0.5986,1.42487 -0.383,0.37462 -0.9005,0.57832 -1.4354,0.56491 z m -12.3558,-5.09881 c -0.7994,-0.009 -1.5153,-0.49831 -1.8169,-1.24077 -0.3015,-0.74245 -0.1298,-1.5938 0.4356,-2.16051 l 3.175,-3.18369 c 0.3722,-0.3737 0.8778,-0.583 1.4046,-0.5814 0.8034,-0.001 1.5283,0.4837 1.8359,1.228 0.3077,0.7443 0.1373,1.6011 -0.4314,2.17022 l -3.175,3.18365 c -0.378,0.37965 -0.8928,0.59038 -1.4278,0.5845 z m 24.8232,-0.0327 c -0.539,0.01 -1.0589,-0.20073 -1.4402,-0.58294 l -3.175,-3.18365 c -0.7759,-0.77787 -0.7761,-2.03913 -5e-4,-2.81733 0.7756,-0.7782 2.0335,-0.7786 2.8097,-10e-4 l 3.1749,3.18364 c 0.564,0.5651 0.7365,1.41352 0.4381,2.1549 -0.2983,0.74138 -1.0098,1.2321 -1.807,1.24638 z m -13.6673,-7.55492 c -1.8149,-0.0355 -3.4016,-1.2364 -3.9331,-2.9769 -0.0281,-0.0937 -0.0493,-0.1893 -0.0635,-0.286 l -0.5954,-4.2983 c -0.1794,-1.291 -0.5542,-2.547 -1.1115,-3.7246 l -5.7872,-12.1859 c -0.8783,-2.0388 -2.6896,-3.5228 -4.8571,-3.9795 v 0.9467 c 0,2.1978 -1.7769,3.9796 -3.9687,3.9796 h -11.49386 c -2.19188,0 -3.96874,-1.7818 -3.96874,-3.9796 v -34.8289 c 0,-2.1979 1.77686,-3.9796 3.96874,-3.9796 h 11.49386 c 2.0879,-0.005 3.8227,1.6128 3.9687,3.7013 l 2.4603,-1.4814 c 2.3424,-1.4097 5.0227,-2.155 7.7546,-2.1562 h 16.7725 c 2.0285,-0.0215 4.0394,0.3797 5.9051,1.1784 5.3578,2.3877 6.1996,6.5818 5.8027,9.3675 2.8182,2.373 3.85,6.2632 2.5797,9.7266 1.328,1.6111 2.0325,3.6481 1.9844,5.7377 -0.0871,1.637 -0.6533,3.2121 -1.6279,4.5283 1.2487,2.8828 0.5167,6.2433 -1.8169,8.3415 -0.164,0.1539 -0.3363,0.3004 -0.5162,0.4384 -0.9028,0.6729 -1.9441,1.135 -3.0479,1.3524 h -0.0868 c -5.2626,1.1223 -8.803,1.1939 -14.01,1.1939 -0.1984,1.2018 -0.1903,3.7252 1.3813,8.4768 1.4526,4.4014 1.3252,8.0386 -0.3813,10.8163 -1.4249,2.2486 -3.7713,3.7472 -6.4058,4.0915 h -0.2465 c -0.0512,9e-4 -0.1023,9e-4 -0.1535,0 z m -0.0124,-3.9718 c 1.4002,-0.2226 2.6422,-1.0261 3.4214,-2.2136 1.0478,-1.7033 1.0478,-4.2889 0,-7.4726 -1.5398,-4.6481 -2.0167,-8.318 -1.4293,-10.9127 0.3729,-1.6476 1.8389,-2.813 3.5238,-2.8012 5.2467,0 8.4851,-0.0483 13.4937,-1.1068 h 0.0806 c 0.529,-0.0959 1.0303,-0.3077 1.4681,-0.6203 l 0.2543,-0.2145 c 2.032,-1.8386 0.7458,-4.1947 0.4759,-4.6325 -0.5247,-0.8223 -0.3769,-1.9049 0.3488,-2.5556 0.7726,-0.7842 1.247,-1.8149 1.341,-2.9132 -0.047,-1.4811 -0.6915,-2.8796 -1.7859,-3.8754 -0.6106,-0.6473 -0.7177,-1.6227 -0.262,-2.3877 0.0873,-0.1512 2.1271,-3.7093 -1.913,-6.686 -0.6939,-0.524 -0.975,-1.4348 -0.6977,-2.2602 0.2143,-0.6368 1.0556,-3.9004 -3.3021,-5.8186 -1.3815,-0.5787 -2.8687,-0.8604 -4.3656,-0.827 h -16.8035 c -2.0108,0.003 -3.9831,0.5533 -5.7067,1.5918 l -4.4772,2.6909 v 25.4692 l 0.4124,0.0621 c 3.5732,0.6286 6.5884,3.0235 8.0165,6.3673 l 5.7392,12.1548 c 0.7296,1.5449 1.2195,3.1925 1.4526,4.8858 l 0.6108,4.02 c 0.0288,0.0281 0.0647,0.0474 0.1039,0.056 z m -16.2083,-0.8597 c -1.0959,0 -1.9844,-0.8908 -1.9844,-1.9897 0,-1.099 0.8885,-1.9898 1.9844,-1.9898 h 4.4447 c 1.0955,5e-4 1.9833,0.8912 1.9833,1.9898 0,1.0985 -0.8878,1.9892 -1.9833,1.9897 z m 30.4957,0 c -1.0959,0 -1.9844,-0.8908 -1.9844,-1.9897 0,-1.099 0.8885,-1.9898 1.9844,-1.9898 h 4.4447 c 1.0955,5e-4 1.9834,0.8912 1.9834,1.9898 0,1.0985 -0.8879,1.9892 -1.9834,1.9897 z m -46.08536,-21.673 h 11.49386 v -34.8289 h -11.49386 z m 5.74692,-26.2091 c -1.33692,-6e-4 -2.42034,-1.0876 -2.42,-2.4282 5.1e-4,-1.34 1.08368,-2.4261 2.42,-2.4266 1.33694,-3e-4 2.42104,1.086 2.42154,2.4266 4e-4,1.3412 -1.084,2.4285 -2.42154,2.4282 z"
       style="fill:url(#linearGradient73195);fill-opacity:1;fill-rule:nonzero;stroke:none"
       id="path72061"
       inkscape:export-filename="/home/sandrine/Documents/TAF FIGLI/APF_site/EXE/AUTRES_PAGES/PNG_autrespages/pas_mal_gris.png"
       inkscape:export-xdpi="300"
       inkscape:export-ydpi="300" /><path
       d="m 672.18836,203.31953 h -3.71647 c -0.76301,0 -1.38156,-0.6141 -1.38156,-1.3715 v -9.7981 c 0,-0.7574 0.61855,-1.3716 1.38156,-1.3716 0.76302,0 1.38157,0.6142 1.38157,1.3716 v 3.5275 h 2.3349 c 2.1213,0.0105 3.8384,1.7151 3.849,3.821 0.0112,1.0168 -0.3907,1.9952 -1.115,2.7142 -0.7243,0.719 -1.7098,1.118 -2.734,1.1069 z m 0,-4.8991 h -2.3349 v 2.156 h 2.3349 c 0.29,0.007 0.5702,-0.1045 0.7754,-0.3082 0.2052,-0.2036 0.3173,-0.4818 0.3105,-0.7698 0,-0.5953 -0.4862,-1.078 -1.0859,-1.078 z m 10.8978,4.9155 h -3.7303 c -0.763,0 -1.3815,-0.614 -1.3815,-1.3715 v -9.8311 c 0,-0.7574 0.6185,-1.3716 1.3815,-1.3716 h 3.7303 c 2.1364,0 3.8684,1.7194 3.8684,3.8404 v 4.9155 c -0.0122,2.1124 -1.7406,3.8184 -3.8684,3.8183 z m 1.1052,-8.7447 c 0,-0.6061 -0.4948,-1.0972 -1.1052,-1.0972 h -2.3487 v 7.0989 h 2.3487 c 0.6104,0 1.1052,-0.4912 1.1052,-1.0972 z m 4.7471,-2.4687 v 9.8419 c 0,0.7575 0.6187,1.3715 1.3816,1.3715 h 6.2032 c 0.7629,0 1.3816,-0.614 1.3816,-1.3715 0,-0.7575 -0.6187,-1.3715 -1.3816,-1.3715 h -4.8327 v -2.1725 h 3.2025 c 0.7629,0 1.3815,-0.614 1.3815,-1.3715 0,-0.7575 -0.6186,-1.3715 -1.3815,-1.3715 h -3.2025 v -3.5441 c 0,-0.7574 -0.6187,-1.3716 -1.3816,-1.3716 -0.7629,0 -1.3816,0.6142 -1.3816,1.3716 z m 16.4324,23.30472 c -0.006,3.65561 -2.9906,6.61715 -6.673,6.62168 h -32.47792 c -3.68241,-0.005 -6.66689,-2.96607 -6.67298,-6.62168 v -36.75662 c 0.006,-3.6556 2.99057,-6.6171 6.67298,-6.6218 h 24.83512 c 0.1823,-8e-4 0.363,0.0357 0.5305,0.1071 0.1674,0.0685 0.3194,0.1695 0.4476,0.2961 l 12.9287,12.8347 c 0.1282,0.1278 0.2305,0.2785 0.3012,0.4444 0.0705,0.1667 0.1072,0.3459 0.1078,0.5268 z M 662.3101,178.67063 v 36.75662 c 0.005,2.1413 1.75282,3.87563 3.90984,3.87865 h 32.47792 c 2.1569,-0.003 3.9051,-1.73735 3.9098,-3.87865 v -27.79782 h -6.264 c -3.683,-0.005 -6.6672,-2.9681 -6.6702,-6.6245 v -6.213 h -23.45352 c -2.15702,0.003 -3.90528,1.7373 -3.90984,3.8787 z m 38.34126,6.2157 -8.2148,-8.1549 v 4.2735 c 0.002,2.1419 1.7494,3.8784 3.9071,3.8814 z"
       style="fill:url(#linearGradient62163);fill-opacity:1;fill-rule:nonzero;stroke:none"
       id="path72069"
       inkscape:export-filename="/home/sandrine/Documents/TAF FIGLI/APF_site/EXE/AUTRES_PAGES/PNG_autrespages/picto_pdf.png"
       inkscape:export-xdpi="300"
       inkscape:export-ydpi="300" /><rect
       style="fill:url(#linearGradient73186);fill-opacity:1;fill-rule:evenodd;stroke:none;stroke-width:0.75px;stroke-linecap:butt;stroke-linejoin:miter;stroke-opacity:1"
       id="rect73199"
       width="102.71587"
       height="47.935581"
       x="630.48505"
       y="-309.27124"
       transform="scale(1,-1)" /><rect
       style="fill:url(#linearGradient73195);fill-opacity:1;fill-rule:evenodd;stroke:none;stroke-width:0.75px;stroke-linecap:butt;stroke-linejoin:miter;stroke-opacity:1"
       id="rect71603"
       width="102.71587"
       height="47.935581"
       x="569.14856"
       y="-476.48151"
       transform="scale(1,-1)" /><text
       xml:space="preserve"
       style="color:#000000;font-weight:900;font-size:20px;line-height:28.8889px;font-family:Montserrat;-inkscape-font-specification:'Montserrat Heavy';writing-mode:lr-tb;overflow:visible;fill:#000000;fill-opacity:1;fill-rule:evenodd;stroke:none;stroke-width:5.25;stroke-linejoin:round;stroke-opacity:1"
       x="751.0777"
       y="-284.14526"
       id="text73203"
       transform="scale(1,-1)"><tspan
         sodipodi:role="line"
         id="tspan73201"
         x="751.0777"
         y="-284.14526"
         style="font-style:normal;font-variant:normal;font-weight:500;font-stretch:normal;font-size:20px;font-family:Montserrat;-inkscape-font-specification:'Montserrat Medium';fill:#000000;fill-opacity:1;stroke:none;stroke-width:5.25;stroke-opacity:1">242/128/51</tspan></text><text
       xml:space="preserve"
       style="color:#000000;font-weight:900;font-size:20px;line-height:28.8889px;font-family:Montserrat;-inkscape-font-specification:'Montserrat Heavy';writing-mode:lr-tb;overflow:visible;fill:#000000;fill-opacity:1;fill-rule:evenodd;stroke:none;stroke-width:5.25;stroke-linejoin:round;stroke-opacity:1"
       x="689.74121"
       y="-451.35553"
       id="text71607"
       transform="scale(1,-1)"><tspan
         sodipodi:role="line"
         id="tspan71605"
         x="689.74121"
         y="-451.35553"
         style="font-style:normal;font-variant:normal;font-weight:500;font-stretch:normal;font-size:20px;font-family:Montserrat;-inkscape-font-specification:'Montserrat Medium';fill:#000000;fill-opacity:1;stroke:none;stroke-width:5.25;stroke-opacity:1">128/121/121</tspan></text><g
       id="g73117"
       transform="translate(-362.96222,-1717.949)"><rect
         style="fill:url(#linearGradient64563);fill-opacity:1;fill-rule:evenodd;stroke:none;stroke-width:0.75px;stroke-linecap:butt;stroke-linejoin:miter;stroke-opacity:1"
         id="rect71577"
         width="102.71587"
         height="47.935581"
         x="579.91656"
         y="-2173.5864"
         transform="scale(1,-1)" /><text
         xml:space="preserve"
         style="color:#000000;font-weight:900;font-size:20px;line-height:28.8889px;font-family:Montserrat;-inkscape-font-specification:'Montserrat Heavy';writing-mode:lr-tb;overflow:visible;fill:#000000;fill-opacity:1;fill-rule:evenodd;stroke:none;stroke-width:5.25;stroke-linejoin:round;stroke-opacity:1"
         x="700.50922"
         y="-2148.4604"
         id="text71581"
         transform="scale(1,-1)"><tspan
           sodipodi:role="line"
           id="tspan71579"
           x="700.50922"
           y="-2148.4604"
           style="font-style:normal;font-variant:normal;font-weight:500;font-stretch:normal;font-size:20px;font-family:Montserrat;-inkscape-font-specification:'Montserrat Medium';fill:#000000;fill-opacity:1;stroke:none;stroke-width:5.25;stroke-opacity:1">8+/182/164</tspan></text></g><rect
       style="fill:url(#linearGradient62163);fill-opacity:1;fill-rule:evenodd;stroke:none;stroke-width:0.75px;stroke-linecap:butt;stroke-linejoin:miter;stroke-opacity:1"
       id="rect73273"
       width="102.71587"
       height="47.935581"
       x="630.11768"
       y="-150.19597"
       transform="scale(1,-1)" /><rect
       style="fill:url(#linearGradient73269);fill-opacity:1;fill-rule:evenodd;stroke:none;stroke-width:0.75px;stroke-linecap:butt;stroke-linejoin:miter;stroke-opacity:1"
       id="rect73279"
       width="102.71587"
       height="47.935581"
       x="373.92749"
       y="-87.235252"
       transform="scale(1,-1)" /><text
       xml:space="preserve"
       style="color:#000000;font-weight:900;font-size:20px;line-height:28.8889px;font-family:Montserrat;-inkscape-font-specification:'Montserrat Heavy';writing-mode:lr-tb;overflow:visible;fill:#000000;fill-opacity:1;fill-rule:evenodd;stroke:none;stroke-width:5.25;stroke-linejoin:round;stroke-opacity:1"
       x="750.71033"
       y="-125.06998"
       id="text73277"
       transform="scale(1,-1)"><tspan
         sodipodi:role="line"
         id="tspan73275"
         x="750.71033"
         y="-125.06998"
         style="font-style:normal;font-variant:normal;font-weight:500;font-stretch:normal;font-size:20px;font-family:Montserrat;-inkscape-font-specification:'Montserrat Medium';fill:#000000;fill-opacity:1;stroke:none;stroke-width:5.25;stroke-opacity:1">26/17/53</tspan></text><text
       xml:space="preserve"
       style="color:#000000;font-weight:900;font-size:20px;line-height:28.8889px;font-family:Montserrat;-inkscape-font-specification:'Montserrat Heavy';writing-mode:lr-tb;overflow:visible;fill:#000000;fill-opacity:1;fill-rule:evenodd;stroke:none;stroke-width:5.25;stroke-linejoin:round;stroke-opacity:1"
       x="494.52014"
       y="-62.109261"
       id="text73283"
       transform="scale(1,-1)"><tspan
         sodipodi:role="line"
         id="tspan73281"
         x="494.52014"
         y="-62.109261"
         style="font-style:normal;font-variant:normal;font-weight:500;font-stretch:normal;font-size:20px;font-family:Montserrat;-inkscape-font-specification:'Montserrat Medium';fill:#000000;fill-opacity:1;stroke:none;stroke-width:5.25;stroke-opacity:1">148/193/24</tspan></text><rect
       style="fill:url(#linearGradient62175);fill-opacity:1;fill-rule:evenodd;stroke:none;stroke-width:0.75px;stroke-linecap:butt;stroke-linejoin:miter;stroke-opacity:1"
       id="rect71613"
       width="102.71587"
       height="47.935581"
       x="347.69815"
       y="-257.45541"
       transform="scale(1,-1)" /><text
       xml:space="preserve"
       style="color:#000000;font-weight:900;font-size:20px;line-height:28.8889px;font-family:Montserrat;-inkscape-font-specification:'Montserrat Heavy';writing-mode:lr-tb;overflow:visible;fill:#000000;fill-opacity:1;fill-rule:evenodd;stroke:none;stroke-width:5.25;stroke-linejoin:round;stroke-opacity:1"
       x="468.29077"
       y="-232.32945"
       id="text71617"
       transform="scale(1,-1)"><tspan
         sodipodi:role="line"
         id="tspan71615"
         x="468.29077"
         y="-232.32945"
         style="font-style:normal;font-variant:normal;font-weight:500;font-stretch:normal;font-size:20px;font-family:Montserrat;-inkscape-font-specification:'Montserrat Medium';fill:#000000;fill-opacity:1;stroke:none;stroke-width:5.25;stroke-opacity:1">253/75/113</tspan></text></g></svg>
